<svg width="372" height="127" viewBox="0 0 372 127" fill="none" xmlns="http://www.w3.org/2000/svg">
<g clip-path="url(#clip0_288_4060)">
<path d="M364.076 0.128174C368.946 0.128174 372 3.7782 372 9.44468C372 15.2133 369.023 18.8633 364.076 18.8633C359.01 18.8633 356.073 15.3664 356.073 9.59782C356.073 3.75267 359.127 0.128174 364.076 0.128174ZM364.076 0.919438C360.751 0.919438 359.861 4.31422 359.861 9.52126C359.861 14.7537 360.751 18.0721 364.076 18.0721C367.323 18.0721 368.211 14.7537 368.211 9.52126C368.211 4.31422 367.362 0.919438 364.076 0.919438Z" fill="white"/>
<path d="M345.867 8.65342V8.75551C350.042 9.29153 352.516 10.9506 352.516 13.4265C352.516 16.7448 349.191 18.8633 344.204 18.8633C341.769 18.8633 340.184 18.4038 338.908 17.8678C337.749 17.3828 336.512 16.617 336.512 15.8003C336.512 15.1877 337.478 14.7028 338.986 14.7028C340.145 14.7028 340.61 15.9535 341.072 16.617C341.537 17.3318 342.387 18.0465 344.204 18.0465C347.065 18.0465 348.727 16.2597 348.727 13.3499C348.727 11.5632 347.568 9.06181 343.47 9.24047C343.006 9.266 342.233 9.31705 341.886 9.31705C341.498 9.31705 341.343 9.29153 341.46 8.83208C341.614 8.37265 341.847 8.27054 342.233 8.27054C342.619 8.27054 343.121 8.34712 343.547 8.34712C345.712 8.34712 348.07 7.17299 348.07 4.41632C348.07 2.50197 346.949 0.919438 344.475 0.919438C343.16 0.919438 342.04 1.30231 341.498 2.04252C341.189 2.47644 341.111 2.88485 341.111 3.31875C341.111 4.05898 339.952 4.56947 338.522 4.56947C337.632 4.56947 337.13 4.31422 337.13 3.80373C337.13 2.32329 340.067 0.128174 344.475 0.128174C348.456 0.128174 351.627 1.7107 351.627 4.41632C351.627 7.01984 348.766 8.14292 345.867 8.65342Z" fill="white"/>
<path d="M329.585 6.68774C330.861 6.68774 331.905 7.35139 331.905 8.24475C331.905 9.11259 330.861 9.80176 329.585 9.80176C328.232 9.80176 327.188 9.11259 327.188 8.24475C327.188 7.35139 328.232 6.68774 329.585 6.68774ZM329.585 15.7235C330.861 15.7235 331.905 16.3872 331.905 17.3061C331.905 18.1483 330.861 18.8376 329.585 18.8376C328.232 18.8376 327.188 18.1483 327.188 17.3061C327.188 16.3872 328.232 15.7235 329.585 15.7235Z" fill="white"/>
<path d="M314.468 0.128174C319.339 0.128174 322.393 3.7782 322.393 9.44468C322.393 15.2133 319.417 18.8633 314.468 18.8633C309.404 18.8633 306.466 15.3664 306.466 9.59782C306.466 3.75267 309.52 0.128174 314.468 0.128174ZM314.468 0.919438C311.143 0.919438 310.255 4.31422 310.255 9.52126C310.255 14.7537 311.143 18.0721 314.468 18.0721C317.715 18.0721 318.605 14.7537 318.605 9.52126C318.605 4.31422 317.754 0.919438 314.468 0.919438Z" fill="white"/>
<path d="M289.417 16.3619H295.759C298.967 16.3619 299.701 16.2088 300.436 15.8003C301.363 15.2643 301.905 14.6262 302.485 13.8094C302.6 13.6307 302.717 13.6052 303.104 13.6818C303.451 13.7584 303.529 13.8349 303.49 13.9881C302.987 15.2899 302.214 17.1021 301.556 18.4294C299.082 18.3528 296.879 18.3528 294.405 18.3528C291.892 18.3528 289.689 18.3528 287.214 18.4294C286.867 18.4294 286.75 18.3783 286.75 17.9699C286.75 17.5615 286.789 17.5361 287.021 17.3063C289.224 14.9324 290.617 13.5797 293.786 10.8741C296.957 8.16845 298.774 6.79011 298.774 4.46737C298.774 2.45092 297.498 0.919439 295.101 0.919439C293.322 0.919439 292.28 1.58308 291.776 2.34882C291.505 2.7317 291.39 3.36981 291.39 4.1866C291.39 4.87576 290.036 5.33521 288.761 5.33521C287.95 5.33521 287.331 5.13101 287.331 4.41632C287.331 2.80827 290.424 0.128174 295.101 0.128174C299.857 0.128174 302.561 2.11909 302.561 4.56947C302.561 7.76004 299.431 8.98523 295.796 11.359C291.776 13.9626 290.578 15.0857 289.417 16.3619Z" fill="white"/>
<path d="M278.26 11.7665C279.884 11.7665 281.197 11.5113 282.86 10.6179C283.092 10.4648 283.246 10.5158 283.439 10.6434C283.671 10.7711 283.671 10.8732 283.478 11.0518C281.816 12.3281 279.884 13.4512 277.796 13.4512C276.172 13.4512 274.935 13.3235 273.002 12.5833C270.721 11.792 269.29 11.256 267.823 11.256C266.199 11.256 265.116 11.3837 263.144 12.3025C262.989 12.3791 262.796 12.3536 262.603 12.2004C262.449 12.0728 262.449 11.9962 262.603 11.8686C264.304 10.6179 266.199 9.59692 268.324 9.59692C269.909 9.59692 271.031 9.7756 273.002 10.4137C275.206 11.1029 276.713 11.7665 278.26 11.7665Z" fill="white"/>
<path d="M251.045 0.128174C255.916 0.128174 258.97 3.7782 258.97 9.44468C258.97 15.2133 255.994 18.8633 251.045 18.8633C245.98 18.8633 243.043 15.3664 243.043 9.59782C243.043 3.75267 246.097 0.128174 251.045 0.128174ZM251.045 0.919438C247.72 0.919438 246.831 4.31422 246.831 9.52126C246.831 14.7537 247.72 18.0721 251.045 18.0721C254.292 18.0721 255.182 14.7537 255.182 9.52126C255.182 4.31422 254.331 0.919438 251.045 0.919438Z" fill="white"/>
<path d="M231.715 0.128174C236.586 0.128174 239.64 3.7782 239.64 9.44468C239.64 15.2133 236.664 18.8633 231.715 18.8633C226.651 18.8633 223.713 15.3664 223.713 9.59782C223.713 3.75267 226.767 0.128174 231.715 0.128174ZM231.715 0.919438C228.39 0.919438 227.502 4.31422 227.502 9.52126C227.502 14.7537 228.39 18.0721 231.715 18.0721C234.962 18.0721 235.852 14.7537 235.852 9.52126C235.852 4.31422 235.001 0.919438 231.715 0.919438Z" fill="white"/>
<path d="M216.553 6.68774C217.829 6.68774 218.873 7.35139 218.873 8.24475C218.873 9.11259 217.829 9.80176 216.553 9.80176C215.2 9.80176 214.156 9.11259 214.156 8.24475C214.156 7.35139 215.2 6.68774 216.553 6.68774ZM216.553 15.7235C217.829 15.7235 218.873 16.3872 218.873 17.3061C218.873 18.1483 217.829 18.8376 216.553 18.8376C215.2 18.8376 214.156 18.1483 214.156 17.3061C214.156 16.3872 215.2 15.7235 216.553 15.7235Z" fill="white"/>
<path d="M206.077 13.5026V14.6256C206.038 16.2336 206 16.54 206.387 17.1271C206.695 17.6376 207.932 17.6631 209.208 17.7396C209.402 17.7396 209.517 17.7907 209.517 18.0969C209.517 18.4033 209.441 18.4289 209.208 18.4289C207.778 18.3778 205.961 18.3011 204.531 18.3011C203.062 18.3011 201.167 18.3778 199.737 18.4289C199.428 18.4289 199.35 18.4033 199.35 18.0969C199.35 17.7907 199.466 17.7651 199.737 17.7396C200.742 17.6631 202.057 17.612 202.326 17.2291C202.752 16.6931 202.791 16.0296 202.83 14.6767V13.5281H196.529C195.214 13.5281 194.17 13.5536 193.126 13.5536C192.778 13.5536 192.663 13.477 192.663 12.89C192.663 12.3284 192.663 12.3029 193.05 11.869C196.722 7.70845 199.622 4.5434 203.487 0.459444L206.038 0C206.194 0 206.309 0.0510502 206.309 0.255248C206.231 2.29723 206.231 4.3392 206.155 6.68746L206.077 12.5581C207.392 12.5581 208.705 12.5071 210.059 12.4305C210.252 12.4305 210.329 12.4816 210.291 12.6092L209.981 13.4004C209.942 13.5281 209.866 13.5536 209.634 13.5536C208.512 13.5026 207.198 13.5026 206.077 13.5026ZM202.83 12.5837L202.907 7.14691C202.945 5.25809 202.984 4.2371 203.101 2.52694C200.162 5.66648 197.147 8.93364 194.402 12.2008C194.17 12.456 194.248 12.5837 194.712 12.5837H202.83Z" fill="white"/>
<path d="M178.128 2.62904L176.659 2.93533C176.272 3.01191 176.118 2.98639 175.962 2.65456C175.847 2.34827 175.886 2.29723 176.349 2.19512C178.862 1.58254 181.414 0.842316 183.81 0C184.197 0 184.429 0.153149 184.429 0.306297C184.39 2.32274 184.274 3.77764 184.274 5.84515V13.6812C184.274 16.2082 184.313 16.5145 184.7 17.0249C185.125 17.5354 186.555 17.5609 188.14 17.6631C188.411 17.6886 188.488 17.7651 188.488 18.046C188.488 18.3522 188.411 18.4033 188.14 18.4033C186.439 18.3522 184.351 18.3011 182.727 18.3011C180.872 18.3011 178.978 18.3522 177.162 18.4033C176.852 18.4033 176.774 18.3522 176.774 18.046C176.774 17.7651 176.891 17.6886 177.162 17.6631C178.707 17.5865 180.06 17.5609 180.524 17.0249C180.95 16.4634 180.95 15.3658 180.95 13.6812V4.64549C180.95 3.7266 180.834 3.06297 180.524 2.75667C180.331 2.57798 180.06 2.45036 179.519 2.45036C179.172 2.45036 178.707 2.50142 178.128 2.62904Z" fill="white"/>
<path d="M90.8568 13.8674V11.6159C90.8568 10.8497 90.8324 10.2556 90.7596 9.47375C91.6093 9.69265 91.9733 9.81775 92.8229 10.1148H97.3621V7.25348H92.3132C90.978 8.64506 89.3275 9.72393 87.2156 10.6308C87.0942 10.6777 86.8758 10.537 86.973 10.4744C88.7692 9.37995 90.5897 7.48802 91.5121 5.86189C91.8277 5.31465 92.0462 4.79867 92.1432 4.32959C94.1823 4.72049 94.8134 4.90812 94.8134 5.12702C94.8134 5.28337 94.5463 5.36155 93.7938 5.43973C93.454 5.95571 93.0899 6.42479 92.6773 6.86259H103.77C104.863 6.01826 105.057 5.95571 105.203 5.95571C105.372 5.95571 105.567 6.00261 106.707 6.62804C107.241 6.90949 107.363 7.01894 107.363 7.11275C107.363 7.20657 107.241 7.25348 106.999 7.25348H99.1826V10.1148H102.751C103.819 9.3174 103.94 9.2705 104.11 9.2705C104.28 9.2705 104.426 9.30177 105.567 9.86465C106.101 10.1461 106.174 10.2556 106.174 10.3494C106.174 10.4588 106.076 10.5057 105.834 10.5057H99.1826V13.8674H104.474C105.615 12.9918 105.809 12.9293 105.955 12.9293C106.101 12.9293 106.295 12.9918 107.484 13.6016C108.043 13.8987 108.14 14.0081 108.14 14.1176C108.14 14.2114 108.067 14.2583 107.824 14.2583H99.1826C99.2069 16.1972 99.2555 17.6669 99.2555 18.1986C99.2555 18.5738 98.867 18.7614 98.1145 18.7614C97.5078 18.7614 97.265 18.6207 97.265 18.308C97.265 17.9796 97.3621 16.8538 97.3621 14.2583H88.5264C87.9196 14.2583 87.4584 14.2896 86.7545 14.3521L86.5117 13.758C87.2884 13.8361 87.7983 13.8674 88.5022 13.8674H90.8568ZM92.6044 13.8674H97.3621V10.5057H92.6044V13.8674Z" fill="white"/>
<path d="M69.199 9.40611L69.4688 9.43153C70.8172 8.03333 73.3344 7.39778 75.3122 7.39778C80.6164 7.39778 83.628 9.68574 83.628 12.8889C83.628 16.2192 79.8972 18.7614 74.5032 18.7614C69.154 18.7614 64.8838 16.0667 64.8838 11.7449C64.8838 7.44862 68.345 4.49968 73.4692 2.28798C75.492 1.37278 78.8184 0.330483 80.5714 0C80.931 0 81.1558 0 81.785 0.457594C82.0098 0.635547 82.0997 0.813501 82.0997 0.940611C82.0997 1.09314 81.9648 1.19483 81.6952 1.19483C79.178 1.27109 77.0204 1.77953 75.3572 2.44051C72.2556 3.76245 70.0082 6.12668 69.199 9.40611ZM74.3682 8.3638C72.4354 8.3638 70.8172 9.15188 69.6934 10.423C69.289 10.906 69.1092 11.2365 69.1092 11.9991C69.1092 16.0159 71.4016 17.9732 74.5032 17.9732C77.5148 17.9732 79.2678 15.7616 79.2678 12.9652C79.2678 10.3976 77.7396 8.3638 74.3682 8.3638Z" fill="white"/>
<path d="M46.2412 15.3618H53.3368C56.9279 15.3618 57.7499 15.2168 58.5719 14.8304C59.6103 14.3231 60.216 13.7193 60.865 12.9464C60.9948 12.7773 61.1245 12.7531 61.5573 12.8256C61.9467 12.8981 62.0332 12.9705 61.99 13.1154C61.4275 14.3473 60.5622 16.0622 59.8266 17.3182C57.0576 17.2457 54.5915 17.2457 51.8225 17.2457C49.0102 17.2457 46.544 17.2457 43.7751 17.3182C43.3856 17.3182 43.2559 17.2698 43.2559 16.8834C43.2559 16.497 43.2991 16.4728 43.5586 16.2554C46.0248 14.0091 47.5825 12.729 51.1301 10.1687C54.678 7.60841 56.7114 6.30411 56.7114 4.10613C56.7114 2.19798 55.2837 0.748765 52.6013 0.748765C50.6111 0.748765 49.4429 1.37676 48.8804 2.10137C48.5775 2.46367 48.4477 3.06751 48.4477 3.84044C48.4477 4.49258 46.9335 4.92736 45.5057 4.92736C44.5971 4.92736 43.9048 4.73413 43.9048 4.05782C43.9048 2.53613 47.3662 0 52.6013 0C57.9229 0 60.9515 1.88399 60.9515 4.20273C60.9515 7.22194 57.4471 8.38132 53.38 10.6276C48.8804 13.0913 47.5392 14.1541 46.2412 15.3618Z" fill="white"/>
<path d="M31.0456 0C36.778 0 40.3721 3.65515 40.3721 9.32956C40.3721 15.1062 36.869 18.7614 31.0456 18.7614C25.0857 18.7614 21.6279 15.2596 21.6279 9.48293C21.6279 3.62959 25.2221 0 31.0456 0ZM31.0456 0.792375C27.133 0.792375 26.0864 4.19191 26.0864 9.40624C26.0864 14.6461 27.133 17.9691 31.0456 17.9691C34.8671 17.9691 35.9136 14.6461 35.9136 9.40624C35.9136 4.19191 34.9127 0.792375 31.0456 0.792375Z" fill="white"/>
<path d="M2.98533 15.3618H10.0809C13.672 15.3618 14.494 15.2168 15.316 14.8304C16.3544 14.3231 16.9602 13.7193 17.6092 12.9464C17.7389 12.7773 17.8687 12.7531 18.3014 12.8256C18.6908 12.8981 18.7773 12.9705 18.7341 13.1154C18.1716 14.3473 17.3064 16.0622 16.5707 17.3182C13.8018 17.2457 11.3356 17.2457 8.56661 17.2457C5.75434 17.2457 3.28819 17.2457 0.519189 17.3182C0.129797 17.3182 0 17.2698 0 16.8834C0 16.497 0.0432656 16.4728 0.30286 16.2554C2.76901 14.0091 4.32658 12.729 7.87436 10.1687C11.4222 7.60841 13.4556 6.30411 13.4556 4.10613C13.4556 2.19798 12.0279 0.748765 9.34539 0.748765C7.35518 0.748765 6.18699 1.37676 5.62454 2.10137C5.32169 2.46367 5.19189 3.06751 5.19189 3.84044C5.19189 4.49258 3.67758 4.92736 2.24982 4.92736C1.34124 4.92736 0.648986 4.73413 0.648986 4.05782C0.648986 2.53613 4.11024 0 9.34539 0C14.667 0 17.6957 1.88399 17.6957 4.20273C17.6957 7.22194 14.1912 8.38132 10.1242 10.6276C5.62454 13.0913 4.28331 14.1541 2.98533 15.3618Z" fill="white"/>
<path d="M362.419 116.435C365.367 117.374 368.122 118.511 370.013 119.919C371.134 120.759 372 121.575 372 122.242C372 122.909 371.455 123.28 370.687 123.28C370.238 123.28 369.821 123.058 369.309 122.514C367.193 120.166 364.855 118.461 361.714 117.028C359.793 118.659 357.71 120.067 355.466 121.204C353.319 122.316 351.075 123.206 349.217 123.725C348.897 123.824 348.576 123.898 348.353 123.898C348.159 123.898 348 123.725 348 123.601C348 123.478 348.129 123.329 348.321 123.255C352.166 121.624 355.498 119.82 358.702 117.201C361.073 115.298 362.835 113.469 364.759 110.924C364.855 110.801 364.886 110.751 364.886 110.702C364.886 110.652 364.822 110.652 364.63 110.652C363.156 110.726 359.503 111.097 356.266 111.591C355.627 111.69 355.21 111.789 354.953 111.913C354.665 112.036 354.473 112.16 354.024 112.16C353.479 112.16 352.711 111.74 352.037 111.023C351.429 110.38 351.171 110.034 351.171 109.614C351.171 109.367 351.333 109.095 351.492 109.095C351.621 109.095 351.845 109.244 352.037 109.392C352.87 110.01 353.448 110.331 354.153 110.331C354.665 110.331 355.754 110.257 356.683 110.183C359.182 109.985 361.843 109.787 364.181 109.54C364.726 109.491 364.983 109.367 365.271 109.17C365.496 108.997 365.719 108.898 366.039 108.898C366.521 108.898 366.873 109.021 367.546 109.491C368.412 110.109 368.667 110.38 368.667 110.677C368.667 110.924 368.508 111.023 367.867 111.221C367.418 111.344 366.905 111.665 366.521 112.135C365.655 113.198 364.085 114.927 362.419 116.435Z" fill="white"/>
<path d="M344.601 117.135C344.601 117.988 344.23 118.44 343.297 118.44C342.645 118.44 342.24 118.088 341.899 117.486C341.059 115.981 340.283 114.953 339.258 113.95C338.325 113.047 337.239 112.269 336.057 111.592C335.684 111.391 335.499 111.241 335.499 111.115C335.499 110.914 335.684 110.814 335.872 110.814C336.089 110.814 336.337 110.889 336.741 111.015C338.543 111.617 340.252 112.495 341.775 113.598C343.141 114.577 344.601 116.132 344.601 117.135ZM328.57 112.946C328.57 112.695 328.29 112.394 327.544 111.968C327.233 111.792 327.171 111.742 327.171 111.642C327.171 111.466 327.606 111.341 327.949 111.341C328.382 111.341 328.973 111.516 329.751 111.943C330.683 112.47 331.584 113.172 331.584 113.824C331.584 114.225 331.336 114.426 330.807 114.577C330.558 114.652 330.31 114.827 329.967 115.103C328.632 116.182 327.326 117.135 325.742 118.088C324.034 119.117 322.139 120.045 320.181 120.697C319.776 120.848 319.559 120.898 319.403 120.898C319.186 120.898 319 120.772 319 120.572C319 120.421 319.155 120.321 319.466 120.17C321.393 119.167 323.101 118.063 324.592 116.985C325.804 116.057 326.86 115.128 327.699 114.276C328.29 113.649 328.57 113.272 328.57 112.946ZM343.173 105.898C344.726 105.898 346 106.926 346 108.18C346 109.435 344.726 110.463 343.173 110.463C341.619 110.463 340.345 109.435 340.345 108.18C340.345 106.926 341.619 105.898 343.173 105.898ZM343.173 106.7C342.147 106.7 341.339 107.353 341.339 108.18C341.339 109.008 342.147 109.66 343.173 109.66C344.198 109.66 345.006 109.008 345.006 108.18C345.006 107.353 344.198 106.7 343.173 106.7Z" fill="white"/>
<path d="M318.532 109.617C318.719 109.617 319 109.798 319 109.952C319 110.081 318.937 110.235 318.782 110.415C316.94 112.859 314.538 115.175 311.855 117.31C309.327 119.343 306.644 121.093 303.71 122.894C303.366 123.099 303.055 123.331 302.93 123.485C302.68 123.82 302.337 124 301.932 124C301.215 124 300.622 123.563 299.935 122.997C298.968 122.148 298.593 121.53 298.593 120.938C298.593 120.552 298.717 120.295 298.937 120.295C299.061 120.295 299.155 120.372 299.373 120.578C299.997 121.196 300.371 121.479 300.871 121.479C301.182 121.479 301.681 121.35 302.337 121.015C305.083 119.703 307.954 117.979 310.668 116.05C313.477 114.017 316.129 111.907 318.095 109.849C318.25 109.695 318.407 109.617 318.532 109.617ZM298.342 109C298.468 109 298.656 109 298.998 109.051C300.308 109.283 301.557 109.746 302.462 110.235C303.835 110.981 304.334 111.65 304.334 112.602C304.334 113.271 303.835 113.734 303.148 113.734C302.494 113.734 302.213 113.528 301.807 112.859C301.494 112.37 301.121 111.804 300.496 111.136C299.842 110.467 299.029 109.926 298.25 109.515C298.094 109.437 298 109.309 298 109.206C298 109.103 298.157 109 298.342 109Z" fill="white"/>
<path d="M282.141 113.835C284.383 113.269 286.414 112.729 287.967 112.351C288.385 112.243 288.564 112.081 288.773 111.893C289.043 111.65 289.191 111.569 289.461 111.569C289.789 111.569 290.178 111.731 291.074 112.351C291.791 112.864 292 113.107 292 113.458C292 113.808 291.762 113.97 291.254 114.024C290.924 114.051 290.715 114.132 290.477 114.348C289.252 115.454 287.43 117.019 285.816 118.098C285.576 118.233 285.428 118.287 285.277 118.287C285.129 118.287 284.949 118.125 284.949 118.017C284.949 117.882 285.068 117.748 285.219 117.586C286.443 116.399 287.519 115.238 288.924 113.404C289.012 113.296 288.924 113.188 288.773 113.215C287.101 113.593 284.473 114.321 282.44 114.888C282.619 115.616 282.828 116.318 283.037 117.154C283.605 119.178 284.143 121.066 284.682 122.901C284.83 123.414 284.949 123.818 284.949 124.169C284.949 124.547 284.561 124.898 284.113 124.898C283.576 124.898 283.187 124.79 283.068 124.196C282.5 121.849 281.963 119.474 281.424 117.37C281.246 116.587 281.066 115.886 280.916 115.292C279.213 115.778 277.959 116.183 276.883 116.56C276.375 116.776 276.197 116.884 276.018 117.046C275.838 117.208 275.629 117.316 275.359 117.316C275.002 117.316 274.703 117.181 273.986 116.56C273.269 115.94 273 115.481 273 114.942C273 114.753 273.09 114.537 273.209 114.537C273.328 114.537 273.389 114.591 273.537 114.726C274.045 115.13 274.404 115.373 274.852 115.373C275.24 115.373 275.689 115.346 276.375 115.184C277.69 114.888 279.125 114.564 280.617 114.159C280.318 112.972 280.051 112.081 279.811 111.272C279.662 110.813 279.543 110.463 279.363 110.247C279.244 110.085 279.004 110.031 278.736 110.004C278.496 109.977 278.258 109.977 277.988 109.977C277.779 109.977 277.66 109.923 277.66 109.788C277.66 109.653 277.81 109.437 278.168 109.221C278.527 109.006 278.795 108.898 279.184 108.898C279.723 108.898 280.318 109.141 280.887 109.356C281.754 109.761 281.932 110.004 281.932 110.247C281.932 110.436 281.842 110.598 281.754 110.732C281.664 110.867 281.604 110.975 281.604 111.11C281.604 111.218 281.604 111.407 281.664 111.677C281.783 112.351 281.932 112.972 282.141 113.835Z" fill="white"/>
<path d="M258.46 115.542C260.386 115.228 261.786 114.962 263.339 114.672C263.774 114.599 264.084 114.479 264.302 114.309C264.582 114.116 264.956 114.068 265.514 114.068C266.105 114.092 266.819 114.189 267.254 114.358C267.721 114.527 268 114.793 268 115.083C268 115.518 267.628 115.76 266.851 115.76C266.321 115.76 265.544 115.76 264.707 115.832C263.277 115.953 261.661 116.146 258.709 116.654C259.207 118.805 259.797 121.102 260.263 122.842C260.386 123.253 260.542 123.785 260.542 124.099C260.542 124.582 260.044 124.896 259.393 124.896C258.74 124.921 258.398 124.582 258.274 123.857C257.932 121.923 257.342 119.095 256.876 117.017C254.856 117.379 253.179 117.718 251.593 118.128C250.693 118.37 250.288 118.491 250.133 118.66C249.821 118.926 249.605 118.999 249.2 118.999C248.486 118.999 247.181 118.419 246.372 117.669C246.156 117.452 246 117.21 246 116.992C246 116.823 246.093 116.702 246.218 116.702C246.311 116.702 246.528 116.799 246.684 116.872C247.46 117.21 247.958 117.331 248.423 117.331C248.89 117.331 249.542 117.21 250.412 117.041C252.277 116.678 254.358 116.291 256.628 115.856C256.379 114.648 256.1 113.512 255.819 112.327C254.544 112.593 253.458 112.811 252.495 113.028C251.842 113.173 251.189 113.246 250.879 113.415C250.63 113.56 250.412 113.608 250.102 113.608C249.605 113.608 248.951 113.367 248.268 112.859C247.523 112.327 247.181 111.989 247.181 111.723C247.181 111.506 247.305 111.385 247.43 111.385C247.584 111.385 247.679 111.433 247.865 111.53C248.549 111.892 249.107 112.086 249.916 112.086C250.381 112.086 251.002 111.989 251.749 111.868C252.805 111.699 254.235 111.481 255.54 111.215C255.135 109.596 254.886 108.605 254.607 107.711C254.514 107.421 254.358 107.203 254.142 107.034C253.893 106.865 253.365 106.816 252.588 106.792C252.37 106.792 252.246 106.72 252.246 106.599C252.246 106.454 252.495 106.284 252.681 106.188C252.991 106.043 253.426 105.898 253.893 105.898C254.7 105.898 255.446 105.994 256.286 106.26C257.03 106.478 257.404 106.768 257.404 107.106C257.404 107.3 257.279 107.493 257.124 107.614C257 107.735 256.876 107.904 256.907 108.266C256.937 108.871 257.093 109.668 257.372 110.829C258.709 110.587 260.014 110.321 261.163 110.055C261.351 110.007 261.63 109.91 261.909 109.717C262.221 109.523 262.686 109.378 263.06 109.378C263.588 109.378 264.209 109.427 264.675 109.548C265.11 109.668 265.39 109.934 265.39 110.176C265.39 110.49 265.203 110.684 264.83 110.732C264.333 110.804 263.774 110.901 263.06 110.998C261.474 111.264 259.765 111.578 257.653 111.965C257.9 113.173 258.181 114.285 258.46 115.542Z" fill="white"/>
<path d="M227.447 113.684L222.11 114.17C221.351 114.23 220.896 114.331 220.188 114.493L219.835 113.745C220.998 113.765 221.478 113.745 222.009 113.684L227.447 113.199V109.801C225.423 110.105 223.273 110.307 220.871 110.448C220.694 110.448 220.594 110.125 220.77 110.105C225.247 109.457 229.343 108.547 232.302 107.455C233.667 106.97 234.78 106.444 235.563 105.898C236.98 106.687 237.712 107.192 237.712 107.415C237.712 107.657 237.333 107.738 236.347 107.556C234.071 108.406 231.77 109.033 229.292 109.498V113.037L235.259 112.511C236.271 111.237 236.398 111.176 236.549 111.176C236.751 111.176 236.904 111.237 238.269 111.925C238.876 112.228 238.977 112.349 238.977 112.491C238.977 112.572 238.851 112.653 238.649 112.673L229.292 113.522V117.143L236.904 116.415C237.941 115.1 238.067 115.019 238.269 115.019C238.447 115.019 238.598 115.1 240.014 115.808C240.647 116.132 240.772 116.233 240.772 116.394C240.772 116.475 240.647 116.556 240.394 116.576L229.292 117.648V121.147C229.292 122.26 229.671 122.522 233.288 122.522C237.283 122.522 238.294 122.28 238.673 121.794C239.053 121.269 239.255 120.702 239.812 119.206C239.837 119.104 240.09 119.145 240.09 119.246C240.065 119.893 240.039 120.662 240.039 121.228C240.039 121.592 240.19 121.734 240.443 121.835C240.874 122.017 241 122.179 241 122.442C241 122.907 240.545 123.251 239.61 123.514C238.572 123.776 236.904 123.898 233.388 123.898C228.433 123.898 227.42 123.473 227.42 121.41C227.42 121.006 227.447 120.116 227.447 117.83L221.302 118.417C220.543 118.498 220.037 118.558 219.353 118.7L219 117.972C220.139 117.992 220.594 117.972 221.2 117.911L227.447 117.325V113.684Z" fill="white"/>
<path d="M192.96 114.812V115.311C192.96 115.734 192.6 115.888 191.881 115.888C191.273 115.888 191.079 115.753 191.079 115.426C191.079 114.793 191.189 113.679 191.189 110.144C191.189 108.53 191.189 107.762 191.024 106.898C191.992 107.147 192.323 107.263 193.181 107.628H200.124C200.926 106.994 201.064 106.936 201.229 106.936C201.424 106.936 201.561 106.994 202.392 107.512C202.834 107.762 202.918 107.877 202.918 107.993C202.918 108.146 202.806 108.242 202.171 108.55V110.163C202.171 113.064 202.281 114.543 202.281 114.965C202.281 115.369 201.894 115.561 201.202 115.561C200.621 115.561 200.4 115.426 200.4 115.081V114.812H197.606V117.463H199.847C200.76 116.694 200.953 116.598 201.147 116.598C201.313 116.598 201.506 116.694 202.529 117.271C203 117.52 203.111 117.636 203.111 117.751C203.111 117.885 203.027 117.943 202.752 117.943H197.606V120.575C199.432 120.344 201.174 120.056 202.724 119.768C202.889 119.729 202.973 119.979 202.834 120.017C199.571 121.036 196.058 121.823 191.771 122.534C191.576 122.995 191.439 123.148 191.134 123.148C190.802 123.148 190.747 123.091 190 121.228C190.664 121.228 191.687 121.17 192.739 121.093C193.706 121.016 194.702 120.92 195.698 120.805V117.943H192.324C191.687 117.943 191.218 117.962 190.553 118.058L190.276 117.347C191.024 117.424 191.548 117.463 192.268 117.463H195.698V114.812H192.96ZM192.96 114.332H195.698V111.412H192.96V114.332ZM200.4 114.332V111.412H197.606V114.332H200.4ZM200.4 110.932V108.108H197.606V110.932H200.4ZM195.698 108.108H192.96V110.932H195.698V108.108ZM205.655 107.628H211.989C212.929 107.013 213.068 106.955 213.234 106.955C213.455 106.955 213.648 107.013 214.645 107.705C215.005 107.973 215.142 108.127 215.142 108.262C215.142 108.473 214.976 108.55 214.285 108.646C214.036 108.665 213.898 108.703 213.648 108.876C212.239 109.856 211.132 110.547 209.942 111.162C210.329 111.469 210.552 111.777 210.552 112.084C210.552 112.545 210.108 112.91 209.527 112.91C209.029 112.91 208.836 112.776 208.505 112.199C207.895 111.277 207.205 110.567 205.96 109.856C205.876 109.798 205.987 109.683 206.098 109.702C207.508 109.971 208.642 110.375 209.445 110.836C210.552 109.933 211.271 109.126 211.989 108.108H205.682C205.019 108.108 204.66 108.127 204.024 108.223L203.747 107.532C204.411 107.589 204.908 107.628 205.655 107.628ZM209.639 113.563V118.404C209.639 120.747 209.721 121.612 209.721 122.323C209.721 122.976 209.473 123.302 208.808 123.571C208.366 123.744 207.647 123.898 207.148 123.898C206.818 123.898 206.761 123.802 206.652 123.437C206.54 122.918 205.96 122.668 203.581 122.303C203.415 122.284 203.415 122.034 203.581 122.034C205.24 122.13 206.347 122.188 207.176 122.188C207.508 122.188 207.647 122.092 207.647 121.842V113.563H205.074C204.411 113.563 203.995 113.582 203.248 113.698L202.973 112.968C203.885 113.045 204.327 113.083 205.019 113.083H212.929C213.815 112.43 213.953 112.353 214.119 112.353C214.34 112.353 214.479 112.449 215.447 113.121C215.889 113.448 216 113.563 216 113.698C216 113.909 215.806 113.986 215.115 114.063C214.755 114.101 214.673 114.178 214.258 114.601C213.539 115.254 212.46 116.022 211.629 116.579C211.519 116.637 211.298 116.521 211.353 116.445C212.073 115.503 212.708 114.447 213.095 113.563H209.639Z" fill="white"/>
<path d="M174.986 123.266H182.646C184.044 122.004 184.258 121.902 184.419 121.902C184.582 121.902 184.796 122.004 186.194 122.88C186.866 123.328 187 123.47 187 123.592C187 123.714 186.92 123.775 186.651 123.775H165.554C164.773 123.775 164.103 123.816 163.268 123.898L163 123.124C163.994 123.246 164.666 123.266 165.526 123.266H172.918V111.031C172.918 108.913 172.891 107.651 172.755 106.898C175.658 107.101 175.981 107.285 175.981 107.509C175.981 107.712 175.793 107.855 174.986 108.079V114.186H180.389C181.706 112.924 181.92 112.843 182.081 112.843C182.242 112.843 182.458 112.924 183.883 113.861C184.501 114.268 184.608 114.369 184.608 114.512C184.608 114.634 184.528 114.695 184.258 114.695H174.986V123.266Z" fill="white"/>
<path d="M144.769 112.568H153.76C154.669 111.955 154.803 111.876 154.964 111.876C155.15 111.876 155.284 111.955 156.274 112.588C156.676 112.884 156.782 113.003 156.782 113.122C156.782 113.339 156.515 113.418 155.605 113.478C154.026 114.407 152.903 114.941 151.405 115.534C151.539 115.573 151.566 115.652 151.566 115.732C151.566 115.91 151.405 116.028 150.709 116.246V116.957H157.986C159.244 115.87 159.432 115.751 159.592 115.751C159.779 115.751 159.967 115.87 161.277 116.641C161.893 117.017 162 117.135 162 117.254C162 117.373 161.92 117.452 161.653 117.452H150.709V119.034C150.736 121.031 150.789 121.525 150.789 122.158C150.789 122.751 150.469 123.107 150.04 123.403C149.612 123.7 148.969 123.898 148.141 123.898C147.767 123.898 147.686 123.838 147.606 123.483C147.498 122.909 146.91 122.613 144.528 122.237C144.368 122.217 144.395 121.96 144.555 121.98C146.348 122.098 147.472 122.158 148.275 122.158C148.622 122.158 148.756 122.059 148.756 121.822V117.452H140.034C139.445 117.452 138.963 117.472 138.268 117.571L138 116.819C138.776 116.918 139.284 116.957 139.98 116.957H148.756C148.756 115.949 148.756 115.732 148.676 115.138C149.585 115.237 150.2 115.316 150.628 115.376C151.993 114.545 152.822 113.893 153.706 113.062H144.823C144.127 113.062 143.672 113.082 143.003 113.201L142.71 112.43C143.512 112.528 143.966 112.568 144.769 112.568ZM158.897 110.472H141.344C141.344 112.133 140.381 113.161 139.177 113.161C138.562 113.161 138.08 112.805 138.08 112.35C138.08 112.014 138.294 111.757 138.91 111.5C140.194 110.966 140.649 110.334 140.836 109.088C140.836 109.009 141.104 109.009 141.13 109.088C141.211 109.404 141.264 109.701 141.291 109.978H153.518C154.214 109.246 154.856 108.436 155.392 107.645C155.766 107.071 156.061 106.518 156.247 106.023C158.362 106.715 158.843 106.972 158.843 107.17C158.843 107.388 158.602 107.506 157.693 107.506C156.702 108.396 155.472 109.246 154.295 109.978H158.709C159.618 109.246 159.752 109.167 159.94 109.167C160.127 109.167 160.288 109.246 161.358 110.017C161.866 110.393 161.973 110.531 161.973 110.65C161.973 110.947 161.785 111.026 160.93 111.045C160.608 111.065 160.529 111.105 160.341 111.243C159.806 111.678 159.03 112.133 158.147 112.548C158.04 112.608 157.852 112.489 157.906 112.41C158.335 111.797 158.656 111.223 158.897 110.472ZM150.361 109.325C149.773 109.325 149.585 109.167 149.399 108.396C149.157 107.546 148.595 106.695 147.872 106.083C147.792 106.003 147.926 105.865 148.06 105.905C150.254 106.518 151.512 107.467 151.512 108.416C151.512 108.95 151.031 109.325 150.361 109.325ZM144.796 109.582C144.234 109.582 143.993 109.385 143.753 108.633C143.431 107.783 142.95 107.012 142.307 106.478C142.227 106.419 142.361 106.28 142.468 106.3C144.662 106.854 145.893 107.763 145.893 108.693C145.893 109.187 145.439 109.582 144.796 109.582Z" fill="white"/>
<path d="M133.329 112.582H122.629C123.51 115.358 125.013 117.386 127.344 119.128C129.184 120.544 131.593 121.521 133.925 122.171C134.054 122.21 134.003 122.344 133.873 122.382C133.148 122.573 132.837 122.841 132.526 123.454C132.422 123.664 132.293 123.76 132.111 123.76C131.878 123.76 131.438 123.588 130.738 123.243C128.873 122.363 127.059 121.042 125.868 119.855C124.132 118.152 122.862 115.874 122.189 112.946C121.645 115.913 120.608 117.846 118.872 119.511C116.826 121.482 114.209 122.86 110.245 123.894C110.064 123.932 109.908 123.664 110.064 123.607C114.054 122.057 116.541 120.143 118.277 117.693C119.209 116.372 119.857 114.764 120.22 112.582H112.862C112.11 112.582 111.566 112.62 110.711 112.697L110.452 111.97C111.411 112.065 112.059 112.104 112.888 112.104H120.271C120.427 110.994 120.505 109.73 120.505 108.295C120.505 107.797 120.479 107.491 120.401 106.898C123.044 107.185 123.458 107.3 123.458 107.568C123.458 107.74 123.329 107.855 122.577 108.084C122.577 108.831 122.551 109.539 122.5 110.209C122.448 110.879 122.396 111.51 122.318 112.104H129.65C130.92 110.975 131.101 110.86 131.256 110.86C131.438 110.86 131.671 110.975 132.966 111.759C133.536 112.123 133.666 112.276 133.666 112.391C133.666 112.525 133.588 112.582 133.329 112.582Z" fill="white"/>
<path d="M94.8739 110.993V112.418C94.8739 119.759 95.0106 122.316 95.0106 123.156C95.0106 123.624 94.5735 123.859 93.7542 123.859C93.126 123.859 92.8803 123.663 92.8803 123.292C92.8803 122.668 93.0168 120.598 93.0168 114.117V110.993H91.023C90.4769 110.993 90.0672 111.013 89.3845 111.091L89.1113 110.368C89.8487 110.466 90.3129 110.505 90.9957 110.505H93.0168C93.0168 107.616 92.9622 106.698 92.8255 106.073C95.5567 106.269 95.7752 106.327 95.7752 106.581C95.7752 106.737 95.6659 106.815 94.8739 107.089V110.505H96.5672C97.4138 109.744 97.6051 109.646 97.7689 109.646C97.9601 109.646 98.1512 109.744 99.1071 110.29C99.5168 110.564 99.6534 110.681 99.6534 110.798C99.6534 110.915 99.5441 110.993 99.2984 110.993H94.8739ZM86.2164 114.917V123.234C86.2164 123.663 85.8613 123.898 85.0693 123.898C84.5503 123.898 84.1953 123.722 84.1953 123.292C84.1953 122.902 84.3319 121.496 84.3592 117.572C84.3592 116.752 84.3865 115.913 84.3865 115.093C83.4306 115.796 82.3928 116.421 81.3003 116.948C81.1638 117.006 80.918 116.811 81.0272 116.733C82.8024 115.425 84.523 113.609 85.6155 112.047C86.0526 111.384 86.3802 110.759 86.5714 110.212C88.5925 110.817 89.0567 111.032 89.0567 111.227C89.0567 111.423 88.8382 111.501 88.0462 111.559C87.3634 112.438 86.5714 113.277 85.6701 114.058C86.7899 114.195 86.981 114.293 86.981 114.468C86.981 114.624 86.8718 114.722 86.2164 114.917ZM101.866 112.516H100.445C99.8718 112.516 99.4622 112.555 98.7521 112.633L98.4789 111.872C99.2709 112.008 99.7353 112.028 100.418 112.028H103.75C104.706 111.188 104.897 111.091 105.061 111.091C105.252 111.091 105.443 111.188 106.426 111.794C106.863 112.086 107 112.223 107 112.34C107 112.457 106.918 112.516 106.645 112.516H103.75V118.334C103.75 120.657 103.805 121.204 103.805 122.043C103.832 122.687 103.504 123.019 103.176 123.253C102.794 123.546 102.111 123.722 101.347 123.722C101.019 123.722 100.937 123.644 100.855 123.332C100.746 122.765 100.445 122.57 98.4517 122.238C98.3152 122.219 98.3424 122.004 98.4789 122.004C99.8445 122.102 100.664 122.141 101.374 122.141C101.729 122.141 101.866 122.063 101.866 121.828V112.516ZM97.9055 109.412C97.4959 109.412 97.3592 109.295 97.1681 108.826C96.9496 108.24 96.4306 107.635 95.7752 107.167C95.6932 107.108 95.8571 106.991 95.9663 107.011C97.8782 107.421 98.7521 108.006 98.7521 108.65C98.7521 109.06 98.3697 109.412 97.9055 109.412ZM98.3425 120.169C97.7143 120.169 97.5505 119.857 97.4957 118.353C97.4138 116.674 96.895 114.976 96.0209 113.238C95.9663 113.102 96.3214 113.023 96.4307 113.141C98.2332 115.054 99.4622 117.319 99.4622 118.939C99.4622 119.7 99.0252 120.169 98.3425 120.169ZM99.7899 108.279L99.4895 107.538C100.227 107.635 100.718 107.674 101.347 107.674H103.204C104.105 106.854 104.324 106.757 104.515 106.757C104.679 106.757 104.897 106.854 105.88 107.46C106.29 107.713 106.426 107.83 106.426 107.948C106.426 108.104 106.345 108.162 106.071 108.162H101.374C100.855 108.162 100.445 108.201 99.7899 108.279ZM81.6554 111.52C81.5189 111.579 81.273 111.364 81.4097 111.286C83.021 110.271 84.4957 108.826 85.5063 107.538C85.9705 106.952 86.2983 106.405 86.4895 105.898C88.292 106.386 89.2205 106.757 89.2205 106.971C89.2205 107.167 88.9202 107.264 87.9916 107.284C86.2164 109.119 84.2226 110.505 81.6554 111.52ZM87.9643 121.282C87.8551 121.399 87.5 121.282 87.5546 121.145C88.6744 119.037 89.521 115.776 89.521 113.765C89.521 113.59 89.521 113.414 89.4937 113.141C91.7058 113.433 92.1702 113.57 92.1702 113.824C92.1702 114 92.0336 114.058 91.3781 114.234C90.6953 117.28 89.7668 119.388 87.9643 121.282Z" fill="white"/>
<path d="M78.9849 118.198H67.1409C68.6918 119.653 70.4966 120.556 72.809 121.185C74.8676 121.716 77.3775 122.03 79.9154 122.069C80.0282 122.069 80.0282 122.266 79.9154 122.286C79.0694 122.502 78.6746 122.796 78.2798 123.582C78.2234 123.72 78.0542 123.799 77.8286 123.799C77.5748 123.799 76.9826 123.72 76.4468 123.622C74.8112 123.327 72.8937 122.718 71.5682 122.168C69.6224 121.323 67.9869 120.183 66.6331 118.375C66.041 119.731 65.0257 120.753 63.5593 121.539C61.3879 122.796 58.5116 123.543 54.197 123.897C53.9996 123.916 53.9149 123.602 54.1124 123.563C57.863 122.954 60.5702 121.991 62.4314 120.596C63.3902 119.888 64.0952 119.043 64.5182 118.198H56.7914C56.0582 118.198 55.4095 118.238 54.62 118.316L54.338 117.57C55.2403 117.668 55.9454 117.707 56.7632 117.707H64.7156C64.9694 116.823 65.0822 116.253 65.0541 115.723C67.8457 115.998 68.156 116.057 68.156 116.312C68.156 116.489 67.9869 116.646 67.169 116.823C67.1125 117.118 67.028 117.393 66.9152 117.707H75.488C76.6443 116.744 76.8416 116.666 77.0108 116.666C77.2082 116.666 77.4057 116.744 78.7028 117.452C79.2387 117.746 79.3515 117.884 79.3515 118.022C79.3515 118.139 79.2668 118.198 78.9849 118.198ZM67.5356 114.858H75.4317C76.616 113.895 76.8416 113.797 77.0108 113.797C77.18 113.797 77.4057 113.895 78.6464 114.603C79.1822 114.917 79.3232 115.035 79.3232 115.153C79.3232 115.29 79.2105 115.349 78.9284 115.349H56.7068C55.9454 115.349 55.3532 115.369 54.5071 115.467L54.2252 114.701C55.1557 114.819 55.8326 114.858 56.6504 114.858H65.4488V112.382H59.4139C58.7654 112.382 58.145 112.402 57.4399 112.5L57.158 111.734C58.0322 111.852 58.6244 111.891 59.3576 111.891H65.4488V109.592H57.8065C57.1298 109.592 56.5376 109.611 55.8044 109.71L55.4941 108.943C56.3401 109.061 56.9887 109.101 57.7502 109.101H68.7201C69.3405 108.413 69.848 107.666 70.271 107.018C70.5248 106.625 70.694 106.251 70.8069 105.898C73.0065 106.507 73.6832 106.762 73.6832 106.978C73.6832 107.195 73.514 107.273 72.4706 107.313C71.5682 108.02 70.6376 108.609 69.7071 109.101H74.642C75.8265 108.197 76.0238 108.099 76.1931 108.099C76.3904 108.099 76.5878 108.197 77.7723 108.825C78.3362 109.16 78.4773 109.277 78.4773 109.395C78.4773 109.533 78.3645 109.592 78.0824 109.592H67.5356V111.891H72.8937C73.9935 111.007 74.2191 110.908 74.3882 110.908C74.5574 110.908 74.783 111.007 75.9674 111.635C76.475 111.93 76.5878 112.068 76.5878 112.186C76.5878 112.304 76.5032 112.382 76.2212 112.382H67.5356V114.858ZM63.0518 108.924C62.516 108.924 62.3186 108.786 62.1211 108.315C61.7545 107.47 61.2752 106.782 60.3728 106.212C60.2881 106.153 60.4292 106.035 60.542 106.055C62.939 106.409 64.2925 107.254 64.2925 108.079C64.2925 108.59 63.8415 108.924 63.0518 108.924Z" fill="white"/>
<path d="M40.6906 111.101H43.2443V110.844C43.2443 109.816 43.2443 109.688 43.1379 109.131C45.2395 109.324 45.4524 109.431 45.4524 109.645C45.4524 109.795 45.3459 109.902 44.8404 110.095V111.101H47.2878C48.1391 110.309 48.3253 110.202 48.4849 110.202C48.6711 110.202 48.8839 110.309 49.7618 110.887C50.1342 111.144 50.2672 111.294 50.2672 111.444C50.2672 111.572 50.1874 111.636 49.9214 111.636H45C45.8247 112.407 46.7027 112.964 47.6868 113.371C48.6711 113.756 49.8415 114.013 50.9322 114.142C51.0386 114.163 51.0121 114.313 50.9057 114.335C50.4268 114.42 50.081 114.677 49.9214 115.212C49.8416 115.405 49.7618 115.512 49.6022 115.512C49.416 115.512 49.0702 115.384 48.4849 115.105C47.8199 114.763 47.2613 114.399 46.7559 114.035C46.0907 113.542 45.4789 112.943 44.7607 111.958C44.8404 113.2 44.8671 114.313 44.8671 114.634C44.8671 115.084 44.601 115.255 43.9095 115.255C43.3774 115.255 43.2443 115.127 43.2443 114.677C43.2443 114.399 43.2975 113.756 43.3507 112.793C41.9143 114.078 40.4511 114.891 38.5625 115.577C38.4295 115.619 38.2432 115.384 38.3763 115.298C40.265 114.185 41.6482 113.135 42.7124 111.636H36.3279V112.365C38.1635 112.557 39.0147 112.964 39.0147 113.585C39.0147 113.906 38.7486 114.163 38.4028 114.163C38.1368 114.163 37.9772 114.078 37.6579 113.714C37.2324 113.285 36.8334 112.964 36.3279 112.729C36.3545 113.971 36.3811 115.17 36.4077 115.577C36.4077 116.026 36.1417 116.176 35.4235 116.176C34.9446 116.176 34.7583 116.048 34.7583 115.726C34.7583 115.448 34.8115 114.356 34.8649 113.093C33.6678 114.163 32.3377 114.956 30.7947 115.491C30.6352 115.534 30.4489 115.341 30.582 115.255C32.3908 114.12 33.5879 113.071 34.519 111.636H32.9761C32.3908 111.636 31.9652 111.679 31.3268 111.765L31.1139 110.951C31.7258 111.08 32.1781 111.101 32.9761 111.101H34.785V110.908C34.785 110.009 34.785 109.838 34.7052 109.153C36.7535 109.345 36.9929 109.452 36.9929 109.666C36.9929 109.816 36.8865 109.902 36.3279 110.095V111.101H38.2167C38.9082 110.373 39.0679 110.266 39.2807 110.266C39.4403 110.266 39.5734 110.352 40.6906 111.101ZM40.9567 117.354V119.11H45.6652C46.7292 118.146 46.942 118.039 47.1017 118.039C47.2613 118.039 47.4741 118.146 48.6179 118.831C49.15 119.195 49.2829 119.324 49.2829 119.452C49.2829 119.581 49.2032 119.645 48.9371 119.645H40.9567V121.401H47.1282C48.2189 120.395 48.4317 120.309 48.5913 120.309C48.751 120.309 48.9903 120.395 50.1342 121.101C50.6396 121.465 50.7727 121.594 50.7727 121.722C50.7727 121.872 50.6928 121.936 50.4268 121.936H40.9567C40.9567 123.242 41.0099 123.885 41.0099 124.292C41.0099 124.891 40.6906 125.255 40.2384 125.534C39.8393 125.769 39.2807 125.898 38.6689 125.898C38.2964 125.898 38.2699 125.833 38.1368 125.469C37.924 124.87 37.6047 124.699 35.3436 124.356C35.184 124.335 35.184 124.035 35.3436 124.035C36.8865 124.099 37.8709 124.12 38.6689 124.12C38.9881 124.12 39.0945 124.035 39.0945 123.799V121.936H32.3908C31.7258 121.936 31.2204 121.979 30.4224 122.065L30.1563 121.251C31.0342 121.358 31.6195 121.401 32.3908 121.401H39.0945V119.645H33.8539C33.1889 119.645 32.6568 119.688 31.8854 119.774L31.6195 118.938C32.4972 119.088 33.0825 119.11 33.8007 119.11H39.0945V117.482C36.8067 117.611 34.5988 117.632 32.3642 117.525C32.2313 117.525 32.2313 117.268 32.3642 117.268C36.8067 117.011 40.3714 116.519 42.7921 116.005C43.9627 115.769 44.6809 115.555 45.2395 115.32C46.4897 116.176 46.8622 116.562 46.8622 116.754C46.8622 116.883 46.7559 116.968 46.4897 116.968C46.277 116.968 45.9843 116.904 45.5853 116.776C43.9892 117.033 42.4463 117.225 40.9567 117.354ZM40.0788 108.232H47.075C48.1922 107.161 48.352 107.075 48.5116 107.075C48.6978 107.075 48.9106 107.161 50.1342 107.911C50.7195 108.296 50.7993 108.403 50.7993 108.553C50.7993 108.703 50.6928 108.767 50.4268 108.767H30.4224V110.309C30.4224 114.784 30.1563 117.482 29.5445 119.666C28.9592 121.722 28.0814 123.371 26.3522 125.298C26.2458 125.405 25.9532 125.277 26.0064 125.148C27.0704 123.114 27.6025 121.422 27.975 119.517C28.3474 117.568 28.4804 115.362 28.4804 111.829C28.4804 109.774 28.4006 108.532 28.2942 107.247C29.305 107.611 29.7307 107.803 30.7149 108.232H38.19V107.225C38.19 106.861 38.1635 106.562 38.0304 105.898C40.664 106.133 41.0099 106.305 41.0099 106.54C41.0099 106.711 40.797 106.861 40.0788 107.118V108.232Z" fill="white"/>
<path d="M19.9844 115.151H14.063C13.2954 115.756 12.473 116.322 11.5683 116.83C13.6518 117.22 14.858 117.962 14.858 118.763C14.858 119.212 14.4467 119.602 13.8711 119.602C13.4325 119.602 13.268 119.485 12.9938 118.958C12.5552 118.177 12.0069 117.572 11.1023 117.084C9.1833 118.079 6.99016 118.821 4.331 119.426C4.13909 119.465 3.91979 119.192 4.08427 119.133C7.73034 117.962 11.1845 115.873 13.1858 113.785C13.734 113.238 14.1452 112.691 14.4467 112.184C16.6125 112.73 16.969 112.847 16.969 113.082C16.969 113.277 16.6947 113.375 15.8998 113.433C15.4885 113.863 15.0774 114.273 14.6386 114.663H19.9296C20.752 114.058 20.9165 113.98 21.0811 113.98C21.2728 113.98 21.4374 114.058 22.4517 114.624C22.9178 114.917 23 115.034 23 115.151C23 115.366 22.8629 115.444 22.0132 115.639C17.901 120.676 12.2811 122.979 2.6039 123.897C2.41201 123.916 2.32977 123.604 2.52166 123.565C11.5409 121.925 16.5028 119.485 19.9844 115.151ZM14.4467 108.787H9.04622C8.30603 109.47 7.48361 110.114 6.55154 110.681C8.52535 110.973 9.62192 111.637 9.62192 112.379C9.62192 112.789 9.21071 113.16 8.68983 113.16C8.33346 113.16 8.16897 113.023 7.92225 112.633C7.42878 111.813 7.01757 111.383 6.16774 110.915C4.63254 111.793 2.85063 112.516 0.602676 113.199C0.438192 113.257 0.246293 112.984 0.410777 112.906C3.48115 111.598 6.00326 109.763 7.81258 107.655C8.38829 107.03 8.77209 106.483 9.0188 105.898C10.9378 106.386 11.5957 106.62 11.5957 106.854C11.5957 107.05 11.3764 107.147 10.554 107.225C10.225 107.596 9.89605 107.967 9.56709 108.299H14.4194C15.2418 107.694 15.4063 107.616 15.5707 107.616C15.7626 107.616 15.9272 107.694 16.9415 108.318C17.3526 108.592 17.4623 108.709 17.4623 108.826C17.4623 109.002 17.3526 109.06 16.448 109.275C12.8568 113.589 7.86741 116.127 0.191465 117.396C-0.000434278 117.435 -0.0826767 117.162 0.109222 117.103C6.93533 115.229 11.5409 112.477 14.4467 108.787Z" fill="white"/>
<path d="M184.559 88.5882C198.096 88.5882 209.07 77.6039 209.07 64.0541C209.07 50.5043 198.096 39.52 184.559 39.52C171.021 39.52 160.047 50.5043 160.047 64.0541C160.047 77.6039 171.021 88.5882 184.559 88.5882Z" fill="#D9A441"/>
<path d="M347.373 89.4774C360.91 89.4774 371.885 78.4931 371.885 64.9433C371.885 51.3935 360.91 40.4092 347.373 40.4092C333.836 40.4092 322.861 51.3935 322.861 64.9433C322.861 78.4931 333.836 89.4774 347.373 89.4774Z" fill="#D9A441"/>
<path d="M231.97 64.2264C233.598 64.2264 234.914 63.9713 236.579 63.0779C236.813 62.9247 236.967 62.9758 237.16 63.1033C237.394 63.2311 237.394 63.3331 237.199 63.5118C235.534 64.788 233.598 65.911 231.505 65.911C229.878 65.911 228.638 65.7835 226.701 65.0433C224.416 64.252 222.983 63.716 221.51 63.716C219.883 63.716 218.798 63.8435 216.823 64.7626C216.667 64.8391 216.474 64.8135 216.281 64.6604C216.125 64.5328 216.125 64.4562 216.281 64.3286C217.985 63.0779 219.883 62.0569 222.014 62.0569C223.603 62.0569 224.726 62.2356 226.701 62.8737C228.91 63.5628 230.42 64.2264 231.97 64.2264Z" fill="white"/>
<path d="M124.872 82.6023V84.4543C124.872 85.3615 124.13 85.7017 122.646 85.7017C121.533 85.7017 121.116 85.4371 121.116 84.6812C121.116 82.7157 121.394 79.9565 121.394 67.2943C121.394 60.3773 121.348 57.0132 121.116 53.9517C122.924 54.5187 123.712 54.821 125.428 55.6526H144.621C146.245 54.254 146.476 54.1407 146.754 54.1407C147.126 54.1407 147.404 54.254 149.072 55.3881C149.815 55.9171 149.953 56.144 149.953 56.3707C149.953 56.7109 149.721 56.9377 148.656 57.5046V65.0264C148.656 77.1595 148.886 82.451 148.886 84.1142C148.886 85.0213 148.145 85.3993 146.616 85.3993C145.502 85.3993 145.086 85.097 145.086 84.3409V82.6023H124.872ZM124.872 69.2974V81.6573H145.086V69.2974H124.872ZM145.086 68.3526V56.5974H124.872V68.3526H145.086Z" fill="white"/>
<path d="M259.461 58.148V58.4468C268.489 60.0158 273.838 64.8724 273.838 72.1198C273.838 81.8327 266.649 88.034 255.867 88.034C250.601 88.034 247.174 86.6891 244.415 85.1201C241.908 83.7006 239.233 81.459 239.233 79.0683C239.233 77.2751 241.323 75.8554 244.583 75.8554C247.09 75.8554 248.094 79.5165 249.096 81.459C250.099 83.5511 251.939 85.6431 255.867 85.6431C262.052 85.6431 265.647 80.4132 265.647 71.8955C265.647 66.6656 263.139 59.3434 254.279 59.8664C253.276 59.9412 251.605 60.0906 250.852 60.0906C250.016 60.0906 249.681 60.0158 249.932 58.671C250.267 57.3261 250.768 57.0273 251.605 57.0273C252.439 57.0273 253.527 57.2514 254.446 57.2514C259.127 57.2514 264.225 53.8145 264.225 45.7452C264.225 40.1416 261.801 35.5093 256.452 35.5093C253.61 35.5093 251.186 36.6301 250.016 38.7967C249.347 40.0668 249.179 41.2624 249.179 42.5325C249.179 44.6993 246.672 46.1936 243.579 46.1936C241.657 46.1936 240.57 45.4465 240.57 43.952C240.57 39.6186 246.923 33.1931 256.452 33.1931C265.061 33.1931 271.916 37.8254 271.916 45.7452C271.916 53.3662 265.73 56.6536 259.461 58.148Z" fill="white"/>
<path d="M68.7054 73.7176H50.5594C50.372 74.8429 50.0905 75.818 49.7624 76.7932C48.4496 80.8439 45.6831 84.3319 40.9943 87.1075C40.7128 87.2576 40.1971 86.92 40.4315 86.7324C43.7606 83.6193 45.4955 80.7689 46.5271 76.9431C47.4179 73.7551 47.8399 69.8919 47.8399 63.7409C47.8399 57.9273 47.7931 56.0896 47.5118 53.9517C49.4342 54.5893 50.1844 54.8893 51.7785 55.677H68.3302C69.7838 54.4018 70.0182 54.2517 70.2996 54.2517C70.6278 54.2517 70.9091 54.4018 72.644 55.452C73.3473 55.9395 73.5349 56.1271 73.5349 56.3896C73.5349 56.6521 73.3942 56.8022 72.2689 57.4398V65.0161C72.2689 80.5814 72.4095 81.8191 72.4095 83.6568C72.4095 85.1196 71.9406 85.8698 70.581 86.4323C69.8776 86.7699 68.6585 86.9949 67.8613 86.9949C67.1111 86.9949 66.9705 86.8449 66.8298 86.2074C66.6422 85.1196 65.095 84.4445 61.3907 83.9569C61.1094 83.9195 61.1094 83.4318 61.3907 83.4318C64.5324 83.6193 66.5485 83.6943 67.8613 83.6943C68.5178 83.6943 68.7054 83.4693 68.7054 82.9068V73.7176ZM68.7054 65.0536H51.3098C51.2628 67.6415 51.1222 70.2295 50.747 72.78H68.7054V65.0536ZM68.7054 64.116V56.6146H51.3566V64.116H68.7054Z" fill="white"/>
<path d="M22.5467 58.3618C31.0533 62.4258 34.6046 67.0267 34.6046 74.6949C34.6046 83.1299 27.915 90.0312 17.4262 90.0312C7.10262 90.0312 0 83.2065 0 75.2316C0 68.7904 4.79013 64.343 12.3057 60.8155C4.87272 57.1348 1.65177 53.1475 1.65177 46.7063C1.65177 40.1116 8.58922 33.7471 17.4262 33.7471C26.3458 33.7471 32.9529 39.1147 32.9529 45.8627C32.9529 51.8438 29.5668 55.2179 22.5467 58.3618ZM19.9039 56.9816C24.3637 54.9112 26.3458 50.9237 26.3458 45.9394C26.3458 40.1883 22.4642 36.1241 17.4262 36.1241C11.9754 36.1241 8.17627 40.2649 8.17627 45.5561C8.17627 49.8501 9.91064 52.764 19.9039 56.9816ZM14.866 62.0425C9.24992 64.9563 7.2678 69.634 7.2678 75.3084C7.2678 82.5164 11.5624 87.6541 17.5088 87.6541C23.7029 87.6541 27.915 82.7464 27.915 75.6917C27.915 70.094 24.694 66.5666 14.866 62.0425Z" fill="white"/>
<path d="M287.686 83.4914V85.3435C287.686 86.2507 286.945 86.5908 285.461 86.5908C284.348 86.5908 283.932 86.3263 283.932 85.5703C283.932 83.6049 284.21 80.8455 284.21 68.1833C284.21 61.2664 284.164 57.9024 283.932 54.8408C285.74 55.4078 286.528 55.7102 288.243 56.5418H307.437C309.06 55.1432 309.291 55.0299 309.569 55.0299C309.941 55.0299 310.218 55.1432 311.888 56.2771C312.629 56.8063 312.769 57.0332 312.769 57.2599C312.769 57.6 312.537 57.8268 311.471 58.3938V65.9155C311.471 78.0486 311.702 83.3402 311.702 85.0033C311.702 85.9105 310.961 86.2885 309.431 86.2885C308.318 86.2885 307.901 85.9861 307.901 85.23V83.4914H287.686ZM287.686 70.1866V82.5465H307.901V70.1866H287.686ZM307.901 69.2418V57.4866H287.686V69.2418H307.901Z" fill="white"/>
<path d="M89.6496 41.3753L86.619 42.264C85.8214 42.4863 85.5025 42.4121 85.1835 41.4493C84.9442 40.5606 85.0239 40.4125 85.981 40.1163C91.1648 38.3388 96.4283 36.1911 101.373 33.7471C102.171 33.7471 102.649 34.1914 102.649 34.6358C102.569 40.4866 102.33 44.708 102.33 50.7069V73.4435C102.33 80.7756 102.41 81.6643 103.207 83.1455C104.084 84.6267 107.035 84.7008 110.305 84.9971C110.863 85.0711 111.023 85.2933 111.023 86.1079C111.023 86.9967 110.863 87.1448 110.305 87.1448C106.796 86.9967 102.489 86.8485 99.1399 86.8485C95.3119 86.8485 91.404 86.9967 87.6557 87.1448C87.0177 87.1448 86.8583 86.9967 86.8583 86.1079C86.8583 85.2933 87.0975 85.0711 87.6557 84.9971C90.8459 84.7748 93.6372 84.7008 94.5941 83.1455C95.4714 81.5162 95.4714 78.3316 95.4714 73.4435V47.2261C95.4714 44.56 95.2321 42.6343 94.5941 41.7456C94.1953 41.2272 93.637 40.8569 92.5206 40.8569C91.8028 40.8569 90.8459 41.005 89.6496 41.3753Z" fill="white"/>
<path d="M344.945 50.7669H353.84C356.254 48.6169 356.466 48.5144 356.89 48.5144C357.355 48.5144 357.652 48.6169 359.644 49.982C361.423 51.2107 361.677 51.4495 361.677 51.7909C361.677 52.1322 361.465 52.3028 360.321 53.0194V58.9921C360.321 69.3333 360.617 74.8281 360.617 76.0567C360.617 77.6267 359.644 78.6164 357.864 79.2991C356.848 79.7085 355.746 79.9133 354.687 79.9133C354.052 79.9133 353.67 79.7427 353.375 79.026C352.824 77.5925 351.722 76.671 348.164 75.9884C347.91 75.9543 347.952 75.613 348.207 75.613C350.367 75.579 351.298 75.5448 352.909 75.4082C354.221 75.3059 354.687 74.8621 354.687 73.6676V65.7155H343.505C342.318 74.5892 337.151 78.1386 330.331 80.2546C330.077 80.3229 329.823 80.0157 330.035 79.9133C335.159 77.1489 338.252 73.7359 338.252 60.1866C338.252 53.429 338.252 51.1082 337.999 48.9922C342.911 49.8114 344.563 50.2891 344.945 50.7669ZM343.589 65.0329H354.687V58.5144H343.759V61.5176C343.759 62.7804 343.717 63.9409 343.589 65.0329ZM354.687 51.4496H344.86C344.69 51.6543 344.31 51.8591 343.759 52.1662V57.8317H354.687V51.4496Z" fill="white"/>
<path d="M185.945 76.9488H192.687C195.412 72.98 195.552 72.8344 195.936 72.8344C196.39 72.8344 196.53 72.9072 198.801 75.274C200.163 76.6939 200.303 76.8759 200.303 77.2765C200.303 77.5314 200.128 77.677 199.849 77.677H173.507C172.285 77.677 170.922 77.7499 168.931 77.9319L168.582 76.6939C170.888 76.8761 172.285 76.9488 173.507 76.9488H181.123V60.7097H175.429C174.207 60.7097 172.949 60.7826 170.957 60.9645L170.608 59.7266C172.913 59.9087 174.207 59.9814 175.429 59.9814H181.123V52.0076C181.123 49.568 181.123 48.3301 180.914 46.1819C186.817 46.546 187.411 46.9101 187.411 47.6018C187.411 48.0388 187.237 48.3666 185.945 48.8763V59.9814H190.382C193.141 56.0856 193.247 55.9763 193.595 55.9763C193.944 55.9763 194.119 56.0127 195.936 57.9425C197.752 59.8358 197.823 60.018 197.823 60.3092C197.823 60.5641 197.648 60.7097 197.369 60.7097H185.945V76.9488Z" fill="white"/>
</g>
<defs>
<clipPath id="clip0_288_4060">
<rect width="372" height="127" fill="white"/>
</clipPath>
</defs>
</svg>
