<svg width="272" height="112" viewBox="0 0 272 112" fill="none" xmlns="http://www.w3.org/2000/svg">
<path d="M95.7059 75.4072V76.8254C95.7059 77.52 95.1373 77.7805 94.0002 77.7805C93.1474 77.7805 92.8276 77.5779 92.8276 76.9991C92.8276 75.494 93.0408 73.3812 93.0408 63.6853C93.0408 58.3888 93.0053 55.8129 92.8276 53.4685C94.2134 53.9026 94.8175 54.1342 96.1322 54.7709H110.843C112.087 53.7001 112.264 53.6132 112.478 53.6132C112.762 53.6132 112.975 53.7001 114.254 54.5683C114.823 54.9735 114.929 55.1472 114.929 55.3209C114.929 55.5813 114.752 55.755 113.935 56.1891V61.9488C113.935 71.2394 114.112 75.2914 114.112 76.5649C114.112 77.2595 113.544 77.549 112.371 77.549C111.518 77.549 111.198 77.3174 111.198 76.7386V75.4072H95.7059ZM95.7059 65.2193V74.6836H111.198V65.2193H95.7059ZM111.198 64.4957V55.4945H95.7059V64.4957H111.198Z" fill="white"/>
<path d="M217.425 74.5588V75.977C217.425 76.6716 216.856 76.9321 215.719 76.9321C214.866 76.9321 214.546 76.7295 214.546 76.1507C214.546 74.6456 214.76 72.5328 214.76 62.837C214.76 57.5404 214.724 54.9645 214.546 52.6201C215.932 53.0543 216.536 53.2858 217.851 53.9225H232.562C233.806 52.8517 233.983 52.7648 234.196 52.7648C234.481 52.7648 234.694 52.8517 235.973 53.7199C236.542 54.1251 236.648 54.2988 236.648 54.4725C236.648 54.7329 236.471 54.9066 235.653 55.3407V61.1004C235.653 70.391 235.831 74.443 235.831 75.7165C235.831 76.4112 235.262 76.7006 234.09 76.7006C233.237 76.7006 232.917 76.469 232.917 75.8902V74.5588H217.425ZM217.425 64.3709V73.8352H232.917V64.3709H217.425ZM232.917 63.6473V54.6461H217.425V63.6473H232.917Z" fill="white"/>
<path d="M194.775 52.5657V52.8246C201.694 54.1842 205.794 58.3923 205.794 64.672C205.794 73.0882 200.285 78.4616 192.021 78.4616C187.985 78.4616 185.358 77.2962 183.244 75.9367C181.322 74.7066 179.272 72.7645 179.272 70.6928C179.272 69.139 180.874 67.909 183.372 67.909C185.294 67.909 186.063 71.0812 186.831 72.7645C187.6 74.5772 189.01 76.3899 192.021 76.3899C196.761 76.3899 199.516 71.8581 199.516 64.4778C199.516 59.946 197.594 53.6015 190.803 54.0547C190.035 54.1194 188.753 54.2489 188.177 54.2489C187.536 54.2489 187.28 54.1842 187.472 53.0189C187.728 51.8535 188.113 51.5946 188.753 51.5946C189.394 51.5946 190.227 51.7888 190.931 51.7888C194.519 51.7888 198.427 48.8108 198.427 41.8189C198.427 36.9634 196.569 32.9496 192.469 32.9496C190.291 32.9496 188.433 33.9207 187.536 35.7981C187.024 36.8987 186.896 37.9345 186.896 39.0351C186.896 40.9126 184.974 42.2073 182.603 42.2073C181.13 42.2073 180.297 41.5599 180.297 40.2651C180.297 36.5102 185.166 30.9426 192.469 30.9426C199.068 30.9426 204.321 34.9565 204.321 41.8189C204.321 48.4223 199.58 51.2709 194.775 52.5657Z" fill="white"/>
<path d="M52.658 68.6039H38.7503C38.6066 69.4655 38.391 70.2123 38.1394 70.959C37.1332 74.0607 35.0129 76.7317 31.4192 78.857C31.2036 78.9719 30.8083 78.7134 30.9879 78.5698C33.5395 76.186 34.8691 74.0033 35.6598 71.0739C36.3426 68.6327 36.666 65.6745 36.666 60.9644C36.666 56.5128 36.63 55.1055 36.4144 53.4685C37.8878 53.9567 38.4628 54.1865 39.6847 54.7896H52.3705C53.4845 53.8131 53.6642 53.6983 53.8798 53.6983C54.1314 53.6983 54.347 53.8131 55.6767 54.6173C56.2157 54.9907 56.3595 55.1343 56.3595 55.3353C56.3595 55.5363 56.2517 55.6512 55.3892 56.1395V61.9409C55.3892 73.8597 55.497 74.8075 55.497 76.2147C55.497 77.3348 55.1376 77.9092 54.0954 78.34C53.5564 78.5985 52.622 78.7708 52.0111 78.7708C51.4361 78.7708 51.3283 78.6559 51.2205 78.1677C51.0767 77.3348 49.8908 76.8179 47.0518 76.4445C46.8362 76.4158 46.8362 76.0424 47.0518 76.0424C49.4596 76.186 51.0049 76.2435 52.0111 76.2435C52.5142 76.2435 52.658 76.0711 52.658 75.6403V68.6039ZM52.658 61.9696H39.3253C39.2894 63.9513 39.1816 65.933 38.8941 67.8859H52.658V61.9696ZM52.658 61.2516V55.5076H39.3613V61.2516H52.658Z" fill="white"/>
<path d="M17.2806 52.1481C23.8003 55.5793 26.5222 59.4637 26.5222 65.9377C26.5222 73.0591 21.395 78.8856 13.356 78.8856C5.44369 78.8856 0 73.1238 0 66.3909C0 60.9527 3.67133 57.1978 9.43152 54.2198C3.73463 51.1123 1.26597 47.7458 1.26597 42.3077C1.26597 36.7401 6.58307 31.3667 13.356 31.3667C20.1923 31.3667 25.2562 35.8985 25.2562 41.5956C25.2562 46.6453 22.661 49.4938 17.2806 52.1481ZM15.255 50.9828C18.6731 49.2349 20.1923 45.8684 20.1923 41.6603C20.1923 36.8048 17.2173 33.3736 13.356 33.3736C9.17832 33.3736 6.26658 36.8696 6.26658 41.3366C6.26658 44.962 7.59585 47.4222 15.255 50.9828ZM11.3938 55.2557C7.08946 57.7158 5.57029 61.6649 5.57029 66.4556C5.57029 72.5411 8.86183 76.8787 13.4193 76.8787C18.1667 76.8787 21.395 72.7354 21.395 66.7793C21.395 62.0533 18.9263 59.0753 11.3938 55.2557Z" fill="white"/>
<path d="M68.7106 37.8394L66.3879 38.5935C65.7767 38.782 65.5322 38.7192 65.2877 37.9022C65.1043 37.1481 65.1654 37.0224 65.8989 36.7711C69.872 35.2629 73.9062 33.4405 77.6958 31.3667C78.3071 31.3667 78.6738 31.7437 78.6738 32.1208C78.6127 37.0853 78.4293 40.6673 78.4293 45.7574V65.0498C78.4293 71.2711 78.4905 72.0252 79.1017 73.282C79.7741 74.5388 82.0356 74.6017 84.5417 74.853C84.9696 74.9159 85.0918 75.1044 85.0918 75.7957C85.0918 76.5498 84.9696 76.6754 84.5417 76.6754C81.8523 76.5498 78.5516 76.4241 75.9844 76.4241C73.0504 76.4241 70.0553 76.5498 67.1825 76.6754C66.6935 76.6754 66.5713 76.5498 66.5713 75.7957C66.5713 75.1044 66.7546 74.9159 67.1825 74.853C69.6275 74.6645 71.7668 74.6017 72.5003 73.282C73.1727 71.8995 73.1727 69.1973 73.1727 65.0498V42.8039C73.1727 40.5416 72.9893 38.9077 72.5003 38.1536C72.1947 37.7137 71.7668 37.3995 70.9111 37.3995C70.361 37.3995 69.6275 37.5252 68.7106 37.8394Z" fill="white"/>
<path d="M74.3666 11.3984V9.32948C74.3666 8.62548 74.3468 8.07952 74.2872 7.36115C74.9818 7.56229 75.2795 7.67723 75.974 7.95021H79.685V5.32098H75.5573C74.4658 6.59968 73.1164 7.59102 71.3899 8.42433C71.2907 8.46743 71.1121 8.33813 71.1915 8.28066C72.66 7.27494 74.1483 5.53649 74.9024 4.04228C75.1604 3.53942 75.339 3.0653 75.4184 2.63428C77.0853 2.99346 77.6013 3.16587 77.6013 3.36701C77.6013 3.51069 77.383 3.58253 76.7678 3.65436C76.49 4.12849 76.1923 4.55951 75.855 4.96179H84.9239C85.8169 4.18596 85.9757 4.12849 86.0947 4.12849C86.2336 4.12849 86.3924 4.17159 87.3251 4.74628C87.7617 5.0049 87.8609 5.10547 87.8609 5.19167C87.8609 5.27788 87.7617 5.32098 87.5632 5.32098H81.1733V7.95021H84.0904C84.9636 7.21747 85.0628 7.17437 85.2017 7.17437C85.3406 7.17437 85.4597 7.20311 86.3924 7.72033C86.829 7.97894 86.8885 8.07952 86.8885 8.16572C86.8885 8.26629 86.8091 8.30939 86.6107 8.30939H81.1733V11.3984H85.4994C86.4321 10.5938 86.5908 10.5363 86.7099 10.5363C86.829 10.5363 86.9877 10.5938 87.9601 11.1541C88.4165 11.4271 88.4959 11.5277 88.4959 11.6283C88.4959 11.7145 88.4364 11.7576 88.2379 11.7576H81.1733C81.1931 13.5391 81.2328 14.8897 81.2328 15.3781C81.2328 15.723 80.9153 15.8954 80.3001 15.8954C79.804 15.8954 79.6056 15.7661 79.6056 15.4787C79.6056 15.177 79.685 14.1426 79.685 11.7576H72.4615C71.9654 11.7576 71.5884 11.7863 71.0129 11.8438L70.8145 11.2978C71.4495 11.3696 71.8662 11.3984 72.4417 11.3984H74.3666ZM75.7954 11.3984H79.685V8.30939H75.7954V11.3984Z" fill="white"/>
<path d="M55.5009 7.7566L55.7236 7.77757C56.8366 6.62456 58.9143 6.10046 60.5467 6.10046C64.9247 6.10046 67.4105 7.98721 67.4105 10.6286C67.4105 13.3749 64.3311 15.4713 59.8789 15.4713C55.4638 15.4713 51.9392 13.2491 51.9392 9.68527C51.9392 6.14239 54.796 3.71059 59.0256 1.88674C60.6951 1.13204 63.4406 0.272528 64.8876 0C65.1844 0 65.3699 0 65.8893 0.377348C66.0748 0.524094 66.149 0.670841 66.149 0.77566C66.149 0.901443 66.0377 0.985298 65.8151 0.985298C63.7374 1.04819 61.9566 1.46747 60.5838 2.01252C58.0238 3.10264 56.1688 5.05227 55.5009 7.7566ZM59.7676 6.89709C58.1722 6.89709 56.8366 7.54697 55.9091 8.59516C55.5751 8.99347 55.4267 9.266 55.4267 9.89491C55.4267 13.2072 57.3189 14.8214 59.8789 14.8214C62.3647 14.8214 63.8117 12.9976 63.8117 10.6915C63.8117 8.57419 62.5502 6.89709 59.7676 6.89709Z" fill="white"/>
<path d="M36.7219 12.7432H42.5785C45.5425 12.7432 46.221 12.623 46.8996 12.3024C47.7566 11.8817 48.2566 11.3807 48.7922 10.7396C48.8994 10.5993 49.0065 10.5793 49.3636 10.6394C49.685 10.6995 49.7564 10.7596 49.7207 10.8798C49.2565 11.9017 48.5423 13.3243 47.9352 14.3662C45.6497 14.3061 43.6141 14.3061 41.3286 14.3061C39.0074 14.3061 36.9719 14.3061 34.6863 14.3662C34.3649 14.3662 34.2578 14.3261 34.2578 14.0055C34.2578 13.6849 34.2935 13.6649 34.5078 13.4846C36.5433 11.6212 37.8289 10.5592 40.7572 8.43538C43.6855 6.3115 45.364 5.22953 45.364 3.40621C45.364 1.82332 44.1855 0.621132 41.9714 0.621132C40.3287 0.621132 39.3645 1.14208 38.9003 1.74318C38.6503 2.04373 38.5431 2.54464 38.5431 3.18581C38.5431 3.72679 37.2933 4.08745 36.1148 4.08745C35.3649 4.08745 34.7935 3.92716 34.7935 3.36614C34.7935 2.10383 37.6504 0 41.9714 0C46.3639 0 48.8637 1.56285 48.8637 3.48635C48.8637 5.99092 45.9711 6.95267 42.6142 8.81607C38.9003 10.8598 37.7932 11.7414 36.7219 12.7432Z" fill="white"/>
<path d="M25.4546 0C30.1861 0 33.1527 3.01416 33.1527 7.69348C33.1527 12.4571 30.2612 15.4713 25.4546 15.4713C20.5353 15.4713 17.6814 12.5836 17.6814 7.81995C17.6814 2.99308 20.648 0 25.4546 0ZM25.4546 0.653419C22.2251 0.653419 21.3615 3.4568 21.3615 7.75672C21.3615 12.0777 22.2251 14.8179 25.4546 14.8179C28.6089 14.8179 29.4726 12.0777 29.4726 7.75672C29.4726 3.4568 28.6465 0.653419 25.4546 0.653419Z" fill="white"/>
<path d="M2.46407 12.7432H8.32069C11.2847 12.7432 11.9632 12.623 12.6417 12.3024C13.4988 11.8817 13.9988 11.3807 14.5344 10.7396C14.6416 10.5993 14.7487 10.5793 15.1058 10.6394C15.4272 10.6995 15.4986 10.7596 15.4629 10.8798C14.9987 11.9017 14.2845 13.3243 13.6774 14.3662C11.3919 14.3061 9.35632 14.3061 7.0708 14.3061C4.74958 14.3061 2.71405 14.3061 0.428534 14.3662C0.107133 14.3662 0 14.3261 0 14.0055C0 13.6849 0.0357111 13.6649 0.249978 13.4846C2.28551 11.6212 3.57111 10.5592 6.49943 8.43538C9.42774 6.3115 11.1062 5.22953 11.1062 3.40621C11.1062 1.82332 9.92769 0.621132 7.7136 0.621132C6.07089 0.621132 5.10669 1.14208 4.64245 1.74318C4.39247 2.04373 4.28534 2.54464 4.28534 3.18581C4.28534 3.72679 3.03545 4.08745 1.85698 4.08745C1.10705 4.08745 0.535667 3.92716 0.535667 3.36614C0.535667 2.10383 3.39256 0 7.7136 0C12.1061 0 14.6059 1.56285 14.6059 3.48635C14.6059 5.99092 11.7133 6.95267 8.3564 8.81607C4.64245 10.8598 3.5354 11.7414 2.46407 12.7432Z" fill="white"/>
<path d="M265.083 101.897C266.902 102.683 268.602 103.634 269.769 104.813C270.461 105.516 270.994 106.199 270.994 106.757C270.994 107.316 270.658 107.626 270.184 107.626C269.907 107.626 269.65 107.44 269.334 106.985C268.029 105.02 266.586 103.593 264.648 102.394C263.462 103.759 262.177 104.937 260.793 105.889C259.469 106.819 258.085 107.564 256.938 107.998C256.74 108.081 256.543 108.143 256.404 108.143C256.286 108.143 256.187 107.998 256.187 107.895C256.187 107.791 256.266 107.667 256.384 107.605C258.757 106.24 260.813 104.731 262.79 102.538C264.253 100.946 265.34 99.4157 266.526 97.2856C266.586 97.1822 266.606 97.1409 266.606 97.0995C266.606 97.0581 266.566 97.0581 266.447 97.0581C265.538 97.1202 263.284 97.4304 261.287 97.844C260.892 97.9267 260.635 98.0094 260.477 98.1128C260.299 98.2162 260.18 98.3196 259.903 98.3196C259.567 98.3196 259.093 97.9681 258.678 97.3684C258.302 96.8307 258.144 96.5411 258.144 96.1896C258.144 95.9828 258.243 95.7553 258.342 95.7553C258.421 95.7553 258.559 95.8794 258.678 96.0035C259.192 96.5205 259.548 96.7893 259.983 96.7893C260.299 96.7893 260.971 96.7273 261.544 96.6652C263.086 96.4998 264.727 96.3343 266.171 96.1275C266.507 96.0862 266.665 95.9828 266.843 95.8173C266.981 95.6726 267.12 95.5898 267.317 95.5898C267.614 95.5898 267.831 95.6932 268.246 96.0862C268.78 96.6032 268.938 96.8307 268.938 97.0788C268.938 97.2856 268.84 97.3684 268.444 97.5338C268.167 97.6372 267.851 97.906 267.614 98.299C267.08 99.1882 266.111 100.636 265.083 101.897Z" fill="white"/>
<path d="M253.004 103.179C253.004 103.882 252.767 104.255 252.174 104.255C251.759 104.255 251.502 103.965 251.284 103.469C250.75 102.228 250.256 101.38 249.604 100.553C249.011 99.8084 248.319 99.1674 247.567 98.609C247.33 98.4435 247.211 98.3195 247.211 98.2161C247.211 98.0506 247.33 97.9679 247.449 97.9679C247.587 97.9679 247.745 98.0299 248.002 98.1333C249.149 98.6297 250.236 99.3535 251.205 100.263C252.075 101.07 253.004 102.352 253.004 103.179ZM242.803 99.7257C242.803 99.5189 242.625 99.2708 242.15 98.9192C241.953 98.7744 241.913 98.7331 241.913 98.6503C241.913 98.5056 242.19 98.4022 242.407 98.4022C242.684 98.4022 243.06 98.5469 243.554 98.8985C244.147 99.3328 244.72 99.9118 244.72 100.45C244.72 100.78 244.562 100.946 244.226 101.07C244.068 101.132 243.91 101.277 243.692 101.504C242.842 102.393 242.012 103.179 241.004 103.965C239.916 104.813 238.71 105.578 237.465 106.116C237.208 106.24 237.069 106.281 236.971 106.281C236.832 106.281 236.714 106.178 236.714 106.013C236.714 105.888 236.812 105.806 237.01 105.682C238.236 104.854 239.323 103.945 240.272 103.055C241.043 102.29 241.715 101.525 242.249 100.822C242.625 100.305 242.803 99.9946 242.803 99.7257ZM252.095 93.9146C253.083 93.9146 253.894 94.7624 253.894 95.7965C253.894 96.8305 253.083 97.6784 252.095 97.6784C251.106 97.6784 250.296 96.8305 250.296 95.7965C250.296 94.7624 251.106 93.9146 252.095 93.9146ZM252.095 94.5763C251.442 94.5763 250.928 95.114 250.928 95.7965C250.928 96.4789 251.442 97.0166 252.095 97.0166C252.747 97.0166 253.261 96.4789 253.261 95.7965C253.261 95.114 252.747 94.5763 252.095 94.5763Z" fill="white"/>
<path d="M235.598 96.4792C235.717 96.4792 235.895 96.624 235.895 96.7481C235.895 96.8515 235.855 96.9756 235.756 97.1203C234.59 99.085 233.068 100.946 231.367 102.663C229.766 104.296 228.066 105.703 226.208 107.15C225.99 107.316 225.792 107.502 225.713 107.626C225.555 107.895 225.338 108.04 225.081 108.04C224.626 108.04 224.25 107.688 223.815 107.233C223.202 106.551 222.965 106.054 222.965 105.579C222.965 105.268 223.044 105.062 223.183 105.062C223.262 105.062 223.321 105.124 223.459 105.289C223.855 105.785 224.092 106.013 224.408 106.013C224.606 106.013 224.922 105.909 225.338 105.641C227.077 104.586 228.896 103.2 230.616 101.649C232.395 100.016 234.076 98.3198 235.321 96.6654C235.42 96.5413 235.519 96.4792 235.598 96.4792ZM222.807 95.9829C222.886 95.9829 223.005 95.9829 223.222 96.0243C224.053 96.2104 224.843 96.5826 225.417 96.9756C226.287 97.5753 226.603 98.113 226.603 98.8782C226.603 99.4158 226.287 99.7881 225.852 99.7881C225.436 99.7881 225.259 99.6226 225.002 99.085C224.804 98.692 224.567 98.2371 224.171 97.6994C223.756 97.1617 223.242 96.7274 222.748 96.3965C222.649 96.3345 222.59 96.2311 222.59 96.1484C222.59 96.0656 222.688 95.9829 222.807 95.9829Z" fill="white"/>
<path d="M209.679 101.297C211.162 100.863 212.506 100.45 213.534 100.16C213.811 100.077 213.93 99.9532 214.068 99.8085C214.246 99.6223 214.345 99.5603 214.523 99.5603C214.74 99.5603 214.997 99.6844 215.59 100.16C216.065 100.553 216.203 100.739 216.203 101.008C216.203 101.277 216.045 101.401 215.709 101.442C215.492 101.463 215.353 101.525 215.195 101.69C214.384 102.538 213.179 103.738 212.111 104.565C211.953 104.668 211.854 104.71 211.755 104.71C211.656 104.71 211.538 104.586 211.538 104.503C211.538 104.399 211.617 104.296 211.716 104.172C212.526 103.262 213.238 102.373 214.167 100.967C214.226 100.884 214.167 100.801 214.068 100.822C212.961 101.111 211.221 101.67 209.877 102.104C209.996 102.662 210.134 103.2 210.272 103.841C210.648 105.392 211.004 106.84 211.36 108.246C211.459 108.639 211.538 108.949 211.538 109.218C211.538 109.508 211.281 109.776 210.984 109.776C210.628 109.776 210.371 109.694 210.292 109.239C209.916 107.44 209.561 105.62 209.205 104.007C209.086 103.407 208.968 102.869 208.869 102.414C207.742 102.786 206.911 103.097 206.2 103.386C205.864 103.552 205.745 103.634 205.626 103.758C205.508 103.882 205.369 103.965 205.191 103.965C204.954 103.965 204.757 103.862 204.282 103.386C203.808 102.911 203.63 102.559 203.63 102.145C203.63 102.001 203.689 101.835 203.768 101.835C203.847 101.835 203.887 101.876 203.985 101.98C204.322 102.29 204.559 102.476 204.855 102.476C205.112 102.476 205.409 102.456 205.864 102.331C206.734 102.104 207.682 101.856 208.671 101.546C208.473 100.636 208.295 99.9532 208.137 99.3328C208.038 98.9812 207.959 98.7124 207.841 98.547C207.762 98.4229 207.603 98.3815 207.425 98.3608C207.267 98.3402 207.109 98.3402 206.931 98.3402C206.793 98.3402 206.714 98.2988 206.714 98.1954C206.714 98.092 206.813 97.9265 207.05 97.7611C207.287 97.5957 207.465 97.5129 207.722 97.5129C208.078 97.5129 208.473 97.6991 208.849 97.8645C209.422 98.1747 209.541 98.3608 209.541 98.547C209.541 98.6917 209.482 98.8158 209.422 98.9192C209.363 99.0226 209.323 99.1053 209.323 99.2087C209.323 99.2914 209.323 99.4362 209.363 99.643C209.442 100.16 209.541 100.636 209.679 101.297Z" fill="white"/>
<path d="M192.52 101.649C193.745 101.38 194.635 101.153 195.623 100.905C195.9 100.843 196.098 100.739 196.236 100.594C196.414 100.429 196.651 100.388 197.007 100.388C197.383 100.408 197.838 100.491 198.114 100.636C198.411 100.781 198.589 101.008 198.589 101.256C198.589 101.628 198.352 101.835 197.857 101.835C197.521 101.835 197.027 101.835 196.493 101.897C195.584 102.001 194.556 102.166 192.678 102.6C192.994 104.441 193.37 106.406 193.666 107.895C193.745 108.246 193.844 108.701 193.844 108.97C193.844 109.384 193.528 109.652 193.113 109.652C192.697 109.673 192.48 109.384 192.401 108.763C192.183 107.109 191.808 104.689 191.511 102.911C190.226 103.221 189.159 103.51 188.15 103.862C187.577 104.069 187.32 104.172 187.221 104.317C187.024 104.544 186.885 104.606 186.628 104.606C186.173 104.606 185.343 104.11 184.829 103.469C184.691 103.283 184.592 103.076 184.592 102.89C184.592 102.745 184.651 102.642 184.73 102.642C184.789 102.642 184.928 102.725 185.027 102.787C185.521 103.076 185.837 103.18 186.134 103.18C186.43 103.18 186.846 103.076 187.399 102.931C188.585 102.621 189.91 102.29 191.353 101.918C191.195 100.884 191.017 99.912 190.839 98.8987C190.029 99.1262 189.337 99.3123 188.724 99.4984C188.309 99.6225 187.893 99.6845 187.696 99.8293C187.538 99.9534 187.399 99.9947 187.201 99.9947C186.885 99.9947 186.47 99.7879 186.035 99.3536C185.561 98.8987 185.343 98.6092 185.343 98.3817C185.343 98.1955 185.422 98.0921 185.501 98.0921C185.6 98.0921 185.659 98.1335 185.778 98.2162C186.213 98.5264 186.569 98.6919 187.083 98.6919C187.379 98.6919 187.775 98.6092 188.249 98.5057C188.921 98.361 189.831 98.1749 190.661 97.9474C190.404 96.5618 190.246 95.7139 190.068 94.9487C190.009 94.7006 189.91 94.5144 189.772 94.3697C189.613 94.2249 189.277 94.1836 188.783 94.1629C188.645 94.1629 188.566 94.1008 188.566 93.9974C188.566 93.8734 188.724 93.7286 188.842 93.6459C189.04 93.5218 189.317 93.3977 189.613 93.3977C190.127 93.3977 190.602 93.4804 191.136 93.7079C191.61 93.894 191.847 94.1422 191.847 94.4317C191.847 94.5972 191.768 94.7626 191.669 94.866C191.59 94.9694 191.511 95.1142 191.531 95.4244C191.551 95.9414 191.65 96.6238 191.828 97.6165C192.678 97.4097 193.508 97.1822 194.24 96.9547C194.358 96.9134 194.536 96.8306 194.714 96.6652C194.912 96.4998 195.208 96.3757 195.446 96.3757C195.782 96.3757 196.177 96.417 196.474 96.5204C196.75 96.6238 196.928 96.8513 196.928 97.0581C196.928 97.327 196.81 97.4924 196.572 97.5338C196.256 97.5958 195.9 97.6785 195.446 97.7613C194.437 97.9887 193.35 98.2576 192.006 98.5885C192.164 99.6225 192.342 100.574 192.52 101.649Z" fill="white"/>
<path d="M169.25 99.6846L165.078 100.181C164.485 100.243 164.129 100.346 163.576 100.512L163.299 99.7466C164.209 99.7673 164.584 99.7466 164.999 99.6846L169.25 99.1883V95.714C167.668 96.0242 165.988 96.231 164.11 96.3757C163.971 96.3757 163.892 96.0448 164.031 96.0242C167.53 95.3624 170.733 94.4318 173.046 93.315C174.113 92.8187 174.983 92.281 175.596 91.7227C176.703 92.5292 177.276 93.0462 177.276 93.2737C177.276 93.5218 176.98 93.6046 176.209 93.4184C174.43 94.287 172.631 94.9281 170.693 95.4038V99.0228L175.359 98.4851C176.15 97.1823 176.248 97.1202 176.367 97.1202C176.525 97.1202 176.644 97.1823 177.711 97.8854C178.186 98.1956 178.265 98.3197 178.265 98.4644C178.265 98.5472 178.166 98.6299 178.008 98.6506L170.693 99.5191V103.221L176.644 102.476C177.454 101.132 177.553 101.049 177.711 101.049C177.85 101.049 177.968 101.132 179.076 101.856C179.57 102.187 179.669 102.29 179.669 102.456C179.669 102.538 179.57 102.621 179.372 102.642L170.693 103.738V107.316C170.693 108.453 170.99 108.722 173.817 108.722C176.94 108.722 177.731 108.474 178.028 107.977C178.324 107.44 178.482 106.861 178.917 105.33C178.937 105.227 179.135 105.268 179.135 105.372C179.115 106.033 179.095 106.819 179.095 107.398C179.095 107.771 179.214 107.915 179.412 108.019C179.748 108.205 179.847 108.37 179.847 108.639C179.847 109.115 179.491 109.466 178.759 109.735C177.949 110.004 176.644 110.128 173.896 110.128C170.021 110.128 169.23 109.694 169.23 107.584C169.23 107.171 169.25 106.261 169.25 103.924L164.446 104.524C163.853 104.607 163.457 104.669 162.924 104.813L162.647 104.069C163.536 104.089 163.892 104.069 164.367 104.007L169.25 103.407V99.6846Z" fill="white"/>
<path d="M144.122 101.029V101.567C144.122 102.022 143.865 102.187 143.351 102.187C142.916 102.187 142.778 102.042 142.778 101.691C142.778 101.008 142.857 99.8087 142.857 96.0035C142.857 94.2664 142.857 93.4392 142.738 92.5085C143.43 92.7774 143.667 92.9015 144.28 93.2944H149.242C149.816 92.6119 149.915 92.5499 150.033 92.5499C150.172 92.5499 150.27 92.6119 150.864 93.1703C151.18 93.4392 151.239 93.5632 151.239 93.6873C151.239 93.8528 151.16 93.9562 150.705 94.2871V96.0242C150.705 99.1469 150.784 100.739 150.784 101.194C150.784 101.629 150.508 101.835 150.013 101.835C149.598 101.835 149.44 101.691 149.44 101.318V101.029H147.443V103.883H149.045C149.697 103.056 149.835 102.952 149.974 102.952C150.092 102.952 150.231 103.056 150.962 103.676C151.298 103.945 151.378 104.069 151.378 104.193C151.378 104.338 151.318 104.4 151.121 104.4H147.443V107.233C148.748 106.985 149.994 106.675 151.101 106.364C151.219 106.323 151.279 106.592 151.18 106.633C148.847 107.729 146.336 108.577 143.272 109.342C143.133 109.839 143.035 110.004 142.817 110.004C142.58 110.004 142.54 109.942 142.007 107.936C142.481 107.936 143.213 107.874 143.964 107.791C144.656 107.709 145.367 107.605 146.079 107.481V104.4H143.667C143.213 104.4 142.876 104.42 142.402 104.524L142.204 103.759C142.738 103.841 143.114 103.883 143.628 103.883H146.079V101.029H144.122ZM144.122 100.512H146.079V97.3684H144.122V100.512ZM149.44 100.512V97.3684H147.443V100.512H149.44ZM149.44 96.8514V93.8114H147.443V96.8514H149.44ZM146.079 93.8114H144.122V96.8514H146.079V93.8114ZM153.196 93.2944H157.724C158.396 92.6326 158.495 92.5706 158.613 92.5706C158.772 92.5706 158.91 92.6326 159.622 93.3771C159.879 93.6666 159.977 93.8321 159.977 93.9768C159.977 94.2043 159.859 94.2871 159.365 94.3905C159.187 94.4111 159.088 94.4525 158.91 94.6386C157.902 95.6933 157.111 96.4378 156.261 97.0996C156.538 97.4305 156.696 97.7614 156.696 98.0922C156.696 98.5886 156.379 98.9815 155.964 98.9815C155.608 98.9815 155.47 98.8367 155.233 98.2163C154.798 97.2237 154.303 96.4585 153.414 95.6933C153.355 95.6313 153.434 95.5072 153.513 95.5279C154.521 95.8174 155.332 96.2517 155.905 96.748C156.696 95.776 157.21 94.9075 157.724 93.8114H153.216C152.742 93.8114 152.485 93.8321 152.03 93.9355L151.832 93.191C152.307 93.253 152.663 93.2944 153.196 93.2944ZM156.043 99.6846V104.896C156.043 107.419 156.103 108.35 156.103 109.115C156.103 109.818 155.925 110.17 155.45 110.459C155.134 110.645 154.62 110.811 154.264 110.811C154.027 110.811 153.987 110.707 153.908 110.314C153.829 109.756 153.414 109.487 151.714 109.094C151.595 109.073 151.595 108.805 151.714 108.805C152.9 108.908 153.691 108.97 154.284 108.97C154.521 108.97 154.62 108.867 154.62 108.598V99.6846H152.781C152.307 99.6846 152.01 99.7053 151.476 99.8294L151.279 99.0435C151.931 99.1263 152.247 99.1676 152.742 99.1676H158.396C159.029 98.4645 159.127 98.3818 159.246 98.3818C159.404 98.3818 159.503 98.4852 160.195 99.209C160.511 99.5605 160.59 99.6846 160.59 99.8294C160.59 100.057 160.452 100.14 159.958 100.222C159.701 100.264 159.641 100.346 159.345 100.801C158.831 101.504 158.06 102.332 157.467 102.931C157.388 102.993 157.229 102.869 157.269 102.787C157.783 101.773 158.238 100.636 158.514 99.6846H156.043Z" fill="white"/>
<path d="M130.639 108.991H136.274C137.302 107.709 137.46 107.605 137.578 107.605C137.697 107.605 137.855 107.709 138.883 108.598C139.377 109.053 139.476 109.198 139.476 109.322C139.476 109.446 139.417 109.508 139.219 109.508H123.7C123.127 109.508 122.632 109.549 122.019 109.632L121.822 108.846C122.553 108.97 123.048 108.991 123.68 108.991H129.117V96.5619C129.117 94.4111 129.097 93.1289 128.998 92.3638C131.133 92.5706 131.371 92.7567 131.371 92.9842C131.371 93.191 131.232 93.3357 130.639 93.5632V99.7673H134.613C135.582 98.4851 135.74 98.4024 135.858 98.4024C135.977 98.4024 136.135 98.4851 137.183 99.4364C137.638 99.8501 137.717 99.9535 137.717 100.098C137.717 100.222 137.658 100.284 137.46 100.284H130.639V108.991Z" fill="white"/>
<path d="M106.441 99.0024H113.084C113.756 98.3613 113.855 98.2786 113.974 98.2786C114.112 98.2786 114.211 98.3613 114.942 99.0231C115.239 99.3333 115.318 99.4574 115.318 99.5815C115.318 99.809 115.12 99.8917 114.448 99.9537C113.282 100.926 112.451 101.484 111.344 102.104C111.443 102.146 111.463 102.229 111.463 102.311C111.463 102.497 111.344 102.621 110.83 102.849V103.593H116.208C117.137 102.456 117.275 102.332 117.394 102.332C117.532 102.332 117.671 102.456 118.639 103.263C119.094 103.656 119.173 103.78 119.173 103.904C119.173 104.028 119.114 104.11 118.916 104.11H110.83V105.765C110.85 107.854 110.889 108.371 110.889 109.032C110.889 109.653 110.652 110.025 110.336 110.335C110.02 110.645 109.545 110.852 108.932 110.852C108.655 110.852 108.596 110.79 108.537 110.418C108.458 109.818 108.023 109.508 106.263 109.115C106.145 109.094 106.164 108.826 106.283 108.846C107.608 108.97 108.438 109.032 109.031 109.032C109.288 109.032 109.387 108.929 109.387 108.681V104.11H102.942C102.507 104.11 102.151 104.131 101.637 104.235L101.439 103.449C102.013 103.552 102.388 103.593 102.902 103.593H109.387C109.387 102.539 109.387 102.311 109.328 101.691C110 101.794 110.455 101.877 110.771 101.939C111.779 101.07 112.392 100.388 113.044 99.5194H106.481C105.967 99.5194 105.631 99.5401 105.136 99.6642L104.919 98.8577C105.512 98.9611 105.848 99.0024 106.441 99.0024ZM116.88 96.8103H103.911C103.911 98.5475 103.199 99.6228 102.309 99.6228C101.855 99.6228 101.499 99.2506 101.499 98.7749C101.499 98.4234 101.657 98.1545 102.112 97.8857C103.061 97.3273 103.397 96.6656 103.535 95.3627C103.535 95.28 103.733 95.28 103.753 95.3627C103.812 95.6936 103.851 96.0038 103.871 96.2933H112.906C113.42 95.5281 113.895 94.6802 114.29 93.853C114.567 93.2533 114.784 92.6742 114.923 92.1572C116.484 92.8811 116.84 93.1499 116.84 93.3567C116.84 93.5842 116.662 93.7083 115.99 93.7083C115.259 94.6389 114.349 95.5281 113.479 96.2933H116.741C117.414 95.5281 117.512 95.4454 117.651 95.4454C117.789 95.4454 117.908 95.5281 118.699 96.3347C119.074 96.7276 119.153 96.8724 119.153 96.9964C119.153 97.3066 119.015 97.3894 118.382 97.41C118.145 97.4307 118.086 97.4721 117.947 97.6168C117.552 98.0718 116.979 98.5475 116.326 98.9818C116.247 99.0438 116.109 98.9197 116.148 98.837C116.465 98.1959 116.702 97.5962 116.88 96.8103ZM110.573 95.6109C110.138 95.6109 110 95.4454 109.861 94.6389C109.684 93.7496 109.268 92.8604 108.735 92.2193C108.675 92.1366 108.774 91.9918 108.873 92.0332C110.494 92.6742 111.423 93.6669 111.423 94.6596C111.423 95.2179 111.067 95.6109 110.573 95.6109ZM106.461 95.8797C106.046 95.8797 105.868 95.6729 105.69 94.887C105.453 93.9978 105.097 93.1913 104.622 92.6329C104.563 92.5708 104.662 92.4261 104.741 92.4468C106.362 93.0258 107.272 93.9771 107.272 94.9491C107.272 95.4661 106.936 95.8797 106.461 95.8797Z" fill="white"/>
<path d="M98.533 98.3813H90.368C91.0402 101.38 92.1869 103.572 93.9662 105.454C95.3698 106.984 97.2084 108.039 98.9877 108.742C99.0866 108.784 99.047 108.928 98.9482 108.97C98.3946 109.176 98.1574 109.466 97.9202 110.128C97.8411 110.355 97.7422 110.459 97.6038 110.459C97.4259 110.459 97.0898 110.273 96.556 109.9C95.1326 108.949 93.7487 107.522 92.8393 106.24C91.5147 104.399 90.546 101.938 90.0319 98.7742C89.6168 101.98 88.826 104.068 87.5014 105.868C85.9396 107.998 83.9428 109.487 80.918 110.603C80.7796 110.645 80.661 110.355 80.7796 110.293C83.8242 108.618 85.7221 106.55 87.0467 103.903C87.7584 102.476 88.2527 100.739 88.5294 98.3813H82.9148C82.3414 98.3813 81.9263 98.4227 81.2739 98.5054L81.0762 97.7195C81.8076 97.8229 82.3019 97.8643 82.9345 97.8643H88.569C88.6876 96.6649 88.7469 95.2999 88.7469 93.7489C88.7469 93.2112 88.7271 92.8803 88.6678 92.2393C90.6844 92.5495 91.0007 92.6735 91.0007 92.9631C91.0007 93.1492 90.9018 93.2733 90.3285 93.5214C90.3285 94.328 90.3087 95.0931 90.2692 95.817C90.2296 96.5408 90.1901 97.2232 90.1308 97.8643H95.7257C96.6944 96.6442 96.8328 96.5201 96.9514 96.5201C97.0898 96.5201 97.2677 96.6442 98.2562 97.4921C98.6912 97.885 98.79 98.0504 98.79 98.1745C98.79 98.3193 98.7307 98.3813 98.533 98.3813Z" fill="white"/>
<path d="M70.1627 97.2435V98.7532C70.1627 106.529 70.2615 109.238 70.2615 110.127C70.2615 110.624 69.9452 110.872 69.3521 110.872C68.8974 110.872 68.7195 110.665 68.7195 110.272C68.7195 109.61 68.8183 107.418 68.8183 100.552V97.2435H67.3751C66.9797 97.2435 66.6832 97.2642 66.1889 97.3469L65.9912 96.5817C66.525 96.6851 66.8611 96.7265 67.3554 96.7265H68.8183C68.8183 93.6658 68.7788 92.6938 68.68 92.0321C70.6569 92.2389 70.8151 92.3009 70.8151 92.5698C70.8151 92.7352 70.736 92.8179 70.1627 93.1074V96.7265H71.3884C72.0013 95.92 72.1397 95.8166 72.2583 95.8166C72.3967 95.8166 72.5351 95.92 73.227 96.499C73.5236 96.7885 73.6224 96.9126 73.6224 97.0367C73.6224 97.1608 73.5434 97.2435 73.3654 97.2435H70.1627ZM63.8956 101.4V110.21C63.8956 110.665 63.6386 110.913 63.0653 110.913C62.6897 110.913 62.4327 110.727 62.4327 110.272C62.4327 109.859 62.5315 108.37 62.5513 104.213C62.5513 103.344 62.571 102.455 62.571 101.586C61.8791 102.331 61.1278 102.993 60.337 103.551C60.2382 103.613 60.0603 103.406 60.1393 103.324C61.4244 101.938 62.6699 100.015 63.4607 98.3603C63.777 97.6571 64.0142 96.9954 64.1526 96.4163C65.6156 97.0574 65.9517 97.2849 65.9517 97.4917C65.9517 97.6985 65.7935 97.7812 65.2202 97.8432C64.726 98.7739 64.1526 99.6631 63.5002 100.49C64.3108 100.635 64.4492 100.738 64.4492 100.925C64.4492 101.09 64.3701 101.193 63.8956 101.4ZM75.2238 98.8566H74.1958C73.7806 98.8566 73.484 98.8979 72.97 98.9807L72.7723 98.1741C73.3457 98.3189 73.6817 98.3396 74.176 98.3396H76.5879C77.2799 97.4503 77.4183 97.3469 77.5369 97.3469C77.6753 97.3469 77.8137 97.4503 78.5254 98.0914C78.8417 98.4016 78.9406 98.5464 78.9406 98.6705C78.9406 98.7945 78.8812 98.8566 78.6835 98.8566H76.5879V105.019C76.5879 107.48 76.6275 108.059 76.6275 108.949C76.6472 109.631 76.41 109.983 76.1728 110.231C75.896 110.541 75.4017 110.727 74.8482 110.727C74.6109 110.727 74.5516 110.644 74.4923 110.313C74.4132 109.714 74.1958 109.507 72.7526 109.155C72.6537 109.135 72.6735 108.907 72.7723 108.907C73.7608 109.011 74.3539 109.052 74.8679 109.052C75.125 109.052 75.2238 108.969 75.2238 108.721V98.8566ZM72.3572 95.5684C72.0606 95.5684 71.9618 95.4443 71.8234 94.948C71.6652 94.3276 71.2896 93.6865 70.8151 93.1902C70.7558 93.1281 70.8744 93.004 70.9535 93.0247C72.3374 93.459 72.97 94.0794 72.97 94.7619C72.97 95.1962 72.6933 95.5684 72.3572 95.5684ZM72.6735 106.963C72.2188 106.963 72.1002 106.632 72.0606 105.04C72.0013 103.261 71.6257 101.462 70.993 99.6218C70.9535 99.477 71.2105 99.3943 71.2896 99.5184C72.5944 101.545 73.4841 103.944 73.4841 105.66C73.4841 106.467 73.1677 106.963 72.6735 106.963ZM73.7213 94.3689L73.5038 93.5831C74.0376 93.6865 74.3935 93.7279 74.8482 93.7279H76.1925C76.8449 92.8593 77.0031 92.7559 77.1415 92.7559C77.2601 92.7559 77.4183 92.8593 78.13 93.5004C78.4265 93.7692 78.5254 93.8933 78.5254 94.0174C78.5254 94.1828 78.4661 94.2449 78.2684 94.2449H74.8679C74.4923 94.2449 74.1958 94.2862 73.7213 94.3689ZM60.594 97.8019C60.4952 97.8639 60.3173 97.6364 60.4161 97.5537C61.5825 96.4783 62.6501 94.948 63.3816 93.5831C63.7177 92.9627 63.9549 92.3836 64.0933 91.8459C65.3981 92.363 66.0703 92.7559 66.0703 92.9834C66.0703 93.1902 65.8529 93.2936 65.1807 93.3143C63.8956 95.2582 62.4524 96.7265 60.594 97.8019ZM65.1609 108.142C65.0818 108.266 64.8248 108.142 64.8644 107.997C65.6749 105.764 66.2878 102.31 66.2878 100.18C66.2878 99.994 66.2878 99.8079 66.268 99.5184C67.8694 99.8286 68.2055 99.9733 68.2055 100.242C68.2055 100.428 68.1066 100.49 67.6321 100.676C67.1379 103.903 66.4657 106.136 65.1609 108.142Z" fill="white"/>
<path d="M57.708 104.772H49.4046C50.492 106.302 51.7572 107.253 53.3784 107.915C54.8216 108.473 56.5811 108.804 58.3604 108.846C58.4395 108.846 58.4395 109.052 58.3604 109.073C57.7673 109.301 57.4905 109.611 57.2138 110.438C57.1742 110.583 57.0556 110.665 56.8974 110.665C56.7195 110.665 56.3043 110.583 55.9287 110.479C54.782 110.169 53.4377 109.528 52.5085 108.949C51.1444 108.06 49.9977 106.86 49.0488 104.958C48.6336 106.385 47.9219 107.46 46.8938 108.287C45.3716 109.611 43.355 110.397 40.3302 110.769C40.1918 110.79 40.1325 110.459 40.2709 110.417C42.9003 109.776 44.7982 108.763 46.103 107.295C46.7752 106.55 47.2695 105.661 47.566 104.772H42.1491C41.635 104.772 41.1803 104.813 40.6268 104.896L40.4291 104.11C41.0617 104.213 41.556 104.255 42.1293 104.255H47.7044C47.8823 103.324 47.9614 102.724 47.9416 102.166C49.8989 102.455 50.1163 102.517 50.1163 102.786C50.1163 102.972 49.9977 103.138 49.4244 103.324C49.3849 103.634 49.3255 103.924 49.2465 104.255H55.2565C56.0671 103.241 56.2055 103.159 56.3241 103.159C56.4625 103.159 56.6009 103.241 57.5103 103.986C57.8859 104.296 57.965 104.441 57.965 104.585C57.965 104.71 57.9057 104.772 57.708 104.772ZM49.6814 101.256H55.217C56.0473 100.243 56.2055 100.139 56.3241 100.139C56.4427 100.139 56.6009 100.243 57.4708 100.987C57.8464 101.318 57.9452 101.442 57.9452 101.566C57.9452 101.711 57.8662 101.773 57.6685 101.773H42.0897C41.556 101.773 41.1408 101.794 40.5477 101.897L40.35 101.09C41.0024 101.215 41.4769 101.256 42.0502 101.256H48.2184V98.6502H43.9877C43.5329 98.6502 43.098 98.6709 42.6038 98.7743L42.4061 97.9677C43.0189 98.0918 43.4341 98.1332 43.9481 98.1332H48.2184V95.7136H42.8608C42.3863 95.7136 41.9711 95.7343 41.4571 95.8377L41.2396 95.0311C41.8327 95.1552 42.2874 95.1966 42.8212 95.1966H50.5117C50.9467 94.4728 51.3025 93.6869 51.5991 93.0045C51.777 92.5909 51.8956 92.1979 51.9747 91.8257C53.5168 92.4668 53.9912 92.7356 53.9912 92.9631C53.9912 93.1906 53.8726 93.2733 53.1411 93.3147C52.5085 94.0592 51.8561 94.6796 51.2037 95.1966H54.6634C55.4938 94.2453 55.6322 94.1419 55.7508 94.1419C55.8892 94.1419 56.0276 94.2453 56.8579 94.9071C57.2533 95.2586 57.3521 95.3827 57.3521 95.5068C57.3521 95.6515 57.2731 95.7136 57.0754 95.7136H49.6814V98.1332H53.4377C54.2087 97.2026 54.3669 97.0992 54.4855 97.0992C54.6041 97.0992 54.7623 97.2026 55.5926 97.8643C55.9485 98.1745 56.0276 98.3193 56.0276 98.4434C56.0276 98.5675 55.9682 98.6502 55.7705 98.6502H49.6814V101.256ZM46.538 95.0105C46.1623 95.0105 46.024 94.8657 45.8856 94.3694C45.6286 93.4801 45.2925 92.7563 44.6598 92.1566C44.6005 92.0945 44.6994 91.9704 44.7785 91.9911C46.4589 92.3634 47.4079 93.2526 47.4079 94.1212C47.4079 94.6589 47.0915 95.0105 46.538 95.0105Z" fill="white"/>
<path d="M30.2869 96.7685H32.1848V96.5203C32.1848 95.5277 32.1848 95.4036 32.1057 94.8659C33.6676 95.052 33.8257 95.1554 33.8257 95.3622C33.8257 95.507 33.7467 95.6104 33.371 95.7965V96.7685H35.1899C35.8225 96.0033 35.9609 95.8999 36.0795 95.8999C36.2179 95.8999 36.3761 96.0033 37.0285 96.5617C37.3052 96.8098 37.4041 96.9546 37.4041 97.0994C37.4041 97.2235 37.3448 97.2855 37.1471 97.2855H33.4896C34.1025 98.03 34.7549 98.5677 35.4864 98.9606C36.2179 99.3328 37.0878 99.581 37.8983 99.7051C37.9774 99.7258 37.9577 99.8705 37.8786 99.8912C37.5227 99.9739 37.2657 100.222 37.1471 100.739C37.0878 100.925 37.0285 101.029 36.9098 101.029C36.7715 101.029 36.5144 100.905 36.0795 100.636C35.5853 100.305 35.1701 99.9533 34.7945 99.6017C34.3002 99.126 33.8455 98.547 33.3117 97.5957C33.371 98.7952 33.3908 99.8705 33.3908 100.181C33.3908 100.615 33.1931 100.78 32.6791 100.78C32.2837 100.78 32.1848 100.656 32.1848 100.222C32.1848 99.9533 32.2244 99.3328 32.2639 98.4022C31.1963 99.6431 30.109 100.429 28.7053 101.091C28.6065 101.132 28.4681 100.905 28.5669 100.822C29.9706 99.7465 30.9986 98.7331 31.7894 97.2855H27.0446V97.9886C28.4088 98.1747 29.0414 98.5677 29.0414 99.1674C29.0414 99.4776 28.8437 99.7258 28.5867 99.7258C28.389 99.7258 28.2704 99.6431 28.0331 99.2915C27.7168 98.8779 27.4203 98.5677 27.0446 98.3402C27.0644 99.5397 27.0842 100.698 27.1039 101.091C27.1039 101.525 26.9063 101.67 26.3725 101.67C26.0166 101.67 25.8782 101.546 25.8782 101.235C25.8782 100.967 25.9178 99.9119 25.9573 98.6918C25.0676 99.7258 24.0791 100.491 22.9325 101.008C22.8139 101.049 22.6755 100.863 22.7743 100.78C24.1187 99.6844 25.0083 98.6711 25.7003 97.2855H24.5536C24.1187 97.2855 23.8024 97.3269 23.3279 97.4096L23.1697 96.6237C23.6244 96.7478 23.9605 96.7685 24.5536 96.7685H25.898V96.5824C25.898 95.7138 25.898 95.5483 25.8387 94.8866C27.361 95.0727 27.5389 95.1761 27.5389 95.3829C27.5389 95.5277 27.4598 95.6104 27.0446 95.7965V96.7685H28.4483C28.9623 96.0654 29.0809 95.962 29.2391 95.962C29.3577 95.962 29.4566 96.0447 30.2869 96.7685ZM30.4846 102.807V104.503H33.9839C34.7747 103.572 34.9329 103.469 35.0515 103.469C35.1701 103.469 35.3282 103.572 36.1784 104.234C36.5738 104.586 36.6726 104.71 36.6726 104.834C36.6726 104.958 36.6133 105.02 36.4156 105.02H30.4846V106.716H35.0712C35.8818 105.744 36.04 105.661 36.1586 105.661C36.2772 105.661 36.4551 105.744 37.3052 106.426C37.6809 106.778 37.7797 106.902 37.7797 107.026C37.7797 107.171 37.7204 107.233 37.5227 107.233H30.4846C30.4846 108.494 30.5242 109.115 30.5242 109.508C30.5242 110.087 30.2869 110.438 29.9508 110.707C29.6543 110.935 29.2391 111.059 28.7844 111.059C28.5076 111.059 28.4878 110.997 28.389 110.645C28.2308 110.066 27.9936 109.901 26.3132 109.57C26.1945 109.549 26.1945 109.259 26.3132 109.259C27.4598 109.321 28.1913 109.342 28.7844 109.342C29.0216 109.342 29.1007 109.259 29.1007 109.032V107.233H24.1187C23.6244 107.233 23.2488 107.274 22.6557 107.357L22.458 106.571C23.1104 106.674 23.5454 106.716 24.1187 106.716H29.1007V105.02H25.206C24.7118 105.02 24.3164 105.061 23.7431 105.144L23.5454 104.337C24.1978 104.482 24.6327 104.503 25.1665 104.503H29.1007V102.931C27.4005 103.055 25.7596 103.076 24.0989 102.973C24.0001 102.973 24.0001 102.724 24.0989 102.724C27.4005 102.476 30.0497 102.001 31.8487 101.504C32.7186 101.277 33.2524 101.07 33.6676 100.843C34.5968 101.67 34.8735 102.042 34.8735 102.228C34.8735 102.352 34.7945 102.435 34.5968 102.435C34.4386 102.435 34.2211 102.373 33.9246 102.249C32.7384 102.497 31.5917 102.683 30.4846 102.807ZM29.8322 93.9973H35.0317C35.862 92.9633 35.9807 92.8806 36.0993 92.8806C36.2377 92.8806 36.3958 92.9633 37.3052 93.6871C37.7402 94.0594 37.7995 94.1628 37.7995 94.3075C37.7995 94.4523 37.7204 94.5143 37.5227 94.5143H22.6557V96.0033C22.6557 100.326 22.458 102.931 22.0033 105.041C21.5684 107.026 20.916 108.618 19.6309 110.48C19.5518 110.583 19.3344 110.459 19.3739 110.335C20.1647 108.37 20.5601 106.736 20.8369 104.896C21.1137 103.014 21.2125 100.884 21.2125 97.4716C21.2125 95.4863 21.1532 94.2868 21.0741 93.046C21.8254 93.3976 22.1417 93.5837 22.8732 93.9973H28.4285V93.0253C28.4285 92.6738 28.4088 92.3843 28.3099 91.7432C30.2671 91.9706 30.5242 92.1361 30.5242 92.3636C30.5242 92.529 30.366 92.6738 29.8322 92.9219V93.9973Z" fill="white"/>
<path d="M14.412 101.607H10.1417C9.58811 102.248 8.99501 102.848 8.3426 103.385C9.84512 103.799 10.715 104.585 10.715 105.433C10.715 105.908 10.4184 106.322 10.0033 106.322C9.68696 106.322 9.56834 106.198 9.37064 105.639C9.05432 104.812 8.65892 104.171 8.00652 103.654C6.62262 104.709 5.04102 105.495 3.12334 106.136C2.98495 106.177 2.82679 105.888 2.94541 105.825C5.57481 104.585 8.06583 102.372 9.50903 100.159C9.90443 99.58 10.201 99.001 10.4184 98.4633C11.9803 99.0423 12.2373 99.1664 12.2373 99.4146C12.2373 99.6214 12.0396 99.7248 11.4663 99.7868C11.1697 100.242 10.8732 100.676 10.5568 101.09H14.3724C14.9655 100.449 15.0842 100.366 15.2028 100.366C15.3412 100.366 15.4598 100.449 16.1913 101.048C16.5274 101.359 16.5867 101.483 16.5867 101.607C16.5867 101.834 16.4878 101.917 15.875 102.124C12.9095 107.459 8.85662 109.899 1.87783 110.871C1.73944 110.892 1.68013 110.561 1.81852 110.52C8.32283 108.783 11.9012 106.198 14.412 101.607ZM10.4184 94.8649H6.52377C5.98998 95.5887 5.39688 96.2712 4.7247 96.8709C6.14814 97.1811 6.93894 97.8842 6.93894 98.6701C6.93894 99.1044 6.64239 99.4973 6.26676 99.4973C6.00975 99.4973 5.89113 99.3525 5.7132 98.9389C5.35734 98.0703 5.06079 97.6154 4.44792 97.119C3.34081 98.0497 2.05576 98.8148 0.434626 99.5386C0.316006 99.6007 0.177616 99.3112 0.296236 99.2284C2.51047 97.8429 4.32931 95.8989 5.63412 93.6654C6.04929 93.0037 6.32607 92.4246 6.504 91.8042C7.8879 92.3212 8.36237 92.5694 8.36237 92.8175C8.36237 93.0243 8.20422 93.1277 7.61112 93.2105C7.37388 93.6034 7.13664 93.9963 6.8994 94.3479H10.3987C10.9918 93.7068 11.1104 93.6241 11.229 93.6241C11.3674 93.6241 11.486 93.7068 12.2175 94.3686C12.5141 94.6581 12.5931 94.7822 12.5931 94.9063C12.5931 95.0924 12.5141 95.1544 11.8617 95.3819C9.27179 99.9523 5.67366 102.641 0.138076 103.985C-0.000313155 104.026 -0.0596231 103.737 0.0787666 103.675C5.00148 101.689 8.32283 98.7735 10.4184 94.8649Z" fill="white"/>
<path d="M135.704 52.3421H140.919C141.919 51.1097 142.056 51.0103 142.174 51.0103C142.311 51.0103 142.448 51.1097 143.487 51.9843C143.977 52.4017 144.075 52.5209 144.075 52.6402C144.075 52.7793 144.017 52.839 143.821 52.839H128.254C127.666 52.839 127.156 52.8589 126.49 52.9582L126.293 52.183C127.058 52.3023 127.607 52.3421 128.254 52.3421H134.155V43.8546H129.822C129.273 43.8546 128.783 43.8943 128.156 43.9937L127.96 43.2185C128.685 43.3179 129.195 43.3577 129.842 43.3577H134.155V40.1376C134.155 37.9909 134.136 36.838 134.057 36.0231C136.174 36.2218 136.429 36.4206 136.429 36.6393C136.429 36.8181 136.273 36.9772 135.704 37.1759V43.3577H139.586C140.527 42.2247 140.664 42.1253 140.782 42.1253C140.919 42.1253 141.056 42.2247 142.036 43.0198C142.507 43.3974 142.585 43.5366 142.585 43.6558C142.585 43.7751 142.527 43.8546 142.331 43.8546H135.704V52.3421Z" fill="white"/>
<circle cx="134.761" cy="45.3374" r="13.8949" stroke="white"/>
<path d="M260.488 47.4586H252.611C252.53 48.0614 252.408 48.5838 252.265 49.1062C251.696 51.2762 250.495 53.1448 248.459 54.6316C248.337 54.712 248.113 54.5312 248.215 54.4307C249.66 52.763 250.413 51.236 250.861 49.1865C251.248 47.4787 251.431 45.4091 251.431 42.1139C251.431 38.9996 251.411 38.015 251.289 36.8698C252.123 37.2113 252.449 37.3721 253.141 37.794H260.325C260.956 37.1109 261.058 37.0305 261.18 37.0305C261.322 37.0305 261.445 37.1109 262.198 37.6735C262.503 37.9347 262.584 38.0351 262.584 38.1758C262.584 38.3164 262.523 38.3968 262.035 38.7384V42.7971C262.035 51.1355 262.096 51.7986 262.096 52.7831C262.096 53.5667 261.892 53.9686 261.302 54.27C260.997 54.4508 260.468 54.5714 260.122 54.5714C259.796 54.5714 259.735 54.491 259.674 54.1494C259.592 53.5667 258.921 53.2051 257.313 52.9439C257.191 52.9238 257.191 52.6626 257.313 52.6626C258.677 52.763 259.552 52.8032 260.122 52.8032C260.407 52.8032 260.488 52.6827 260.488 52.3813V47.4586ZM260.488 42.8172H252.937C252.917 44.2036 252.856 45.59 252.693 46.9563H260.488V42.8172ZM260.488 42.3149V38.2963H252.957V42.3149H260.488Z" fill="white"/>
<circle cx="256.657" cy="45.3373" r="13.8949" stroke="white"/>
<path d="M174 75V76H120V75H174Z" fill="white"/>
<path d="M264.653 0.10498C268.551 0.10498 270.995 3.09868 270.995 7.74625C270.995 12.4776 268.612 15.4713 264.653 15.4713C260.6 15.4713 258.249 12.6032 258.249 7.87186C258.249 3.07775 260.693 0.10498 264.653 0.10498ZM264.653 0.753965C261.992 0.753965 261.281 3.53832 261.281 7.80906C261.281 12.1007 261.992 14.8223 264.653 14.8223C267.251 14.8223 267.963 12.1007 267.963 7.80906C267.963 3.53832 267.282 0.753965 264.653 0.753965Z" fill="white"/>
<path d="M250.081 7.09727V7.18101C253.422 7.62064 255.402 8.98141 255.402 11.0121C255.402 13.7337 252.742 15.4713 248.751 15.4713C246.802 15.4713 245.533 15.0944 244.513 14.6548C243.584 14.257 242.594 13.629 242.594 12.9591C242.594 12.4566 243.368 12.0589 244.574 12.0589C245.502 12.0589 245.874 13.0847 246.245 13.629C246.616 14.2152 247.297 14.8013 248.751 14.8013C251.04 14.8013 252.37 13.3359 252.37 10.9493C252.37 9.48385 251.442 7.43223 248.163 7.57877C247.792 7.5997 247.173 7.64158 246.895 7.64158C246.585 7.64158 246.462 7.62064 246.554 7.24381C246.678 6.86698 246.864 6.78324 247.173 6.78324C247.482 6.78324 247.885 6.84605 248.225 6.84605C249.957 6.84605 251.844 5.88304 251.844 3.62206C251.844 2.05193 250.947 0.753965 248.967 0.753965C247.916 0.753965 247.018 1.06799 246.585 1.67511C246.338 2.031 246.276 2.36596 246.276 2.72185C246.276 3.32897 245.348 3.74767 244.203 3.74767C243.492 3.74767 243.089 3.53832 243.089 3.11962C243.089 1.90539 245.441 0.10498 248.967 0.10498C252.154 0.10498 254.691 1.40295 254.691 3.62206C254.691 5.75743 252.401 6.67857 250.081 7.09727Z" fill="white"/>
<path d="M237.051 5.48499C238.072 5.48499 238.907 6.02929 238.907 6.76202C238.907 7.47381 238.072 8.03905 237.051 8.03905C235.968 8.03905 235.133 7.47381 235.133 6.76202C235.133 6.02929 235.968 5.48499 237.051 5.48499ZM237.051 12.896C238.072 12.896 238.907 13.4403 238.907 14.1939C238.907 14.8848 238.072 15.45 237.051 15.45C235.968 15.45 235.133 14.8848 235.133 14.1939C235.133 13.4403 235.968 12.896 237.051 12.896Z" fill="white"/>
<path d="M224.955 0.10498C228.853 0.10498 231.297 3.09868 231.297 7.74625C231.297 12.4776 228.915 15.4713 224.955 15.4713C220.902 15.4713 218.551 12.6032 218.551 7.87186C218.551 3.07775 220.995 0.10498 224.955 0.10498ZM224.955 0.753965C222.295 0.753965 221.583 3.53832 221.583 7.80906C221.583 12.1007 222.295 14.8223 224.955 14.8223C227.554 14.8223 228.265 12.1007 228.265 7.80906C228.265 3.53832 227.585 0.753965 224.955 0.753965Z" fill="white"/>
<path d="M204.908 13.4196H209.982C212.549 13.4196 213.137 13.294 213.725 12.9591C214.467 12.5194 214.9 11.9961 215.364 11.3261C215.457 11.1796 215.55 11.1587 215.859 11.2215C216.138 11.2843 216.2 11.3471 216.169 11.4727C215.767 12.5404 215.148 14.0267 214.622 15.1154C212.642 15.0526 210.879 15.0526 208.899 15.0526C206.888 15.0526 205.125 15.0526 203.145 15.1154C202.866 15.1154 202.773 15.0735 202.773 14.7385C202.773 14.4036 202.804 14.3826 202.99 14.1942C204.753 12.2473 205.867 11.1377 208.404 8.91861C210.941 6.6995 212.395 5.56901 212.395 3.66393C212.395 2.01006 211.374 0.753965 209.456 0.753965C208.033 0.753965 207.197 1.29828 206.795 1.92632C206.579 2.24035 206.486 2.76372 206.486 3.43364C206.486 3.99889 205.403 4.37572 204.382 4.37572C203.732 4.37572 203.237 4.20824 203.237 3.62206C203.237 2.30315 205.712 0.10498 209.456 0.10498C213.261 0.10498 215.426 1.73791 215.426 3.74767C215.426 6.36454 212.921 7.36942 210.013 9.31637C206.795 11.4517 205.836 12.3729 204.908 13.4196Z" fill="white"/>
<path d="M195.979 9.65093C197.278 9.65093 198.33 9.44158 199.661 8.70886C199.846 8.58325 199.97 8.62512 200.125 8.72979C200.31 8.83447 200.31 8.91821 200.156 9.06475C198.825 10.1115 197.278 11.0326 195.608 11.0326C194.309 11.0326 193.319 10.928 191.772 10.3209C189.947 9.67187 188.802 9.23223 187.626 9.23223C186.327 9.23223 185.461 9.33691 183.883 10.0906C183.759 10.1534 183.605 10.1324 183.45 10.0068C183.326 9.90215 183.326 9.83935 183.45 9.73467C184.811 8.70886 186.327 7.87146 188.029 7.87146C189.297 7.87146 190.194 8.018 191.772 8.54138C193.535 9.10662 194.742 9.65093 195.979 9.65093Z" fill="white"/>
<path d="M174.2 0.10498C178.098 0.10498 180.542 3.09868 180.542 7.74625C180.542 12.4776 178.16 15.4713 174.2 15.4713C170.148 15.4713 167.796 12.6032 167.796 7.87186C167.796 3.07775 170.24 0.10498 174.2 0.10498ZM174.2 0.753965C171.54 0.753965 170.828 3.53832 170.828 7.80906C170.828 12.1007 171.54 14.8223 174.2 14.8223C176.799 14.8223 177.51 12.1007 177.51 7.80906C177.51 3.53832 176.83 0.753965 174.2 0.753965Z" fill="white"/>
<path d="M158.732 0.10498C162.63 0.10498 165.074 3.09868 165.074 7.74625C165.074 12.4776 162.692 15.4713 158.732 15.4713C154.68 15.4713 152.328 12.6032 152.328 7.87186C152.328 3.07775 154.772 0.10498 158.732 0.10498ZM158.732 0.753965C156.072 0.753965 155.36 3.53832 155.36 7.80906C155.36 12.1007 156.072 14.8223 158.732 14.8223C161.331 14.8223 162.042 12.1007 162.042 7.80906C162.042 3.53832 161.362 0.753965 158.732 0.753965Z" fill="white"/>
<path d="M146.599 5.48499C147.62 5.48499 148.455 6.02929 148.455 6.76202C148.455 7.47381 147.62 8.03905 146.599 8.03905C145.516 8.03905 144.681 7.47381 144.681 6.76202C144.681 6.02929 145.516 5.48499 146.599 5.48499ZM146.599 12.896C147.62 12.896 148.455 13.4403 148.455 14.1939C148.455 14.8848 147.62 15.45 146.599 15.45C145.516 15.45 144.681 14.8848 144.681 14.1939C144.681 13.4403 145.516 12.896 146.599 12.896Z" fill="white"/>
<path d="M138.215 11.0746V11.9957C138.184 13.3147 138.153 13.5659 138.463 14.0474C138.71 14.4661 139.7 14.487 140.721 14.5498C140.876 14.5498 140.968 14.5917 140.968 14.8429C140.968 15.0941 140.907 15.1151 140.721 15.1151C139.576 15.0732 138.122 15.0104 136.978 15.0104C135.802 15.0104 134.286 15.0732 133.142 15.1151C132.894 15.1151 132.832 15.0941 132.832 14.8429C132.832 14.5917 132.925 14.5708 133.142 14.5498C133.946 14.487 134.998 14.4451 135.214 14.1311C135.555 13.6915 135.586 13.1472 135.616 12.0376V11.0955H130.574C129.522 11.0955 128.687 11.1165 127.851 11.1165C127.573 11.1165 127.48 11.0537 127.48 10.5722C127.48 10.1116 127.48 10.0907 127.79 9.73477C130.729 6.32237 133.049 3.72643 136.142 0.37683L138.184 0C138.308 0 138.401 0.0418707 138.401 0.209351C138.339 1.88415 138.339 3.55895 138.277 5.48497L138.215 10.3C139.267 10.3 140.319 10.2581 141.402 10.1953C141.556 10.1953 141.618 10.2372 141.587 10.3419L141.34 10.9909C141.309 11.0955 141.247 11.1165 141.061 11.1165C140.164 11.0746 139.112 11.0746 138.215 11.0746ZM135.616 10.3209L135.678 5.8618C135.709 4.31261 135.74 3.47521 135.833 2.07256C133.482 4.64757 131.069 7.32725 128.872 10.0069C128.687 10.2163 128.749 10.3209 129.12 10.3209H135.616Z" fill="white"/>
<path d="M115.848 2.1563L114.673 2.40752C114.363 2.47033 114.24 2.44939 114.116 2.17724C114.023 1.92602 114.054 1.88415 114.425 1.80041C116.436 1.29797 118.478 0.690856 120.396 0C120.705 0 120.891 0.125611 120.891 0.25122C120.86 1.90508 120.767 3.09838 120.767 4.79411V11.2212C120.767 13.2937 120.798 13.5449 121.107 13.9636C121.448 14.3823 122.592 14.4033 123.861 14.487C124.077 14.5079 124.139 14.5708 124.139 14.801C124.139 15.0523 124.077 15.0941 123.861 15.0941C122.5 15.0523 120.829 15.0104 119.53 15.0104C118.045 15.0104 116.529 15.0523 115.075 15.0941C114.827 15.0941 114.765 15.0523 114.765 14.801C114.765 14.5708 114.858 14.5079 115.075 14.487C116.312 14.4242 117.395 14.4033 117.766 13.9636C118.107 13.5031 118.107 12.6029 118.107 11.2212V3.81017C118.107 3.05651 118.014 2.5122 117.766 2.26098C117.612 2.11443 117.395 2.00976 116.962 2.00976C116.684 2.00976 116.312 2.05163 115.848 2.1563Z" fill="white"/>
</svg>
