<svg width="258" height="88" viewBox="0 0 258 88" fill="none" xmlns="http://www.w3.org/2000/svg">
<path d="M252.504 0.0887451C255.882 0.0887451 258 2.6179 258 6.54428C258 10.5414 255.935 13.0706 252.504 13.0706C248.991 13.0706 246.954 10.6475 246.954 6.65039C246.954 2.60021 249.072 0.0887451 252.504 0.0887451ZM252.504 0.637023C250.198 0.637023 249.581 2.98931 249.581 6.59734C249.581 10.223 250.198 12.5223 252.504 12.5223C254.756 12.5223 255.372 10.223 255.372 6.59734C255.372 2.98931 254.783 0.637023 252.504 0.637023Z" fill="white"/>
<path d="M239.875 5.996V6.06674C242.771 6.43816 244.487 7.58777 244.487 9.30335C244.487 11.6026 242.181 13.0706 238.722 13.0706C237.033 13.0706 235.934 12.7522 235.049 12.3808C234.245 12.0447 233.387 11.5141 233.387 10.9482C233.387 10.5237 234.057 10.1877 235.103 10.1877C235.907 10.1877 236.229 11.0543 236.55 11.5141C236.872 12.0094 237.462 12.5046 238.722 12.5046C240.706 12.5046 241.859 11.2665 241.859 9.25029C241.859 8.01225 241.055 6.27898 238.213 6.40278C237.891 6.42047 237.355 6.45584 237.114 6.45584C236.845 6.45584 236.738 6.43816 236.819 6.1198C236.926 5.80145 237.087 5.7307 237.355 5.7307C237.623 5.7307 237.971 5.78376 238.266 5.78376C239.768 5.78376 241.403 4.97019 241.403 3.06006C241.403 1.73358 240.626 0.637023 238.91 0.637023C237.998 0.637023 237.221 0.902319 236.845 1.41522C236.631 1.71589 236.577 1.99888 236.577 2.29954C236.577 2.81245 235.773 3.16618 234.781 3.16618C234.164 3.16618 233.816 2.98931 233.816 2.63559C233.816 1.60977 235.853 0.0887451 238.91 0.0887451C241.671 0.0887451 243.87 1.1853 243.87 3.06006C243.87 4.86407 241.886 5.64227 239.875 5.996Z" fill="white"/>
<path d="M228.583 4.63403C229.468 4.63403 230.192 5.09388 230.192 5.7129C230.192 6.31424 229.468 6.79177 228.583 6.79177C227.645 6.79177 226.921 6.31424 226.921 5.7129C226.921 5.09388 227.645 4.63403 228.583 4.63403ZM228.583 10.895C229.468 10.895 230.192 11.3549 230.192 11.9916C230.192 12.5752 229.468 13.0528 228.583 13.0528C227.645 13.0528 226.921 12.5752 226.921 11.9916C226.921 11.3549 227.645 10.895 228.583 10.895Z" fill="white"/>
<path d="M218.099 0.0887451C221.477 0.0887451 223.595 2.6179 223.595 6.54428C223.595 10.5414 221.531 13.0706 218.099 13.0706C214.587 13.0706 212.549 10.6475 212.549 6.65039C212.549 2.60021 214.667 0.0887451 218.099 0.0887451ZM218.099 0.637023C215.793 0.637023 215.177 2.98931 215.177 6.59734C215.177 10.223 215.793 12.5223 218.099 12.5223C220.351 12.5223 220.968 10.223 220.968 6.59734C220.968 2.98931 220.378 0.637023 218.099 0.637023Z" fill="white"/>
<path d="M200.725 11.3373H205.123C207.348 11.3373 207.857 11.2312 208.367 10.9482C209.01 10.5768 209.386 10.1346 209.788 9.56865C209.868 9.44484 209.949 9.42716 210.217 9.48022C210.458 9.53328 210.512 9.58633 210.485 9.69245C210.136 10.5945 209.6 11.8502 209.144 12.7699C207.428 12.7168 205.9 12.7168 204.184 12.7168C202.441 12.7168 200.913 12.7168 199.197 12.7699C198.956 12.7699 198.875 12.7345 198.875 12.4515C198.875 12.1685 198.902 12.1509 199.063 11.9917C200.591 10.3468 201.557 9.40947 203.755 7.53471C205.954 5.65996 207.214 4.70489 207.214 3.09543C207.214 1.69821 206.329 0.637023 204.667 0.637023C203.433 0.637023 202.71 1.09687 202.361 1.62746C202.173 1.89276 202.093 2.33492 202.093 2.90088C202.093 3.37841 201.154 3.69677 200.27 3.69677C199.707 3.69677 199.278 3.55528 199.278 3.06006C199.278 1.94582 201.423 0.0887451 204.667 0.0887451C207.965 0.0887451 209.841 1.46828 209.841 3.16618C209.841 5.37697 207.67 6.22592 205.149 7.87076C202.361 9.67477 201.53 10.453 200.725 11.3373Z" fill="white"/>
<path d="M192.987 8.15324C194.113 8.15324 195.024 7.97638 196.177 7.35736C196.338 7.25124 196.445 7.28661 196.579 7.37504C196.74 7.46348 196.74 7.53422 196.606 7.65803C195.453 8.54234 194.113 9.32055 192.665 9.32055C191.539 9.32055 190.681 9.23211 189.34 8.71921C187.758 8.17093 186.766 7.79952 185.748 7.79952C184.622 7.79952 183.871 7.88795 182.503 8.52466C182.396 8.57772 182.262 8.56003 182.128 8.45391C182.021 8.36548 182.021 8.31242 182.128 8.22399C183.308 7.35736 184.622 6.6499 186.096 6.6499C187.195 6.6499 187.973 6.77371 189.34 7.21587C190.869 7.6934 191.914 8.15324 192.987 8.15324Z" fill="white"/>
<path d="M174.112 0.0887451C177.49 0.0887451 179.608 2.6179 179.608 6.54428C179.608 10.5414 177.544 13.0706 174.112 13.0706C170.599 13.0706 168.562 10.6475 168.562 6.65039C168.562 2.60021 170.68 0.0887451 174.112 0.0887451ZM174.112 0.637023C171.806 0.637023 171.189 2.98931 171.189 6.59734C171.189 10.223 171.806 12.5223 174.112 12.5223C176.364 12.5223 176.981 10.223 176.981 6.59734C176.981 2.98931 176.391 0.637023 174.112 0.637023Z" fill="white"/>
<path d="M160.706 0.0887451C164.084 0.0887451 166.202 2.6179 166.202 6.54428C166.202 10.5414 164.138 13.0706 160.706 13.0706C157.194 13.0706 155.156 10.6475 155.156 6.65039C155.156 2.60021 157.274 0.0887451 160.706 0.0887451ZM160.706 0.637023C158.4 0.637023 157.784 2.98931 157.784 6.59734C157.784 10.223 158.4 12.5223 160.706 12.5223C162.958 12.5223 163.575 10.223 163.575 6.59734C163.575 2.98931 162.985 0.637023 160.706 0.637023Z" fill="white"/>
<path d="M150.19 4.63403C151.075 4.63403 151.799 5.09388 151.799 5.7129C151.799 6.31424 151.075 6.79177 150.19 6.79177C149.252 6.79177 148.528 6.31424 148.528 5.7129C148.528 5.09388 149.252 4.63403 150.19 4.63403ZM150.19 10.895C151.075 10.895 151.799 11.3549 151.799 11.9916C151.799 12.5752 151.075 13.0528 150.19 13.0528C149.252 13.0528 148.528 12.5752 148.528 11.9916C148.528 11.3549 149.252 10.895 150.19 10.895Z" fill="white"/>
<path d="M142.924 9.3561V10.1343C142.897 11.2485 142.871 11.4608 143.139 11.8676C143.353 12.2213 144.211 12.239 145.096 12.292C145.23 12.292 145.31 12.3274 145.31 12.5396C145.31 12.7519 145.257 12.7696 145.096 12.7696C144.104 12.7342 142.844 12.6811 141.852 12.6811C140.833 12.6811 139.519 12.7342 138.527 12.7696C138.313 12.7696 138.259 12.7519 138.259 12.5396C138.259 12.3274 138.339 12.3097 138.527 12.292C139.224 12.239 140.136 12.2036 140.323 11.9383C140.618 11.5669 140.645 11.1071 140.672 10.1697V9.37378H136.302C135.39 9.37378 134.666 9.39147 133.942 9.39147C133.701 9.39147 133.621 9.33841 133.621 8.93162C133.621 8.54252 133.621 8.52484 133.889 8.22417C136.436 5.34129 138.447 3.14818 141.128 0.318355L142.897 0C143.005 0 143.085 0.0353734 143.085 0.176865C143.031 1.59178 143.031 3.00669 142.978 4.63383L142.924 8.7017C143.836 8.7017 144.747 8.66633 145.686 8.61327C145.82 8.61327 145.873 8.64864 145.847 8.73707L145.632 9.28535C145.605 9.37378 145.552 9.39147 145.391 9.39147C144.613 9.3561 143.702 9.3561 142.924 9.3561ZM140.672 8.71939L140.726 4.95219C140.752 3.6434 140.779 2.93594 140.86 1.75095C138.822 3.92638 136.731 6.19024 134.827 8.45409C134.666 8.63096 134.72 8.71939 135.042 8.71939H140.672Z" fill="white"/>
<path d="M123.54 1.8217L122.521 2.03393C122.253 2.08699 122.146 2.06931 122.038 1.83938C121.958 1.62715 121.985 1.59178 122.306 1.52103C124.049 1.09656 125.819 0.583652 127.481 0C127.749 0 127.91 0.106119 127.91 0.212237C127.883 1.60946 127.803 2.61758 127.803 4.05018V9.4799C127.803 11.2309 127.83 11.4431 128.098 11.7968C128.393 12.1505 129.385 12.1682 130.484 12.239C130.672 12.2567 130.725 12.3097 130.725 12.5043C130.725 12.7165 130.672 12.7519 130.484 12.7519C129.304 12.7165 127.856 12.6811 126.73 12.6811C125.443 12.6811 124.13 12.7165 122.87 12.7519C122.655 12.7519 122.601 12.7165 122.601 12.5043C122.601 12.3097 122.682 12.2567 122.87 12.239C123.942 12.1859 124.88 12.1682 125.202 11.7968C125.497 11.4077 125.497 10.6472 125.497 9.4799V3.21892C125.497 2.58221 125.417 2.12237 125.202 1.91013C125.068 1.78632 124.88 1.69789 124.505 1.69789C124.264 1.69789 123.942 1.73327 123.54 1.8217Z" fill="white"/>
<path d="M63.0135 9.60888V8.04875C63.0135 7.51788 62.9966 7.10618 62.9461 6.56446C63.5354 6.71614 63.7879 6.80282 64.3771 7.00867H67.5253V5.026H64.0236C63.0976 5.99025 61.9529 6.73781 60.4882 7.3662C60.404 7.3987 60.2525 7.30119 60.3199 7.25785C61.5657 6.49946 62.8283 5.18852 63.468 4.06175C63.6869 3.68256 63.8384 3.32503 63.9057 3C65.3199 3.27086 65.7576 3.40087 65.7576 3.55255C65.7576 3.66089 65.5724 3.71506 65.0505 3.76923C64.8148 4.12676 64.5623 4.45179 64.2761 4.75515H71.9697C72.7273 4.1701 72.862 4.12676 72.963 4.12676C73.0808 4.12676 73.2155 4.15926 74.0067 4.59263C74.3771 4.78765 74.4613 4.86349 74.4613 4.92849C74.4613 4.9935 74.3771 5.026 74.2088 5.026H68.7879V7.00867H71.2626C72.0034 6.45612 72.0875 6.42362 72.2054 6.42362C72.3232 6.42362 72.4242 6.44529 73.2155 6.83532C73.5859 7.03034 73.6364 7.10618 73.6364 7.17118C73.6364 7.24702 73.569 7.27952 73.4007 7.27952H68.7879V9.60888H72.4579C73.2492 9.00217 73.3838 8.95883 73.4848 8.95883C73.5859 8.95883 73.7205 9.00217 74.5455 9.4247C74.9327 9.63055 75 9.70639 75 9.78223C75 9.84724 74.9495 9.87974 74.7811 9.87974H68.7879C68.8047 11.2232 68.8384 12.2416 68.8384 12.61C68.8384 12.87 68.569 13 68.0471 13C67.6263 13 67.4579 12.9025 67.4579 12.6858C67.4579 12.4583 67.5253 11.6782 67.5253 9.87974H61.3973C60.9764 9.87974 60.6566 9.90141 60.1684 9.94475L60 9.53304C60.5387 9.58722 60.8923 9.60888 61.3805 9.60888H63.0135ZM64.2256 9.60888H67.5253V7.27952H64.2256V9.60888Z" fill="white"/>
<path d="M47.9928 6.51762L48.1799 6.53523C49.1151 5.5664 50.8609 5.12602 52.2326 5.12602C55.9113 5.12602 58 6.71138 58 8.9309C58 11.2385 55.4125 13 51.6715 13C47.9616 13 45 11.1328 45 8.13821C45 5.16125 47.4005 3.11789 50.9544 1.58537C52.3573 0.951219 54.6643 0.228996 55.8801 0C56.1295 0 56.2854 0 56.7218 0.317073C56.8777 0.440379 56.9401 0.563686 56.9401 0.651762C56.9401 0.757452 56.8465 0.827913 56.6595 0.827913C54.9137 0.880758 53.4173 1.23306 52.2638 1.69106C50.1127 2.60705 48.554 4.24526 47.9928 6.51762ZM51.5779 5.79539C50.2374 5.79539 49.1151 6.34146 48.3357 7.22222C48.0552 7.55691 47.9305 7.78591 47.9305 8.31436C47.9305 11.0976 49.5204 12.4539 51.6715 12.4539C53.7602 12.4539 54.976 10.9214 54.976 8.98374C54.976 7.20461 53.9161 5.79539 51.5779 5.79539Z" fill="white"/>
<path d="M32.0705 10.6444H36.9916C39.4822 10.6444 40.0523 10.5439 40.6224 10.2762C41.3426 9.92469 41.7627 9.50628 42.2128 8.97071C42.3028 8.85356 42.3928 8.83682 42.6929 8.88703C42.963 8.93724 43.023 8.98745 42.993 9.08787C42.6029 9.94142 42.0028 11.1297 41.4926 12C39.5722 11.9498 37.8618 11.9498 35.9414 11.9498C33.9909 11.9498 32.2805 11.9498 30.3601 12C30.09 12 30 11.9665 30 11.6987C30 11.431 30.03 11.4142 30.21 11.2636C31.9204 9.70711 33.0007 8.82008 35.4612 7.04603C37.9218 5.27197 39.3321 4.3682 39.3321 2.84519C39.3321 1.52301 38.3419 0.518829 36.4815 0.518829C35.1012 0.518829 34.291 0.953976 33.9009 1.45607C33.6908 1.70711 33.6008 2.12552 33.6008 2.66109C33.6008 3.11297 32.5506 3.41423 31.5604 3.41423C30.9302 3.41423 30.4501 3.28034 30.4501 2.81172C30.4501 1.75732 32.8507 0 36.4815 0C40.1723 0 42.2728 1.30544 42.2728 2.91213C42.2728 5.00418 39.8423 5.80753 37.0216 7.36402C33.9009 9.07113 32.9707 9.80753 32.0705 10.6444Z" fill="white"/>
<path d="M21.5316 0C25.5073 0 28 2.5327 28 6.46458C28 10.4673 25.5704 13 21.5316 13C17.3981 13 15 10.5736 15 6.57085C15 2.51499 17.4927 0 21.5316 0ZM21.5316 0.549047C18.818 0.549047 18.0922 2.90463 18.0922 6.51771C18.0922 10.1485 18.818 12.451 21.5316 12.451C24.182 12.451 24.9078 10.1485 24.9078 6.51771C24.9078 2.90463 24.2136 0.549047 21.5316 0.549047Z" fill="white"/>
<path d="M2.07047 10.6444H6.9916C9.48217 10.6444 10.0523 10.5439 10.6224 10.2762C11.3426 9.92469 11.7627 9.50628 12.2128 8.97071C12.3028 8.85356 12.3928 8.83682 12.6929 8.88703C12.963 8.93724 13.023 8.98745 12.993 9.08787C12.6029 9.94142 12.0028 11.1297 11.4926 12C9.57219 11.9498 7.8618 11.9498 5.94136 11.9498C3.99091 11.9498 2.28052 11.9498 0.360083 12C0.0900206 12 0 11.9665 0 11.6987C0 11.431 0.0300068 11.4142 0.210048 11.2636C1.92044 9.70711 3.00069 8.82008 5.46125 7.04603C7.92182 5.27197 9.33214 4.3682 9.33214 2.84519C9.33214 1.52301 8.34191 0.518829 6.48148 0.518829C5.10117 0.518829 4.29098 0.953976 3.90089 1.45607C3.69085 1.70711 3.60083 2.12552 3.60083 2.66109C3.60083 3.11297 2.55058 3.41423 1.56036 3.41423C0.930213 3.41423 0.450103 3.28034 0.450103 2.81172C0.450103 1.75732 2.85065 0 6.48148 0C10.1723 0 12.2728 1.30544 12.2728 2.91213C12.2728 5.00418 9.84226 5.80753 7.02161 7.36402C3.90089 9.07113 2.97068 9.80753 2.07047 10.6444Z" fill="white"/>
<path d="M252.411 81.6094C254.131 82.2668 255.738 83.0625 256.841 84.0485C257.495 84.6366 258 85.2075 258 85.6745C258 86.1416 257.682 86.401 257.234 86.401C256.972 86.401 256.729 86.2454 256.43 85.8648C255.196 84.2215 253.832 83.0279 252 82.0246C250.879 83.1663 249.664 84.1523 248.355 84.948C247.103 85.7264 245.794 86.3491 244.71 86.7124C244.523 86.7816 244.336 86.8335 244.206 86.8335C244.093 86.8335 244 86.7124 244 86.6259C244 86.5394 244.075 86.4356 244.187 86.3837C246.43 85.2421 248.374 83.9793 250.243 82.1457C251.626 80.8137 252.654 79.5337 253.776 77.7519C253.832 77.6655 253.85 77.6309 253.85 77.5963C253.85 77.5617 253.813 77.5617 253.701 77.5617C252.841 77.6136 250.71 77.873 248.822 78.219C248.449 78.2882 248.206 78.3574 248.056 78.4439C247.888 78.5304 247.776 78.6169 247.514 78.6169C247.196 78.6169 246.748 78.3228 246.355 77.8211C246 77.3714 245.85 77.1292 245.85 76.8351C245.85 76.6622 245.944 76.4719 246.037 76.4719C246.112 76.4719 246.243 76.5757 246.355 76.6795C246.841 77.1119 247.178 77.3368 247.589 77.3368C247.888 77.3368 248.523 77.2849 249.065 77.233C250.523 77.0946 252.075 76.9562 253.439 76.7832C253.757 76.7487 253.907 76.6622 254.075 76.5238C254.206 76.4027 254.336 76.3335 254.523 76.3335C254.804 76.3335 255.009 76.42 255.402 76.7487C255.907 77.1811 256.056 77.3714 256.056 77.579C256.056 77.7519 255.963 77.8211 255.589 77.9595C255.327 78.046 255.028 78.2709 254.804 78.5996C254.299 79.3434 253.383 80.5543 252.411 81.6094Z" fill="white"/>
<path d="M240.171 83.0327C240.171 83.6297 239.951 83.9458 239.398 83.9458C239.012 83.9458 238.772 83.6999 238.57 83.2785C238.072 82.225 237.612 81.5051 237.005 80.8028C236.452 80.1707 235.808 79.6264 235.108 79.1523C234.887 79.0118 234.777 78.9065 234.777 78.8187C234.777 78.6782 234.887 78.608 234.998 78.608C235.127 78.608 235.274 78.6607 235.513 78.7484C236.581 79.1698 237.594 79.7844 238.496 80.557C239.306 81.2418 240.171 82.3304 240.171 83.0327ZM230.671 80.1004C230.671 79.9249 230.505 79.7142 230.063 79.4157C229.879 79.2928 229.842 79.2576 229.842 79.1874C229.842 79.0645 230.1 78.9767 230.303 78.9767C230.56 78.9767 230.91 79.0996 231.371 79.3981C231.923 79.7668 232.457 80.2585 232.457 80.715C232.457 80.9959 232.31 81.1364 231.997 81.2418C231.849 81.2944 231.702 81.4173 231.499 81.6105C230.708 82.3655 229.934 83.0327 228.995 83.6999C227.983 84.4198 226.86 85.0695 225.7 85.526C225.46 85.6314 225.331 85.6665 225.239 85.6665C225.11 85.6665 225 85.5787 225 85.4382C225 85.3329 225.092 85.2627 225.276 85.1573C226.418 84.455 227.43 83.6824 228.314 82.9274C229.032 82.2777 229.658 81.628 230.155 81.0311C230.505 80.5921 230.671 80.3287 230.671 80.1004ZM239.325 75.1665C240.245 75.1665 241 75.8864 241 76.7643C241 77.6423 240.245 78.3622 239.325 78.3622C238.404 78.3622 237.649 77.6423 237.649 76.7643C237.649 75.8864 238.404 75.1665 239.325 75.1665ZM239.325 75.7284C238.717 75.7284 238.238 76.1849 238.238 76.7643C238.238 77.3438 238.717 77.8003 239.325 77.8003C239.932 77.8003 240.411 77.3438 240.411 76.7643C240.411 76.1849 239.932 75.7284 239.325 75.7284Z" fill="white"/>
<path d="M224.71 76.7657C224.826 76.7657 225 76.8918 225 76.9999C225 77.0899 224.961 77.198 224.865 77.3241C223.725 79.035 222.238 80.656 220.577 82.1508C219.012 83.5736 217.351 84.7983 215.535 86.0591C215.322 86.2031 215.129 86.3652 215.052 86.4733C214.897 86.7074 214.685 86.8335 214.434 86.8335C213.99 86.8335 213.623 86.5273 213.198 86.1311C212.599 85.5368 212.367 85.1045 212.367 84.6903C212.367 84.4201 212.444 84.24 212.58 84.24C212.657 84.24 212.715 84.294 212.85 84.4381C213.236 84.8704 213.468 85.0685 213.777 85.0685C213.97 85.0685 214.279 84.9784 214.685 84.7443C216.385 83.8258 218.162 82.6191 219.842 81.2683C221.581 79.8455 223.223 78.3687 224.44 76.9278C224.536 76.8198 224.633 76.7657 224.71 76.7657ZM212.212 76.3335C212.29 76.3335 212.406 76.3335 212.618 76.3695C213.429 76.5316 214.202 76.8558 214.762 77.198C215.612 77.7203 215.921 78.1886 215.921 78.8549C215.921 79.3232 215.612 79.6474 215.187 79.6474C214.782 79.6474 214.608 79.5033 214.357 79.035C214.163 78.6928 213.932 78.2966 213.545 77.8284C213.14 77.3601 212.637 76.9819 212.155 76.6937C212.058 76.6397 212 76.5496 212 76.4776C212 76.4055 212.097 76.3335 212.212 76.3335Z" fill="white"/>
<path d="M199.292 79.9338C200.59 79.5207 201.766 79.1272 202.665 78.8518C202.907 78.7731 203.011 78.655 203.132 78.5173C203.288 78.3402 203.374 78.2812 203.53 78.2812C203.72 78.2812 203.945 78.3993 204.464 78.8518C204.879 79.2256 205 79.4026 205 79.6584C205 79.9142 204.862 80.0322 204.568 80.0716C204.377 80.0912 204.256 80.1502 204.118 80.3076C203.409 81.1143 202.354 82.2554 201.42 83.0423C201.281 83.1407 201.195 83.18 201.108 83.18C201.022 83.18 200.918 83.062 200.918 82.9833C200.918 82.8849 200.987 82.7866 201.074 82.6685C201.783 81.8029 202.406 80.9569 203.219 79.619C203.27 79.5404 203.219 79.4617 203.132 79.4813C202.164 79.7568 200.642 80.288 199.465 80.7011C199.569 81.2323 199.69 81.7438 199.811 82.3537C200.14 83.8293 200.451 85.2065 200.763 86.5443C200.849 86.9181 200.918 87.2132 200.918 87.469C200.918 87.7444 200.693 88.0002 200.434 88.0002C200.123 88.0002 199.898 87.9215 199.829 87.4886C199.5 85.777 199.189 84.0457 198.877 82.5111C198.774 81.9406 198.67 81.4291 198.583 80.9962C197.597 81.3504 196.871 81.6455 196.248 81.9209C195.954 82.0783 195.851 82.157 195.747 82.275C195.643 82.3931 195.522 82.4718 195.366 82.4718C195.159 82.4718 194.986 82.3734 194.571 81.9209C194.156 81.4684 194 81.1339 194 80.7405C194 80.6027 194.052 80.4454 194.121 80.4454C194.19 80.4454 194.225 80.4847 194.311 80.5831C194.605 80.8782 194.813 81.0553 195.072 81.0553C195.297 81.0553 195.557 81.0356 195.954 80.9175C196.715 80.7011 197.546 80.465 198.41 80.1699C198.237 79.3043 198.082 78.655 197.943 78.0648C197.857 77.7303 197.788 77.4746 197.684 77.3172C197.615 77.1992 197.476 77.1598 197.321 77.1401C197.182 77.1205 197.044 77.1205 196.888 77.1205C196.767 77.1205 196.698 77.0811 196.698 76.9827C196.698 76.8844 196.785 76.727 196.992 76.5696C197.2 76.4122 197.355 76.3335 197.58 76.3335C197.892 76.3335 198.237 76.5106 198.566 76.668C199.068 76.9631 199.171 77.1401 199.171 77.3172C199.171 77.4549 199.119 77.573 199.068 77.6713C199.016 77.7697 198.981 77.8484 198.981 77.9468C198.981 78.0255 198.981 78.1632 199.016 78.3599C199.085 78.8518 199.171 79.3043 199.292 79.9338Z" fill="white"/>
<path d="M183.363 81.1064C184.501 80.8749 185.328 80.679 186.246 80.4652C186.503 80.4118 186.686 80.3228 186.815 80.1981C186.98 80.0556 187.201 80.02 187.531 80.02C187.88 80.0378 188.302 80.109 188.559 80.2337C188.835 80.3584 189 80.5543 189 80.768C189 81.0886 188.78 81.2667 188.321 81.2667C188.008 81.2667 187.549 81.2667 187.054 81.3201C186.209 81.4092 185.254 81.5517 183.51 81.9257C183.804 83.5108 184.153 85.2028 184.428 86.4852C184.501 86.788 184.593 87.1798 184.593 87.4114C184.593 87.7676 184.299 87.9991 183.914 87.9991C183.528 88.0169 183.326 87.7676 183.253 87.2333C183.051 85.8084 182.702 83.7246 182.427 82.1929C181.233 82.46 180.242 82.7094 179.305 83.0121C178.773 83.1903 178.534 83.2793 178.442 83.404C178.258 83.5999 178.13 83.6533 177.891 83.6533C177.469 83.6533 176.698 83.2259 176.22 82.6737C176.092 82.5135 176 82.3353 176 82.1751C176 82.0504 176.055 81.9613 176.129 81.9613C176.184 81.9613 176.312 82.0326 176.404 82.086C176.863 82.3353 177.157 82.4244 177.432 82.4244C177.708 82.4244 178.093 82.3353 178.607 82.2107C179.709 81.9435 180.939 81.6585 182.28 81.338C182.133 80.4474 181.968 79.6103 181.802 78.7376C181.049 78.9335 180.407 79.0938 179.838 79.2541C179.452 79.361 179.066 79.4144 178.883 79.5391C178.736 79.646 178.607 79.6816 178.424 79.6816C178.13 79.6816 177.744 79.5035 177.34 79.1294C176.9 78.7376 176.698 78.4883 176.698 78.2923C176.698 78.1321 176.771 78.043 176.845 78.043C176.936 78.043 176.992 78.0786 177.102 78.1499C177.506 78.417 177.836 78.5595 178.314 78.5595C178.589 78.5595 178.956 78.4883 179.397 78.3992C180.021 78.2745 180.866 78.1142 181.637 77.9183C181.398 76.725 181.251 75.9948 181.086 75.3358C181.031 75.1221 180.939 74.9618 180.811 74.8371C180.664 74.7124 180.352 74.6768 179.893 74.659C179.764 74.659 179.691 74.6056 179.691 74.5165C179.691 74.4096 179.838 74.285 179.948 74.2137C180.131 74.1069 180.388 74 180.664 74C181.141 74 181.582 74.0712 182.078 74.2672C182.518 74.4275 182.739 74.6412 182.739 74.8905C182.739 75.033 182.665 75.1755 182.573 75.2646C182.5 75.3536 182.427 75.4783 182.445 75.7454C182.463 76.1907 182.555 76.7784 182.72 77.6334C183.51 77.4553 184.281 77.2593 184.96 77.0634C185.071 77.0278 185.236 76.9566 185.401 76.8141C185.585 76.6716 185.86 76.5647 186.081 76.5647C186.393 76.5647 186.76 76.6003 187.035 76.6894C187.292 76.7784 187.458 76.9744 187.458 77.1525C187.458 77.384 187.347 77.5265 187.127 77.5621C186.833 77.6155 186.503 77.6868 186.081 77.758C185.144 77.9539 184.134 78.1855 182.886 78.4705C183.032 79.361 183.198 80.1803 183.363 81.1064Z" fill="white"/>
<path d="M161.143 79.5515L157.262 79.8976C156.71 79.9408 156.379 80.0129 155.864 80.1283L155.607 79.5948C156.453 79.6092 156.802 79.5948 157.188 79.5515L161.143 79.2054V76.783C159.671 76.9993 158.108 77.1434 156.361 77.2444C156.232 77.2444 156.159 77.0137 156.287 76.9993C159.543 76.5378 162.522 75.889 164.674 75.1103C165.667 74.7642 166.476 74.3893 167.046 74C168.076 74.5624 168.609 74.9228 168.609 75.0815C168.609 75.2545 168.333 75.3122 167.616 75.1824C165.961 75.788 164.287 76.235 162.485 76.5667V79.0901L166.825 78.7152C167.561 77.8067 167.653 77.7635 167.763 77.7635C167.91 77.7635 168.021 77.8067 169.014 78.297C169.455 78.5133 169.529 78.5998 169.529 78.7007C169.529 78.7584 169.437 78.8161 169.29 78.8305L162.485 79.4361V82.0172L168.021 81.4981C168.775 80.5609 168.867 80.5032 169.014 80.5032C169.143 80.5032 169.253 80.5609 170.283 81.0655C170.743 81.2963 170.834 81.3684 170.834 81.4837C170.834 81.5414 170.743 81.5991 170.559 81.6135L162.485 82.3777V84.8723C162.485 85.6654 162.761 85.8528 165.391 85.8528C168.297 85.8528 169.032 85.6798 169.308 85.3337C169.584 84.9588 169.731 84.5551 170.136 83.488C170.154 83.4159 170.338 83.4448 170.338 83.5169C170.32 83.9783 170.301 84.5262 170.301 84.93C170.301 85.1895 170.411 85.2905 170.595 85.3625C170.908 85.4923 171 85.6077 171 85.7951C171 86.1268 170.669 86.3719 169.989 86.5594C169.234 86.7468 168.021 86.8333 165.464 86.8333C161.86 86.8333 161.124 86.5305 161.124 85.0597C161.124 84.7713 161.143 84.1369 161.143 82.5075L156.674 82.9257C156.122 82.9833 155.754 83.0266 155.257 83.1275L155 82.6084C155.828 82.6228 156.159 82.6084 156.6 82.5652L161.143 82.147V79.5515Z" fill="white"/>
<path d="M137.049 80.5978V80.9405C137.049 81.2305 136.8 81.336 136.302 81.336C135.881 81.336 135.747 81.2437 135.747 81.0196C135.747 80.5846 135.823 79.82 135.823 77.3944C135.823 76.287 135.823 75.7597 135.709 75.1665C136.379 75.3379 136.608 75.417 137.202 75.6674H142.009C142.564 75.2324 142.66 75.1929 142.774 75.1929C142.909 75.1929 143.004 75.2324 143.579 75.5883C143.885 75.7597 143.943 75.8388 143.943 75.9179C143.943 76.0234 143.866 76.0893 143.426 76.3002V77.4076C143.426 79.3981 143.502 80.4132 143.502 80.7032C143.502 80.9801 143.234 81.1119 142.755 81.1119C142.353 81.1119 142.2 81.0196 142.2 80.7823V80.5978H140.266V82.417H141.817C142.449 81.8897 142.583 81.8238 142.717 81.8238C142.832 81.8238 142.966 81.8897 143.674 82.2851C144 82.4565 144.077 82.5356 144.077 82.6147C144.077 82.707 144.019 82.7465 143.828 82.7465H140.266V84.5526C141.53 84.3944 142.736 84.1966 143.809 83.9989C143.923 83.9725 143.981 84.1439 143.885 84.1703C141.626 84.869 139.194 85.4094 136.226 85.8972C136.091 86.2136 135.996 86.319 135.785 86.319C135.555 86.319 135.517 86.2795 135 85.0008C135.46 85.0008 136.168 84.9612 136.896 84.9085C137.566 84.8558 138.255 84.7899 138.945 84.7108V82.7465H136.609C136.168 82.7465 135.843 82.7597 135.383 82.8256L135.191 82.3379C135.709 82.3906 136.072 82.417 136.57 82.417H138.945V80.5978H137.049ZM137.049 80.2682H138.945V78.2644H137.049V80.2682ZM142.2 80.2682V78.2644H140.266V80.2682H142.2ZM142.2 77.9349V75.997H140.266V77.9349H142.2ZM138.945 75.997H137.049V77.9349H138.945V75.997ZM145.838 75.6674H150.223C150.874 75.2456 150.97 75.2061 151.085 75.2061C151.238 75.2061 151.372 75.2456 152.062 75.7202C152.311 75.9047 152.406 76.0102 152.406 76.1025C152.406 76.2475 152.291 76.3002 151.813 76.3661C151.64 76.3793 151.545 76.4057 151.372 76.5243C150.396 77.1966 149.63 77.6712 148.806 78.0931C149.074 78.304 149.228 78.5149 149.228 78.7258C149.228 79.0422 148.921 79.2927 148.519 79.2927C148.174 79.2927 148.04 79.2004 147.811 78.8049C147.389 78.1722 146.911 77.6844 146.049 77.1966C145.991 77.1571 146.068 77.078 146.145 77.0912C147.121 77.2757 147.906 77.5526 148.462 77.869C149.228 77.2494 149.726 76.6957 150.223 75.997H145.857C145.398 75.997 145.149 76.0102 144.709 76.0761L144.517 75.6015C144.977 75.6411 145.321 75.6674 145.838 75.6674ZM148.596 79.7409V83.0629C148.596 84.6712 148.653 85.2644 148.653 85.7522C148.653 86.2004 148.481 86.4245 148.021 86.6091C147.715 86.7277 147.217 86.8332 146.872 86.8332C146.643 86.8332 146.604 86.7673 146.528 86.5168C146.451 86.1609 146.049 85.9895 144.402 85.739C144.287 85.7258 144.287 85.5545 144.402 85.5545C145.551 85.6204 146.317 85.6599 146.891 85.6599C147.121 85.6599 147.217 85.594 147.217 85.4226V79.7409H145.436C144.977 79.7409 144.689 79.7541 144.172 79.8332L143.981 79.3322C144.613 79.385 144.919 79.4113 145.398 79.4113H150.874C151.487 78.9631 151.583 78.9104 151.698 78.9104C151.851 78.9104 151.947 78.9763 152.617 79.4377C152.923 79.6618 153 79.7409 153 79.8332C153 79.9782 152.866 80.0309 152.387 80.0836C152.138 80.11 152.081 80.1627 151.794 80.4528C151.296 80.901 150.549 81.4283 149.974 81.8106C149.898 81.8501 149.745 81.771 149.783 81.7183C150.281 81.0723 150.721 80.3473 150.989 79.7409H148.596Z" fill="white"/>
<path d="M124.49 86.4H129.916C130.906 85.5338 131.058 85.4639 131.172 85.4639C131.287 85.4639 131.439 85.5338 132.429 86.1346C132.905 86.442 133 86.5398 133 86.6236C133 86.7074 132.943 86.7493 132.753 86.7493H117.809C117.256 86.7493 116.781 86.7773 116.19 86.8332L116 86.3022C116.704 86.3861 117.18 86.4 117.789 86.4H123.025V78.0028C123.025 76.5497 123.006 75.6835 122.91 75.1665C124.966 75.3062 125.195 75.432 125.195 75.5857C125.195 75.7254 125.062 75.8232 124.49 75.9769V80.1685H128.317C129.25 79.3022 129.402 79.2463 129.516 79.2463C129.63 79.2463 129.783 79.3022 130.792 79.9449C131.23 80.2244 131.306 80.2942 131.306 80.3921C131.306 80.4759 131.249 80.5178 131.058 80.5178H124.49V86.4Z" fill="white"/>
<path d="M101.795 78.7557H108.163C108.807 78.3187 108.902 78.2623 109.016 78.2623C109.148 78.2623 109.243 78.3187 109.944 78.7698C110.229 78.9812 110.304 79.0658 110.304 79.1504C110.304 79.3055 110.115 79.3619 109.47 79.4042C108.352 80.0667 107.556 80.4473 106.495 80.8703C106.59 80.8984 106.609 80.9548 106.609 81.0112C106.609 81.1381 106.495 81.2227 106.002 81.3778V81.8852H111.157C112.048 81.1099 112.181 81.0253 112.294 81.0253C112.427 81.0253 112.56 81.1099 113.488 81.6597C113.924 81.9275 114 82.0121 114 82.0967C114 82.1813 113.943 82.2377 113.754 82.2377H106.002V83.3654C106.021 84.7893 106.059 85.1417 106.059 85.5928C106.059 86.0157 105.832 86.2694 105.528 86.4809C105.225 86.6924 104.77 86.8333 104.183 86.8333C103.918 86.8333 103.861 86.791 103.804 86.5373C103.728 86.1285 103.311 85.917 101.624 85.6492C101.511 85.6351 101.53 85.4518 101.643 85.4659C102.913 85.5505 103.709 85.5928 104.278 85.5928C104.524 85.5928 104.619 85.5223 104.619 85.3531V82.2377H98.4404C98.0234 82.2377 97.6823 82.2518 97.1895 82.3223L97 81.7866C97.5496 81.8571 97.9097 81.8852 98.4024 81.8852H104.619C104.619 81.1663 104.619 81.0112 104.562 80.5883C105.206 80.6588 105.642 80.7152 105.945 80.7575C106.912 80.1654 107.499 79.7002 108.125 79.1081H101.833C101.34 79.1081 101.018 79.1222 100.544 79.2068L100.336 78.657C100.904 78.7275 101.226 78.7557 101.795 78.7557ZM111.802 77.2614H99.369C99.369 78.4456 98.6867 79.1786 97.8339 79.1786C97.398 79.1786 97.0569 78.9249 97.0569 78.6006C97.0569 78.361 97.2085 78.1777 97.6444 77.9944C98.5541 77.6138 98.8763 77.1627 99.0089 76.2746C99.0089 76.2182 99.1984 76.2182 99.2174 76.2746C99.2742 76.5001 99.3122 76.7116 99.3311 76.909H107.992C108.485 76.3874 108.94 75.8094 109.319 75.2455C109.584 74.8367 109.793 74.442 109.925 74.0895C111.423 74.5829 111.764 74.7662 111.764 74.9072C111.764 75.0622 111.593 75.1468 110.949 75.1468C110.247 75.7812 109.376 76.3874 108.542 76.909H111.669C112.313 76.3874 112.408 76.331 112.541 76.331C112.673 76.331 112.787 76.3874 113.545 76.9372C113.905 77.205 113.981 77.3037 113.981 77.3883C113.981 77.5997 113.848 77.6561 113.242 77.6702C113.014 77.6843 112.958 77.7125 112.825 77.8112C112.446 78.1213 111.896 78.4456 111.271 78.7416C111.195 78.7839 111.062 78.6993 111.1 78.6429C111.404 78.2059 111.631 77.7971 111.802 77.2614ZM105.756 76.4438C105.339 76.4438 105.206 76.331 105.074 75.7812C104.903 75.175 104.505 74.5688 103.993 74.1318C103.936 74.0754 104.031 73.9768 104.126 74.005C105.68 74.442 106.571 75.1186 106.571 75.7953C106.571 76.1759 106.23 76.4438 105.756 76.4438ZM101.814 76.627C101.416 76.627 101.245 76.4861 101.075 75.9504C100.847 75.3442 100.506 74.7944 100.051 74.4138C99.9944 74.3715 100.089 74.2728 100.165 74.2869C101.719 74.6816 102.591 75.3301 102.591 75.9927C102.591 76.3451 102.269 76.627 101.814 76.627Z" fill="white"/>
<path d="M93.5248 79.0677H85.9456C86.5696 80.9723 87.6339 82.3646 89.2856 83.5599C90.5885 84.5319 92.2952 85.2018 93.9469 85.6484C94.0386 85.6747 94.0019 85.7667 93.9101 85.7929C93.3963 85.9243 93.1761 86.1082 92.9559 86.5285C92.8825 86.673 92.7907 86.7387 92.6622 86.7387C92.4971 86.7387 92.1851 86.6205 91.6896 86.384C90.3683 85.7798 89.0837 84.8735 88.2395 84.0591C87.01 82.89 86.1108 81.3269 85.6336 79.3172C85.2483 81.3532 84.5142 82.6799 83.2847 83.8226C81.8349 85.1756 79.9814 86.1213 77.1736 86.8306C77.0452 86.8569 76.9351 86.673 77.0452 86.6336C79.8713 85.5696 81.633 84.2561 82.8626 82.5748C83.5232 81.6685 83.982 80.5651 84.2389 79.0677H79.0271C78.4949 79.0677 78.1095 79.0939 77.5039 79.1465L77.3204 78.6473C77.9994 78.713 78.4582 78.7393 79.0455 78.7393H84.2756C84.3857 77.9774 84.4408 77.1105 84.4408 76.1254C84.4408 75.7839 84.4224 75.5737 84.3674 75.1665C86.2392 75.3635 86.5329 75.4423 86.5329 75.6262C86.5329 75.7445 86.4411 75.8233 85.9089 75.9809C85.9089 76.4932 85.8906 76.9792 85.8539 77.4389C85.8172 77.8986 85.7805 78.3321 85.7254 78.7393H90.9189C91.8181 77.9643 91.9465 77.8855 92.0566 77.8855C92.1851 77.8855 92.3503 77.9643 93.2678 78.5029C93.6716 78.7524 93.7633 78.8575 93.7633 78.9363C93.7633 79.0283 93.7083 79.0677 93.5248 79.0677Z" fill="white"/>
<path d="M66.605 77.6329V78.649C66.605 83.8825 66.6996 85.7059 66.6996 86.3044C66.6996 86.6385 66.397 86.8055 65.8298 86.8055C65.3949 86.8055 65.2248 86.6663 65.2248 86.4018C65.2248 85.9564 65.3193 84.481 65.3193 79.8599V77.6329H63.939C63.5609 77.6329 63.2773 77.6468 62.8046 77.7025L62.6155 77.1875C63.126 77.257 63.4474 77.2849 63.9201 77.2849H65.3193C65.3193 75.2249 65.2815 74.5707 65.1869 74.1253C67.0777 74.2645 67.229 74.3062 67.229 74.4872C67.229 74.5985 67.1533 74.6542 66.605 74.8491V77.2849H67.7773C68.3634 76.742 68.4958 76.6725 68.6092 76.6725C68.7416 76.6725 68.8739 76.742 69.5357 77.1318C69.8193 77.3266 69.9139 77.4102 69.9139 77.4937C69.9139 77.5772 69.8382 77.6329 69.6681 77.6329H66.605ZM60.6113 80.4306V86.3601C60.6113 86.6663 60.3655 86.8333 59.8172 86.8333C59.4579 86.8333 59.2121 86.7081 59.2121 86.4018C59.2121 86.1235 59.3067 85.1213 59.3256 82.3236C59.3256 81.739 59.3445 81.1405 59.3445 80.5559C58.6827 81.0569 57.9642 81.5024 57.2079 81.8782C57.1134 81.9199 56.9432 81.7807 57.0188 81.7251C58.2478 80.7925 59.439 79.498 60.1953 78.3845C60.4979 77.9112 60.7247 77.4658 60.8571 77.0761C62.2563 77.5076 62.5777 77.6607 62.5777 77.7999C62.5777 77.9391 62.4264 77.9948 61.8781 78.0365C61.4054 78.6629 60.8571 79.2614 60.2331 79.8181C61.0084 79.9156 61.1407 79.9852 61.1407 80.1104C61.1407 80.2218 61.0651 80.2914 60.6113 80.4306ZM71.4454 78.7185H70.4622C70.0651 78.7185 69.7815 78.7464 69.2899 78.8021L69.1008 78.2592C69.6491 78.3567 69.9706 78.3706 70.4433 78.3706H72.75C73.4118 77.7721 73.5441 77.7025 73.6576 77.7025C73.7899 77.7025 73.9223 77.7721 74.6029 78.2035C74.9055 78.4123 75 78.5098 75 78.5933C75 78.6768 74.9433 78.7185 74.7542 78.7185H72.75V82.8664C72.75 84.5228 72.7878 84.9125 72.7878 85.511C72.8067 85.9704 72.5798 86.207 72.3529 86.374C72.0882 86.5828 71.6155 86.7081 71.0861 86.7081C70.8592 86.7081 70.8025 86.6524 70.7458 86.4297C70.6702 86.026 70.4622 85.8868 69.0819 85.6502C68.9874 85.6363 69.0063 85.4832 69.1008 85.4832C70.0462 85.5528 70.6134 85.5806 71.105 85.5806C71.3508 85.5806 71.4454 85.5249 71.4454 85.3579V78.7185ZM68.7038 76.5054C68.4202 76.5054 68.3256 76.4219 68.1933 76.0879C68.042 75.6703 67.6827 75.2388 67.229 74.9047C67.1722 74.863 67.2857 74.7795 67.3613 74.7934C68.6849 75.0857 69.2899 75.5033 69.2899 75.9626C69.2899 76.2549 69.0252 76.5054 68.7038 76.5054ZM69.0063 84.1748C68.5714 84.1748 68.458 83.9521 68.4201 82.8803C68.3634 81.6833 68.0042 80.4723 67.3991 79.2336C67.3613 79.1361 67.6071 79.0804 67.6828 79.164C68.9307 80.528 69.7815 82.1426 69.7815 83.2979C69.7815 83.8407 69.479 84.1748 69.0063 84.1748ZM70.0084 75.6981L69.8004 75.1692C70.3109 75.2388 70.6512 75.2666 71.0861 75.2666H72.3718C72.9958 74.682 73.1471 74.6124 73.2794 74.6124C73.3929 74.6124 73.5441 74.682 74.2248 75.1135C74.5084 75.2945 74.6029 75.378 74.6029 75.4615C74.6029 75.5728 74.5462 75.6146 74.3571 75.6146H71.105C70.7458 75.6146 70.4622 75.6424 70.0084 75.6981ZM57.4537 78.0087C57.3592 78.0504 57.189 77.8973 57.2836 77.8416C58.3991 77.1179 59.4201 76.0879 60.1197 75.1692C60.4411 74.7516 60.668 74.3619 60.8004 74C62.0483 74.348 62.6911 74.6124 62.6911 74.7655C62.6911 74.9047 62.4832 74.9743 61.8403 74.9883C60.6113 76.2966 59.231 77.2849 57.4537 78.0087ZM61.8214 84.9682C61.7458 85.0517 61.5 84.9682 61.5378 84.8708C62.313 83.3675 62.8991 81.043 62.8991 79.6094C62.8991 79.4841 62.8991 79.3588 62.8802 79.164C64.4117 79.3727 64.7332 79.4702 64.7332 79.6511C64.7332 79.7764 64.6386 79.8181 64.1848 79.9434C63.7121 82.1148 63.0693 83.618 61.8214 84.9682Z" fill="white"/>
<path d="M55.2972 82.7699H47.0975C48.1712 83.8067 49.4207 84.4511 51.0216 84.8994C52.4468 85.2776 54.1844 85.5018 55.9414 85.5298C56.0195 85.5298 56.0195 85.6699 55.9414 85.6839C55.3557 85.838 55.0824 86.0482 54.8091 86.6086C54.77 86.7066 54.6529 86.7627 54.4967 86.7627C54.321 86.7627 53.911 86.7066 53.5401 86.6366C52.4077 86.4264 51.0802 85.9921 50.1626 85.5999C48.8155 84.9975 47.6832 84.1849 46.746 82.896C46.3361 83.8627 45.6332 84.5912 44.618 85.1516C43.1147 86.0482 41.1234 86.5805 38.1364 86.8327C37.9997 86.8467 37.9411 86.6226 38.0778 86.5945C40.6744 86.1602 42.5486 85.4738 43.8371 84.4791C44.5009 83.9748 44.989 83.3724 45.2818 82.7699H39.9325C39.4249 82.7699 38.9758 82.798 38.4292 82.854L38.234 82.3216C38.8587 82.3917 39.3468 82.4197 39.913 82.4197H45.4185C45.5942 81.7893 45.6723 81.383 45.6528 81.0048C47.5855 81.2009 47.8003 81.2429 47.8003 81.425C47.8003 81.5511 47.6832 81.6632 47.117 81.7893C47.0779 81.9994 47.0194 82.1956 46.9413 82.4197H52.8763C53.6768 81.7332 53.8134 81.6772 53.9305 81.6772C54.0672 81.6772 54.2039 81.7332 55.1019 82.2376C55.4729 82.4477 55.551 82.5458 55.551 82.6439C55.551 82.7279 55.4924 82.7699 55.2972 82.7699ZM47.3708 80.3883H52.8373C53.6572 79.7019 53.8134 79.6318 53.9305 79.6318C54.0477 79.6318 54.2039 79.7019 55.0629 80.2062C55.4338 80.4304 55.5314 80.5144 55.5314 80.5985C55.5314 80.6965 55.4534 80.7386 55.2581 80.7386H39.8739C39.3468 80.7386 38.9368 80.7526 38.3511 80.8226L38.1559 80.2763C38.8001 80.3603 39.2687 80.3883 39.8349 80.3883H45.9261V78.6231H41.7481C41.2991 78.6231 40.8696 78.6371 40.3815 78.7072L40.1863 78.1608C40.7915 78.2449 41.2015 78.2729 41.7091 78.2729H45.9261V76.6338H40.6353C40.1668 76.6338 39.7568 76.6478 39.2492 76.7178L39.0344 76.1715C39.6201 76.2555 40.0691 76.2835 40.5963 76.2835H48.1908C48.6203 75.7932 48.9717 75.2609 49.2645 74.7985C49.4402 74.5184 49.5574 74.2522 49.6355 74C51.1583 74.4343 51.6268 74.6164 51.6268 74.7705C51.6268 74.9246 51.5097 74.9807 50.7873 75.0087C50.1626 75.513 49.5183 75.9333 48.8741 76.2835H52.2906C53.1106 75.6391 53.2472 75.5691 53.3644 75.5691C53.501 75.5691 53.6377 75.6391 54.4577 76.0874C54.8481 76.3256 54.9458 76.4096 54.9458 76.4937C54.9458 76.5918 54.8677 76.6338 54.6724 76.6338H47.3708V78.2729H51.0802C51.8416 77.6425 51.9978 77.5724 52.1149 77.5724C52.232 77.5724 52.3882 77.6425 53.2082 78.0908C53.5596 78.3009 53.6377 78.399 53.6377 78.483C53.6377 78.5671 53.5791 78.6231 53.3839 78.6231H47.3708V80.3883ZM44.2666 76.1575C43.8957 76.1575 43.759 76.0594 43.6223 75.7232C43.3685 75.1208 43.0367 74.6304 42.4119 74.2242C42.3533 74.1821 42.451 74.0981 42.5291 74.1121C44.1885 74.3642 45.1256 74.9667 45.1256 75.5551C45.1256 75.9193 44.8133 76.1575 44.2666 76.1575Z" fill="white"/>
<path d="M28.5772 77.6424H30.4159V77.4625C30.4159 76.743 30.4159 76.6531 30.3393 76.2634C31.8524 76.3983 32.0057 76.4732 32.0057 76.6231C32.0057 76.7281 31.929 76.803 31.5651 76.9379V77.6424H33.3272C33.9401 77.0878 34.0742 77.0128 34.1891 77.0128C34.3232 77.0128 34.4764 77.0878 35.1085 77.4925C35.3766 77.6724 35.4724 77.7773 35.4724 77.8822C35.4724 77.9722 35.4149 78.0171 35.2234 78.0171H31.68C32.2738 78.5567 32.9059 78.9465 33.6145 79.2313C34.3232 79.5011 35.1659 79.6809 35.9512 79.7709C36.0278 79.7859 36.0087 79.8908 35.9321 79.9058C35.5873 79.9657 35.3383 80.1456 35.2234 80.5203C35.1659 80.6552 35.1085 80.7302 34.9936 80.7302C34.8595 80.7302 34.6105 80.6403 34.1891 80.4454C33.7103 80.2056 33.3081 79.9507 32.9442 79.6959C32.4653 79.3512 32.0248 78.9315 31.5077 78.242C31.5651 79.1113 31.5843 79.8908 31.5843 80.1156C31.5843 80.4304 31.3927 80.5503 30.8948 80.5503C30.5117 80.5503 30.4159 80.4604 30.4159 80.1456C30.4159 79.9507 30.4542 79.5011 30.4925 78.8266C29.4583 79.7259 28.4048 80.2955 27.045 80.7752C26.9492 80.8051 26.8151 80.6403 26.9109 80.5803C28.2708 79.8009 29.2667 79.0664 30.0329 78.0171H25.4361V78.5268C26.7577 78.6617 27.3706 78.9465 27.3706 79.3812C27.3706 79.606 27.179 79.7859 26.93 79.7859C26.7385 79.7859 26.6236 79.7259 26.3937 79.4711C26.0873 79.1713 25.8 78.9465 25.4361 78.7816C25.4552 79.651 25.4744 80.4904 25.4935 80.7752C25.4935 81.0899 25.302 81.1949 24.7849 81.1949C24.4401 81.1949 24.306 81.1049 24.306 80.8801C24.306 80.6852 24.3443 79.9208 24.3827 79.0364C23.5208 79.7859 22.5631 80.3405 21.4522 80.7152C21.3373 80.7452 21.2032 80.6103 21.299 80.5503C22.6014 79.7559 23.4633 79.0214 24.1337 78.0171H23.0228C22.6014 78.0171 22.2949 78.0471 21.8353 78.1071L21.682 77.5375C22.1226 77.6274 22.4482 77.6424 23.0228 77.6424H24.3252V77.5075C24.3252 76.8779 24.3252 76.758 24.2677 76.2784C25.7425 76.4133 25.9149 76.4882 25.9149 76.6381C25.9149 76.743 25.8383 76.803 25.4361 76.9379V77.6424H26.796C27.2939 77.1328 27.4089 77.0578 27.5621 77.0578C27.677 77.0578 27.7728 77.1178 28.5772 77.6424ZM28.7688 82.0193V83.2484H32.1589C32.925 82.5739 33.0782 82.4989 33.1932 82.4989C33.3081 82.4989 33.4613 82.5739 34.2849 83.0535C34.668 83.3084 34.7637 83.3983 34.7637 83.4882C34.7637 83.5782 34.7063 83.6231 34.5147 83.6231H28.7688V84.8522H33.2123C33.9976 84.1478 34.1508 84.0878 34.2657 84.0878C34.3807 84.0878 34.553 84.1478 35.3766 84.6424C35.7405 84.8972 35.8363 84.9872 35.8363 85.0771C35.8363 85.182 35.7788 85.227 35.5873 85.227H28.7688C28.7688 86.1413 28.8071 86.591 28.8071 86.8758C28.8071 87.2955 28.5772 87.5503 28.2516 87.7452C27.9643 87.9101 27.5621 88 27.1216 88C26.8534 88 26.8343 87.955 26.7385 87.7002C26.5853 87.2805 26.3554 87.1606 24.7274 86.9208C24.6125 86.9058 24.6125 86.6959 24.7274 86.6959C25.8383 86.7409 26.547 86.7559 27.1216 86.7559C27.3514 86.7559 27.428 86.6959 27.428 86.531V85.227H22.6014C22.1226 85.227 21.7587 85.257 21.1841 85.3169L20.9925 84.7473C21.6246 84.8223 22.046 84.8522 22.6014 84.8522H27.428V83.6231H23.6548C23.176 83.6231 22.7929 83.6531 22.2375 83.7131L22.046 83.1285C22.678 83.2334 23.0994 83.2484 23.6165 83.2484H27.428V82.1092C25.7808 82.1991 24.1911 82.2141 22.5822 82.1392C22.4865 82.1392 22.4865 81.9593 22.5822 81.9593C25.7808 81.7794 28.3474 81.4347 30.0903 81.0749C30.9331 80.9101 31.4502 80.7602 31.8524 80.5953C32.7526 81.1949 33.0208 81.4647 33.0208 81.5996C33.0208 81.6895 32.9442 81.7495 32.7526 81.7495C32.5994 81.7495 32.3887 81.7045 32.1014 81.6146C30.9522 81.7944 29.8413 81.9293 28.7688 82.0193ZM28.1367 75.6338H33.174C33.9784 74.8844 34.0934 74.8244 34.2083 74.8244C34.3424 74.8244 34.4956 74.8844 35.3766 75.409C35.798 75.6788 35.8555 75.7537 35.8555 75.8587C35.8555 75.9636 35.7788 76.0086 35.5873 76.0086H21.1841V77.0878C21.1841 80.2206 20.9925 82.1092 20.552 83.6381C20.1306 85.0771 19.4986 86.2313 18.2536 87.5803C18.177 87.6552 17.9663 87.5653 18.0046 87.4754C18.7707 86.0514 19.1538 84.8672 19.422 83.5332C19.6901 82.1692 19.7859 80.6253 19.7859 78.152C19.7859 76.7131 19.7284 75.8437 19.6518 74.9443C20.3796 75.1991 20.6861 75.334 21.3947 75.6338H26.7768V74.9293C26.7768 74.6745 26.7577 74.4647 26.6619 74C28.5581 74.1649 28.8071 74.2848 28.8071 74.4497C28.8071 74.5696 28.6538 74.6745 28.1367 74.8544V75.6338Z" fill="white"/>
<path d="M13.9022 80.5973H9.78296C9.24898 81.0288 8.67686 81.4324 8.04753 81.7943C9.4969 82.0726 10.336 82.6015 10.336 83.1722C10.336 83.4923 10.0499 83.7707 9.64946 83.7707C9.34433 83.7707 9.22991 83.6872 9.0392 83.3114C8.73407 82.7546 8.35266 82.3232 7.72332 81.9752C6.38838 82.685 4.86272 83.2139 3.01287 83.6454C2.87937 83.6732 2.72681 83.4784 2.84123 83.4366C5.37763 82.6015 7.78054 81.1123 9.1727 79.623C9.55411 79.2333 9.84017 78.8436 10.0499 78.4817C11.5565 78.8714 11.8045 78.9549 11.8045 79.1219C11.8045 79.2611 11.6137 79.3307 11.0607 79.3725C10.7746 79.6787 10.4886 79.971 10.1834 80.2493H13.8641C14.4362 79.8179 14.5506 79.7622 14.6651 79.7622C14.7985 79.7622 14.913 79.8179 15.6186 80.2215C15.9428 80.4303 16 80.5138 16 80.5973C16 80.7504 15.9046 80.8061 15.3135 80.9453C12.4529 84.5362 8.54336 86.1785 1.81141 86.8327C1.67792 86.8466 1.62071 86.6239 1.7542 86.5961C8.02846 85.427 11.4802 83.6872 13.9022 80.5973ZM10.0499 76.0599H6.29302C5.77811 76.5471 5.20599 77.0064 4.55759 77.41C5.93068 77.6188 6.69351 78.092 6.69351 78.6209C6.69351 78.9132 6.40745 79.1776 6.0451 79.1776C5.79719 79.1776 5.68276 79.0802 5.51113 78.8018C5.16785 78.2173 4.88179 77.9111 4.2906 77.577C3.22264 78.2033 1.98305 78.7183 0.419253 79.2055C0.304829 79.2472 0.171334 79.0524 0.285758 78.9967C2.42167 78.0642 4.17618 76.7558 5.43484 75.2527C5.83533 74.8073 6.10232 74.4175 6.27395 74C7.6089 74.348 8.0666 74.515 8.0666 74.682C8.0666 74.8212 7.91403 74.8908 7.34191 74.9464C7.11306 75.2109 6.88421 75.4753 6.65537 75.712H10.0309C10.603 75.2805 10.7174 75.2248 10.8318 75.2248C10.9653 75.2248 11.0798 75.2805 11.7854 75.7259C12.0714 75.9207 12.1477 76.0042 12.1477 76.0878C12.1477 76.213 12.0714 76.2548 11.4421 76.4079C8.94385 79.4838 5.47298 81.2932 0.133193 82.1979C-0.000302078 82.2257 -0.0575142 82.0309 0.0759806 81.9891C4.82458 80.653 8.02846 78.6905 10.0499 76.0599Z" fill="white"/>
<circle cx="128" cy="44.3839" r="17" fill="#D9A441"/>
<circle cx="240.92" cy="45" r="17" fill="#D9A441"/>
<path d="M160.882 44.5033C162.011 44.5033 162.924 44.3265 164.079 43.7075C164.241 43.6013 164.348 43.6367 164.482 43.7251C164.644 43.8136 164.644 43.8843 164.509 44.0081C163.354 44.8924 162.011 45.6706 160.56 45.6706C159.431 45.6706 158.571 45.5822 157.228 45.0693C155.643 44.521 154.649 44.1496 153.628 44.1496C152.499 44.1496 151.747 44.238 150.377 44.8748C150.269 44.9278 150.135 44.9101 150.001 44.804C149.893 44.7156 149.893 44.6625 150.001 44.5741C151.183 43.7075 152.499 43 153.977 43C155.079 43 155.858 43.1238 157.228 43.566C158.76 44.0435 159.807 44.5033 160.882 44.5033Z" fill="white"/>
<path d="M86.6045 57.2363V58.5196C86.6045 59.1482 86.09 59.3839 85.0611 59.3839C84.2894 59.3839 84 59.2006 84 58.6768C84 57.3149 84.1929 55.403 84.1929 46.6292C84.1929 41.8363 84.1608 39.5053 84 37.3839C85.254 37.7768 85.8006 37.9863 86.9904 38.5625H100.302C101.428 37.5934 101.588 37.5149 101.781 37.5149C102.039 37.5149 102.232 37.5934 103.389 38.3792C103.904 38.7458 104 38.903 104 39.0601C104 39.2958 103.839 39.453 103.1 39.8458V45.0577C103.1 53.4649 103.26 57.1315 103.26 58.2839C103.26 58.9125 102.746 59.1744 101.685 59.1744C100.913 59.1744 100.624 58.9649 100.624 58.441V57.2363H86.6045ZM86.6045 48.0172V56.5815H100.624V48.0172H86.6045ZM100.624 47.3625V39.2172H86.6045V47.3625H100.624Z" fill="white"/>
<path d="M179.949 40.2916V40.4986C186.21 41.5858 189.92 44.951 189.92 49.9728C189.92 56.703 184.934 61 177.456 61C173.804 61 171.427 60.0681 169.514 58.9809C167.775 57.9973 165.92 56.4441 165.92 54.7875C165.92 53.545 167.369 52.5613 169.63 52.5613C171.369 52.5613 172.065 55.0981 172.76 56.4441C173.456 57.8937 174.732 59.3433 177.456 59.3433C181.746 59.3433 184.239 55.7194 184.239 49.8174C184.239 46.1935 182.5 41.1199 176.355 41.4823C175.659 41.5341 174.5 41.6376 173.978 41.6376C173.398 41.6376 173.166 41.5858 173.34 40.654C173.572 39.7221 173.92 39.515 174.5 39.515C175.079 39.515 175.833 39.6703 176.471 39.6703C179.717 39.6703 183.253 37.2888 183.253 31.6975C183.253 27.8147 181.572 24.6049 177.862 24.6049C175.891 24.6049 174.21 25.3815 173.398 26.8828C172.934 27.7629 172.818 28.5913 172.818 29.4714C172.818 30.9728 171.079 32.0082 168.934 32.0082C167.601 32.0082 166.847 31.4905 166.847 30.455C166.847 27.4523 171.253 23 177.862 23C183.833 23 188.587 26.2098 188.587 31.6975C188.587 36.9782 184.297 39.2561 179.949 40.2916Z" fill="white"/>
<path d="M47.6505 51.08H35.0654C34.9354 51.8597 34.7402 52.5354 34.5126 53.2111C33.6021 56.0179 31.6834 58.4348 28.4315 60.358C28.2363 60.462 27.8786 60.2281 28.0412 60.0981C30.3501 57.941 31.5533 55.9659 32.2688 53.315C32.8866 51.106 33.1793 48.4291 33.1793 44.167C33.1793 40.1387 33.1468 38.8653 32.9517 37.3839C34.285 37.8257 34.8053 38.0336 35.9109 38.5794H47.3903C48.3984 37.6958 48.561 37.5918 48.7562 37.5918C48.9838 37.5918 49.1789 37.6958 50.3821 38.4235C50.8699 38.7613 51 38.8913 51 39.0732C51 39.2551 50.9024 39.3591 50.122 39.8009V45.0506C50.122 55.836 50.2195 56.6936 50.2195 57.967C50.2195 58.9806 49.8943 59.5004 48.9513 59.8902C48.4635 60.1241 47.618 60.28 47.0651 60.28C46.5448 60.28 46.4473 60.1761 46.3497 59.7343C46.2196 58.9806 45.1465 58.5128 42.5774 58.1749C42.3823 58.149 42.3823 57.8111 42.5774 57.8111C44.7563 57.941 46.1546 57.993 47.0651 57.993C47.5204 57.993 47.6505 57.8371 47.6505 57.4473V51.08ZM47.6505 45.0766H35.5858C35.5532 46.8698 35.4557 48.663 35.1955 50.4303H47.6505V45.0766ZM47.6505 44.4269V39.2291H35.6183V44.4269H47.6505Z" fill="white"/>
<path d="M15.6372 40.4397C21.537 43.2557 24 46.4437 24 51.7571C24 57.6018 19.3604 62.3838 12.0859 62.3838C4.92601 62.3838 0 57.6549 0 52.129C0 47.6658 3.32219 44.5841 8.5346 42.1399C3.37947 39.5895 1.14558 36.8266 1.14558 32.3634C1.14558 27.7939 5.95704 23.3838 12.0859 23.3838C18.2721 23.3838 22.8544 27.1031 22.8544 31.7789C22.8544 35.9233 20.506 38.2612 15.6372 40.4397ZM13.8043 39.4833C16.8974 38.0487 18.2721 35.2857 18.2721 31.832C18.2721 27.847 15.58 25.0309 12.0859 25.0309C8.30549 25.0309 5.67064 27.9001 5.67064 31.5664C5.67064 34.5418 6.87351 36.5609 13.8043 39.4833ZM10.3103 42.9901C6.41527 45.0091 5.04057 48.2503 5.04057 52.1822C5.04057 57.1767 8.01909 60.7367 12.1432 60.7367C16.4391 60.7367 19.3604 57.3361 19.3604 52.4478C19.3604 48.5691 17.1265 46.1249 10.3103 42.9901Z" fill="white"/>
<path d="M199.524 57.8524V59.1357C199.524 59.7643 199.01 60 197.981 60C197.209 60 196.92 59.8167 196.92 59.2929C196.92 57.931 197.113 56.019 197.113 47.2452C197.113 42.4524 197.081 40.1214 196.92 38C198.174 38.3929 198.721 38.6024 199.91 39.1786H213.222C214.348 38.2095 214.508 38.131 214.701 38.131C214.959 38.131 215.151 38.2095 216.309 38.9952C216.823 39.3619 216.92 39.5191 216.92 39.6762C216.92 39.9119 216.759 40.069 216.02 40.4619V45.6738C216.02 54.081 216.18 57.7476 216.18 58.9C216.18 59.5286 215.666 59.7905 214.605 59.7905C213.833 59.7905 213.544 59.581 213.544 59.0571V57.8524H199.524ZM199.524 48.6333V57.1976H213.544V48.6333H199.524ZM213.544 47.9786V39.8333H199.524V47.9786H213.544Z" fill="white"/>
<path d="M62.1766 28.6695L60.0748 29.2853C59.5216 29.4393 59.3004 29.3879 59.0792 28.7208C58.9132 28.105 58.9685 28.0024 59.6323 27.7971C63.2275 26.5655 66.878 25.0773 70.3073 23.3838C70.8605 23.3838 71.1923 23.6917 71.1923 23.9996C71.137 28.0537 70.9711 30.9788 70.9711 35.1355V50.89C70.9711 55.9705 71.0264 56.5863 71.5795 57.6126C72.1879 58.639 74.2344 58.6903 76.5022 58.8956C76.8894 58.9469 77 59.1009 77 59.6653C77 60.2812 76.8894 60.3838 76.5022 60.3838C74.0685 60.2812 71.0817 60.1785 68.7586 60.1785C66.1037 60.1785 63.3934 60.2812 60.7938 60.3838C60.3513 60.3838 60.2407 60.2812 60.2407 59.6653C60.2407 59.1009 60.4066 58.9469 60.7938 58.8956C63.0063 58.7416 64.9422 58.6903 65.6059 57.6126C66.2143 56.4837 66.2143 54.277 66.2143 50.89V32.7236C66.2143 30.8762 66.0484 29.5419 65.6059 28.9261C65.3293 28.5669 64.9421 28.3103 64.1678 28.3103C63.67 28.3103 63.0063 28.4129 62.1766 28.6695Z" fill="white"/>
<path d="M239.236 35.177H245.405C247.079 33.6872 247.226 33.6162 247.52 33.6162C247.843 33.6162 248.049 33.6872 249.43 34.6331C250.664 35.4845 250.84 35.65 250.84 35.8865C250.84 36.123 250.693 36.2412 249.9 36.7378V40.8763C249.9 48.0419 250.105 51.8493 250.105 52.7006C250.105 53.7885 249.43 54.4743 248.196 54.9473C247.491 55.231 246.727 55.3729 245.992 55.3729C245.552 55.3729 245.287 55.2547 245.082 54.7581C244.7 53.7648 243.936 53.1263 241.468 52.6533C241.292 52.6297 241.321 52.3932 241.498 52.3932C242.996 52.3696 243.642 52.3459 244.759 52.2513C245.669 52.1804 245.992 51.8729 245.992 51.0452V45.5351H238.237C237.414 51.6838 233.83 54.1432 229.1 55.6094C228.924 55.6567 228.748 55.4439 228.895 55.3729C232.449 53.4574 234.594 51.0925 234.594 41.704C234.594 37.0216 234.594 35.4135 234.418 33.9473C237.825 34.5149 238.971 34.8459 239.236 35.177ZM238.295 45.0621H245.992V40.5453H238.413V42.6263C238.413 43.5013 238.384 44.3054 238.295 45.0621ZM245.992 35.65H239.177C239.059 35.7919 238.795 35.9338 238.413 36.1466V40.0723H245.992V35.65Z" fill="white"/>
<path d="M128.962 53.3188H133.638C135.528 50.5688 135.625 50.4679 135.891 50.4679C136.206 50.4679 136.303 50.5183 137.878 52.1583C138.823 53.1422 138.92 53.2683 138.92 53.5459C138.92 53.7225 138.799 53.8234 138.605 53.8234H120.336C119.488 53.8234 118.543 53.8739 117.162 54L116.92 53.1422C118.519 53.2684 119.488 53.3188 120.336 53.3188H125.618V42.0665H121.669C120.821 42.0665 119.949 42.117 118.567 42.2431L118.325 41.3853C119.924 41.5115 120.821 41.5619 121.669 41.5619H125.618V36.0367C125.618 34.3463 125.618 33.4885 125.473 32C129.567 32.2523 129.979 32.5046 129.979 32.9839C129.979 33.2867 129.858 33.5138 128.962 33.867V41.5619H132.039C133.953 38.8624 134.026 38.7867 134.268 38.7867C134.51 38.7867 134.631 38.8119 135.891 40.1491C137.151 41.461 137.2 41.5872 137.2 41.789C137.2 41.9656 137.079 42.0665 136.885 42.0665H128.962V53.3188Z" fill="white"/>
</svg>
