<?xml version="1.0" encoding="utf-8"?>
<!-- Generator: Adobe Illustrator 16.0.0, SVG Export Plug-In . SVG Version: 6.00 Build 0)  -->
<!DOCTYPE svg PUBLIC "-//W3C//DTD SVG 1.1//EN" "http://www.w3.org/Graphics/SVG/1.1/DTD/svg11.dtd">
<svg version="1.1" id="レイヤー_1" xmlns="http://www.w3.org/2000/svg" xmlns:xlink="http://www.w3.org/1999/xlink" x="0px"
	 y="0px" width="366.226px" height="102.323px" viewBox="0 0 366.226 102.323" enable-background="new 0 0 366.226 102.323"
	 xml:space="preserve">
<g>
	<g>
		<g>
			<path fill="#231815" d="M113.879,89.588c0,1.256,0.025,2.06,0.204,2.42c0.124,0.24,0.448,0.36,1.227,0.418l1.104,0.091v1.194
				c-1.223-0.029-2.867-0.088-4.63-0.088c-1.791,0-3.433,0.059-4.659,0.088v-1.194l1.105-0.091c0.776-0.058,1.104-0.178,1.223-0.418
				c0.178-0.36,0.208-1.164,0.208-2.42V75.124h-3.493c-0.807,0-1.646,0-1.851,0.268c-0.123,0.153-0.243,0.389-0.273,0.718
				l-0.149,2.06H102.7c-0.063-1.94-0.15-3.313-0.386-4.746l0.174-0.15c3.142,0.029,6.248,0.087,9.268,0.087
				c3.044,0,6.152-0.058,9.295-0.087l0.178,0.15c-0.241,1.433-0.332,2.805-0.392,4.746h-1.194l-0.149-2.06
				c-0.028-0.33-0.151-0.565-0.271-0.718c-0.209-0.268-1.046-0.268-1.852-0.268h-3.492V89.588z"/>
			<path fill="#231815" d="M124.572,76.651c0-1.702-0.061-2.035-0.779-2.095l-1.345-0.091v-1.074
				c1.139-0.146,2.274-0.294,3.38-0.626l2.146-0.658l0.243,0.182v9.682l2.391-1.857c0.745-0.567,1.614-0.567,2.271-0.567
				c1.166,0,2.45,0.388,3.228,1.198c1.014,1.075,1.104,2.567,1.104,4.333v5.558c0,0.717,0.028,1.104,0.123,1.402
				c0.087,0.3,0.326,0.447,0.951,0.508l0.99,0.059v1.106c-1.078-0.029-1.975-0.088-2.936-0.088c-1.07,0-1.938,0.059-2.773,0.088
				v-8.126c0-1.466-0.238-2.238-0.777-2.778c-0.511-0.508-1.166-0.684-2.24-0.684c-1.229,0-2.331,1.161-2.331,2.028v6.484
				c0,0.717,0.029,1.104,0.12,1.402c0.092,0.3,0.328,0.447,0.953,0.508l1.047,0.059v1.106c-1.285-0.029-2.541-0.088-4.031-0.088
				c-1.315,0-2.572,0.059-3.858,0.088v-1.106l1.049-0.059c0.63-0.062,0.864-0.208,0.956-0.508c0.09-0.297,0.119-0.685,0.119-1.402
				V76.651z"/>
			<path fill="#231815" d="M146.322,81.217c2.215,0,2.453,2.391,2.453,4.157c-0.84,0.032-1.676,0.092-2.512,0.092
				s-1.674-0.06-2.511-0.092C143.753,82.566,144.59,81.217,146.322,81.217z M147.85,86.958c1.313,0,3.107-0.15,4.721-0.597v-1.552
				c0-3.496-2.512-5.263-5.826-5.263c-0.896,0-1.703,0.239-2.455,0.688l-1.4,0.836c-2.512,1.495-2.84,3.704-2.84,6.157
				c0,4.271,2.42,6.904,6.784,6.904c1.763,0,2.983-0.332,4.782-1.29l0.656-1.431l-0.361-0.451c-0.953,0.567-2.242,1.047-3.227,1.047
				c-3.105,0-4.75-2.149-4.75-5.05H147.85z"/>
			<path fill="#231815" d="M183.166,92.337c-2.752,1.075-5.648,1.795-8.725,1.795c-6.816,0-11.834-3.828-11.834-10.969
				c0-6.873,5.592-10.306,11.953-10.306c2.721,0,5.379,0.24,8.215,1.403l0.182,0.326c-0.299,1.077-0.539,3.289-0.688,4.573h-1.162
				l-0.152-2.566c-1.166-1.378-3.826-2.063-6.277-2.063c-4.957,0-7.586,3.523-7.586,8.243c0,5.171,2.658,9.681,8.035,9.681
				c1.314,0,2.537-0.27,3.795-0.746v-3.944c0-0.928-0.746-1.072-1.699-1.106l-1.588-0.058v-1.225
				c1.463,0.032,2.93,0.092,4.391,0.092c1.467,0,2.902-0.06,4.363-0.092v1.011c-1.016,0.214-1.223,0.333-1.223,1.082V92.337z"/>
			<path fill="#231815" d="M193.74,92.696c-3.076,0-3.283-4.333-3.283-6.514c0-2.092,0.178-5.201,2.982-5.201
				c3.109,0,3.141,4.692,3.141,6.783C196.58,89.68,196.373,92.696,193.74,92.696z M193.709,79.546c-4.775,0-7.313,2.72-7.313,7.355
				c0,4.209,2.088,7.23,6.688,7.23c4.959,0,7.557-2.78,7.557-7.593C200.641,82.088,198.285,79.546,193.709,79.546z"/>
			<path fill="#231815" d="M203.484,82.597l-1.914,0.117v-0.658l1.973-1.281v-1.796c0-0.926-0.059-1.82-0.119-2.75
				c1.313-0.475,2.75-1.074,3.645-1.492l0.414,0.298c-0.236,1.194-0.354,2.688-0.354,4.065v1.734l3.408-0.18l-0.24,1.942h-3.168
				v7.109c0,1.527,0.51,1.941,1.852,1.941c0.629,0,0.957-0.176,1.379-0.387l0.236,0.565l-1.465,1.765
				c-0.211,0.27-0.865,0.542-1.824,0.542c-2.723,0-3.822-1.108-3.822-3.802V82.597z"/>
			<path fill="#231815" d="M219.115,92.696c-3.084,0-3.291-4.333-3.291-6.514c0-2.092,0.18-5.201,2.986-5.201
				c3.105,0,3.137,4.692,3.137,6.783C221.947,89.68,221.738,92.696,219.115,92.696z M219.078,79.546
				c-4.779,0-7.322,2.72-7.322,7.355c0,4.209,2.098,7.23,6.695,7.23c4.963,0,7.563-2.78,7.563-7.593
				C226.014,82.088,223.648,79.546,219.078,79.546z"/>
			<path fill="#231815" d="M228.523,76.651c0-1.702-0.064-2.035-0.779-2.095l-1.342-0.091v-1.074
				c1.133-0.146,2.271-0.294,3.377-0.626l2.15-0.658l0.238,0.182v9.682l2.389-1.857c0.746-0.567,1.615-0.567,2.271-0.567
				c1.166,0,2.449,0.388,3.229,1.198c1.016,1.075,1.102,2.567,1.102,4.333v5.558c0,0.717,0.035,1.104,0.123,1.402
				c0.09,0.3,0.328,0.447,0.953,0.508l0.99,0.059v1.106c-1.076-0.029-1.975-0.088-2.932-0.088c-1.074,0-1.938,0.059-2.779,0.088
				v-8.126c0-1.466-0.234-2.238-0.777-2.778c-0.506-0.508-1.16-0.684-2.238-0.684c-1.227,0-2.33,1.161-2.33,2.028v6.484
				c0,0.717,0.029,1.104,0.119,1.402c0.088,0.3,0.328,0.447,0.959,0.508l1.041,0.059v1.106c-1.283-0.029-2.535-0.088-4.033-0.088
				c-1.313,0-2.57,0.059-3.852,0.088v-1.106l1.041-0.059c0.633-0.062,0.867-0.208,0.961-0.508c0.084-0.297,0.119-0.685,0.119-1.402
				V76.651z"/>
			<path fill="#231815" d="M274.807,89.588c0,1.256,0.031,2.06,0.207,2.42c0.119,0.24,0.449,0.36,1.227,0.418l1.102,0.091v1.194
				c-1.223-0.029-2.865-0.088-4.633-0.088c-1.789,0-3.434,0.059-4.656,0.088v-1.194l1.104-0.091
				c0.779-0.058,1.105-0.178,1.227-0.418c0.18-0.36,0.211-1.164,0.211-2.42V77.277h-0.063l-6.096,12.698
				c-0.629,1.285-1.313,2.747-1.793,3.945h-1.016c-0.295-0.836-0.686-1.646-1.074-2.481l-6.811-14.191h-0.061v12.34
				c0,1.256,0.031,2.06,0.209,2.42c0.148,0.299,0.447,0.446,1.223,0.509l1.107,0.087v1.106c-1.137-0.029-2.271-0.088-3.41-0.088
				c-1.135,0-2.297,0.059-3.436,0.088v-1.106l1.111-0.087c0.771-0.063,1.072-0.21,1.223-0.509c0.182-0.36,0.209-1.164,0.209-2.42
				V77.395c0-1.254-0.027-2.06-0.209-2.417c-0.15-0.304-0.451-0.449-1.223-0.513l-1.111-0.084v-1.106
				c1.197,0.029,2.396,0.087,3.59,0.087c1.195,0,2.393-0.058,3.586-0.087c0.541,1.223,1.607,3.47,2.238,4.813l4.719,9.856
				l5.471-11.293c0.539-1.105,1.018-2.33,1.465-3.376c1.461,0.029,2.566,0.087,3.436,0.087c0.895,0,1.973-0.058,3.463-0.087v1.106
				l-1.102,0.084c-0.777,0.064-1.072,0.209-1.227,0.513c-0.176,0.357-0.207,1.163-0.207,2.417V89.588z"/>
			<path fill="#231815" d="M278.783,84.091c0-1.701-0.063-2.035-0.781-2.093l-1.344-0.085v-1.078
				c1.135-0.147,2.271-0.27,3.377-0.628l2.088-0.66l0.303,0.182v7.8c0,1.943,0.115,3.911,2.42,3.911c1.014,0,1.969-0.659,2.51-1.522
				c0.207-0.328,0.27-0.777,0.27-1.166v-4.66c0-1.701-0.063-2.035-0.779-2.093l-1.346-0.085v-1.078
				c1.137-0.147,2.273-0.27,3.379-0.628l2.09-0.66l0.299,0.182v10.907c0,0.717,0.029,1.104,0.119,1.402
				c0.09,0.3,0.332,0.447,0.957,0.508l0.99,0.059v1.106c-1.227-0.029-2.484-0.088-3.318-0.088c-0.512,0-1.348,0.059-2.543,0.088
				l0.152-2.478l-2.273,2.21c-0.418,0.417-1.189,0.689-1.912,0.689c-3.287,0-4.656-1.858-4.656-4.692V84.091z"/>
			<path fill="#231815" d="M303.607,83.881l-0.295-1.732c-0.119-0.626-1.498-1.167-2.449-1.167c-1.736,0-2.781,0.66-2.781,1.941
				c0,0.958,0.506,1.438,1.643,1.674l2.447,0.542c2.426,0.535,3.797,1.461,3.797,3.91c0,3.469-3.195,5.084-6.271,5.084
				c-1.557,0-3.107-0.272-4.668-0.84l0.215-4.212h1.162l0.152,2.062c0.867,1.133,2.119,1.555,3.525,1.555
				c1.346,0,2.572-0.807,2.572-2.242c0-1.315-0.783-1.669-1.885-1.944l-2.568-0.626c-2.094-0.509-3.174-1.793-3.174-3.673
				c0-3.406,2.662-4.665,6.158-4.665c1.342,0,2.662,0.152,3.738,0.688l-0.24,3.646H303.607z"/>
			<path fill="#231815" d="M314.066,81.217c2.211,0,2.451,2.391,2.451,4.157c-0.838,0.032-1.674,0.092-2.512,0.092
				s-1.674-0.06-2.51-0.092C311.496,82.566,312.332,81.217,314.066,81.217z M315.59,86.958c1.311,0,3.107-0.15,4.721-0.597v-1.552
				c0-3.496-2.51-5.263-5.826-5.263c-0.898,0-1.703,0.239-2.449,0.688l-1.406,0.836c-2.514,1.495-2.838,3.704-2.838,6.157
				c0,4.271,2.42,6.904,6.781,6.904c1.764,0,2.99-0.332,4.781-1.29l0.658-1.431l-0.357-0.451c-0.957,0.567-2.24,1.047-3.23,1.047
				c-3.104,0-4.746-2.149-4.746-5.05H315.59z"/>
			<path fill="#231815" d="M323.445,84.091c0-1.701-0.057-2.035-0.773-2.093l-1.346-0.085v-1.078c1.137-0.147,2.27-0.27,3.375-0.628
				l2.094-0.66l0.297,0.182v7.8c0,1.943,0.119,3.911,2.422,3.911c1.016,0,1.973-0.659,2.51-1.522c0.207-0.328,0.27-0.777,0.27-1.166
				v-4.66c0-1.701-0.063-2.035-0.777-2.093l-1.346-0.085v-1.078c1.137-0.147,2.275-0.27,3.379-0.628l2.092-0.66l0.301,0.182v10.907
				c0,0.717,0.027,1.104,0.117,1.402c0.088,0.3,0.326,0.447,0.955,0.508l0.984,0.059v1.106c-1.223-0.029-2.477-0.088-3.313-0.088
				c-0.51,0-1.348,0.059-2.541,0.088l0.148-2.478l-2.27,2.21c-0.416,0.417-1.197,0.689-1.914,0.689
				c-3.287,0-4.664-1.858-4.664-4.692V84.091z"/>
			<path fill="#231815" d="M341.078,84.091c0-1.701-0.066-2.035-0.777-2.093l-1.344-0.085v-1.078
				c2.055-0.059,3.826-0.721,5.584-1.288l0.184,0.182v2.243l2.389-1.857c0.746-0.567,1.613-0.567,2.271-0.567
				c1.729,0,3.225,0.752,3.793,2.424l2.395-1.857c0.744-0.567,1.611-0.567,2.266-0.567c3.17,0,4.15,1.588,4.15,5.531v5.558
				c0,0.717,0.031,1.104,0.123,1.402c0.092,0.3,0.328,0.447,0.957,0.508l0.988,0.059v1.106c-1.076-0.029-1.975-0.088-2.928-0.088
				c-0.93,0-1.854,0.059-2.783,0.088v-8.126c0-1.466-0.24-2.238-0.775-2.778c-0.514-0.508-1.166-0.684-1.883-0.684
				c-1.229,0-2.332,1.161-2.332,2.028v6.484c0,0.717,0.031,1.104,0.121,1.402c0.092,0.3,0.332,0.447,0.953,0.508l1.051,0.059v1.106
				c-1.287-0.029-2.539-0.088-4.037-0.088c-1.311,0-2.566,0.059-3.736,0.088v-1.106l0.93-0.059c0.625-0.028,0.861-0.208,0.955-0.508
				c0.09-0.297,0.119-0.685,0.119-1.402v-5.05c0-1.466-0.238-2.238-0.777-2.778c-0.504-0.508-1.166-0.684-1.877-0.684
				c-1.232,0-2.332,1.161-2.332,2.028v6.484c0,0.717,0.027,1.104,0.119,1.402c0.09,0.3,0.326,0.447,0.957,0.508l0.805,0.059v1.106
				c-1.047-0.029-2.301-0.088-3.795-0.088c-1.316,0-2.57,0.059-3.854,0.088v-1.106l1.047-0.059c0.629-0.062,0.865-0.208,0.955-0.508
				c0.086-0.297,0.119-0.685,0.119-1.402V84.091z"/>
		</g>
		<g>
			<g>
				<g>
					<path fill="#231815" d="M365.635,26.283l-6.135-4.826l-2.066,2.716h-4.199v-4.678c1.322,0,1.691-0.175,1.816-0.782
						c0.143-0.688-0.576-1.153-1.141-1.335c-0.531-0.177-7.939-2.211-7.939-2.211v9.005h-2.668c-0.447-1.766-1.119-3.1-1.352-3.359
						c-0.049-0.061-0.09-0.106-0.131,0.001c-0.258,0.797-2.043,4.848-3.732,5.913c-0.902,0.569-3.256,2.499-2.449,5.079
						l-2.674-2.128l-3.064,4.063h-0.441v-2.714c1.322,0,1.693-0.181,1.814-0.784c0.145-0.687-0.572-1.153-1.137-1.337
						c-0.529-0.177-6.25-2.143-6.25-2.143v6.979h-0.363c-1.131-0.389-3.125-1.077-4.674-1.616c0.758-0.91,1.568-1.895,2.473-2.983
						c1.957-2.348,4.031-5.875,5.678-9.008c0.814,1.063,1.9,2.795,2.299,3.941c0.631,1.797,1.111,3.264,2.705,4.412
						c0.561,0.405,1.93,0.388,2.707,0.102c0.627-0.234,1.357-0.686,1.779-1.858c0.285-0.8,0.186-1.933-0.164-2.716
						c-0.404-0.899-1.008-1.69-1.846-2.356c-0.412-0.323-1.557-0.955-2.033-1.149c-1.232-0.507-1.725-0.657-2.42-0.85
						c-0.615-0.169-1.719-0.285-2.594-0.362c0.143-0.271,0.285-0.55,0.416-0.814l-7.137-3.218c-0.98,3.386-1.799,5.154-3.088,8.436
						c-2.695,6.877-7.25,15.799-7.369,15.993c-0.188,0.291,0.08,0.18,0.303,0.038c2.557-1.576,4.342-3.162,6.113-5.09v23.702
						l-4.111,0.664l3.002,7.658c2.506-1.036,7.09-3.749,8.697-4.743c1.586-0.979,4.486-3.221,6.344-4.831
						c0.158,0.667,0.283,1.394,0.359,2.235c-0.082-0.973-1.082,7.883,5.057,6.769c3.791-0.684,3.895-7.01,1.031-9.959
						c-3.211-3.301-6.711-4.242-8.787-4.242c-0.229,0-0.246,0.085-0.123,0.248c0.709,0.937,1.59,2.125,2.197,3.991l-6.402,1.034
						v-7.901h5.48v1.791l7.047-1.042V34.964h0.666h0.162c0.578,0,0.697-0.481,0.717-0.675c0.002-0.019,0-0.049,0.002-0.069
						c0.76,0.147,1.623,0.025,2.457-0.39v32.496l7.266-1.038v-2.623h6.396v2.75l7.266-1.043V52.015h1.229h0.246
						c0.582,0,0.699-0.478,0.723-0.674c0.018-0.197,0.018-0.651-0.457-0.958l-5.594-4.395l-3.631,4.809h-6.178v-6.231h5.461v1.859
						l7.047-1.041V34.79h1.16h0.168c0.576,0,0.693-0.479,0.715-0.673c0.021-0.2,0.021-0.651-0.457-0.961l-3.533-2.774
						c1.012-0.37,1.92-0.726,2.514-0.995c0.523-0.242,1.889-0.795,3.348-1.753c0.771,0.61,1.48,0.662,1.916,0.107
						C366.381,27.342,366.221,26.783,365.635,26.283z M323.936,48.047v-5.742h5.48v5.742H323.936z M329.416,41.085h-5.48v-6.121
						h5.48V41.085z M354.129,52.015v9.43h-6.396v-9.43H354.129z M353.193,43.347h-5.461V34.79h5.461V43.347z M356.238,28.763
						l-3.637,4.808h-4.9l-0.035-0.533c-0.314-0.105-2.842-0.979-4.816-1.664c0.34-0.659,0.607-1.432,0.762-2.334
						c0.207-1.234,0.137-2.492-0.057-3.645l14.227,0.013l-1.07,3.728L356.238,28.763z"/>
					<path fill="#231815" d="M297.621,31.368h0.168c0.57,0,0.695-0.478,0.715-0.674c0.021-0.195,0.021-0.653-0.457-0.958
						l-5.59-4.397l-3.635,4.813h-0.301v-10.9c1.316,0,1.689-0.175,1.816-0.783c0.139-0.688-0.578-1.153-1.146-1.34
						c-0.527-0.171-7.783-2.162-7.783-2.162v15.185h-5.461c0.102-0.203,0.207-0.388,0.318-0.6l-7.133-3.177
						c-0.656,2.174-3.629,7.702-5.176,10.333c-1.131,1.918-4.979,8.199-7.826,11.3c-0.186,0.202-0.418,0.304-0.434,0.479
						c-0.033,0.278,1.178-0.049,2.232-0.557c1.623-0.776,4.061-2.272,6.576-4.251v22.984l7.049-1.049V36.807
						c1.352-1.642,2.543-3.37,3.723-5.439h6.131v35.391l7.113-1.045V31.368H297.621z"/>
					<path fill="#231815" d="M309.184,33.653l-5.588-4.397l-3.633,4.808h-9.402l0.699,1.214h7.201l-0.043,23.355
						c0.043,0.436-0.045,0.652-0.352,0.652h-6.578c-0.102,0.009-0.111,0.081,0.125,0.213c2.617,1.399,3.738,3.825,3.805,7.604
						c5.781-0.04,7.514-0.832,9.129-2.685c0.846-0.963,0.971-2.124,0.963-4.959c-0.006-1.296,0-21.437,0-24.181h3.248h0.166
						c0.576,0,0.695-0.474,0.719-0.672C309.666,34.411,309.666,33.957,309.184,33.653z"/>
					<path fill="#231815" d="M290.063,20.278c0.361,0.319,1.656,2.092,2.463,3.547c0.322,0.598,1.33,3.091,3.684,2.551
						c0.428-0.098,2.279-0.914,1.857-2.819c-0.004-0.004-0.004-0.015-0.004-0.019h9.744h0.16c0.578,0,0.693-0.48,0.719-0.675
						c0.021-0.196,0.021-0.655-0.457-0.958l-5.592-4.39l-3.631,4.805h-1.475c-0.357-0.593-0.924-1.247-1.811-1.712
						c-2.691-1.393-4.453-0.896-5.682-0.55C289.916,20.094,289.861,20.104,290.063,20.278z"/>
					<path fill="#231815" d="M296.5,52.543c0.211-2.869-1.09-6.679-1.65-8.092c-1.465-3.703-3.178-5.531-5.305-6.722
						c-0.256-0.139-0.342-0.017-0.227,0.187c0.553,1.669,0.965,7.048,1.029,8.646c0.129,3.394-0.805,7.792,1.064,9.374
						C292.922,57.213,296.174,57.168,296.5,52.543z"/>
					<path fill="#231815" d="M274.445,45.711c-0.178,4.438-1.479,13.054-2.041,14.795c-0.926,1.975,0.557,0.363,1.07,0.083
						c1.166-1.055,2.818-3.107,4.367-7.609c2.025-5.894,2.438-10.966,2.65-15.231l-5.914-1.129
						C274.666,39.534,274.582,42.357,274.445,45.711z"/>
					<path fill="#231815" d="M260.33,30.332c2.426-1.174,5.336-2.755,7.611-4.347c2.979-2.087,6.699-5.566,7.896-7.725l-7.133-3.172
						c-0.781,1.784-3.127,5.488-4.484,7.588c-1.139,1.765-3.904,5.841-6.082,7.867c-0.215,0.2-0.332,0.236-0.338,0.358
						C257.799,31.182,259.338,30.813,260.33,30.332z"/>
					<path fill="#231815" d="M104.924,23.658h32.322l4.179-5.181c0,0,5.745,4.365,6.08,4.614c0.376,0.28,0.577,0.721,0.581,1.054
						c0,0.384-0.295,0.902-0.873,0.902c-1.549,0-17.709,0-17.709,0l-2.654,14.967h6.089l4.222-5.132c0,0,5.772,4.528,5.973,4.698
						c0.328,0.288,0.615,0.613,0.6,0.937c-0.028,0.496-0.469,0.774-2.176,0.758v22.801h1.303l4.354-5.441l6.436,5.047
						c0,0,0.695,1.481-0.871,1.566h-50.528l-0.678-1.394h12.97l3.954-22.448h-9.395l-0.695-1.393h10.264l2.528-14.967h-15.623
						L104.924,23.658z M122.761,63.854h10.876l-0.043-22.448h-7.008L122.761,63.854z"/>
					<path fill="#231815" d="M185.635,60.375h5.143c0,0,3.963,0.02,4.113-5.33v-8.027h-25.668v0.698l-8.008,1.479v-28.54
						l8.008,2.436v0.74h0.869l1.658-9.529l8.135,3.526c0,0-5.178,5.091-8.096,6.002h14.227l4.35-5.005c0,0,5.904,4.642,5.963,4.7
						c0.336,0.321,0.346,0.706,0.254,0.962c-0.168,0.434-0.49,0.434-2.125,0.432v11.659l-8.004,1.392v-2.088h-17.23v4.352h24.016
						l3.83-4.702c0,0,5.271,4.23,5.455,4.371c0.186,0.144,0.475,0.613,0.229,1.1c-0.156,0.269-0.234,0.465-1.379,0.447h-32.15v4.329
						h25.863l3.023-3.717c0,0,6.238,4.991,6.334,5.066c0.16,0.134,0.551,0.6,0.309,1.058c-0.209,0.4-0.434,0.586-1.854,0.571
						c0,0,0.029,7.635,0,8.075c-0.088,1.216-0.387,4.812-3.217,7.619c-1.963,1.949-4.992,3.344-10.381,3.451
						c0.412-3.314-1.828-6.663-3.547-7.322C185.527,60.496,185.516,60.387,185.635,60.375z M178.271,51.195l-8.875-2.785v8.701
						 M177.227,57.111v-4.175 M186.453,34.667v-4.181h-17.23v4.181H186.453z M186.453,29.266v-4.173h-17.23v4.173H186.453z
						 M163.611,57.111v-2.786c1.463,0.005,1.648-0.175,1.783-0.586c0.146-0.457-0.168-0.957-0.764-1.13
						c-0.186-0.056-8.852-2.786-8.852-2.786v13.431v0.007l7.744-1.73v0.017V58.33h19.229v1.826l7.83-1.784v-4.306
						c1.379,0.005,1.699-0.192,1.791-0.586c0.135-0.508-0.188-0.947-0.715-1.112c-0.52-0.162-8.918-2.781-8.918-2.781l0.012,7.525
						h0.047h-5.572v-4.175c1.465-0.037,1.633-0.207,1.777-0.563c0.188-0.488-0.193-1.015-0.732-1.178
						c-0.326-0.097-8.875-2.785-8.875-2.785v8.701H163.611z"/>
				</g>
			</g>
			<path fill="#231815" d="M216.324,15.682c0.762,0.627,2.945,4.022,3.678,5.63c0.563,1.237,1.512,2.883,2.773,3.691h-16.082
				l0.699,1.224h18.355v6.39h-15.357l0.691,1.227h14.666v0.401v5.979H205.1l0.693,1.221h19.936
				c-0.072,2.421-0.236,4.487-0.576,6.383h-18.178l0.699,1.222h17.221c-0.461,1.969-1.143,3.796-2.162,5.714
				c-1.83,3.441-8.063,7.902-17.164,10.314c-0.549,0.086-0.053,0.288,0.404,0.345c8.652,0.291,17.225-0.048,22.615-6.896
				c1.74-2.206,3.252-4.806,4.176-8.414c0.643,3.918,3.301,8.034,5.814,10.488c4.924,4.81,9.273,5.513,12.531,5.925
				c0.09-1.399,0.545-3.748,0.971-4.655c0.887-1.877,3.508-3.652,3.508-3.652c-2.682,0.385-9.934-0.694-14.934-2.754
				c-2.746-1.128-5.668-3.249-6.627-6.416h18.85h0.168c0.578,0,0.701-0.479,0.723-0.676c0.016-0.199,0.016-0.656-0.463-0.958
				l-5.613-4.419l-3.654,4.831h-10.271c-0.039-0.313-0.061-0.635-0.061-0.974c0-0.022,0-4.327,0-4.327l-0.006,0.037
				c0-0.057,0.006-0.107,0.006-0.167l-4.324-0.953h24.287h0.164c0.576,0,0.695-0.478,0.717-0.679
				c0.025-0.191,0.025-0.653-0.455-0.96l-5.619-4.414l-3.65,4.832h-11.119v-5.979v-0.401h15.328h0.166
				c0.086,0,0.16-0.017,0.225-0.034l0.057,0.006c0.08-0.033,0.148-0.084,0.203-0.146c0.172-0.16,0.219-0.385,0.232-0.504
				c0.008-0.033,0.008-0.078,0.008-0.124c0.01-0.224-0.037-0.615-0.461-0.888l-5.621-4.415l-3.65,4.834l0.035,0.001l-0.035,0.042
				h-6.486v-6.39h16.881h0.164c0.58,0,0.699-0.48,0.721-0.676c0.023-0.197,0.023-0.658-0.463-0.962l-5.615-4.419l-3.648,4.833
				h-7.822c0.924-0.409,3.848-2.295,4.787-2.969c1.475-1.063,3.52-2.801,4.459-3.762l-7.719-3.145l-3.604,9.876h-5.928
				c3.305-1.967,1.324-5.603,0.225-6.644c-3.182-3.01-8.461-3.087-9.654-2.922C216.131,15.487,216.117,15.508,216.324,15.682"/>
		</g>
		<g>
			<g>
				<path fill="#7A62A8" d="M49.793,20.727v-0.021V2.989V2.644h0.005c-0.064-0.672-0.38-1.304-0.863-1.788
					C48.381,0.3,47.913,0,47.131,0c-1.514,0-3.038,1.173-3.176,2.652H43.95v0.337v14.683H41.06V11.61v-0.344V11.26
					c-0.065-0.674-0.384-1.3-0.863-1.785c-0.55-0.552-1.286-0.852-2.062-0.852c-1.515,0-2.784,1.153-2.924,2.637v0.005v0.344v11.546
					v0.34h0.002v5.068c0,0-0.002,0.006-0.002,0.009l0.002,0.007v9.794v0.342h0.006c0.06,0.672,0.37,1.301,0.853,1.786
					c0.554,0.554,1.286,0.854,2.065,0.854c0.773,0,1.509-0.3,2.059-0.854c0.479-0.485,0.798-1.114,0.863-1.786l0,0v-0.342V23.487
					h3.562h-0.326h-0.007l2.564,0.005l0,0c0.009,0,0.009,0,0.013,0l0,0h0.009c0.693-0.034,1.207-0.175,1.8-0.62
					C48.949,22.672,49.734,21.952,49.793,20.727"/>
				<path fill="#7A62A8" d="M0,46.58v-0.023c0.113-1.112,1.059-2.408,2.673-2.522l0.073-0.007l0.149-0.008h0.007
					c0.005,0,0.005,0,0.012,0l2.25-0.005h0.344h0.335h2.956v-6.072v-0.34l0,0c0.136-1.482,1.407-2.646,2.918-2.646
					c0.781,0,1.512,0.303,2.062,0.852c0.485,0.488,0.827,1.104,0.886,1.783l0,0v0.337l0.007,8.975c0,0.005-0.015,0.02-0.015,0.027
					v0.001v0.135h-0.006c-0.143,0.974-0.399,1.421-0.864,1.911c-0.419,0.441-1.152,0.782-1.698,0.833
					c0.06-0.005-0.127,0.009-0.127,0.009"/>
				<path fill="#7A62A8" d="M0,46.58v9.342v0.321l0,0c0.058,0.675,0.35,1.32,0.86,1.792c0.568,0.527,1.283,0.853,2.058,0.853
					c0.779,0,1.534-0.293,2.061-0.853c0.539-0.566,0.789-1.087,0.864-1.792l0,0v-0.338v-6.075h2.956v0.001h0.34h2.36
					c-0.06,0,0.357-0.01,0.463-0.01"/>
				<path fill="#7A62A8" d="M29.274,49.805h2.673h0.341l0,0h2.954v14.513v0.337h0.003c0.063,0.67,0.368,1.303,0.854,1.791
					c0.551,0.549,1.287,0.848,2.067,0.848c0.773,0,1.508-0.299,2.057-0.848c0.484-0.487,0.796-1.121,0.86-1.791l0,0v-0.337V46.769
					c0-0.003,0-0.003,0-0.008c0-0.003,0-0.008,0-0.008v0.016l-0.017-0.217c-0.07-0.717-0.424-1.335-0.85-1.742
					c-0.403-0.384-0.953-0.759-1.78-0.816l-0.041-0.009h-0.13h-0.007c-0.006,0-0.015,0-0.015,0h-2.667h-0.335l0,0h-2.954V19.856
					v-0.335l0,0c-0.065-0.674-0.377-1.307-0.864-1.798c-0.545-0.544-1.279-0.85-2.061-0.85c-1.513,0-2.776,1.161-2.91,2.643
					l-0.008,0.005v0.335v6.128l-5.456,0.002H20.5c-0.684,0.011-2.519,0.554-2.834,2.62v0.03l-0.02,9.697v0.341l0.008-0.021
					c0.058,0.674,0.365,1.325,0.848,1.812c0.55,0.55,1.284,0.854,2.06,0.854c0.779,0,1.515-0.304,2.06-0.854
					c0.485-0.486,0.792-1.116,0.852-1.791h0.008v-0.341v-6.531h2.964V47.04c0,0.006,0,0.008,0,0.008s0,0.005,0,0.01v-0.033
					l0.01,0.19c0.036,0.547,0.35,1.252,0.835,1.736c0.887,0.893,2.089,0.86,2.015,0.854"/>
				<path fill="#7A62A8" d="M23.492,56.575v-0.008v-9.612v-0.343l0,0c-0.065-0.672-0.383-1.302-0.865-1.792
					c-0.547-0.545-1.284-0.849-2.063-0.849c-1.512,0-2.785,1.157-2.924,2.634v0.007v0.343v14.712h-2.946v-6.136v-0.34l-0.002,0.004
					c-0.064-0.68-0.381-1.308-0.866-1.797c-0.543-0.552-1.278-0.854-2.055-0.854c-1.516,0-2.786,1.171-2.917,2.651l-0.008-0.004
					v0.34l0.008,9.124c0,0.008,0,0.008,0,0.01v0.007v0.134H8.849c0.034,0.605,0.417,1.413,0.894,1.868
					c0.448,0.436,1.097,0.755,1.956,0.804h0.008h0.126c0.002,0,0.008,0,0.008,0h0.006h2.509h0.34l0,0h2.946v6.059v0.342l0,0
					c0.067,0.67,0.382,1.302,0.866,1.786c0.553,0.553,1.285,0.856,2.058,0.856c0.779,0,1.516-0.303,2.063-0.856
					c0.489-0.484,0.8-1.116,0.859-1.786h0.006v-0.342v-11.55v-0.341l0,0v-5.067V56.575z"/>
				<path fill="#7A62A8" d="M47.08,76.035c0.968-0.028,1.493-0.416,1.927-0.833c0.464-0.454,0.829-1.136,0.877-1.899v-0.009
					l0.002-0.132c0.002-0.013,0,0,0,0c0-0.013,0-0.013,0-0.015V55.526v-0.34h-0.002c-0.066-0.675-0.378-1.303-0.858-1.791
					c-0.549-0.55-1.287-0.853-2.067-0.853c-1.511,0-2.775,1.166-2.914,2.644h-0.003v0.34v14.692h-2.987l0,0h-0.342h-2.775
					c-0.006,0-0.006,0-0.006,0s-0.008,0-0.016,0h0.537h-0.581c-1.125,0.078-2.48,0.95-2.661,2.688l0,0v0.078
					c0,0.004,0,0.004,0,0.004c0,0.009,0,0.009,0,0.016v5.913h-2.914V55.427v-0.341h-0.008c-0.065-0.682-0.372-1.31-0.859-1.792
					c-0.547-0.549-1.278-0.858-2.059-0.858c-1.513,0-2.779,1.169-2.917,2.65l0,0v0.341v26.529v0.008c0,0.007,0,0.007,0,0.015v0.09
					v0.04c0.073,0.625,0.392,1.338,0.846,1.78c0.578,0.563,1.341,0.83,1.971,0.843l-0.163-0.016l0,0c0,0,0.157,0.016,0.163,0.016
					l0,0h2.683h0.343v-0.002h2.914v5.99v0.336l0,0c0.064,0.676,0.375,1.314,0.861,1.794c0.554,0.55,1.28,0.861,2.063,0.861
					c0.775,0,1.504-0.311,2.059-0.861c0.481-0.479,0.796-1.11,0.859-1.784l0.002-0.01v-0.336V76.035h3.325h0.344H44.72H47.08"/>
			</g>
			<g>
				<path fill="#7A62A8" d="M49.793,20.727v-0.021V2.989V2.644h0.005c-0.064-0.672-0.38-1.304-0.863-1.788
					C48.381,0.3,47.913,0,47.131,0c-1.514,0-3.038,1.173-3.176,2.652H43.95v0.337v14.683H41.06V11.61v-0.344V11.26
					c-0.065-0.674-0.384-1.3-0.863-1.785c-0.55-0.552-1.286-0.852-2.062-0.852c-1.515,0-2.784,1.153-2.924,2.637v0.005v0.344v11.546
					v0.34h0.002v5.068c0,0-0.002,0.006-0.002,0.009l0.002,0.007v9.794v0.342h0.006c0.06,0.672,0.37,1.301,0.853,1.786
					c0.554,0.554,1.286,0.854,2.065,0.854c0.773,0,1.509-0.3,2.059-0.854c0.479-0.485,0.798-1.114,0.863-1.786l0,0v-0.342V23.487
					h3.562h-0.326h-0.007l2.564,0.005l0,0c0.009,0,0.009,0,0.013,0l0,0h0.009c0.693-0.034,1.207-0.175,1.8-0.62
					C48.949,22.672,49.734,21.952,49.793,20.727"/>
				<path fill="#7A62A8" d="M0,46.58v-0.023c0.113-1.112,1.059-2.408,2.673-2.522l0.073-0.007l0.149-0.008h0.007
					c0.005,0,0.005,0,0.012,0l2.25-0.005h0.344h0.335h2.956v-6.072v-0.34l0,0c0.136-1.482,1.407-2.646,2.918-2.646
					c0.781,0,1.512,0.303,2.062,0.852c0.485,0.488,0.827,1.104,0.886,1.783l0,0v0.337l0.007,8.975c0,0.005-0.015,0.02-0.015,0.027
					v0.001v0.135h-0.006c-0.143,0.974-0.399,1.421-0.864,1.911c-0.419,0.441-1.152,0.782-1.698,0.833
					c0.06-0.005-0.127,0.009-0.127,0.009"/>
				<path fill="#7A62A8" d="M0,46.58v9.342v0.321l0,0c0.058,0.675,0.35,1.32,0.86,1.792c0.568,0.527,1.283,0.853,2.058,0.853
					c0.779,0,1.534-0.293,2.061-0.853c0.539-0.566,0.789-1.087,0.864-1.792l0,0v-0.338v-6.075h2.956v0.001h0.34h2.36
					c-0.06,0,0.357-0.01,0.463-0.01"/>
				<path fill="#7A62A8" d="M29.274,49.805h2.673h0.341l0,0h2.954v14.513v0.337h0.003c0.063,0.67,0.368,1.303,0.854,1.791
					c0.551,0.549,1.287,0.848,2.067,0.848c0.773,0,1.508-0.299,2.057-0.848c0.484-0.487,0.796-1.121,0.86-1.791l0,0v-0.337V46.769
					c0-0.003,0-0.003,0-0.008c0-0.003,0-0.008,0-0.008v0.016l-0.017-0.217c-0.07-0.717-0.424-1.335-0.85-1.742
					c-0.403-0.384-0.953-0.759-1.78-0.816l-0.041-0.009h-0.13h-0.007c-0.006,0-0.015,0-0.015,0h-2.667h-0.335l0,0h-2.954V19.856
					v-0.335l0,0c-0.065-0.674-0.377-1.307-0.864-1.798c-0.545-0.544-1.279-0.85-2.061-0.85c-1.513,0-2.776,1.161-2.91,2.643
					l-0.008,0.005v0.335v6.128l-5.456,0.002H20.5c-0.684,0.011-2.519,0.554-2.834,2.62v0.03l-0.02,9.697v0.341l0.008-0.021
					c0.058,0.674,0.365,1.325,0.848,1.812c0.55,0.55,1.284,0.854,2.06,0.854c0.779,0,1.515-0.304,2.06-0.854
					c0.485-0.486,0.792-1.116,0.852-1.791h0.008v-0.341v-6.531h2.964V47.04c0,0.006,0,0.008,0,0.008s0,0.005,0,0.01v-0.033
					l0.01,0.19c0.036,0.547,0.35,1.252,0.835,1.736c0.887,0.893,2.089,0.86,2.015,0.854"/>
				<path fill="#7A62A8" d="M23.492,56.575v-0.008v-9.612v-0.343l0,0c-0.065-0.672-0.383-1.302-0.865-1.792
					c-0.547-0.545-1.284-0.849-2.063-0.849c-1.512,0-2.785,1.157-2.924,2.634v0.007v0.343v14.712h-2.946v-6.136v-0.34l-0.002,0.004
					c-0.064-0.68-0.381-1.308-0.866-1.797c-0.543-0.552-1.278-0.854-2.055-0.854c-1.516,0-2.786,1.171-2.917,2.651l-0.008-0.004
					v0.34l0.008,9.124c0,0.008,0,0.008,0,0.01v0.007v0.134H8.849c0.034,0.605,0.417,1.413,0.894,1.868
					c0.448,0.436,1.097,0.755,1.956,0.804h0.008h0.126c0.002,0,0.008,0,0.008,0h0.006h2.509h0.34l0,0h2.946v6.059v0.342l0,0
					c0.067,0.67,0.382,1.302,0.866,1.786c0.553,0.553,1.285,0.856,2.058,0.856c0.779,0,1.516-0.303,2.063-0.856
					c0.489-0.484,0.8-1.116,0.859-1.786h0.006v-0.342v-11.55v-0.341l0,0v-5.067V56.575z"/>
				<path fill="#7A62A8" d="M49.007,75.203c0.464-0.454,0.829-1.136,0.877-1.899v-0.009l0.002-0.132c0.002-0.013,0,0,0,0
					c0-0.013,0-0.013,0-0.015V55.526v-0.34h-0.002c-0.066-0.675-0.378-1.303-0.858-1.791c-0.549-0.55-1.287-0.853-2.067-0.853
					c-1.511,0-2.775,1.166-2.914,2.644h-0.003v0.34v14.692h-2.987l0,0h-0.342h-2.775c-0.006,0-0.006,0-0.006,0s-0.008,0-0.016,0
					h0.537h-0.581c-1.125,0.078-2.48,0.95-2.661,2.688l0,0v0.078c0,0.004,0,0.004,0,0.004c0,0.009,0,0.009,0,0.016v5.913h-2.914
					V55.427v-0.341h-0.008c-0.065-0.682-0.372-1.31-0.859-1.792c-0.547-0.549-1.278-0.858-2.059-0.858
					c-1.513,0-2.779,1.169-2.917,2.65l0,0v0.341v26.529v0.008c0,0.007,0,0.007,0,0.015v0.09v0.04
					c0.073,0.625,0.392,1.338,0.846,1.78c0.578,0.563,1.341,0.83,1.971,0.843l-0.163-0.016l0,0c0,0,0.157,0.016,0.163,0.016l0,0
					h2.683h0.343v-0.002h2.914v5.99v0.336l0,0c0.064,0.676,0.375,1.314,0.861,1.794c0.554,0.55,1.28,0.861,2.063,0.861
					c0.775,0,1.504-0.311,2.059-0.861c0.481-0.479,0.796-1.11,0.859-1.784l0.002-0.01v-0.336V76.035h3.325h0.344H44.72h2.36"/>
			</g>
			<g>
				<path fill="#7A62A8" d="M43.95,81.601l-0.006,0.019v17.72v0.337l0,0c0.064,0.678,0.377,1.306,0.863,1.794
					c0.55,0.544,1.025,0.852,1.802,0.852c1.516,0,3.041-1.175,3.179-2.649h0.005l-0.005-0.334V84.652h2.893v6.064v0.339v0.01
					c0.064,0.674,0.379,1.295,0.866,1.784c0.55,0.55,1.279,0.861,2.059,0.861c1.516,0,2.789-1.167,2.925-2.645v-0.01v-0.339V79.166
					v-0.336h-0.005v-5.07c0,0,0.005-0.002,0.005-0.011l-0.005-0.004v-9.787v-0.34h-0.005c-0.059-0.679-0.366-1.311-0.852-1.792
					c-0.555-0.553-1.283-0.856-2.063-0.856c-0.779,0-1.509,0.303-2.059,0.856c-0.486,0.481-0.801,1.113-0.866,1.792l0,0v0.34v14.879
					h-3.56h0.32h0.005l-2.55-0.007c-0.01,0-0.015,0-0.015,0s-0.001,0-0.003,0l0,0h-0.007c-0.697,0.033-1.212,0.178-1.803,0.621
					C44.796,79.656,44.009,80.376,43.95,81.601"/>
				<path fill="#7A62A8" d="M93.71,55.745v0.023c-0.115,1.116-1.065,2.413-2.673,2.523l-0.072,0.008l-0.144,0.011l-0.01,0.001
					c-0.007,0-0.009-0.001-0.015-0.001l-2.246,0.003h-0.339H87.87h-2.949v6.067v0.347l0,0c-0.137,1.475-1.409,2.641-2.916,2.641
					c-0.782,0-1.514-0.305-2.063-0.851c-0.484-0.49-0.822-1.106-0.883-1.784v0.002v-0.337v-8.976c0-0.004,0.004-0.018,0.004-0.018
					c0-0.007,0.004-0.007,0.004-0.01v-0.132h0.002c0.142-0.978,0.399-1.426,0.863-1.909c0.426-0.445,1.154-0.78,1.696-0.837
					c-0.058,0.008,0.124-0.007,0.124-0.007"/>
				<path fill="#7A62A8" d="M93.71,55.745l0.001-9.338v-0.321l0,0c-0.063-0.677-0.35-1.323-0.862-1.792
					c-0.566-0.525-1.28-0.855-2.057-0.855c-0.781,0-1.528,0.291-2.063,0.855c-0.528,0.567-0.785,1.091-0.86,1.792l0,0v0.34V52.5
					h-2.949v-0.002h-0.336h-2.362c0.063,0-0.354,0.011-0.469,0.011"/>
				<path fill="#7A62A8" d="M64.464,52.517h-2.673h-0.34v0.007h-2.953V38.016v-0.343l0,0c-0.069-0.671-0.373-1.304-0.858-1.791
					c-0.554-0.553-1.279-0.854-2.062-0.854c-0.776,0-1.506,0.301-2.054,0.854c-0.487,0.486-0.803,1.119-0.865,1.791h-0.002v0.343
					v17.543c0,0-0.003,0.004-0.003,0.009l0.003,0.006v-0.015l0.015,0.215c0.075,0.718,0.422,1.336,0.854,1.74
					c0.404,0.385,0.955,0.764,1.78,0.82l0.041,0.008h0.128c0.007,0,0.007,0,0.013,0c0,0,0.005,0,0.011,0h2.663h0.335l0,0h2.953
					v24.125v0.34l0,0c0.063,0.672,0.374,1.31,0.858,1.79c0.545,0.551,1.279,0.855,2.061,0.855c1.515,0,2.774-1.164,2.911-2.643
					l0.006-0.002v-0.34V76.34l5.445-0.009h0.496c0.682-0.002,2.518-0.55,2.833-2.615l-0.003-0.028l0.017-9.688v-0.343l-0.009,0.016
					c-0.058-0.674-0.354-1.319-0.839-1.809c-0.549-0.552-1.284-0.852-2.062-0.852c-0.774,0-1.506,0.3-2.057,0.852
					c-0.484,0.49-0.79,1.121-0.854,1.793h-0.008v0.343v6.523h-2.958V55.289c0-0.004,0-0.007,0-0.014c0,0,0,0,0-0.007v0.036
					l-0.012-0.19c-0.034-0.547-0.35-1.256-0.833-1.741c-0.883-0.889-2.087-0.857-2.018-0.856"/>
				<path fill="#7A62A8" d="M70.24,45.751c0,0.005,0,0.008,0,0.014v9.604v0.346v-0.003c0.058,0.673,0.378,1.305,0.859,1.793
					c0.555,0.552,1.284,0.851,2.065,0.851c1.513,0,2.785-1.155,2.918-2.633l-0.001-0.007v-0.346v-14.71h2.951v6.138v0.34
					l0.002-0.002c0.062,0.676,0.37,1.312,0.858,1.794c0.545,0.55,1.279,0.853,2.058,0.853c1.512,0,2.784-1.169,2.914-2.647
					l0.005,0.002v-0.34l-0.005-9.127v-0.003c0-0.007,0-0.01,0-0.01v-0.133l0.003-0.003c-0.033-0.605-0.415-1.41-0.889-1.873
					c-0.454-0.434-1.097-0.757-1.955-0.804h-0.004h-0.133H81.88h-0.009h-2.508h-0.332l0,0h-2.951v-6.055v-0.34l0,0
					c-0.06-0.674-0.374-1.306-0.861-1.79c-0.555-0.553-1.286-0.858-2.056-0.858c-0.781,0-1.511,0.305-2.065,0.858
					c-0.48,0.484-0.793,1.116-0.854,1.79H70.24v0.34v11.553v0.334l0,0v5.07C70.24,45.75,70.24,45.75,70.24,45.751z"/>
				<path fill="#7A62A8" d="M46.645,26.278c-0.527,0.078-1.325,0.248-1.909,0.846c-0.456,0.458-0.832,1.133-0.879,1.895v0.009
					l-0.001,0.14c0,0.002,0-0.004,0,0c0,0.002,0,0.006,0,0.006v17.631v0.337l0.001-0.004c0.067,0.675,0.374,1.31,0.863,1.792
					c0.55,0.558,1.28,0.859,2.061,0.859c1.511,0,2.779-1.168,2.917-2.646l0,0v-0.337v-14.7h2.984v0.002h0.346h2.775
					c0.007,0,0.007,0.002,0.007,0.002c0.004,0,0.015-0.002,0.015-0.002h-0.538h0.589c1.123-0.08,2.473-0.951,2.655-2.688l0,0v-0.079
					c0-0.005,0-0.005,0-0.008c0-0.007,0-0.007,0-0.011v-5.909h2.92V46.84v0.342l0,0c0.059,0.676,0.374,1.302,0.854,1.786
					c0.549,0.555,1.283,0.859,2.06,0.859c1.513,0,2.776-1.167,2.916-2.645l0,0V46.84V20.364v-0.002c0-0.006,0-0.009,0-0.009v-0.097
					v-0.042c-0.074-0.624-0.392-1.338-0.843-1.779c-0.58-0.561-1.341-0.827-1.969-0.842l0.164,0.019l0,0
					c0,0-0.154-0.019-0.164-0.019c-0.004,0-0.004,0-0.004,0h-2.682h-0.332v0.004h-2.92v-5.993v-0.338l0,0
					c-0.065-0.676-0.375-1.312-0.862-1.794c-0.55-0.549-1.279-0.849-2.063-0.849c-0.772,0-1.505,0.3-2.054,0.849
					c-0.491,0.482-0.795,1.114-0.863,1.789l-0.007,0.005v0.338v14.681h-3.322h-0.335l0.002,0.005L46.645,26.278"/>
			</g>
		</g>
	</g>
</g>
</svg>
