<?xml version="1.0" encoding="UTF-8"?><svg id="_レイヤー_2" xmlns="http://www.w3.org/2000/svg" viewBox="0 0 133.23 133.23"><defs><style>.cls-1{fill:#fff100;}.cls-2{fill:#1d2088;}</style></defs><g id="_文字"><rect class="cls-2" width="133.23" height="133.23"/><path class="cls-1" d="M67.39,61.77h-28.63v9.69h18.77c-2.15,8.36-9.74,14.54-18.77,14.54-10.71,0-19.38-8.68-19.38-19.38s8.68-19.38,19.38-19.38c4.91,0,9.38,1.84,12.8,4.85h12.35c-5.03-8.68-14.39-14.53-25.15-14.53-16.05,0-29.07,13.01-29.07,29.07s13.01,29.07,29.07,29.07,29.07-13.01,29.07-29.07c0-1.66-.17-3.27-.43-4.84"/><path class="cls-1" d="M113.85,41.18v31.49h0c0,7.36-5.96,13.32-13.32,13.32s-13.32-5.96-13.32-13.32v-31.49h-9.69v31.49c0,12.71,10.3,23.01,23.01,23.01s23.01-10.3,23.01-23.01v-31.49h-9.69Z"/></g></svg>