<svg width="172" height="30" viewBox="0 0 172 30" fill="none" xmlns="http://www.w3.org/2000/svg">
<g clip-path="url(#clip0_214_324)">
<path d="M36.421 2.7603C36.4906 2.79828 36.5413 2.8426 36.5413 2.9249C36.5413 3.01986 36.383 3.05784 36.1677 3.10216C35.3891 4.90009 33.6418 6.81199 32.8314 7.37542C32.5465 7.02723 32.0654 6.6094 31.5969 6.34351C32.8504 5.41289 34.0976 4.24803 35.0219 2.03226L36.421 2.74763V2.7603ZM39.1242 6.75501C39.5547 7.22349 41.3526 9.59119 42.2706 11.3765C41.8971 11.5221 41.0994 11.9969 40.8715 12.2121C40.7259 11.8893 40.6056 11.6234 40.2511 10.9903C38.6114 11.1802 36.9464 11.3828 35.2941 11.5537C34.4078 11.6487 33.9266 11.6993 33.4518 11.769C33.3949 11.8766 33.3062 12.0222 33.2113 12.0222C33.1163 12.0222 33.053 11.9272 33.0213 11.7816L32.6858 10.3572C32.8061 10.3446 33.8697 10.2749 34.0596 10.2623C35.5093 7.28046 36.1994 5.128 36.345 4.67219L37.8897 5.19764C37.9847 5.23563 38.0543 5.27994 38.0543 5.36224C38.0543 5.49519 37.9214 5.52684 37.6935 5.55216C37.4402 6.26754 36.7248 7.94519 35.6613 10.123C37.5732 9.95838 37.7694 9.93305 39.5167 9.76212C39.1432 9.18602 39.0229 9.03409 37.934 7.58434L39.1179 6.74868L39.1242 6.75501ZM39.9979 1.67773C40.2258 4.09609 42.4415 5.65346 43.2075 6.19157C42.8594 6.47646 42.4795 6.87529 42.1693 7.28046C41.6312 6.94493 39.6687 5.53317 38.7697 2.98187H36.8894V1.67773H39.9979Z" fill="#00A63C"/>
<path d="M52.1211 3.43768C53.0327 2.17786 53.3746 1.39285 53.4949 1.13961L54.9573 1.70305C55.0396 1.74104 55.1219 1.81068 55.1219 1.89298C55.1219 2.02592 54.9889 2.02592 54.742 2.02592C54.3622 2.67166 54.1216 3.04518 53.8304 3.43768H56.8945V4.70384H53.5898C55.1345 6.43847 56.464 7.05888 57.2743 7.44506C56.8692 7.79325 56.483 8.24906 56.2361 8.61625C56.0335 8.49596 55.8752 8.41366 55.527 8.19842V10.6864H56.9894V11.9526H46.0752V10.6864H47.5566V8.21108C47.1008 8.47064 46.9552 8.54661 46.7399 8.65423C46.3474 8.02116 46.0119 7.76793 45.708 7.56534C46.6323 7.22981 48.0567 6.41947 49.3925 4.70384H46.2081V3.43768H49.1393C48.7911 2.86158 48.4682 2.38678 48.0377 1.94362L49.2342 1.12695C49.8547 1.66507 50.4687 2.62101 50.7156 3.03251C50.5004 3.12748 50.2155 3.29841 49.9623 3.43768H52.1021H52.1211ZM50.4941 4.71017L50.9942 5.08368C51.0448 5.12167 51.0892 5.19131 51.0892 5.27361C51.0892 5.36857 51.0069 5.38123 50.9246 5.38123C50.8549 5.38123 50.779 5.36857 50.7346 5.35591C50.3991 5.77374 49.918 6.32451 48.962 7.17283H54.0836C53.6911 6.86263 52.8365 6.14092 52.1464 5.17231L52.7921 4.70384H50.4941V4.71017ZM49.823 8.40733H48.962V10.6927H49.823V8.40733ZM51.0892 10.6927H51.9881V8.40733H51.0892V10.6927ZM53.2606 10.6927H54.1469V8.40733H53.2606V10.6927Z" fill="#00A63C"/>
<path d="M66.0236 5.22293V3.89347H68.8851V1.29785L70.2842 1.40547C70.3919 1.41814 70.5501 1.47511 70.5501 1.5954C70.5501 1.71568 70.4045 1.77266 70.2969 1.82331V3.89347H71.4681V5.22293H70.2969V10.9649C70.2969 11.7183 70.0563 12.2817 68.2521 12.2817C68.0748 12.2817 67.9545 12.2691 67.8089 12.2564C67.7836 12.0918 67.6886 11.4524 67.2961 10.794C67.5114 10.832 67.9292 10.889 68.2647 10.889C68.8851 10.889 68.8851 10.756 68.8851 10.4331V7.1918C68.309 8.42629 67.3911 9.74309 66.5744 10.3382C66.2769 9.97733 65.9983 9.73043 65.4602 9.34426L65.5172 9.29361H64.8714C65.0867 9.68612 65.6881 10.4648 66.4984 11.1359C66.0806 11.3638 65.7198 11.617 65.3399 11.9968C64.8018 11.541 63.9155 10.3445 63.6179 9.8064L64.346 9.29361H62.2252L63.1241 9.69878C63.1748 9.7241 63.2444 9.79374 63.2444 9.85705C63.2444 9.95201 63.1621 9.97733 62.9912 9.98999C62.6114 10.794 62.0226 11.7246 61.4971 12.2501C61.0793 11.8702 60.4462 11.579 60.2437 11.4967C60.5095 11.2435 61.2249 10.5281 61.763 9.29361H61.0097V1.58274H65.7641V9.12268C66.3718 8.64154 67.6443 7.20446 68.4103 5.22293H66.03H66.0236ZM64.4536 3.81117V2.77925H62.3708V3.81117H64.4536ZM62.3708 4.86207V5.92564H64.4536V4.86207H62.3708ZM62.3708 7.02086V8.1604H64.4536V7.02086H62.3708Z" fill="#00A63C"/>
<path d="M76.463 11.6359V12.1867H75.0259V1.6333H85.2564V12.1867H83.8573V11.6359H76.463ZM83.8573 10.3824V2.89945H76.463V10.3824H83.8573ZM80.9008 3.16535L82.2999 3.24765C82.4645 3.26031 82.5278 3.30462 82.5278 3.39325C82.5278 3.5262 82.3949 3.57052 82.2999 3.59584V4.48215H83.5344V5.7483H82.2999V8.65412C82.2999 9.67337 82.072 10.1165 80.2298 10.1355C80.1918 9.66704 80.0525 9.15425 79.736 8.76174C79.9006 8.77441 80.0968 8.78707 80.2867 8.78707C80.8945 8.78707 80.8945 8.65412 80.8945 7.99572V5.7483H76.8618V4.48215H80.8945V3.16535H80.9008ZM78.4761 6.10915C79.0839 6.62194 79.8436 7.67918 80.0082 7.92608C79.8436 8.07169 79.0522 8.64146 78.9066 8.77441C78.6218 8.27427 77.8557 7.19171 77.4822 6.86885L78.4761 6.10282V6.10915Z" fill="#00A63C"/>
<path d="M89.5171 4.33659C90.8592 5.24822 91.2517 5.64072 91.467 5.85597C91.2644 6.07122 90.7706 6.71695 90.6439 6.89422C89.745 6.11553 89.2449 5.74835 88.6941 5.40015L89.5171 4.33659ZM88.6877 11.3131C89.3208 10.4901 90.1945 8.73014 90.5996 7.47032C91.2201 8.10339 91.5429 8.21101 91.7518 8.27432C91.3593 9.44551 90.7452 10.7497 90.1628 11.8639C90.1881 11.9208 90.2008 11.9715 90.2008 12.0285C90.2008 12.1234 90.1438 12.1931 90.0679 12.1931C90.0299 12.1931 89.9349 12.1677 89.8399 12.1108L88.6941 11.3068L88.6877 11.3131ZM90.3274 1.31048C90.9858 1.72831 91.7645 2.39937 92.233 2.92482C91.7328 3.46294 91.6695 3.52625 91.277 4.00105C90.8719 3.54524 90.1375 2.80454 89.4095 2.30441L90.3337 1.31048H90.3274ZM97.7028 7.76153C99.0449 9.29358 99.9312 10.9839 100.146 11.4714C99.2855 11.9525 99.1905 11.9968 98.8676 12.2754C98.76 12.0728 98.3295 11.1738 98.2345 10.9966C97.2279 11.2245 95.3604 11.6423 92.7521 11.8575C92.6951 12.0031 92.6445 12.0981 92.4989 12.0981C92.4039 12.0981 92.3406 12.0285 92.2963 11.8259L91.9861 10.4521C92.2266 10.4648 92.4546 10.4648 93.2902 10.4141C94.0183 9.01502 94.5374 7.7552 94.664 7.37535H91.9607V6.05855H95.1705V4.45687H92.5369V3.15273H95.1705V1.28516L96.7025 1.35479C96.8481 1.36746 96.9431 1.42443 96.9431 1.5004C96.9431 1.60803 96.8354 1.67766 96.7025 1.72831V3.15273H99.5387V4.45687H96.7025V6.05855H99.9818V7.37535H96.5949C96.6329 7.41334 96.6518 7.43233 96.6518 7.49564C96.6518 7.66024 96.3416 7.72355 96.1834 7.74887C95.9111 8.41993 95.4743 9.26825 94.9489 10.2748C96.3037 10.1292 97.1773 9.95197 97.5318 9.88234C96.9241 8.93905 96.6962 8.69848 96.5379 8.52755L97.6964 7.77419L97.7028 7.76153Z" fill="#00A63C"/>
<path d="M109.719 1.38003C109.934 1.39269 110.004 1.47499 110.004 1.55729C110.004 1.63959 109.871 1.72189 109.719 1.7852C109.649 5.1595 109.56 8.60977 114.53 10.9395C113.992 11.37 113.751 11.6232 113.441 12.2056C112.067 11.5346 111.061 10.5153 110.82 10.2684C109.839 9.28716 109.383 8.4515 108.978 7.52721C108.161 9.69233 106.452 11.237 104.515 12.193C104.072 11.5916 103.806 11.3193 103.268 10.9711C106.186 9.89491 107.243 7.83742 107.591 6.81816C108.092 5.33676 108.168 4.0896 108.13 1.25342L109.719 1.3737V1.38003Z" fill="#00A63C"/>
<path d="M33.534 17.5616L35.0787 17.6439C35.1863 17.6439 35.3446 17.6693 35.3446 17.8085C35.3446 17.9415 35.1989 17.9858 35.047 18.0364V20.1572H36.7563V17.1438L38.2187 17.2134C38.339 17.2134 38.5036 17.2641 38.5036 17.4034C38.5036 17.4857 38.4466 17.5236 38.2187 17.5933V20.1572H39.8204V17.4857L41.2702 17.5553C41.3904 17.5553 41.5234 17.5806 41.5234 17.7009C41.5234 17.7832 41.4854 17.8085 41.2258 17.9288V20.1572H43.0238V21.5247H41.2258V25.5004H39.8267V24.9876H38.2251V25.6334H36.7626V21.531H35.0533V26.3297H42.1501V27.7035H35.0533V28.191H33.5466V21.5247H31.8943V20.1572H33.5466V17.5616H33.534ZM39.8204 21.5247H38.2187V23.6455H39.8204V21.5247Z" fill="#00A63C"/>
<path d="M48.1961 27.2919V27.8427H46.6514V17.9224H56.4324V27.83H54.8497V27.2919H48.1961ZM50.8043 21.993V19.3974H48.1961V21.993H50.8043ZM50.8043 25.9814V23.3098H48.1961V25.9814H50.8043ZM54.8497 21.993V19.3974H52.2161V21.993H54.8497ZM52.2161 23.3098V25.9814H54.8497V23.3098H52.2161Z" fill="#00A63C"/>
<path d="M66.6819 19.4419C66.7642 19.4546 66.8592 19.4989 66.8592 19.5875C66.8592 19.6571 66.7136 19.7521 66.5806 19.8154C67.2643 21.0626 69.037 22.8099 71.5249 23.7911C71.0691 24.2723 70.9045 24.4622 70.5943 25.013C69.8853 24.7028 69.5434 24.5128 69.1826 24.2976V28.1657H67.6632V27.7605H63.8457V28.1657H62.301V24.4685C61.7376 24.8864 61.3704 25.0889 61.0792 25.2472C60.6993 24.6584 60.5031 24.5065 59.9207 24.1583C61.1425 23.5696 63.7128 22.0248 65.1055 19.1317L66.6882 19.4546L66.6819 19.4419ZM64.5864 17.7579C64.6814 17.8086 64.751 17.8655 64.751 17.9605C64.751 18.0681 64.6181 18.1061 64.3902 18.1061C63.4659 19.3723 62.6999 20.1636 61.5667 20.9929C61.421 20.8283 61.0665 20.4042 60.3322 20.1573C61.7059 19.271 62.6049 18.1567 63.2886 17.1058L64.5801 17.7642L64.5864 17.7579ZM67.986 23.4619C67.315 22.9365 66.2894 22.0122 65.7133 20.9993C65.1245 21.9552 64.2889 22.7972 63.5355 23.4619H67.986ZM67.6632 26.4184V24.8294H63.8457V26.4184H67.6632ZM67.9164 17.0615C68.9483 18.3657 69.784 19.0367 71.1704 20.018C70.569 20.4611 70.2841 20.8093 70.0689 21.1069C68.847 20.2586 67.1251 18.4226 66.7389 17.8782L67.9101 17.0615H67.9164Z" fill="#00A63C"/>
<path d="M85.4653 26.2663V27.6401H76.463V28.1212H74.9436V17.7451H85.1868V19.0872H76.463V26.2663H85.4653ZM77.976 19.562C79.2359 20.3534 79.9006 20.8219 80.8945 21.6322C81.0971 21.379 81.8378 20.4737 82.3189 19.2139L83.7814 19.9419C83.8383 19.9799 83.9143 20.0242 83.9143 20.1065C83.9143 20.2268 83.756 20.2394 83.5218 20.2394C82.971 21.2207 82.4329 21.9741 81.9644 22.5628C83.1736 23.6897 83.4965 23.9999 84.1802 24.7786C83.927 24.9432 83.7117 25.1141 83.0533 25.8802C82.3569 24.9685 81.8188 24.3734 81.0401 23.6201C79.8816 24.8166 78.6344 25.5446 77.8558 26.0131C77.248 25.1964 76.8618 24.9812 76.6846 24.8736C77.6278 24.4051 78.875 23.715 79.9639 22.6451C78.9003 21.7462 78.1533 21.2714 77.0581 20.613L77.9824 19.562H77.976Z" fill="#00A63C"/>
<path d="M94.8729 22.7592V21.778L96.3226 21.8982C96.5252 21.9109 96.5949 21.9932 96.5949 22.0565C96.5949 22.1641 96.4619 22.2211 96.31 22.2464V22.7592H99.1588V23.9114H96.31V24.7471H98.4624V25.874H96.31V26.8172H99.9122V27.9884H91.0554V26.8172H94.8729V25.874H92.5305V24.7471H94.8729V23.9114H92.9673C92.6824 24.3926 92.5115 24.5825 92.3216 24.8104C92.0114 24.5445 91.8278 24.4369 91.1947 24.152C91.0491 26.5197 90.3337 27.8175 89.9159 28.3746C89.4601 27.9884 88.865 27.7985 88.6814 27.7415C89.8083 26.4501 89.8083 24.3419 89.8083 23.215V20.4865H92.4039C92.214 20.1003 92.043 19.8281 91.7455 19.4482L92.3912 19.2583H89.6753V18.0871H93.8283V17.1565L95.3983 17.2261C95.4933 17.2261 95.6262 17.2515 95.6262 17.3591C95.6262 17.4414 95.544 17.5173 95.411 17.5617V18.0871H99.6273V19.2583H97.5571L97.7977 19.2963C97.8673 19.309 97.956 19.3786 97.956 19.4546C97.956 19.5875 97.7407 19.6192 97.6458 19.6192C97.4558 20.0497 97.2659 20.4232 97.2153 20.4928H99.7666V21.6893H92.5875L93.822 22.0945C93.9802 22.1451 94.0499 22.1895 94.0499 22.2718C94.0499 22.3667 93.9549 22.43 93.7017 22.43C93.6447 22.5946 93.6194 22.6706 93.5814 22.7656H94.8855L94.8729 22.7592ZM91.239 21.683V23.3606C91.239 23.4176 91.2264 23.7468 91.2137 24.057C91.6822 23.6139 92.3406 22.5503 92.5685 21.6893H91.239V21.683ZM93.3408 19.252C93.5687 19.6128 93.822 20.0307 93.9423 20.3282L93.4421 20.4865H95.5629C95.6452 20.3535 95.9554 19.8028 96.1833 19.252H93.3472H93.3408Z" fill="#00A63C"/>
<path d="M109.434 28.2037H108.06V25.8676C106.673 27.0768 105.129 27.8998 104.483 28.1404C103.983 27.482 103.692 27.3047 103.419 27.1338C104.964 26.6083 106.294 25.722 107.142 24.994H103.324V23.8671H108.066V23.3733H104.717V22.3414H108.066V21.8603H103.926V20.7587H106.465C106.408 20.6131 106.249 20.2776 106.129 20.0497L106.73 19.904H103.331V18.7772H105.091C104.996 18.5746 104.768 18.2264 104.502 17.8529L105.661 17.1565C105.914 17.53 106.262 18.0745 106.477 18.5113C106.287 18.5809 106.154 18.6316 105.888 18.7772H106.939V17.2071L108.269 17.2768C108.389 17.2894 108.522 17.3021 108.522 17.4224C108.522 17.5427 108.427 17.5807 108.269 17.625V18.7708H109.13V17.2135L110.472 17.2704C110.529 17.2704 110.738 17.2704 110.738 17.4161C110.738 17.5363 110.561 17.606 110.472 17.644V18.7708H111.643C111.295 18.6126 111.035 18.5429 110.877 18.5049C111.333 17.7959 111.453 17.5743 111.592 17.2135L112.992 17.7263C113.049 17.7516 113.099 17.8086 113.099 17.8719C113.099 18.0301 112.922 18.0175 112.738 18.0048C112.656 18.1251 112.308 18.6632 112.238 18.7708H114.15V19.8977H111.827C111.852 19.9357 111.865 19.9547 111.865 19.98C111.865 20.113 111.542 20.1383 111.396 20.1446C111.251 20.4801 111.181 20.6258 111.124 20.7397H113.447V21.8413H109.44V22.3224H112.707V23.3543H109.44V23.8481H114.169V24.975H110.364C111.871 26.2791 113.403 26.7919 114.112 27.0325C113.454 27.5453 113.289 27.7732 113.118 28.0961C112.542 27.9061 110.858 27.1401 109.446 25.7853V28.1784L109.434 28.2037ZM107.528 19.923C107.61 20.0686 107.705 20.2712 107.933 20.7714H109.573C109.643 20.6258 109.788 20.3535 109.965 19.923H107.522H107.528Z" fill="#00A63C"/>
<path d="M128.806 23.7973C128.856 23.8353 128.901 23.9049 128.901 23.9619C128.901 24.0126 128.863 24.0822 128.742 24.0822C128.692 24.0822 128.647 24.0822 128.502 24.0442C127.938 24.6456 127.603 24.9432 127.103 25.3357C127.356 25.7282 127.856 26.4119 128.875 27.1526C128.54 27.3552 128.192 27.5958 127.786 28.0389C126.134 26.7728 125.14 25.0571 125.007 22.9996H124.634V26.0891C125.305 25.9245 125.52 25.8485 125.697 25.7789C125.59 26.279 125.59 26.5702 125.577 27.1526C124.862 27.4059 123.159 27.8237 122.836 27.8933C122.766 28.0833 122.728 28.1782 122.608 28.1782C122.5 28.1782 122.45 28.0453 122.443 27.963L122.203 26.6335C122.5 26.5829 122.716 26.5512 123.349 26.3929V22.9933H122.931C122.728 24.7533 122.234 26.5955 121.158 28.0453C120.93 27.7604 120.525 27.4375 120.215 27.2539C119.892 28.1845 119.018 28.2099 118.145 28.2352C118.094 27.8427 118.037 27.5895 117.702 26.7411C117.961 26.7981 118.265 26.8741 118.468 26.8741C118.898 26.8741 118.898 26.6208 118.898 26.3233V23.9872C118.575 24.1202 117.986 24.3481 117.929 24.3671C117.904 24.4494 117.86 24.6393 117.74 24.6393C117.594 24.6393 117.575 24.4747 117.562 24.3861L117.385 23.0693C117.657 23.0123 118.018 22.9363 118.904 22.6388V20.5686H117.613V19.2392H118.904V17.1943L120.303 17.245C120.36 17.245 120.569 17.2576 120.569 17.4033C120.569 17.5235 120.392 17.6312 120.303 17.6881V19.2455H121.297V20.575H120.303V22.164C120.842 21.9614 121.032 21.8791 121.228 21.7905C121.133 22.183 121.133 22.7084 121.158 23.025C120.886 23.1706 120.677 23.2782 120.31 23.4175V26.4246C120.31 26.6019 120.297 26.6905 120.297 26.7728C121.639 24.8102 121.671 22.2336 121.671 20.8852V17.5932H128.337V18.8593H123.032V21.7778H128.527V22.987H127.856L128.799 23.7783L128.806 23.7973ZM127.881 20.8788H123.526V19.6823H127.881V20.8788ZM126.28 23.0123C126.337 23.4808 126.413 23.8163 126.552 24.2468C126.982 23.8543 127.318 23.5314 127.723 23.0123H126.273H126.28Z" fill="#00A63C"/>
<path d="M141.328 23.62L141.353 22.5691H140.074V21.5182H141.379L141.404 20.7142H140.074V19.6253H141.429L141.455 18.7263H140.081V17.6248H142.822L142.657 23.62H143.221V24.8419H139.568C140.79 25.9561 141.556 26.4246 142.898 27.102C142.505 27.5324 142.119 27.9629 141.891 28.2985C141.398 28.0706 140.41 27.6147 138.371 25.7598L139.302 24.8355H135.833L137.093 25.5762C137.162 25.6269 137.238 25.6585 137.238 25.7408C137.238 25.8358 137.156 25.8991 137.048 25.8991C136.966 25.8991 136.89 25.8738 136.833 25.8611C135.016 27.3805 134.478 27.773 133.541 28.3048C132.832 27.5514 132.762 27.4691 132.319 27.2286C133.636 26.7031 134.795 25.8548 135.776 24.8355H132.11V23.6137H132.794L132.522 17.6438L133.339 17.7514C133.731 17.7514 134.478 17.5235 134.883 17.3652L135.371 18.0363V17.4159H139.777V23.6137H141.347L141.328 23.62ZM135.352 23.62V18.5428C135.352 18.5428 135.301 18.5048 135.282 18.4921C134.852 18.6377 134.244 18.7453 133.832 18.7643L133.883 19.6127H135.041V20.7015H133.927L133.965 21.5056H135.041V22.5565H134.01L134.067 23.6074H135.345L135.352 23.62ZM138.751 23.62V18.5301H136.346V23.62H138.751ZM138.492 19.0112V19.9102H136.586V19.0112H138.492ZM138.403 20.4357V23.1199H136.669V20.4357H138.403ZM137.283 21.3473V22.1956H137.795V21.3473H137.283Z" fill="#00A63C"/>
<path d="M150.925 18.7137C150.995 18.7517 151.046 18.796 151.046 18.8783C151.046 18.9732 150.887 19.0112 150.672 19.0555C149.893 20.8535 148.146 22.7654 147.336 23.3288C147.051 22.9806 146.57 22.5628 146.101 22.2969C147.361 21.3663 148.602 20.2014 149.526 17.9856L150.925 18.701V18.7137ZM153.629 22.7084C154.059 23.1769 155.857 25.5446 156.775 27.3299C156.401 27.4755 155.604 27.9503 155.376 28.1655C155.23 27.8426 155.116 27.5768 154.755 26.9437C153.116 27.1336 151.451 27.3362 149.798 27.5071C148.912 27.6021 148.431 27.6527 147.956 27.7224C147.899 27.83 147.811 27.9756 147.716 27.9756C147.621 27.9756 147.557 27.8806 147.526 27.735L147.19 26.3106C147.31 26.2979 148.374 26.2283 148.564 26.2156C150.014 23.2338 150.704 21.0814 150.849 20.6256L152.394 21.151C152.489 21.189 152.559 21.2333 152.559 21.3156C152.559 21.4486 152.426 21.4802 152.198 21.5055C151.945 22.2209 151.229 23.8986 150.166 26.0764C152.084 25.9118 152.274 25.8864 154.021 25.7155C153.648 25.1394 153.527 24.9875 152.438 23.5377L153.622 22.7021L153.629 22.7084ZM154.502 17.6375C154.73 20.0558 156.946 21.6132 157.712 22.1513C157.364 22.4362 156.984 22.835 156.667 23.2402C156.129 22.9046 154.167 21.4929 153.268 18.9416H151.388V17.6375H154.496H154.502Z" fill="#00A63C"/>
<path d="M163.631 28.1591H162.15V24.7152C161.656 25.1583 161.264 25.4559 160.966 25.6838C160.668 24.9874 160.225 24.6329 160.023 24.4493C161.302 23.6959 162.922 22.1512 163.435 20.9674H160.504V19.5936H162.156V17.2829L163.631 17.3335C163.796 17.3335 163.859 17.4411 163.859 17.4981C163.859 17.5678 163.802 17.6184 163.644 17.7007V19.5936H164.878L165.537 20.214C164.853 21.5815 164.72 21.803 164.22 22.4741C164.866 23.2021 165.695 23.7403 166.05 23.9808C165.752 24.2341 165.309 24.7215 165.119 25.095C164.41 24.5949 164.074 24.2594 163.644 23.8036V28.1591H163.631ZM165.315 22.2209V20.7711H167.423V17.2512L169.038 17.3209C169.133 17.3209 169.215 17.3715 169.215 17.4538C169.215 17.5741 169.133 17.5994 168.962 17.6437V20.7648H171.083V22.2145H168.962V26.3802H171.342V27.754H164.556V26.3802H167.417V22.2145H165.309L165.315 22.2209Z" fill="#00A63C"/>
<path d="M10.3065 7.76785C10.3002 7.59692 10.2939 7.42599 10.2939 7.25506C10.2939 7.08413 10.2939 6.9132 10.3065 6.74227C10.3509 5.77366 10.5344 4.84304 10.8257 3.95673H13.2314V7.76152H18.2137C18.22 7.59059 18.2263 7.41966 18.2263 7.24873C18.2263 7.0778 18.2263 6.90687 18.2137 6.73594C18.1694 5.77366 18.0111 4.84304 17.7452 3.9504H20.2395C20.0559 3.58954 19.8407 3.24768 19.6001 2.92481H17.3843C17.0045 1.98153 16.498 1.10788 15.8903 0.310208C15.3775 0.151938 14.8394 0.0506461 14.2886 0.0126615C15.1053 0.860984 15.7763 1.84858 16.2638 2.93114H14.2569V0.0189923C14.086 0.00633077 13.9151 0 13.7441 0C13.5732 0 13.4023 0.00633077 13.2314 0.0189923V2.93748H11.2245C11.7183 1.85491 12.3894 0.873646 13.1997 0.0189923C12.6489 0.0569769 12.1108 0.1646 11.598 0.316538C10.9903 1.11421 10.4901 1.99419 10.104 2.93114H7.88819C7.64762 3.25401 7.43237 3.59588 7.24878 3.95673H9.7431C9.47721 4.84304 9.31261 5.77999 9.27462 6.74227C9.26829 6.9132 9.26196 7.08413 9.26196 7.25506C9.26196 7.42599 9.26196 7.59692 9.27462 7.76785C9.31894 8.73013 9.47721 9.66708 9.7431 10.5534C9.85072 10.9016 9.97101 11.2434 10.104 11.579H19.5938C19.8343 11.2561 20.0496 10.9142 20.2332 10.5534H10.8193C10.5281 9.67341 10.3445 8.73646 10.3002 7.76785M14.2633 3.96306H16.669C16.9602 4.84304 17.1438 5.77999 17.1881 6.7486H14.2633V3.96306Z" fill="#00A63C"/>
<path d="M15.8901 14.1937C17.3905 13.7315 18.6883 12.8009 19.6 11.5728H17.3842C17.0044 12.516 16.4979 13.3897 15.8901 14.1937Z" fill="#8FC982"/>
<path d="M14.2632 11.5789V14.4973C14.2632 14.4973 14.2822 14.4973 14.2885 14.4973C15.1052 13.649 15.7762 12.6614 16.2637 11.5789H14.2568H14.2632Z" fill="#8FC982"/>
<path d="M17.7451 10.5534H20.2394C20.6699 9.70504 20.9422 8.76175 21.0118 7.76782H18.2136C18.1693 8.7301 18.011 9.66705 17.7451 10.5534Z" fill="#8FC982"/>
<path d="M18.2199 6.74867H21.0181C20.9485 5.75474 20.6763 4.81146 20.2458 3.96313H17.7515C18.0174 4.84944 18.182 5.7864 18.2199 6.74867Z" fill="#8FC982"/>
<path d="M19.6 2.93736C18.6883 1.70919 17.3905 0.778569 15.8901 0.322754C16.4979 1.12043 16.998 2.00041 17.3842 2.93736H19.6Z" fill="#8FC982"/>
<path d="M7.89453 11.5789C8.81249 12.807 10.104 13.7376 11.6044 14.1998C10.9966 13.4021 10.4965 12.5221 10.1103 11.5789H7.89453Z" fill="#8FC982"/>
<path d="M9.74934 3.96313H7.25502C6.82453 4.81146 6.5523 5.74841 6.48267 6.74867H9.28086C9.32518 5.7864 9.48345 4.85577 9.74934 3.96313Z" fill="#8FC982"/>
<path d="M9.28086 7.76782H6.48267C6.5523 8.76808 6.82453 9.70504 7.25502 10.5534H9.74934C9.48345 9.66705 9.31885 8.7301 9.28086 7.76782Z" fill="#8FC982"/>
<path d="M11.6044 0.31665C10.104 0.778796 8.80616 1.70942 7.89453 2.93126H10.1103C10.4965 1.98797 10.9966 1.11433 11.6044 0.31665Z" fill="#8FC982"/>
<path d="M13.2312 2.93753V0.019043C13.2312 0.019043 13.2122 0.019043 13.2059 0.019043C12.3892 0.867366 11.7245 1.85496 11.2307 2.93753H13.2376H13.2312Z" fill="#8FC982"/>
<path d="M13.2312 11.5789H11.2244C11.7182 12.6614 12.3892 13.649 13.1996 14.4973C13.2059 14.4973 13.2186 14.4973 13.2249 14.4973V11.5789H13.2312Z" fill="#8FC982"/>
<path d="M14.2632 2.93753H16.27C15.7762 1.85496 15.1052 0.873696 14.2948 0.019043C14.2885 0.019043 14.2758 0.019043 14.2695 0.019043V2.93753H14.2632Z" fill="#8FC982"/>
<path d="M10.3064 6.74867H13.2312V3.96313H10.8255C10.5343 4.84311 10.3507 5.78006 10.3064 6.74867Z" fill="#8FC982"/>
<path d="M14.2632 10.5534H16.6689C16.9601 9.67338 17.1437 8.73643 17.188 7.76782H14.2632V10.5534Z" fill="#8FC982"/>
<path d="M17.188 6.74867C17.1437 5.78006 16.9601 4.84944 16.6689 3.96313H14.2632V6.74867H17.188Z" fill="#8FC982"/>
<path d="M10.3064 7.76782C10.3507 8.73643 10.5343 9.67338 10.8255 10.5534H13.2312V7.76782H10.3064Z" fill="#8FC982"/>
<path d="M18.7517 14.105C16.3017 15.5168 14.6114 17.8085 13.7504 20.5308C12.8895 17.8085 11.1991 15.5168 8.74914 14.105C6.10288 12.5857 3.00713 12.3388 0.00634766 13.1681C0.791363 16.1752 2.55132 18.7202 5.19758 20.2396C7.59061 21.6133 10.3572 21.9425 13.092 21.3791V29.5078H14.4215V21.3791C17.1564 21.9425 19.9166 21.6133 22.316 20.2396C24.9622 18.7138 26.7222 16.1689 27.5072 13.1681C24.5001 12.3451 21.4043 12.5857 18.7644 14.105" fill="#00A63C"/>
</g>
<defs>
<clipPath id="clip0_214_324">
<rect width="171.349" height="29.5077" fill="white"/>
</clipPath>
</defs>
</svg>
