<svg width="681" height="74" viewBox="0 0 681 74" fill="none" xmlns="http://www.w3.org/2000/svg">
<rect x="0.5" y="0.5" width="679" height="73" fill="#E72410"/>
<rect x="0.5" y="0.5" width="679" height="73" stroke="#E72410"/>
<rect x="0.450195" width="680" height="74" fill="white"/>
<path d="M646.682 52.128V51.712H658.442C657.914 50.976 657.434 50.256 656.938 49.424L657.05 49.328C658.362 50.512 659.226 51.12 660.538 51.92C659.226 52.72 658.362 53.328 657.05 54.512L656.938 54.416C657.45 53.6 657.93 52.88 658.442 52.128H646.682Z" fill="#E72410"/>
<path d="M635.186 52.2048C636.012 51.8708 636.867 51.6229 637.721 51.6229C638.743 51.6229 639.569 51.8708 640.059 52.2695C640.507 52.6358 640.731 53.0453 640.731 53.638C640.731 54.5216 639.891 55.3406 638.379 55.8255C637.077 56.2458 635.508 56.4289 633.688 56.4828C633.464 56.4936 633.366 56.4505 633.366 56.3643C633.366 56.2889 633.464 56.2673 633.66 56.2458C635.116 56.0841 636.461 55.7501 637.455 55.2867C638.771 54.694 639.289 53.9182 639.289 53.2501C639.289 52.8298 639.107 52.5281 638.799 52.3126C638.463 52.0863 638.113 51.9677 637.427 51.9677C636.699 51.9677 635.564 52.3772 634.29 53.4979C633.814 53.9074 633.674 54.0906 633.548 54.457C633.464 54.6833 633.268 54.7695 633.142 54.7695C632.834 54.7695 632.582 54.6509 632.33 54.3492C632.148 54.1337 632.008 53.9074 632.008 53.541C632.008 53.1423 632.218 52.0324 632.33 51.4182C632.386 51.1272 632.428 50.8902 632.428 50.6746C632.428 50.5992 632.428 50.4699 632.428 50.3406C632.428 50.0927 632.596 49.8449 632.974 49.6509C633.324 49.4677 633.912 49.2845 634.724 49.0906C634.43 48.9613 633.968 48.6703 633.8 48.5195C633.478 48.2285 633.212 47.8729 633.212 47.5065C633.212 47.3557 633.24 47.291 633.296 47.291C633.366 47.291 633.394 47.3449 633.464 47.4419C633.758 47.819 634.542 48.11 635.606 48.3255C636.236 48.4548 636.741 48.7673 636.797 49.1876C636.825 49.4246 636.629 49.694 636.265 49.694C636.096 49.694 635.998 49.694 635.788 49.6617C635.536 49.6186 635.382 49.6078 635.186 49.597C634.612 49.5539 634.052 49.6186 633.45 49.7802C633.128 49.8664 633.016 50.0712 633.016 50.1574C633.016 50.2544 633.03 50.319 633.072 50.4268C633.142 50.5992 633.31 50.9225 633.31 51.1919C633.31 51.3751 633.226 51.5906 633.198 51.7522C633.128 52.1509 633.072 52.582 633.058 53.1208C633.058 53.2177 633.156 53.2177 633.296 53.1423C633.408 53.0777 633.59 52.9807 633.688 52.9268C634.052 52.7221 634.682 52.4095 635.186 52.2048Z" fill="#E72410"/>
<path d="M618.873 52.9485C620.47 52.0972 621.688 51.8493 622.822 51.8493C623.662 51.8493 624.082 52.0218 624.628 52.3235C625.203 52.6468 625.497 53.1209 625.497 53.7243C625.497 54.5433 624.81 55.1899 623.984 55.5993C623.144 56.0088 622.402 56.192 621.478 56.3536C620.624 56.5045 619.364 56.6015 618.607 56.6015C618.355 56.6015 618.313 56.5584 618.313 56.4937C618.313 56.4291 618.369 56.386 618.397 56.3752C618.467 56.3536 618.621 56.3429 618.789 56.3213C620.302 56.1166 621.632 55.7718 622.598 55.2653C623.76 54.6511 624.11 54.0584 624.11 53.498C624.11 53.1317 623.97 52.8192 623.704 52.6144C623.424 52.3989 623.032 52.2588 622.486 52.2588C621.576 52.2588 620.736 52.5821 619.882 53.2071C619.266 53.6597 619.07 53.983 618.916 54.2739C618.789 54.5218 618.677 54.6403 618.397 54.6403C618.201 54.6403 618.019 54.5756 617.823 54.2955C617.711 54.1338 617.627 53.9183 617.627 53.6058C617.627 53.4011 617.739 53.3364 617.837 53.1101C617.893 52.9916 617.977 52.7653 618.019 52.636C618.201 52.0541 618.327 51.4614 618.495 50.6855C617.753 50.7502 617.291 50.7933 617.137 50.7933C616.829 50.7933 616.507 50.761 616.185 50.5347C615.835 50.2976 615.639 50.0929 615.527 49.8881C615.471 49.7911 615.541 49.7157 615.625 49.7157C615.695 49.7157 615.751 49.7588 615.807 49.7911C616.297 50.039 616.535 50.0821 617.053 50.0821C617.487 50.0821 618.173 49.9851 618.663 49.9097C618.803 49.2524 618.845 48.7243 618.845 48.5411C618.845 48.2071 618.747 48.1532 618.523 48.0886C618.313 48.0347 618.159 48.0024 618.019 47.9916C617.963 47.9916 617.907 47.9808 617.907 47.9269C617.907 47.873 617.977 47.8084 618.089 47.7545C618.271 47.6575 618.509 47.5605 618.747 47.5605C619.14 47.5605 619.602 47.7114 620.036 47.9162C620.288 48.0347 620.386 48.1855 620.386 48.3687C620.386 48.498 620.302 48.5843 620.162 48.692C620.036 48.789 620.008 48.8644 619.91 49.1015C619.84 49.2739 619.77 49.4786 619.7 49.7049C620.638 49.511 620.82 49.414 621.044 49.2847C621.254 49.1662 621.492 49.123 621.73 49.123C621.94 49.123 622.178 49.1554 622.374 49.2093C622.598 49.2739 622.724 49.4032 622.724 49.5972C622.724 49.8127 622.598 49.9097 622.01 50.0498C621.436 50.1899 620.4 50.3838 619.462 50.5347C619.266 51.2998 619.042 52.1834 618.873 52.9485Z" fill="#E72410"/>
<path d="M602.49 48.541C602.546 48.541 602.602 48.5949 602.644 48.638C602.938 48.9397 603.554 49.0906 604.843 49.0906C605.641 49.0906 606.313 49.0044 607.209 48.7889C607.349 48.7565 607.629 48.735 607.727 48.735C607.825 48.735 608.049 48.735 608.301 48.7889C608.721 48.8751 608.987 49.0044 609.001 49.2738C609.015 49.4893 608.917 49.597 608.623 49.6833C608.427 49.7371 608.133 49.7479 607.699 49.7802C606.901 49.8449 606.159 49.9419 605.627 50.0712C605.053 50.2005 604.661 50.319 603.806 50.6639C603.624 50.7393 603.428 50.8363 603.358 50.8363C603.288 50.8363 603.26 50.8255 603.26 50.7716C603.26 50.707 603.652 50.4591 604.563 49.8988C603.974 49.8664 603.428 49.7048 603.036 49.4785C602.672 49.263 602.378 48.832 602.378 48.6488C602.378 48.5733 602.42 48.541 602.49 48.541ZM602.406 52.0001C602.462 52.0001 602.476 52.0432 602.476 52.0863C602.476 52.1402 602.462 52.194 602.434 52.2479C602.238 52.6251 602.196 52.9483 602.196 53.2393C602.196 53.6272 602.448 54.0259 602.938 54.2307C603.638 54.5216 604.647 54.6186 605.655 54.6186C606.943 54.6186 607.587 54.5001 608.119 54.3923C608.357 54.3492 608.721 54.3061 609.001 54.3061C609.827 54.3061 610.107 54.6402 610.107 54.8772C610.107 55.1035 609.757 55.3729 609.281 55.4376C609.057 55.4699 608.581 55.5345 607.839 55.5777C607.153 55.6208 606.467 55.6315 606.033 55.6315C605.095 55.6315 604.072 55.4914 603.386 55.2759C602.826 55.1035 602.392 54.8341 602.084 54.5216C601.762 54.2091 601.664 53.8966 601.664 53.4333C601.664 52.9699 601.874 52.5389 602.238 52.0971C602.294 52.0324 602.35 52.0001 602.406 52.0001Z" fill="#E72410"/>
<path d="M593.726 54.1334C594.637 54.4136 595.309 54.6938 595.729 55.0278C595.869 55.1464 595.995 55.2972 595.995 55.5127C595.995 55.6528 595.939 55.7714 595.785 55.8791C595.659 55.9653 595.519 55.9869 595.407 55.9869C595.281 55.9869 595.113 55.9546 594.903 55.7929C594.595 55.5558 594.175 55.2218 593.684 54.9955C593.67 55.6959 592.802 56.2132 591.514 56.2132C590.926 56.2132 590.352 56.1054 590.016 55.9653C589.596 55.7929 589.246 55.4158 589.246 55.0278C589.246 54.5968 589.624 54.2627 589.96 54.1119C590.366 53.9287 590.898 53.8533 591.486 53.8533C591.892 53.8533 592.27 53.8964 592.676 53.961C592.662 52.9804 592.634 52.1076 592.62 51.127C591.78 51.2132 591.346 51.224 590.73 51.224C590.394 51.224 590.1 51.1916 589.778 51.0623C589.456 50.933 589.218 50.739 589.064 50.5774C588.98 50.4804 588.966 50.4481 588.966 50.405C588.966 50.3619 588.994 50.3188 589.05 50.3188C589.12 50.3188 589.204 50.3619 589.316 50.405C589.526 50.4912 589.946 50.599 590.52 50.599C591.178 50.599 591.836 50.5235 592.634 50.4158C592.62 49.4136 592.62 48.9933 592.578 48.7132C592.55 48.4869 592.396 48.3791 592.13 48.3576C592.018 48.3468 591.92 48.3468 591.836 48.3468C591.78 48.3468 591.71 48.336 591.668 48.336C591.612 48.336 591.556 48.2929 591.556 48.2498C591.556 48.1852 591.724 48.0666 591.906 47.9804C592.102 47.8834 592.298 47.8403 592.48 47.8403C592.83 47.8403 593.096 47.8834 593.46 48.0343C593.852 48.1959 594.105 48.336 594.105 48.5623C594.105 48.6808 594.063 48.7455 593.979 48.8102C593.852 48.9179 593.782 49.0688 593.754 49.2196C593.698 49.489 593.642 49.7477 593.628 50.2326C593.894 50.1895 594.007 50.1571 594.147 50.1248C594.259 50.0925 594.357 50.0386 594.441 49.9847C594.609 49.8877 594.875 49.8662 594.987 49.8662C595.631 49.8662 595.869 50.0817 595.869 50.2757C595.869 50.4589 595.771 50.5882 595.449 50.6852C595.057 50.8037 594.483 50.9115 593.586 51.0408C593.586 52.3339 593.656 53.3037 593.726 54.1334ZM592.62 54.6183C592.158 54.4567 591.64 54.349 591.178 54.349C590.772 54.349 590.38 54.3921 590.184 54.4675C589.96 54.5537 589.736 54.7046 589.736 54.9524C589.736 55.1571 589.876 55.3188 590.1 55.4265C590.352 55.5451 590.688 55.5666 591.15 55.5666C591.584 55.5666 592.032 55.4589 592.2 55.3619C592.396 55.2326 592.508 55.1464 592.578 54.9093C592.606 54.8123 592.62 54.7153 592.62 54.6183ZM588 52.3985C588 52.4416 587.972 52.5063 587.944 52.5925C587.453 53.8317 587.257 54.5106 587.215 54.7261C587.173 54.9416 587.187 55.0709 587.187 55.1895C587.187 55.4265 587.285 55.6313 587.285 55.933C587.285 56.1485 587.033 56.2994 586.753 56.2994C586.333 56.2994 586.123 56.03 585.997 55.8145C585.703 55.2865 585.535 54.7153 585.535 53.5192C585.535 52.4201 585.801 51.03 586.179 49.8339C586.319 49.3705 586.403 49.1227 586.403 48.864C586.403 48.5731 586.277 48.336 586.081 48.1097C585.997 48.0127 585.969 47.9912 585.969 47.9373C585.969 47.8942 586.039 47.8727 586.193 47.8727C586.389 47.8727 586.627 47.9373 586.935 48.1744C587.453 48.5731 587.762 49.0041 587.762 49.349C587.762 49.4998 587.692 49.5968 587.551 49.6938C587.369 49.8123 587.257 50.0171 587.075 50.4373C586.627 51.3964 586.361 52.4201 586.361 53.2175C586.361 53.5839 586.389 53.8533 586.459 54.0903C586.501 54.2089 586.641 54.2089 586.697 54.1227C587.061 53.5623 587.355 53.0774 587.706 52.4308C587.748 52.3554 587.804 52.28 587.888 52.2908C587.972 52.3015 588 52.3554 588 52.3985Z" fill="#E72410"/>
<path d="M575.802 56.1487V56.472C575.802 56.7845 575.564 56.9246 575.074 56.9246C574.64 56.9246 574.458 56.8276 574.458 56.5474C574.458 55.6853 574.556 54.8125 574.556 51.3427C574.556 50.0388 574.542 48.7349 574.486 47.431C575.144 47.6358 575.256 47.6681 575.956 47.9698H579.793C580.269 47.5496 580.381 47.4849 580.493 47.4849C580.633 47.4849 580.759 47.5496 581.249 47.8297C581.473 47.9698 581.557 48.0453 581.557 48.1315C581.557 48.2177 581.459 48.3039 581.179 48.444V49.7586C581.179 53.25 581.235 55.653 581.235 56.4504C581.235 56.7414 580.997 56.8922 580.493 56.8922C580.129 56.8922 579.933 56.7953 579.933 56.5474V56.1487H575.802ZM575.802 51.7522H577.216V48.2177H575.802V51.7522ZM575.802 52V55.9009H577.216V52H575.802ZM579.933 55.9009V52H578.42V55.9009H579.933ZM579.933 51.7522V48.2177H578.42V51.7522H579.933ZM569.697 51.569H570.593C571.111 50.9871 571.601 50.3082 571.979 49.6616C572.231 49.2414 572.427 48.8319 572.553 48.4871C573.646 48.875 574.094 49.0905 574.094 49.2306C574.094 49.3276 573.912 49.403 573.534 49.3922C572.581 50.3836 572.133 50.7608 571.027 51.569C571.713 51.5582 572.399 51.5366 573.086 51.5151C573.002 51.2349 572.834 50.9871 572.595 50.6746C572.553 50.6315 572.637 50.5884 572.693 50.6099C573.744 51.0733 574.22 51.5043 574.22 52.0216C574.22 52.3664 573.968 52.625 573.646 52.625C573.338 52.625 573.198 52.4634 573.156 51.8922C573.156 51.8491 573.142 51.7953 573.142 51.7522C572.834 51.8384 572.525 51.9246 572.217 51.9892V53.5194C572.217 54.6724 572.259 56.1056 572.259 56.5797C572.259 56.8707 572.007 57 571.545 57C571.153 57 570.985 56.8922 570.985 56.6552C570.985 56.4289 571.069 55.7284 571.069 54.3276V53.5841C571.013 53.6272 570.887 53.6595 570.705 53.6918C570.229 54.7586 569.725 55.5022 568.983 56.2026C568.941 56.2457 568.801 56.1918 568.829 56.1379C569.095 55.556 569.333 54.7694 569.473 54.0797C569.557 53.6487 569.599 53.2608 569.599 52.9698C570.579 53.1961 570.943 53.2931 571.069 53.3901V52.2047C570.719 52.2586 570.299 52.3341 569.781 52.4203C569.697 52.6358 569.613 52.722 569.487 52.722C569.291 52.722 569.207 52.5172 568.969 51.5474C569.319 51.569 569.459 51.569 569.697 51.569ZM570.453 49.0905C570.663 48.6703 570.887 48.153 571.041 47.6789C571.125 47.431 571.181 47.194 571.223 47C572.469 47.3448 572.876 47.5065 572.876 47.6358C572.876 47.7651 572.707 47.819 572.315 47.819C571.405 48.681 571.237 48.8427 570.719 49.2091C571.139 49.4246 571.321 49.6724 571.321 50.0065C571.321 50.3513 571.041 50.5991 570.691 50.5991C570.341 50.5991 570.299 50.556 570.061 49.9526C569.893 49.4892 569.697 49.2198 569.235 48.8642C569.179 48.8211 569.263 48.7565 569.333 48.7672C569.795 48.8642 570.159 48.972 570.453 49.0905ZM573.996 54.6078C573.996 54.9957 573.744 55.2543 573.38 55.2543C573.03 55.2543 572.974 55.1573 572.904 54.4353C572.848 53.9073 572.679 53.4116 572.455 53.0991C572.427 53.056 572.511 53.0022 572.567 53.0345C573.604 53.6379 573.996 54.069 573.996 54.6078Z" fill="#E72410"/>
<path d="M563.227 49.5106V51.321H564.222C564.81 50.7498 564.978 50.6636 565.076 50.6636C565.202 50.6636 565.342 50.7498 565.888 51.127C566.112 51.2886 566.224 51.3856 566.224 51.461C566.224 51.5365 566.182 51.5688 566.042 51.5688H563.227V51.9244C563.227 52.4416 563.227 53.002 563.241 53.5516H564.88C565.51 52.9589 565.678 52.8727 565.776 52.8727C565.902 52.8727 566.042 52.9589 566.63 53.3468C566.882 53.5192 566.994 53.6162 566.994 53.6916C566.994 53.7671 566.952 53.7994 566.812 53.7994H563.241C563.255 54.9632 563.269 56.03 563.269 56.4934C563.269 56.8274 563.031 56.946 562.429 56.946C561.995 56.946 561.855 56.8166 561.855 56.558C561.855 56.2671 561.925 55.4373 561.925 53.7994H560.273C559.951 53.7994 559.643 53.821 559.223 53.8641L559.069 53.4653C559.545 53.53 559.909 53.5516 560.273 53.5516H561.925V51.5688H560.665C560.399 51.5688 560.133 51.5903 559.783 51.6335L559.629 51.2347C560.049 51.2994 560.357 51.321 560.665 51.321H561.925V49.5106H560.581C560.273 49.5106 559.965 49.5322 559.559 49.5753L559.405 49.1766C559.881 49.2412 560.231 49.2628 560.581 49.2628H562.961C563.241 48.8317 563.494 48.3791 563.676 47.9373C563.802 47.6356 563.914 47.3339 563.984 47.0537C565.356 47.4416 565.65 47.5602 565.65 47.6895C565.65 47.8188 565.482 47.8835 565.104 47.9158C564.404 48.5623 564.054 48.8425 563.424 49.2628H564.796C565.342 48.7024 565.51 48.6162 565.608 48.6162C565.734 48.6162 565.874 48.7024 566.392 49.0688C566.602 49.2197 566.714 49.3274 566.714 49.4028C566.714 49.4783 566.672 49.5106 566.532 49.5106H563.227ZM557.389 56.1916H555.792V56.5688C555.792 56.8382 555.554 56.946 555.064 56.946C554.7 56.946 554.518 56.8705 554.518 56.6227C554.518 56.3102 554.56 55.9977 554.56 54.7261C554.56 54.1658 554.546 53.5947 554.518 53.0235C555.162 53.2391 555.246 53.2822 555.862 53.53H557.263C557.753 53.099 557.865 53.0343 557.977 53.0343C558.117 53.0343 558.229 53.099 558.691 53.4007C558.887 53.5408 558.971 53.6162 558.971 53.7024C558.971 53.8102 558.887 53.8856 558.607 54.0472V54.4352C558.607 55.4697 558.635 56.2024 558.635 56.4287C558.635 56.7197 558.397 56.8274 557.907 56.8274C557.571 56.8274 557.389 56.7304 557.389 56.5041V56.1916ZM557.389 55.9438V53.7778H555.792V55.9438H557.389ZM555.568 47.8296H556.898C557.501 47.2908 557.669 47.2046 557.767 47.2046C557.893 47.2046 558.047 47.2908 558.635 47.6464C558.887 47.808 558.999 47.8942 558.999 47.9697C558.999 48.0451 558.957 48.0774 558.817 48.0774H555.568C555.316 48.0774 555.064 48.099 554.728 48.1421L554.574 47.7434C554.966 47.808 555.274 47.8296 555.568 47.8296ZM555.036 49.2628H557.207C557.809 48.7455 557.977 48.6593 558.075 48.6593C558.201 48.6593 558.355 48.7455 558.915 49.0903C559.153 49.2304 559.265 49.3274 559.265 49.4028C559.265 49.4783 559.223 49.5106 559.083 49.5106H555.05C554.784 49.5106 554.518 49.5322 554.154 49.5753L554 49.1766C554.42 49.2412 554.728 49.2628 555.036 49.2628ZM555.484 50.696H556.926C557.445 50.1787 557.613 50.0925 557.711 50.0925C557.837 50.0925 557.977 50.1787 558.509 50.5128C558.733 50.6636 558.845 50.7606 558.845 50.836C558.845 50.9115 558.803 50.9438 558.663 50.9438H555.47C555.232 50.9438 554.994 50.9653 554.686 51.0085L554.532 50.6097C554.91 50.6744 555.204 50.696 555.484 50.696ZM555.47 52.0968H557.038C557.571 51.6119 557.739 51.5257 557.837 51.5257C557.963 51.5257 558.117 51.6119 558.621 51.9244C558.845 52.0645 558.957 52.1615 558.957 52.2369C558.957 52.3123 558.915 52.3447 558.775 52.3447H555.47C555.232 52.3447 555.008 52.3662 554.7 52.4093L554.546 52.0106C554.91 52.0753 555.19 52.0968 555.47 52.0968ZM562.065 48.4115C562.065 48.7563 561.743 49.0257 561.351 49.0257C560.959 49.0257 560.875 48.9395 560.749 48.4115C560.637 47.9589 560.413 47.5602 560.105 47.3231C560.049 47.28 560.175 47.183 560.245 47.2046C561.393 47.4847 562.065 47.9158 562.065 48.4115Z" fill="#E72410"/>
<path d="M495.277 34.5339L490.053 35.6922C489.31 35.837 488.864 36.0783 488.171 36.4644L487.824 34.6787C488.963 34.7269 489.433 34.6787 489.953 34.5339L495.277 33.3756V25.2674C493.296 25.9913 491.192 26.474 488.839 26.8118C488.666 26.8118 488.567 26.0396 488.74 25.9913C493.123 24.4469 497.134 22.2751 500.031 19.6689C501.369 18.5106 502.458 17.2557 503.226 15.9526C504.612 17.8349 505.33 19.0415 505.33 19.5724C505.33 20.1515 504.959 20.3446 503.993 19.9102C501.765 21.9372 499.511 23.4334 497.085 24.5434V32.9895L502.929 31.7346C503.919 28.6941 504.043 28.5493 504.191 28.5493C504.39 28.5493 504.538 28.6941 505.875 30.335C506.469 31.059 506.569 31.3485 506.569 31.6864C506.569 31.8794 506.445 32.0725 506.247 32.1207L497.085 34.1478V42.7869L504.538 41.0494C505.553 37.9123 505.677 37.7192 505.875 37.7192C506.049 37.7192 506.197 37.9123 507.584 39.6015C508.203 40.3737 508.327 40.615 508.327 41.0011C508.327 41.1942 508.203 41.3872 507.955 41.4355L497.085 43.9934V52.3429C497.085 54.9974 497.456 55.6248 500.997 55.6248C504.909 55.6248 505.9 55.0457 506.271 53.8873C506.643 52.6325 506.841 51.2811 507.386 47.7097C507.41 47.4684 507.658 47.5649 507.658 47.8062C507.633 49.3506 507.608 51.1846 507.608 52.536C507.608 53.4047 507.757 53.7426 508.005 53.9839C508.426 54.4182 508.549 54.8043 508.549 55.4318C508.549 56.5418 508.104 57.3623 507.188 57.9897C506.172 58.6171 504.538 58.9067 501.096 58.9067C496.243 58.9067 495.252 57.8932 495.252 52.9704C495.252 52.0051 495.277 49.8815 495.277 44.4278L489.26 45.8274C488.517 46.0205 488.022 46.1653 487.353 46.5031L487.007 44.7656C488.121 44.8139 488.567 44.7656 489.161 44.6209L495.277 43.2212V34.5339Z" fill="#E72410"/>
<path d="M466.407 37.6715V38.9263C466.407 39.9881 466.085 40.3742 465.442 40.3742C464.897 40.3742 464.724 40.0364 464.724 39.2159C464.724 37.6232 464.823 34.8239 464.823 25.9436C464.823 21.8895 464.823 19.9589 464.674 17.7871C465.541 18.4145 465.838 18.7041 466.605 19.6211H472.821C473.539 18.0284 473.662 17.8836 473.811 17.8836C473.984 17.8836 474.108 18.0284 474.851 19.3315C475.247 19.9589 475.321 20.2485 475.321 20.5381C475.321 20.9242 475.222 21.1655 474.653 21.9377V25.9918C474.653 33.2795 474.752 36.9958 474.752 38.0576C474.752 39.0711 474.405 39.5537 473.786 39.5537C473.266 39.5537 473.068 39.2159 473.068 38.3471V37.6715H470.567V44.3318H472.573C473.39 42.4012 473.563 42.1599 473.737 42.1599C473.885 42.1599 474.059 42.4012 474.975 43.8491C475.396 44.4765 475.495 44.7661 475.495 45.0557C475.495 45.3935 475.421 45.5383 475.173 45.5383H470.567V52.1504C472.202 51.5712 473.762 50.8473 475.148 50.1233C475.297 50.0268 475.371 50.6542 475.247 50.7507C472.325 53.3087 469.181 55.2875 465.343 57.0732C465.169 58.2315 465.045 58.6176 464.773 58.6176C464.476 58.6176 464.426 58.4728 463.758 53.7913C464.352 53.7913 465.268 53.6465 466.209 53.4535C467.076 53.2604 467.967 53.0191 468.859 52.7295V45.5383H465.838C465.268 45.5383 464.847 45.5866 464.253 45.8279L464.005 44.0422C464.674 44.2352 465.144 44.3318 465.788 44.3318H468.859V37.6715H466.407ZM466.407 36.4649H468.859V29.1289H466.407V36.4649ZM473.068 36.4649V29.1289H470.567V36.4649H473.068ZM473.068 27.9223V20.8277H470.567V27.9223H473.068ZM468.859 20.8277H466.407V27.9223H468.859V20.8277ZM477.773 19.6211H483.443C484.285 18.0767 484.409 17.9319 484.558 17.9319C484.756 17.9319 484.929 18.0767 485.82 19.8142C486.142 20.4898 486.266 20.8759 486.266 21.2138C486.266 21.7447 486.118 21.9377 485.499 22.179C485.276 22.2273 485.152 22.3238 484.929 22.7582C483.666 25.2196 482.676 26.9571 481.611 28.5015C481.958 29.2737 482.156 30.0459 482.156 30.8181C482.156 31.9764 481.76 32.8934 481.24 32.8934C480.794 32.8934 480.62 32.5556 480.323 31.1077C479.779 28.7911 479.16 27.0053 478.045 25.2196C477.971 25.0748 478.07 24.7852 478.169 24.8335C479.432 25.5092 480.447 26.5227 481.165 27.681C482.156 25.4127 482.799 23.3856 483.443 20.8277H477.798C477.203 20.8277 476.881 20.8759 476.312 21.1173L476.064 19.3798C476.659 19.5246 477.104 19.6211 477.773 19.6211ZM481.339 34.5344V46.6966C481.339 52.5847 481.413 54.7566 481.413 56.5423C481.413 58.1832 481.19 59.0037 480.596 59.6794C480.2 60.1138 479.556 60.4999 479.11 60.4999C478.813 60.4999 478.763 60.2585 478.664 59.3415C478.565 58.0384 478.045 57.411 475.916 56.494C475.767 56.4458 475.767 55.8183 475.916 55.8183C477.401 56.0597 478.392 56.2045 479.135 56.2045C479.432 56.2045 479.556 55.9631 479.556 55.3357V34.5344H477.253C476.659 34.5344 476.287 34.5826 475.619 34.8722L475.371 33.0382C476.188 33.2313 476.584 33.3278 477.203 33.3278H484.285C485.078 31.6869 485.201 31.4938 485.35 31.4938C485.548 31.4938 485.672 31.7351 486.538 33.4243C486.935 34.2448 487.034 34.5344 487.034 34.8722C487.034 35.4031 486.86 35.5962 486.241 35.7892C485.919 35.8857 485.845 36.0788 485.474 37.1406C484.83 38.7815 483.864 40.712 483.121 42.1117C483.022 42.2564 482.824 41.9669 482.874 41.7738C483.518 39.4089 484.087 36.7545 484.434 34.5344H481.339Z" fill="#E72410"/>
<path d="M452.118 56.2527H459.175C460.463 53.2604 460.661 53.019 460.809 53.019C460.958 53.019 461.156 53.2604 462.444 55.3357C463.063 56.3975 463.186 56.7353 463.186 57.0249C463.186 57.3144 463.112 57.4592 462.864 57.4592H443.427C442.708 57.4592 442.089 57.5558 441.322 57.7488L441.074 55.9148C441.99 56.2044 442.609 56.2527 443.402 56.2527H450.211V27.2466C450.211 22.2273 450.187 19.2349 450.063 17.4492C452.737 17.9318 453.034 18.3662 453.034 18.8971C453.034 19.3797 452.861 19.7176 452.118 20.2485V34.7274H457.095C458.308 31.7351 458.506 31.542 458.655 31.542C458.804 31.542 459.002 31.7351 460.314 33.9552C460.884 34.9204 460.983 35.1617 460.983 35.4996C460.983 35.7892 460.908 35.9339 460.661 35.9339H452.118V56.2527Z" fill="#E72410"/>
<path d="M422.695 36.5611L422.101 36.6576C421.829 36.7059 421.754 36.7059 421.729 35.9819C421.729 35.6441 421.779 35.5476 422.051 35.4028C422.943 35.0167 424.429 34.1962 425.444 33.3757C425.568 33.3757 425.741 33.5205 425.741 33.7618C425.691 35.0649 425.691 36.4646 425.691 37.7194C426.558 34.9202 427.895 33.231 429.529 33.231C430.247 33.231 433.021 33.9549 433.021 39.9878C433.021 41.7252 432.996 44.0901 432.996 45.2967V48.4338C432.996 51.2813 432.996 52.6809 433.194 53.4049C433.392 54.1288 433.838 54.1771 434.506 54.3219C434.655 54.3701 434.705 54.4667 434.705 54.8528C434.705 55.2871 434.68 55.3837 434.506 55.3837C433.714 55.3354 432.823 55.2389 432.055 55.2389C431.263 55.2389 430.322 55.3354 429.48 55.3837C429.307 55.3837 429.282 55.2871 429.282 54.8528C429.282 54.4184 429.331 54.3219 429.48 54.3219C430.074 54.2254 430.545 54.1771 430.743 53.4049C430.99 52.6327 430.966 51.1848 430.966 48.4338V42.0631C430.966 40.7117 431.04 39.5051 430.693 38.1055C430.347 36.6576 429.752 35.6441 428.638 35.6441C427.623 35.6441 426.731 36.8024 426.211 38.3468C425.741 39.6982 425.691 40.6152 425.691 42.1113V48.4338C425.691 51.2813 425.667 52.7292 425.84 53.4049C426.038 54.1771 426.508 54.1771 427.227 54.3219C427.375 54.3701 427.425 54.4184 427.425 54.8528C427.425 55.2871 427.375 55.3837 427.227 55.3837C426.434 55.3354 425.543 55.2389 424.8 55.2389C423.983 55.2389 423.042 55.3354 422.225 55.3837C422.076 55.3837 422.027 55.2871 422.027 54.8528C422.027 54.4184 422.076 54.3701 422.225 54.3219C422.819 54.1771 423.289 54.1771 423.512 53.4049C423.71 52.6327 423.71 51.1848 423.71 48.4338V41.5322C423.71 39.7947 423.71 38.4434 423.512 37.5746C423.364 36.7542 423.116 36.4646 422.695 36.5611Z" fill="#E72410"/>
<path d="M418.652 48.3373V41.5805C418.652 39.7465 418.627 38.4916 418.478 37.5746C418.33 36.8024 418.057 36.5129 417.587 36.6094L416.968 36.7059C416.72 36.7542 416.646 36.7542 416.621 36.0785C416.621 35.5959 416.671 35.5476 416.918 35.4511C417.785 35.0167 419.394 34.0997 420.41 33.3758C420.558 33.3758 420.707 33.5206 420.707 33.8101C420.632 37.2851 420.608 39.9395 420.608 42.2079V48.3373C420.608 51.1848 420.608 52.6327 420.781 53.4049C420.979 54.0806 421.524 54.0806 422.217 54.2254C422.366 54.2736 422.415 54.3702 422.415 54.7563C422.415 55.2872 422.366 55.3837 422.217 55.3837C421.425 55.3354 420.459 55.2389 419.716 55.2389C418.949 55.2389 417.884 55.3354 417.116 55.3837C416.943 55.3837 416.893 55.2872 416.893 54.7563C416.893 54.3702 416.943 54.2254 417.116 54.2254C417.735 54.0806 418.231 54.0323 418.453 53.4049C418.676 52.5844 418.652 51.0883 418.652 48.3373ZM419.469 20.0552C420.212 20.0552 420.954 21.4548 420.954 22.951C420.954 24.4954 420.212 25.8467 419.469 25.8467C418.726 25.8467 417.983 24.4954 417.983 22.951C417.983 21.4548 418.726 20.0552 419.469 20.0552Z" fill="#E72410"/>
<path d="M401.54 39.6987C403.818 41.5327 405.948 43.7528 407.409 46.5038C408.275 48.1448 408.944 49.7374 408.944 51.0405C408.944 52.3436 408.523 53.0676 407.929 53.0676C407.582 53.0676 407.26 52.6332 406.864 51.5714C405.23 46.9864 403.422 43.6563 400.995 40.857C399.51 44.0424 397.9 46.7934 396.167 49.0135C394.508 51.1853 392.775 52.9228 391.338 53.9363C391.091 54.1294 390.843 54.2741 390.67 54.2741C390.521 54.2741 390.397 53.9363 390.397 53.695C390.397 53.4537 390.497 53.1641 390.645 53.0193C393.616 49.834 396.192 46.3108 398.668 41.1949C400.5 37.4786 401.862 33.9072 403.348 28.9361C403.422 28.6948 403.447 28.5982 403.447 28.5017C403.447 28.4052 403.397 28.4052 403.249 28.4052C402.11 28.55 399.287 29.2739 396.786 30.2392C396.291 30.4322 395.969 30.6253 395.771 30.8666C395.548 31.1079 395.399 31.3492 395.053 31.3492C394.632 31.3492 394.037 30.5288 393.517 29.1291C393.047 27.8743 392.849 27.1986 392.849 26.3781C392.849 25.8955 392.973 25.3646 393.096 25.3646C393.196 25.3646 393.369 25.6542 393.517 25.9438C394.161 27.1504 394.607 27.7778 395.152 27.7778C395.548 27.7778 396.39 27.633 397.108 27.4882C399.039 27.1021 401.094 26.716 402.902 26.2334C403.323 26.1368 403.521 25.8955 403.744 25.5094C403.917 25.1716 404.091 24.9785 404.338 24.9785C404.71 24.9785 404.982 25.2198 405.502 26.1368C406.171 27.3434 406.369 27.8743 406.369 28.4535C406.369 28.9361 406.245 29.1291 405.75 29.5152C405.403 29.7566 405.007 30.384 404.71 31.301C404.041 33.3763 402.828 36.7547 401.54 39.6987Z" fill="#E72410"/>
<path d="M387.775 42.6897C387.775 44.3306 387.478 45.1994 386.735 45.1994C386.215 45.1994 385.893 44.5237 385.62 43.3654C384.952 40.4696 384.333 38.4908 383.516 36.5603C382.773 34.8228 381.906 33.3267 380.965 32.0236C380.668 31.6375 380.52 31.3479 380.52 31.1066C380.52 30.7205 380.668 30.5274 380.817 30.5274C380.99 30.5274 381.188 30.6722 381.51 30.9135C382.946 32.0718 384.308 33.761 385.521 35.8846C386.611 37.7669 387.775 40.7592 387.775 42.6897ZM374.998 34.6298C374.998 34.1471 374.775 33.568 374.181 32.7475C373.933 32.4097 373.883 32.3131 373.883 32.1201C373.883 31.7823 374.23 31.5409 374.502 31.5409C374.849 31.5409 375.32 31.8788 375.939 32.6993C376.681 33.7128 377.4 35.0641 377.4 36.319C377.4 37.0912 377.201 37.4773 376.78 37.7669C376.582 37.9117 376.384 38.2495 376.112 38.7804C375.047 40.8557 374.007 42.6897 372.744 44.5237C371.382 46.5025 369.872 48.2882 368.312 49.543C367.99 49.8326 367.817 49.9291 367.693 49.9291C367.52 49.9291 367.371 49.6878 367.371 49.3017C367.371 49.0121 367.495 48.8191 367.743 48.5295C369.278 46.599 370.64 44.4754 371.828 42.4001C372.794 40.6144 373.636 38.8287 374.304 37.1877C374.775 35.9811 374.998 35.2572 374.998 34.6298ZM386.636 21.0679C387.874 21.0679 388.889 23.0467 388.889 25.4598C388.889 27.873 387.874 29.8517 386.636 29.8517C385.398 29.8517 384.382 27.873 384.382 25.4598C384.382 23.0467 385.398 21.0679 386.636 21.0679ZM386.636 22.6123C385.818 22.6123 385.175 23.8671 385.175 25.4598C385.175 27.0525 385.818 28.3073 386.636 28.3073C387.453 28.3073 388.097 27.0525 388.097 25.4598C388.097 23.8671 387.453 22.6123 386.636 22.6123Z" fill="#E72410"/>
<path d="M367.334 27.0528C367.483 27.0528 367.706 27.3907 367.706 27.6803C367.706 27.9216 367.656 28.2112 367.532 28.549C366.071 33.134 364.165 37.4777 362.035 41.4835C360.029 45.2963 357.9 48.5781 355.572 51.9565C355.3 52.3427 355.052 52.777 354.953 53.0666C354.755 53.694 354.483 54.0319 354.161 54.0319C353.591 54.0319 353.121 53.2114 352.576 52.1496C351.809 50.5569 351.511 49.3986 351.511 48.2886C351.511 47.5646 351.611 47.082 351.784 47.082C351.883 47.082 351.957 47.2268 352.131 47.6129C352.626 48.7712 352.923 49.3021 353.319 49.3021C353.567 49.3021 353.963 49.0608 354.483 48.4333C356.662 45.9719 358.94 42.7383 361.094 39.1186C363.323 35.3058 365.428 31.3483 366.988 27.4872C367.111 27.1976 367.235 27.0528 367.334 27.0528ZM351.313 25.8945C351.412 25.8945 351.561 25.8945 351.833 25.9911C352.873 26.4254 353.864 27.2942 354.582 28.2112C355.671 29.6108 356.068 30.8656 356.068 32.6514C356.068 33.9062 355.671 34.7749 355.127 34.7749C354.607 34.7749 354.384 34.3888 354.062 33.134C353.814 32.217 353.517 31.1552 353.022 29.9004C352.502 28.6455 351.858 27.632 351.239 26.8598C351.115 26.715 351.041 26.4737 351.041 26.2806C351.041 26.0876 351.165 25.8945 351.313 25.8945Z" fill="#E72410"/>
<path d="M336.233 38.2989C338.09 37.2854 339.774 36.3201 341.062 35.6445C341.408 35.4514 341.557 35.1618 341.73 34.824C341.953 34.3896 342.077 34.2448 342.3 34.2448C342.572 34.2448 342.894 34.5344 343.637 35.6445C344.231 36.5615 344.405 36.9958 344.405 37.6232C344.405 38.2507 344.207 38.5402 343.786 38.6368C343.513 38.685 343.34 38.8298 343.142 39.2159C342.127 41.1947 340.616 43.994 339.279 45.9245C339.081 46.1658 338.957 46.2623 338.833 46.2623C338.709 46.2623 338.561 45.9727 338.561 45.7797C338.561 45.5384 338.66 45.2971 338.784 45.0075C339.799 42.8839 340.69 40.8086 341.854 37.5267C341.928 37.3337 341.854 37.1406 341.73 37.1889C340.344 37.8646 338.165 39.1677 336.481 40.1812C336.63 41.4843 336.803 42.7391 336.976 44.2353C337.447 47.855 337.892 51.2334 338.338 54.5153C338.462 55.4323 338.561 56.1562 338.561 56.7837C338.561 57.4593 338.239 58.0868 337.868 58.0868C337.422 58.0868 337.1 57.8937 337.001 56.8319C336.53 52.633 336.085 48.3859 335.639 44.6214C335.49 43.2217 335.342 41.9669 335.218 40.9051C333.807 41.7739 332.767 42.4978 331.875 43.1735C331.454 43.5596 331.306 43.7526 331.157 44.0422C331.009 44.3318 330.835 44.5248 330.612 44.5248C330.315 44.5248 330.068 44.2835 329.473 43.1735C328.879 42.0634 328.656 41.243 328.656 40.2777C328.656 39.9399 328.731 39.5538 328.83 39.5538C328.929 39.5538 328.978 39.6503 329.102 39.8916C329.523 40.6155 329.82 41.0499 330.191 41.0499C330.513 41.0499 330.885 41.0017 331.454 40.7121C332.544 40.1812 333.732 39.602 334.97 38.8781C334.723 36.7545 334.5 35.1618 334.302 33.7139C334.178 32.8935 334.079 32.266 333.93 31.8799C333.831 31.5904 333.633 31.4938 333.41 31.4456C333.212 31.3973 333.014 31.3973 332.791 31.3973C332.618 31.3973 332.519 31.3008 332.519 31.0595C332.519 30.8182 332.643 30.4321 332.94 30.046C333.237 29.6598 333.46 29.4668 333.782 29.4668C334.228 29.4668 334.723 29.9012 335.193 30.2873C335.911 31.0112 336.06 31.4456 336.06 31.8799C336.06 32.2178 335.986 32.5074 335.911 32.7487C335.837 32.99 335.788 33.183 335.788 33.4244C335.788 33.6174 335.788 33.9553 335.837 34.4379C335.936 35.6445 336.06 36.7545 336.233 38.2989Z" fill="#E72410"/>
<path d="M316.103 39.1192C317.638 38.4918 318.753 37.9609 319.991 37.3818C320.337 37.237 320.585 36.9957 320.758 36.6578C320.981 36.2717 321.278 36.1752 321.724 36.1752C322.195 36.2235 322.764 36.4165 323.111 36.7544C323.482 37.0922 323.705 37.6231 323.705 38.2022C323.705 39.071 323.408 39.5536 322.789 39.5536C322.368 39.5536 321.749 39.5536 321.08 39.6984C319.941 39.9397 318.654 40.3258 316.301 41.3393C316.698 45.6347 317.168 50.2197 317.539 53.6947C317.638 54.5151 317.762 55.5769 317.762 56.2043C317.762 57.1696 317.366 57.797 316.846 57.797C316.326 57.8453 316.054 57.1696 315.955 55.7217C315.682 51.8607 315.212 46.2139 314.84 42.0633C313.231 42.7872 311.894 43.4629 310.631 44.2834C309.913 44.766 309.591 45.0073 309.467 45.3452C309.22 45.8761 309.046 46.0208 308.724 46.0208C308.155 46.0208 307.115 44.8625 306.471 43.3664C306.298 42.932 306.174 42.4494 306.174 42.015C306.174 41.6772 306.248 41.4359 306.347 41.4359C306.421 41.4359 306.595 41.6289 306.719 41.7737C307.338 42.4494 307.734 42.6907 308.105 42.6907C308.477 42.6907 308.997 42.4494 309.69 42.1115C311.176 41.3876 312.835 40.6154 314.642 39.7467C314.444 37.3335 314.221 35.0651 313.998 32.7003C312.983 33.2312 312.117 33.6655 311.349 34.0999C310.829 34.3895 310.309 34.5343 310.061 34.8721C309.863 35.1617 309.69 35.2582 309.442 35.2582C309.046 35.2582 308.526 34.7756 307.981 33.762C307.387 32.7003 307.115 32.0246 307.115 31.4937C307.115 31.0593 307.214 30.818 307.313 30.818C307.437 30.818 307.511 30.9145 307.66 31.1076C308.204 31.8315 308.65 32.2176 309.294 32.2176C309.665 32.2176 310.16 32.0246 310.755 31.7833C311.597 31.4454 312.736 31.0111 313.776 30.4802C313.454 27.2465 313.256 25.2678 313.033 23.482C312.959 22.9029 312.835 22.4685 312.661 22.1307C312.463 21.7928 312.042 21.6963 311.423 21.648C311.25 21.648 311.151 21.5032 311.151 21.2619C311.151 20.9724 311.349 20.6345 311.498 20.4415C311.745 20.1519 312.092 19.8623 312.463 19.8623C313.107 19.8623 313.701 20.0554 314.37 20.5863C314.964 21.0206 315.261 21.5998 315.261 22.2755C315.261 22.6616 315.162 23.0477 315.038 23.289C314.939 23.5303 314.84 23.8681 314.865 24.5921C314.89 25.7987 315.014 27.3913 315.237 29.708C316.301 29.2253 317.341 28.6944 318.258 28.1635C318.406 28.067 318.629 27.874 318.852 27.4879C319.099 27.1018 319.471 26.8122 319.768 26.8122C320.189 26.8122 320.684 26.9087 321.056 27.15C321.402 27.3913 321.625 27.9222 321.625 28.4049C321.625 29.0323 321.477 29.4184 321.179 29.5149C320.783 29.6597 320.337 29.8527 319.768 30.0458C318.505 30.5767 317.143 31.2041 315.459 31.9763C315.658 34.3895 315.88 36.6096 316.103 39.1192Z" fill="#E72410"/>
<path d="M302.335 27.0528C302.484 27.0528 302.707 27.3907 302.707 27.6803C302.707 27.9216 302.657 28.2112 302.533 28.549C301.072 33.134 299.166 37.4777 297.036 41.4835C295.03 45.2963 292.901 48.5781 290.573 51.9565C290.301 52.3427 290.053 52.777 289.954 53.0666C289.756 53.694 289.484 54.0319 289.162 54.0319C288.592 54.0319 288.122 53.2114 287.577 52.1496C286.81 50.5569 286.512 49.3986 286.512 48.2886C286.512 47.5646 286.612 47.082 286.785 47.082C286.884 47.082 286.958 47.2268 287.132 47.6129C287.627 48.7712 287.924 49.3021 288.32 49.3021C288.568 49.3021 288.964 49.0608 289.484 48.4333C291.663 45.9719 293.941 42.7383 296.095 39.1186C298.324 35.3058 300.428 31.3483 301.988 27.4872C302.112 27.1976 302.236 27.0528 302.335 27.0528ZM286.314 25.8945C286.413 25.8945 286.562 25.8945 286.834 25.9911C287.874 26.4254 288.865 27.2942 289.583 28.2112C290.672 29.6108 291.069 30.8656 291.069 32.6514C291.069 33.9062 290.672 34.7749 290.128 34.7749C289.608 34.7749 289.385 34.3888 289.063 33.134C288.815 32.217 288.518 31.1552 288.023 29.9004C287.503 28.6455 286.859 27.632 286.24 26.8598C286.116 26.715 286.042 26.4737 286.042 26.2806C286.042 26.0876 286.166 25.8945 286.314 25.8945Z" fill="#E72410"/>
<path d="M265.143 56.2042C264.969 56.2042 264.796 55.8664 264.796 55.5286C264.796 55.1907 264.945 54.9494 265.217 54.6598C268.04 51.3779 270.466 47.5169 272.571 42.3045C274.329 37.9126 275.419 34.0033 276.434 29.7079C276.558 29.2252 276.632 28.8874 276.632 28.5978C276.632 28.4048 276.533 28.3565 276.384 28.3565C276.261 28.3565 275.963 28.4048 275.394 28.5013C272.943 28.9839 269.625 29.7561 267.693 30.3353C266.975 30.5283 266.752 30.7214 266.529 31.011C266.306 31.3005 266.158 31.3971 265.885 31.3971C265.489 31.3971 264.87 30.5766 264.276 28.9839C263.83 27.8739 263.607 26.9569 263.607 26.2329C263.607 25.4125 263.781 25.1711 263.88 25.1711C264.004 25.1711 264.177 25.5572 264.375 25.9434C265.093 27.2947 265.489 27.6326 266.158 27.6326C266.752 27.6326 267.371 27.5843 268.312 27.4395C270.813 27.0051 273.339 26.5708 275.765 26.0881C276.162 26.0399 276.459 25.8468 276.657 25.509C276.855 25.1711 277.053 24.8333 277.251 24.8333C277.598 24.8333 277.994 25.2194 278.613 26.2812C279.207 27.2947 279.554 28.0669 279.554 28.8874C279.554 29.4666 279.282 29.7561 278.984 29.9974C278.588 30.3353 278.365 30.8662 278.167 31.5901C276.929 36.1751 275.666 40.2775 273.908 44.1868C271.506 49.4957 268.708 53.5498 265.687 55.9147C265.465 56.1077 265.242 56.2042 265.143 56.2042ZM281.262 17.3525C282.501 17.3525 283.516 19.3313 283.516 21.7445C283.516 24.1576 282.501 26.1364 281.262 26.1364C280.024 26.1364 279.009 24.1576 279.009 21.7445C279.009 19.3313 280.024 17.3525 281.262 17.3525ZM281.262 18.897C280.445 18.897 279.802 20.1518 279.802 21.7445C279.802 23.3372 280.445 24.592 281.262 24.592C282.08 24.592 282.723 23.3372 282.723 21.7445C282.723 20.1518 282.08 18.897 281.262 18.897Z" fill="#E72410"/>
<path d="M243.601 41.6285C243.427 41.8698 243.18 42.0629 242.833 42.0629C242.338 42.0629 241.744 41.0011 241.1 39.2636C240.778 38.3949 240.53 37.4779 240.53 36.7539C240.53 36.1265 240.58 35.5474 240.753 35.5474C240.877 35.5474 240.976 35.7887 241.149 36.1265C242.016 37.7675 242.363 38.1053 242.932 38.1053C243.452 38.1053 244.393 38.0088 246.077 37.8157C249.444 37.4296 252.787 37.1883 254.892 37.0435C255.734 36.9953 256.13 36.7539 256.402 36.4644C256.601 36.2713 256.898 36.1265 257.17 36.1265C257.418 36.1265 257.764 36.2713 258.185 36.5609C259.349 37.4296 259.498 37.9605 259.498 38.8292C259.498 39.7945 259.176 40.2771 258.631 40.2771C257.69 40.2771 256.353 40.0841 255.14 40.0841C252.936 40.0841 248.553 40.3737 245.309 40.9046C244.517 41.0493 243.848 41.3389 243.601 41.6285Z" fill="#E72410"/>
<path d="M230.997 31.397C232.581 31.1557 233.399 31.0591 234.612 30.8661C235.033 30.7696 235.429 30.673 235.602 30.48C235.8 30.2869 236.073 30.0939 236.32 30.0939C236.94 30.0939 237.658 30.3835 238.128 30.8178C238.549 31.2039 238.772 31.8313 238.772 32.3622C238.772 33.0862 238.499 33.6171 238.054 33.6171C237.88 33.6171 237.583 33.5688 237.237 33.5206C236.469 33.424 235.355 33.3275 234.042 33.3275C233.201 33.3275 232.26 33.3758 231.021 33.4723C231.021 36.4163 231.071 38.926 231.096 42.0148C231.145 46.1172 231.22 50.8952 231.22 52.8257C231.244 54.3219 231.145 55.0458 230.848 55.8181C230.551 56.5903 229.709 57.3625 229.065 57.3625C228.793 57.3625 228.719 57.2659 228.644 56.6385C228.545 55.8663 228.372 55.4802 228.124 55.1906C227.604 54.5632 226.787 53.9841 226.168 53.5497C225.945 53.4049 225.797 53.2601 225.797 52.8257C225.797 52.5844 225.921 52.3431 226.069 52.3431C226.168 52.3431 226.317 52.3914 226.465 52.4396C227.431 52.7775 228.545 53.0188 229.09 53.0188C229.486 53.0188 229.561 52.7775 229.561 52.2466C229.585 47.2755 229.561 40.9531 229.536 35.8372C228.322 39.1191 226.614 42.4009 224.757 45.3932C222.875 48.4338 220.869 50.847 219.012 52.6327C218.864 52.7775 218.641 52.9223 218.492 52.9223C218.319 52.9223 218.22 52.4396 218.22 52.1983C218.22 51.957 218.319 51.6192 218.566 51.3296C220.151 49.3991 222.107 46.5516 223.989 43.2214C225.822 39.9395 227.233 36.9472 228.322 33.8101C226.391 34.2928 224.757 34.7271 223.593 35.1615C222.999 35.4028 222.404 35.5959 222.206 35.9337C222.008 36.2233 221.835 36.3681 221.488 36.3681C221.092 36.3681 220.597 35.7889 219.928 34.3893C219.384 33.2792 219.161 32.4105 219.161 31.8796C219.161 31.3005 219.21 30.7696 219.359 30.7696C219.483 30.7696 219.582 31.0591 219.755 31.3487C220.448 32.507 220.869 32.9414 221.587 32.9414C221.909 32.9414 222.38 32.8931 223.048 32.7966C224.881 32.4105 226.589 32.1209 229.461 31.59C229.461 28.3081 229.462 25.9915 229.412 24.3023C229.387 23.4336 229.338 22.8062 229.164 22.5649C228.842 22.0822 228.273 21.7926 227.753 21.6961C227.58 21.6479 227.481 21.6479 227.481 21.4065C227.481 21.2135 227.58 20.8756 227.728 20.6826C228.05 20.2965 228.471 20.0552 228.842 20.0552C229.338 20.0552 230.056 20.4413 230.7 20.9722C231.343 21.5513 231.616 22.227 231.616 23.0475C231.616 23.5784 231.442 23.9645 231.22 24.4471C231.121 24.6884 231.071 24.978 231.021 26.2811C230.997 27.4877 230.997 29.1286 230.997 31.397Z" fill="#E72410"/>
<path d="M204.997 25.5568C205.517 26.6669 205.789 28.0182 205.789 29.3213C205.789 30.8657 205.467 33.2789 205.145 34.9681C204.254 39.5531 202.991 44.0415 201.605 47.4682C200.911 49.2057 200.144 50.6053 199.104 50.6053C198.385 50.6053 197.766 49.9779 197.246 48.6748C196.553 46.9856 196.107 44.9103 196.107 41.5319C196.107 37.8156 196.9 33.4237 198.435 30.1418C200.045 26.7151 202.744 23.8193 206.359 23.8193C208.909 23.8193 210.89 25.6051 212.103 27.5356C214.035 30.5762 214.852 34.5337 214.852 38.4913C214.852 43.945 213.787 47.0338 212.178 49.7848C210.345 52.8737 206.953 54.9007 203.932 55.1903C203.759 55.1903 203.585 54.9007 203.585 54.6111C203.585 54.225 203.709 54.0802 204.031 53.9354C206.606 52.9702 209.231 50.7501 210.766 47.806C212.103 45.1516 212.995 42.0627 212.995 37.8156C212.995 35.0164 212.45 31.0105 210.915 28.5974C209.751 26.8116 208.29 25.4603 206.309 25.4603C205.789 25.4603 205.418 25.4603 204.997 25.5568ZM204.328 25.7016C202.124 26.4255 200.565 28.5008 199.549 30.4796C198.163 33.1824 197.395 37.1399 197.395 40.9044C197.395 42.9797 197.593 44.1863 197.94 45.3929C198.212 46.3582 198.608 47.0338 199.104 47.0338C199.624 47.0338 200.119 46.1651 200.837 44.2828C202.298 40.5183 203.66 35.6438 204.378 31.7345C204.675 30.1418 204.724 28.9352 204.724 27.9217C204.724 26.7634 204.526 26.0877 204.328 25.7016Z" fill="#E72410"/>
<path d="M187.887 41.3385H179.493C180.954 42.159 181.152 42.4003 181.152 42.883C181.152 43.3173 181.003 43.5104 180.36 43.7034C180.161 44.2343 179.963 44.7652 179.74 45.2478H185.832C186.649 43.7034 186.798 43.5104 186.946 43.5104C187.095 43.5104 187.243 43.7034 188.184 45.2478C188.605 46.02 188.679 46.2614 188.679 46.5992C188.679 47.1784 188.506 47.3714 187.689 47.6127C186.599 49.9293 185.386 51.9081 184.049 53.5491C184.519 53.8869 185.015 54.2248 185.535 54.5143C187.838 55.8657 190.834 56.4449 193.978 56.4449C194.077 56.4449 194.077 56.9275 193.978 56.9757C193.285 57.3136 192.963 57.8927 192.666 59.582C192.542 60.4024 192.394 60.6437 192.047 60.6437C191.725 60.6437 191.131 60.5472 190.289 60.2094C188.184 59.4372 186.005 58.2306 184.272 56.7827C183.702 56.3001 183.182 55.7692 182.662 55.1418C179.592 58.2789 175.878 60.1128 171.173 60.8368C171 60.8851 170.925 60.1611 171.099 60.1128C175.11 58.7132 178.577 56.3966 181.35 53.4043C180.26 51.8599 179.344 49.8811 178.527 47.8058C176.645 51.329 174.342 53.8869 171.693 55.4796C171.544 55.5761 171.396 54.997 171.52 54.8522C174.07 52.246 176.348 48.4815 177.809 44.9583C178.28 43.8 178.651 42.4968 178.923 41.3385H176.992V41.6764C176.992 42.7382 176.695 43.1725 175.902 43.1725C175.358 43.1725 175.184 42.7382 175.184 41.8212C175.184 40.6146 175.283 38.7806 175.283 31.2033C175.283 27.0527 175.283 25.5083 175.184 22.9021C176.051 23.5295 176.398 23.8191 177.24 24.7843H180.36C180.632 23.3364 180.83 21.8403 180.979 20.2959H173.971C173.228 20.2959 172.708 20.3924 171.866 20.5854L171.619 18.7515C172.584 19.041 173.179 19.0893 173.971 19.0893H189.942C191.057 16.5796 191.255 16.29 191.403 16.29C191.577 16.29 191.75 16.5796 192.938 18.3653C193.508 19.2823 193.632 19.5719 193.632 19.8615C193.632 20.1511 193.557 20.2959 193.31 20.2959H183.108C182.588 21.9368 181.969 23.3847 181.276 24.7843H187.664C188.432 23.2399 188.556 23.0469 188.704 23.0469C188.877 23.0469 189.026 23.2399 189.868 24.4947C190.239 25.0739 190.338 25.3635 190.338 25.6531C190.338 26.0392 190.239 26.3287 189.62 27.101V30.7689C189.62 37.5258 189.719 40.6629 189.719 41.6764C189.719 42.6416 189.397 43.1725 188.58 43.1725C188.085 43.1725 187.887 42.7382 187.887 41.9177V41.3385ZM179.22 46.4544L178.874 47.1301C179.864 49.2054 181.078 50.8946 182.39 52.1977C183.777 50.4602 184.916 48.578 185.832 46.4544H179.22ZM176.992 31.0103V34.823H187.887V31.0103H176.992ZM187.887 29.8037V25.9909H176.992V29.8037H187.887ZM176.992 36.0296V40.132H187.887V36.0296H176.992Z" fill="#E72410"/>
<path d="M126.6 51.0465H128.984C129.144 50.7453 129.288 50.4683 129.384 50.2274C129.528 49.9022 129.624 49.6252 129.688 49.3481C131.24 49.7697 131.384 49.8299 131.384 49.9624C131.384 50.107 131.24 50.1672 130.84 50.1792C130.088 50.7212 129.896 50.8537 129.544 51.0465H132.104C132.648 50.4563 132.84 50.3599 132.952 50.3599C133.096 50.3599 133.272 50.4563 133.88 50.8417C134.152 51.0103 134.28 51.1187 134.28 51.203C134.28 51.2873 134.232 51.3235 134.072 51.3235H130.248V52.6966H131.672C132.184 52.1305 132.376 52.0341 132.488 52.0341C132.632 52.0341 132.792 52.1305 133.384 52.5039C133.624 52.6605 133.752 52.7689 133.752 52.8532C133.752 52.9375 133.704 52.9736 133.544 52.9736H130.248V54.3467H131.704C132.216 53.7806 132.408 53.6843 132.52 53.6843C132.664 53.6843 132.824 53.7806 133.416 54.154C133.656 54.3106 133.784 54.419 133.784 54.5033C133.784 54.5876 133.736 54.6238 133.576 54.6238H130.248V56.1535H132.168C132.792 55.4789 132.984 55.3826 133.096 55.3826C133.24 55.3826 133.416 55.4789 134.12 55.9246C134.424 56.1173 134.552 56.2257 134.552 56.31C134.552 56.3944 134.504 56.4305 134.344 56.4305H126.472V56.6714C126.472 56.9725 126.216 57.093 125.704 57.093C125.24 57.093 125.048 56.9966 125.048 56.7075C125.048 56.4305 125.112 55.5753 125.112 53.8529V52.2871C124.616 52.6123 124.088 52.9134 123.48 53.2025C123.416 53.2386 123.304 53.1423 123.352 53.0941C124.184 52.4075 124.92 51.6005 125.48 50.7694C125.816 50.2756 126.072 49.7817 126.264 49.312C127.576 49.6493 127.96 49.7697 127.96 49.8901C127.96 50.0226 127.768 50.0949 127.384 50.131C127.128 50.4563 126.872 50.7694 126.6 51.0465ZM126.472 52.6966H128.856V51.3235H126.472V52.6966ZM126.472 52.9736V54.3467H128.856V52.9736H126.472ZM126.472 54.6238V56.1535H128.856V54.6238H126.472ZM132.472 48.9988H126.168V49.035C126.168 49.312 125.944 49.4324 125.4 49.4324C124.968 49.4324 124.792 49.3361 124.792 49.0831C124.792 48.9868 124.824 48.6977 124.824 48.1075C124.824 47.5775 124.792 47.1801 124.728 46.7946C126.504 46.9392 126.632 46.9633 126.632 47.156C126.632 47.2764 126.504 47.3607 126.168 47.445V48.7218H128.568V47.1801C128.552 46.7344 128.52 46.4092 128.488 46.1924C130.296 46.3249 130.456 46.4453 130.456 46.5658C130.456 46.6501 130.296 46.7464 129.992 46.8549V48.7218H132.472V47.7582C132.472 47.3366 132.44 46.9873 132.392 46.7705C134.136 46.9151 134.28 46.9512 134.28 47.156C134.28 47.2644 134.168 47.3366 133.88 47.4089V47.698C133.88 48.4448 133.912 48.9507 133.912 49.1193C133.912 49.3722 133.576 49.5168 133.032 49.5168C132.648 49.5168 132.472 49.4204 132.472 49.1795V48.9988ZM121.576 53.5397V50.7092C121.08 51.2151 120.52 51.7089 119.896 52.1907C119.848 52.2389 119.656 52.1425 119.704 52.0944C120.776 50.7935 121.592 49.3361 122.088 47.8666C122.28 47.2644 122.44 46.6742 122.52 46.084C123.992 46.3369 124.6 46.5056 124.6 46.6983C124.6 46.8308 124.488 46.8789 124.024 46.9873C123.624 48.0112 123.064 48.9627 122.344 49.854C123.288 49.9624 123.416 49.9986 123.416 50.131C123.416 50.2394 123.32 50.3117 123 50.4322V56.6593C123 57.0086 122.728 57.1652 122.168 57.1652C121.8 57.1652 121.48 57.0689 121.48 56.7437C121.48 56.4305 121.576 55.4669 121.576 53.5397Z" fill="#E72410"/>
<path d="M106.201 53.4798H104.441C104.153 55.3227 103.241 56.1297 101.193 56.8163C101.113 56.8403 101.017 56.7681 101.081 56.7199C102.393 55.7322 102.889 54.9975 103.049 53.4798H102.217C101.833 53.4798 101.449 53.5039 100.937 53.5521L100.761 53.1064C101.321 53.1787 101.753 53.2028 102.169 53.2028H103.081C103.097 52.8535 103.113 52.4801 103.113 52.0465V51.5165H102.553C102.233 51.5165 101.913 51.5406 101.481 51.5888L101.305 51.1431C101.785 51.2154 102.137 51.2395 102.505 51.2395H107.657C108.265 50.6975 108.457 50.6011 108.569 50.6011C108.713 50.6011 108.889 50.6975 109.449 51.0468C109.689 51.2034 109.817 51.3118 109.817 51.3961C109.817 51.4804 109.769 51.5165 109.609 51.5165H107.577V53.2028H107.977C108.681 52.5765 108.873 52.4801 108.985 52.4801C109.129 52.4801 109.289 52.5765 109.913 52.986C110.169 53.1667 110.297 53.2751 110.297 53.3594C110.297 53.4437 110.249 53.4798 110.089 53.4798H107.577C107.593 54.5759 107.641 55.8406 107.641 56.2622C107.641 56.5874 107.321 56.7199 106.793 56.7199C106.345 56.7199 106.137 56.6235 106.137 56.3465C106.137 56.1177 106.201 55.3829 106.201 53.9737V53.4798ZM104.473 53.2028H106.201V51.5165H104.553C104.553 52.0826 104.537 52.6367 104.473 53.2028ZM107.529 49.7098V49.8664C107.529 50.1675 107.257 50.3 106.713 50.3C106.281 50.3 106.089 50.2036 106.089 49.9387C106.089 49.5171 106.121 49.0835 106.121 47.3611C106.121 46.9154 106.105 46.4577 106.057 46C106.841 46.2409 106.953 46.3011 107.689 46.6143H110.633C111.193 46.1445 111.321 46.0723 111.449 46.0723C111.609 46.0723 111.737 46.1445 112.329 46.5059C112.601 46.6866 112.697 46.7709 112.697 46.8672C112.697 46.9877 112.601 47.0599 112.265 47.2165V48.6619C112.265 55.407 112.281 55.7202 112.281 56.0454C112.281 56.4308 112.121 56.7078 111.785 56.8885C111.497 57.0451 111.081 57.1174 110.553 57.1174C110.249 57.1174 110.233 57.0933 110.169 56.8403C110.073 56.4188 109.737 56.1779 108.649 55.9611C108.569 55.949 108.569 55.8165 108.649 55.8165C109.561 55.8647 109.929 55.8768 110.585 55.8768C110.745 55.8768 110.777 55.8406 110.777 55.7081V49.7098H107.529ZM110.777 47.9874V46.8913H107.529V47.9874H110.777ZM107.529 48.2644V49.4328H110.777V48.2644H107.529ZM100.089 49.7098V56.6476C100.089 56.9728 99.7845 57.1174 99.1925 57.1174C98.7285 57.1174 98.5365 57.009 98.5365 56.6958C98.5365 55.949 98.6325 54.9132 98.6325 51.3479C98.6325 49.5653 98.6165 47.7826 98.5205 46C99.3525 46.2409 99.4645 46.2891 100.217 46.6143H103.017C103.561 46.1445 103.689 46.0723 103.817 46.0723C103.977 46.0723 104.105 46.1445 104.681 46.4938C104.937 46.6504 105.033 46.7347 105.033 46.8311C105.033 46.9395 104.921 47.0238 104.569 47.1924V47.6381C104.569 48.8064 104.601 49.6255 104.601 49.8905C104.601 50.1675 104.297 50.288 103.737 50.288C103.321 50.288 103.161 50.1916 103.161 49.9387V49.7098H100.089ZM103.161 47.9874V46.8913H100.089V47.9874H103.161ZM100.089 48.2644V49.4328H103.161V48.2644H100.089Z" fill="#E72410"/>
<path d="M82.6001 53.5521H82.6801C83.1601 53.0221 83.3521 52.9258 83.4641 52.9258C83.6081 52.9258 83.7521 53.0221 84.2001 53.3594C84.2481 53.3955 84.2961 53.4437 84.3441 53.4798C84.5201 52.444 84.5841 51.1311 84.5841 49.3244C84.5841 47.8549 84.5521 47.0358 84.4881 46.265C85.3201 46.5661 85.4321 46.6143 86.1841 46.9515H88.3281C88.8881 46.4577 89.0161 46.3854 89.1441 46.3854C89.3041 46.3854 89.4321 46.4577 90.0561 46.8311C90.3281 46.9997 90.4241 47.084 90.4241 47.1804C90.4241 47.2888 90.3761 47.3249 90.0081 47.5297V48.8907C90.0081 55.2143 90.0561 55.5154 90.0561 55.8286C90.0561 56.3947 89.9121 56.6476 89.4161 56.8644C89.1121 56.9969 88.6641 57.0812 88.2481 57.0812C87.9921 57.0812 87.9441 57.0451 87.8801 56.7681C87.8001 56.3585 87.4161 56.1658 86.3601 55.9731C86.2801 55.9611 86.2801 55.8286 86.3601 55.8286C87.0481 55.8406 87.7201 55.8527 88.2641 55.8527C88.5041 55.8527 88.5521 55.8165 88.5521 55.6599V52.6969H85.7521C85.6561 53.2389 85.5281 53.7087 85.3681 54.1302C84.9201 55.2625 84.1041 56.1538 82.7441 57.0571C82.6801 57.0933 82.5521 57.021 82.6001 56.9728C83.4641 56.0574 83.9601 55.2143 84.2641 53.8291H76.9521C76.6961 53.8291 76.4561 53.8532 76.1201 53.9014L75.9441 53.4557C76.3281 53.528 76.6321 53.5521 76.9201 53.5521H77.6241V48.4933H77.2081C76.9681 48.4933 76.7121 48.5174 76.3921 48.5655L76.2161 48.1199C76.6001 48.1921 76.8881 48.2162 77.1761 48.2162H77.6241V47.5538C77.6241 47.1563 77.5921 46.7227 77.5601 46.2168C79.3041 46.3493 79.4641 46.4697 79.4641 46.5902C79.4641 46.6986 79.3041 46.7949 79.0001 46.8672V48.2162H81.2241V47.614C81.2241 47.1683 81.2081 46.7106 81.1601 46.2168C82.8881 46.3372 83.0481 46.4456 83.0481 46.5541C83.0481 46.6745 82.8881 46.7709 82.6001 46.8552V48.2162H82.7761C83.2561 47.6983 83.4481 47.602 83.5601 47.602C83.7041 47.602 83.8321 47.6983 84.2481 48.0356C84.3921 48.156 84.5201 48.2885 84.5201 48.3728C84.5201 48.4571 84.4721 48.4933 84.3121 48.4933H82.6001V53.5521ZM81.2241 51.6972V50.2398H79.0001V51.6972H81.2241ZM81.2241 51.9742H79.0001V53.5521H81.2241V51.9742ZM81.2241 48.4933H79.0001V49.9627H81.2241V48.4933ZM88.5521 49.6014V47.2286H85.9921V49.6014H88.5521ZM88.5521 49.8784H85.9761C85.9601 50.7216 85.9281 51.5767 85.8001 52.4199H88.5521V49.8784ZM82.9841 55.5877C82.9841 55.937 82.6481 56.214 82.2321 56.214C81.9281 56.214 81.6881 56.0815 81.5121 55.6238C81.3681 55.2384 80.9521 54.7686 80.3761 54.4073C80.3121 54.3711 80.3921 54.2868 80.4721 54.2989C82.1681 54.5036 82.9841 54.9252 82.9841 55.5877ZM79.9441 54.9011C79.9441 55.0216 79.7841 55.0818 79.3841 55.1059C78.5361 56.0936 77.3841 56.7681 76.0561 57.1896C75.9761 57.2137 75.8641 57.1294 75.9281 57.0933C76.6961 56.5874 77.3361 55.9008 77.7521 55.2143C77.9441 54.8891 78.0881 54.5639 78.1521 54.2507C79.5281 54.6361 79.9441 54.7807 79.9441 54.9011Z" fill="#E72410"/>
<path d="M64.3444 48.3486V50.1794H66.5524C67.2564 49.5169 67.4484 49.4206 67.5604 49.4206C67.7044 49.4206 67.8804 49.5169 68.6164 49.9505C68.9364 50.1553 69.0644 50.2517 69.0644 50.336C69.0644 50.4203 69.0164 50.4564 68.8564 50.4564H60.6004C60.3124 50.4564 60.0404 50.4805 59.6564 50.5287L59.4804 50.083C59.9124 50.1553 60.2324 50.1794 60.5524 50.1794H62.8244V48.3486H61.0164C60.7444 48.3486 60.4724 48.3727 60.1044 48.4208L59.9284 47.9752C60.3444 48.0475 60.6644 48.0715 60.9844 48.0715H62.8244V47.0477C62.8244 46.7346 62.7924 46.4214 62.7444 46.0962C64.6804 46.2287 64.8564 46.3612 64.8564 46.4816C64.8564 46.6021 64.6804 46.7105 64.3444 46.8068V48.0715H65.8484C66.5364 47.4211 66.7284 47.3248 66.8404 47.3248C66.9844 47.3248 67.1604 47.4211 67.8964 47.8427C68.2324 48.0475 68.3604 48.1438 68.3604 48.2281C68.3604 48.3124 68.3124 48.3486 68.1524 48.3486H64.3444ZM66.5044 52.504V53.829C66.5044 54.2746 66.5524 55.3105 66.5524 55.7561C66.5524 56.262 66.4884 56.4306 66.1844 56.6595C65.8164 56.9365 65.2884 57.1052 64.6484 57.1052C64.5044 57.1052 64.4244 57.057 64.3924 56.9486C64.2644 56.3222 63.8164 56.1536 62.5524 55.9127C62.4724 55.9007 62.4724 55.7682 62.5524 55.7682C63.3684 55.8043 64.1204 55.8164 64.7284 55.8164C64.9524 55.8164 65.0164 55.7802 65.0164 55.6236V52.504H60.6324C60.3444 52.504 60.0724 52.5281 59.6884 52.5763L59.5124 52.1306C59.9444 52.2029 60.2644 52.227 60.5844 52.227H65.0164V51.697C65.0164 51.2755 65.0004 51.1671 64.9364 50.7334C66.5204 50.8419 67.0004 50.9262 67.0004 51.0948C67.0004 51.2152 66.8564 51.2996 66.5044 51.432V52.227H66.8884C67.4804 51.697 67.6724 51.6007 67.7844 51.6007C67.9284 51.6007 68.0884 51.697 68.6484 52.0463C68.8724 52.1909 69.0004 52.2993 69.0004 52.3836C69.0004 52.4679 68.9524 52.504 68.7924 52.504H66.5044ZM56.1044 54.3469V55.1057C56.1044 55.4189 55.7844 55.5514 55.2564 55.5514C54.7604 55.5514 54.6004 55.443 54.6004 55.178C54.6004 54.3228 54.6644 53.4315 54.6644 49.9867C54.6644 48.8785 54.6484 47.7704 54.5684 46.6503C55.3684 46.9152 55.4964 46.9514 56.2164 47.2645H57.5924C58.1204 46.7827 58.2484 46.7105 58.3764 46.7105C58.5364 46.7105 58.6804 46.7827 59.2564 47.12C59.5124 47.2645 59.6084 47.3489 59.6084 47.4452C59.6084 47.5416 59.5284 47.6259 59.1764 47.8186V48.9508C59.1764 51.9379 59.2564 53.9976 59.2564 54.6842C59.2564 54.9973 58.9524 55.1539 58.3764 55.1539C57.9444 55.1539 57.7684 55.0575 57.7684 54.7805V54.3469H56.1044ZM57.7684 54.0699V50.8419H56.1044V54.0699H57.7684ZM57.7684 50.5648V47.5416H56.1044V50.5648H57.7684ZM63.4164 54.4071C63.4164 54.8648 63.0964 55.1539 62.5364 55.1539C62.1204 55.1539 61.9604 54.9491 61.7684 54.383C61.5604 53.7808 61.3044 53.4676 60.8244 53.1785C60.7604 53.1424 60.8404 53.0701 60.9204 53.0822C62.6644 53.3472 63.4164 53.7808 63.4164 54.4071Z" fill="#E72410"/>
<path d="M41.048 53.6968H37.8V54.3231C37.8 54.5881 37.48 54.6965 36.904 54.6965C36.536 54.6965 36.344 54.6122 36.344 54.3954C36.344 54.0581 36.392 53.7209 36.392 52.3719C36.392 51.6251 36.376 50.8783 36.344 50.1195C37.064 50.3483 37.16 50.3845 37.912 50.6856H40.936C41.384 50.252 41.512 50.1797 41.64 50.1797C41.8 50.1797 41.928 50.252 42.488 50.6013C42.744 50.7699 42.84 50.8542 42.84 50.9506C42.84 51.0349 42.76 51.1192 42.456 51.2637V51.7335C42.456 52.9861 42.504 53.8413 42.504 54.1184C42.504 54.3713 42.216 54.4918 41.672 54.4918C41.288 54.4918 41.048 54.4074 41.048 54.1906V53.6968ZM41.048 53.4198V50.9626H37.8V53.4198H41.048ZM36.648 48.8427H41.416C42.072 48.2164 42.264 48.12 42.376 48.12C42.52 48.12 42.68 48.2164 43.32 48.6259C43.592 48.8066 43.72 48.915 43.72 48.9993C43.72 49.0836 43.672 49.1198 43.512 49.1198H36.68C36.376 49.1198 36.072 49.1438 35.672 49.192L35.496 48.7464C35.96 48.8186 36.296 48.8427 36.648 48.8427ZM34.776 46.9396H44.152C44.744 46.4338 44.872 46.3615 45 46.3615C45.16 46.3615 45.288 46.4338 45.912 46.8072C46.184 46.9878 46.28 47.0721 46.28 47.1685C46.28 47.2769 46.184 47.3612 45.864 47.5298V48.8668C45.864 54.7567 45.912 55.1783 45.912 55.7203C45.912 56.2864 45.672 56.5394 45.288 56.72C44.92 56.9007 44.392 56.9609 44.104 56.9609C43.832 56.9609 43.736 56.8766 43.72 56.6357C43.688 56.2383 43.4 56.0094 41.832 55.6842C41.752 55.6721 41.768 55.5396 41.848 55.5396C42.792 55.5758 43.336 55.5878 44.024 55.5878C44.248 55.5878 44.296 55.5397 44.296 55.371V47.2167H34.632V56.5755C34.632 56.8887 34.28 57.0212 33.672 57.0212C33.192 57.0212 33 56.9128 33 56.6116C33 55.5276 33.096 54.4315 33.096 50.0713C33.096 48.8066 33.08 47.5419 33 46.2651C33.816 46.5542 33.944 46.6144 34.776 46.9396Z" fill="#E72410"/>
</svg>
