<?xml version="1.0" encoding="UTF-8"?><svg id="_レイヤー_1" xmlns="http://www.w3.org/2000/svg" viewBox="0 0 1351.14 1375.59"><defs><style>.cls-1{fill:#e72410;}</style></defs><path class="cls-1" d="M612.45,136.49c-2.03,8.37,2.46,34.37,3.54,44.44.27,2.58-1.6,5.94.5,8.78,2.71,1.33,5.09,3.38,8.23,2.2,15.87-5.96,21.66-35.13,31.68-47.49,1.15-1.42,8.01-8.47,9.19-9.34,4.27-3.18,10.69-2.07,15.48-.7,11.54,3.32,23.68,19.36,29.99,29.31,8.64,13.65,16.32,25.13.24,36.87-5.07,3.71-7.09,2.14-11.86,4.2-18.94,8.17-67.26,62.54-74.67,82.22-2.27,6.04-4.77,14.33.65,19.21,4.67,4.2,16.09-4.36,25.32,5.56,9.13,9.8,17.08,46.16,9.21,57.37-3.99,5.69-13.82,3.02-19.68,3.79-8.07,1.05-15.93,3.46-24.11,3.69.71,10.03,1.12,21.5,2.62,31.36,1.78,11.73,11.72,30.06-2.15,37.68-15.36,4.3-31.72,11.53-46.6,16.4-41.75,13.66-26.91-26.17-24.32-32.97,3.13-8.24,12.93-16.38,5.43-26.36-8.77-2.95-20.36,11.54-25.12,17.78-7.61,9.98-10.04,19.94-16.3,29.41-6.19,9.36-13.21,11.07-24.18,12.88-12.52,2.06-37.32,2.2-46.67-7.06-7.33-7.25-8.4-13.88-3.3-23.16,2.59-4.72,15.14-19.17,19.39-23.85,15.16-16.7,36.98-33.45,50.67-50.63,2.35-2.95,4.99-5.73,4.31-9.89,0,0-50.91,28.88-64.74,27.07-13.17-1.72-46.61-20.16-58.2-28.26-21.56-15.08-33.04-35.9-40.45-60.85-7.54-25.41-11.02-50.37-10.76-76.97.21-21.94,8.92-60.95,18.33-81.72,15.55-34.36,39.09-56.86,72.21-73.56,20.16-10.17,47.29-18.9,65.02,0,13.37,14.25,20.46,29.35,26.4,47.42,3.93,11.97-.08,18.55-9.11,26.29-2.48,2.12-7.94,4.67-10.44,6.83-34.55,29.82-53.73,82.16-34.17,125.63,15.48,34.4,58.06,37.66,75.38,3.32,13.83-27.43,2.29-76.88,1.61-107.43-.17-7.81,2.25-17.83,2.1-25.62-.55-27.29-8.98-53.94-9.76-80.46-.58-19.64,4.89-25.1,23.52-30.94,7.87-2.46,31.77-6.52,38.95-4.37,29.41,8.78,16.54,43.03,15.33,64.85-.76,13.71,1.52,56.16,1.3,57.09Z"/><path class="cls-1" d="M824.91,265.41c2.39,2.24,11.17-6.56,12.83-8.78,13.01-17.35,21.3-49.44,30.57-69.5,9.63-20.84,28.67-50.11,42.54-68.64,8.33-11.13,32.22-41.62,45.54-43.4,26.77-3.57,33.44,6.22,55.43,16.32,19.19,8.82,48.71,15.91,57.48,37.64,9.93,24.6-13.19,30.42-23.85,46.24-4.08,6.05-6.1,14.1-9.56,20.09-5.16,8.96-19.9,22.72-30.34,24.07-3.43.44-18.73-4.24-24.43-4.68-51.94-3.99-70.42,26.44-103.07,58.72-2.65,2.62-14.61,11.37-15.25,13.2-1.31,3.78-1.4,13.53-.78,17.55,3.51,22.76,63.99,35.49,70.03,67.08,1.94,10.17-6.85,21.74-13.33,29.33-8.81,10.33-13.92,12.1-25.06,18.17-8.62,4.7-8.94,9.44-20.6,5.32-9.62-3.4-18.15-17.93-25.93-24.71-8.72-7.59-23.69-17.42-35.51-12.01-18.01,8.24-1.61,35.58-2.82,51.54-2.69,35.38-24.09,15.29-48.11,9.86-24.89-5.63-38.63-1.72-42.49-15.67-.85-3.07.98-9.11,2.05-12.36,1.07-3.26,6.53-15.36,8.89-17.07,14.15-10.27,20.63-14.46,28.72-31.8,3.68-7.88,3.58-11.15-5.83-13.27-8.64-1.95-29.89,5.04-41.41,5.55-12.25.55-23.82,1.47-32.68-8.06-2.03-2.18-13.61-20.55-14.31-22.75-4.11-12.84.25-32.49,9.91-42.12,17.92-17.87,48.65-12.39,71.38-8.3,12.1,2.18,24.75,5.51,36.19,9.63.88,0,5.38-4.29,5.46-4.64,1.37-6.15-5.93-29.77-8.26-37.16-12.73-40.44-32.87-90.09-70.11-113.96-22.96-14.72-42.45-13.56-57.5-41.09-5.93-10.86-14.16-27.32-19.1-40.43-5.33-14.14-8.86-31.45,3.7-43.22C644.86,3.18,665.73.32,678.53.03c20.11-.46,66.5,5.25,87.3,8.78,18.17,3.08,41.9,8.14,50.65,25.94,11.74,23.89,16.27,76.2,13.22,102.66-.58,5.07-2.84,10.9-3.43,16.34-4.01,36.95-4.42,74.75-1.38,111.66Z"/><path class="cls-1" d="M953.9,717.05c9,9.05,5.48,17.09,2.82,28-1.83,7.5-5.35,19.1-8.62,25.97-9.54,20.1-28.34,35.91-18.79,61.45,2.11,5.63,6.41,10.1,8.19,15.89,31.85,6.71,20.66-44.71,52.98-38.77,6.42,1.18,25.92,12.73,32.69,16.72,36.14,21.35,70.85,45.75,106.99,67.19,7.2,4.27,25.34,9.11,24.08,20.55-1.01,9.13-6.76,12.93-10.43,19.36-3.61,6.33-6.63,13.09-10.32,19.33-10.74,18.22-31.65,40.53-25.71,62.6.92.68,8.84-5.69,9.92-6.74,9.22-9.02,16.13-20.44,20.66-32.47,8.68-23.06,16.29-77.19,52.21-68.92,8.56,1.97,19.49,14.37,18.6,23.52-.26,2.73-2.18,4.14-2.5,6.23-.8,5.15-3.99,24.17-1.34,27.13,5.09,4.08,11.86-1.53,16.47-4.57,8.32-5.49,14.4-13.64,21.99-18.78,9.03-6.12,21.78-9.62,30.66-16.29,8.77-6.59,16.5-24.08,28.51-13.24.34,2.67-.05,5.23-.58,7.83-4.77,23.29-25.06,64.96-40.8,82.73-3.27,3.69-6.08,6.65-11.25,7.3-9.31,1.16-26.91-8.71-33.23-3.64-18.32,14.7,25.85,10.73,21.11,31-.36,1.53-6.26,12.52-7.43,14.26-9.73,14.53-23.88,30.43-34.55,45.08-6.82,9.36-13.55,24.14-23.13,31.18-5.26,3.86-9.09,6.71-14,.78-13.5-16.31,2.13-29.12,4.14-45.18.54-4.36,1.3-14.01,1.25-18.26-.02-1.85-1.36-11.58-2.99-11.88-1.96.2-3.46,1.23-4.82,2.57-5.61,5.55-11.61,15.3-16.8,21.5-5.57,6.65-19.46,17.76-19.82,25.99-.21,4.8,3.74,13.62,4.69,18.85,5.67,31.39,5.56,54.83-15.69,80-5.41,6.41-29.41,27.4-36.79,28.78-9.24,1.73-18.88-4.33-22.78-12.51-5.76-12.08,1.08-18.5,4.27-29.57,3.6-12.47,11.21-46.14,12.12-58.4.34-4.65-2.28-12.84-2.54-18.57-.79-17.5,5.73-38.74-5.18-54.09-5.98-8.42-14.35-12.56-24.11-7.27-16.19,8.77-20.43,41-36.1,54.08-8.72,7.28-21.23,1.95-27.06-6.47-10.33-14.94-17.09-40.14-24.31-57.23-11.33-26.82-25.26-48.91-39.65-74.01-4.75-8.29-14.47-19.24-16.24-29.47-2.89-16.79,10.54-23.13,18.77-35,8.77-12.66,12.42-24.71,7.77-39.74-.9-2.91-9.2-20.37-10.75-21.38-3.73-2.42-8.53,10.06-9.63,12.69-4.29,10.33-6.63,25.25-11.15,34.56-4.25,8.77-14.06,7.69-19.32.26-6.27-8.84-.98-19.61-1.95-30.17-1.36-14.74-6.38-18.86-.21-34.83,7.16-18.54,20.5-36.09,28-56.01,3.45-9.18,6.19-25.2,10.7-32.54,3.3-5.37,24.94-21.85,30.96-23.49,7.13-1.94,15.15,1.17,20.04,6.08ZM983.99,869.85c-7.75.81-12.85,11.45-16.8,17.87-8.55,13.87-14.82,29.18-23.99,42.71-3,5.64,1.51,10.1,5.2,13.93l16.11-8.67c4.98-12.35,31.53-49.9,28.15-61.53-1.19-4.07-5.02-4.7-8.66-4.32ZM1034.63,903.19c-12.74-1.28-18.89,6.3-24.97,15.9-5.62,8.87-10.5,19.04-16.26,28.21-7.84,12.49-25.2,26.47-15.39,41.57,10.72,2.34,13.07-11.24,17.58-18.38,9.13-14.44,21.9-27.02,30.19-40.23,4.4-7.01,5.88-15.67,11.65-20.65l-2.8-6.44ZM1004.06,1030.12c2.91.29,5.7.35,8.54-.61,9.16-3.1,33.16-48.65,41.53-59.76,7.82-10.37,22.36-23.06,28.71-33.05,9.75-15.33-20.67-21.15-25.34-14.86-6.66,14.53-12.51,30.33-20.88,43.99-7.85,12.82-19.18,23.42-27.63,35.66-7.58,10.97-9.49,15.11-4.93,28.63ZM1116.41,1070.95c.91,1.03,5.73-2.91,6.65-3.83,5.26-5.22,16.71-20.87,20.73-27.45,2.79-4.58,14.67-28.15,14.09-31.78-.22-1.37-1.39-4.28-2.59-4.87l-10.76,12.69c-4.79,6.43-31.93,50.96-28.13,55.25Z"/><path class="cls-1" d="M849.25,858.79c5.51,6.83,5.82,42.43,5.34,52.22-1.65,34-13.71,51.5-19.5,80.57-2.81,14.1.86,28.03,15.81,14.58,7.3-6.57,13.58-22.41,16.2-31.98,2.06-7.53-.28-33.54,13.35-27.38,14.33,6.47,14.55,59.22,13.67,72.94-2.12,32.98-22.2,39.57-36.38,63.68-4.77,8.12-10.25,17.77.96,23.28,1.51-.27,22.33-18.9,23.08-20.23,1.44-2.55.96-5.15,2.31-7.57,2.14-3.85,6.4-7.41,8.41-11.35,4.19-8.22,9.05-41.22,24.75-30.26,8.6,6.01,10.44,31.55,11.3,41.91.19,2.29-.79,4.43-.61,6.66,1.46,18.12,7.2,48.5-5.43,63.6-2.07,2.47-14.83,13.98-17.98,16.61-7.95,6.65-16.17,8.38-21.82,17.72-8.74,14.44-11.2,35.68,3.34,46.54,16.01-.36,42-1.35,52.47-15.42,8.31-11.16-.07-15.81.35-24.5.37-7.68,9.93-23.69,10.48-32.63.42-6.83-7.61-29.91,5.85-29.87,10.64.03,10.46,14.14,12.7,20.57,2.04,5.86,21.57,40.6,25.55,44.87,10.02,10.74,19.75,12.96,31.61,19.03,17.85,9.13,16.45,31.85,9.52,47.96-4.1,9.54-96.4,69.81-159.31,88.99-18.4,5.61-49.74,14.6-67.65,7.66-25.01-9.68-26.94-35.43-24.7-59.27,1.96-20.9,16.44-27.21,23.67-44.27,1.16-2.73,8.32-20.27,2.87-20.58-7.71,3.48-13.26,11.41-20.47,15.33-3.92,2.13-7.98,2.28-10.95,3.87-10.76,5.78-7.49,46.79-18.56,58.04s-29.53-7.72-35.66-16.32c-4.26-5.98-6.87-12.99-10.53-19.12-1.87-3.14-6.51-6.8-7.53-9.75-3.4-9.87,35.04-71.26,55.46-80.32,8.42-3.73,24-7.33,31.5-11.73,1.49-.88,8.8-10.66,9.57-12.67,2.89-7.56,4.86-24.42-.28-31.1-6.59-8.58-12.97,7.97-16.12,12.23-5.71,7.74-21.53,28.49-30.9,29.72-24.73,3.25-18.33-48.6-11.33-62.08,6.26-12.06,15.7-11.19,26.29-16.94,7.11-3.86,21.07-14.57,23.69-22.02,2.4-6.86,5.82-20.47,3.14-27.12-7.18-17.83-28.09,5.75-39.57,6.84-7.76.73-13.44-3.65-13.77-11.65-.18-4.26.59-19.15,1.24-23.22,2.13-13.52,15.45-17.81,22.69-26.73,27.43-33.78,13.35-66.98,33.03-101.63l34.73-32.05c3.03-2.1,12.36,2.21,14.11,4.38Z"/><path class="cls-1" d="M228.76,391.36c5.78,8.12,29.99,37.8,37.22,42.79,12.32,8.51,46.84,26.06,89.82,29.5,13.97,1.12,38.03-1.22,38.03-1.22,0,0,22.25-.67,41.24,11.23,8.32,5.22,25.13,3.69,40.82,3.33,5.02-.12,16.02-.27,18.36,3.84,3.47,6.1,1.43,10.53-1.09,17.36-1.76,4.78-7.98,11.32-10.94,14.71-10.32,11.84-23.14,39.46-29.72,54.39-3.58,8.12-6.28,16.48-9.26,24.81-13.09,10.71-28.1,8.69-41.21-.8-4.37-3.16-4.35-10.04-6.75-15.17-2.86-6.11-17.95-23.3-25.83-26.52-13.52-5.52-25.77,2.02-50.47,1.82-72.91-.61-111.71-95.72-172.88-95.54-13.83.04-29.44,13.62-25.89,30.49,3.92,18.62,23.38,30.98,39.32,39.95,27.93,15.72,59.12,32.47,92.51,27.96,0,0,27.12-7.34,39.74,7.06,12.62,14.4,7.56,42.15-11.97,50.95-38.64,17.42-98.41,24.72-134.71-.43-24.8-17.18-45.6-35.63-76.16-43.99-19.45-5.32-33.75-11.39-41.34-26.06-7.59-14.67-6.59-32.56-6.22-43.5,1.58-47.11,38.96-106.09,63.84-145.66,20.07-31.93,49.5-84.87,94.28-49.23,19.2,15.28,19.31,30.96,28.12,51.12,4.77,10.92,14.19,27.02,21.14,36.79Z"/><path class="cls-1" d="M1289.98,834.96c11.03,1.36,38.17-2.08,38.96,15.48.13,2.78-4.26,24.81-5.35,28.07-.45,1.34-8.78,14.12-9.93,15.41-11.83,13.22-50.1,16.65-67.49,15.75-27.75-2.6-37.2-24.55-57.82-32.36-33.05-12.51-96.74-21.93-120.92-46.47-8.22-8.34-5.3-25.86-5.44-37.29-.06-5.3,1.39-12.29.62-18.05-.33-2.5-2.16-10.64-3.19-12.64-1.32-2.57-10.6-10.69-13.28-11.24-4.56-.95-16.64,1.27-23.01.59-14.27-1.52-15.99-10.92-15.2-23.23,5.44-4.7,7.85-10.4,15.5-13.54,15.53-6.37,32.06,14.26,41.91-4.62-1.16-4.08-6.78-7.54-7.61-7.76-.78-.21-14.99-1.64-16.05-1.6-5.79.25-10.45,5.88-18.29,3.53-4.99-1.49-10.42-13.86-10.75-18.92-.79-12.04,5.42-30.43,19.47-31.19,11.77-.64,14.71,14.11,20.95,15.52,13.9,3.16,11.1-14.77-.88-20.15-13.77-6.18-33.61,7.94-36.76-12.64-2.86-18.65,15.28-34.07,33.33-29.63,13.45,3.31,12.05,16.95,23.89,19.33,15.76,3.16,7.23-21.87,6.67-30.13-.76-11.23,2.62-21,11.78-27.85,11.65-8.72,34.33-6.43,48.17-6.43,3.76,0,34.91-2.49,43.25-3.44,31.5-3.61,56.08-4.45,87.5-11.32,19.74-4.32,55.09-7.95,68.04,11.39,6.61,9.88,3.48,23.27,4.07,26.82,2.94,17.76,3.92,34,5.3,51.54.62,7.89,3.63,18.93,3.73,26.02.19,14.48-23.72,61.45-32.37,75.09-3.94,6.21-9.81,16.52-17.48,16.43-7.07-.08-10.57-2.9-10.34-10.3.34-10.69,10.23-27.37,10.81-38,.5-9.12-3.38-38.02-6.95-46.27-9.5-21.94-34.1,9.78-38.21,20.89-8.25,22.29-19.02,87.95-19.22,111.82-.02,2.52,1.39,16.52,2.12,17.95,1.74,3.46,9.99,8.57,13.43,11.13,1.09.81,27.76,11.15,37.06,12.3ZM1112.37,637.45c-1.32.2-3.71,1.85-4.69,2.86-2.83,2.91-6.16,21-7.02,26.33-5.01,31.21-6.85,63.9-11.74,94.51-.15.95-1.57,1.99-1.97,3.04,16.19,21.2,18.09-4.2,19.56-17.57,1.93-17.53,1.88-35.4,3.87-52.96,1.93-17.03,4.98-34.12,8.38-50.91-.56-2.81-3.43-5.76-6.4-5.31ZM1140.2,720.42c-.95,1.95-8.32,38.04-8.9,42.34-.87,6.47.42,19.54,6.22,23.3,11.82,7.65,27.11,6.05,32.29-8.25,2.14-22.23,1.19-44.79,3.42-67,2.16-21.41,9.58-42.19,10.38-63.78.38-10.23-9.72-12.26-17.7-7.78-17.38,9.74-25.56,80.86-25.71,81.18Z"/><path class="cls-1" d="M532.93,933.37c-9.19,11.56-30.44,30.24-30.52,45.54-.07,13.88,8.33,11.74,17.8,16.89,12.2,6.64,15.1,12.52,12.14,26.54-5.12,24.25-30.32,71.48-47.1,89.68-11.39,12.35-22.94,5.42-29.47-7.29-1.29-2.51-1.31-5.27-2.42-7.46-7.28-14.31-17.82-25.2-35.11-21.05-15.94,3.83-25.41,12.56-34.83,25.7-12.38,17.27-16.36,30.96,1.73,46.28,22.19,18.8,47.61,11.57,57.2,46.57,8.28,30.24-2.07,40.04-12.3,66.23-5.63,14.41-14.93,51.03-31.24,55.23-18.01,4.63-18.71-14.45-24.5-24.98s-26.28-20.43-36.45-27.79c-44-31.78-90.37-67.47-128.72-106-11.41-11.46-26.41-33.08-38.26-42.03-7.53-5.68-23.21-7.93-27.5-15.73-11.68-21.28,9.56-30.26,25.67-36.76,15.4-6.21,29.41-7,44.51-11.08,14.69-3.97,36.28-13.52,50.28-15.19,3.99-.48,11.51-1.08,15.08.35,2.03.82,13,10.59,15.52,12.89,5.21,4.76,5.95,9.96,13.62,12.33,24.27,7.49,45.57-11.18,62.33-26.48,17.17-15.67,30.03-36.17,45.05-53.78,17.72-20.78,59.85-58.42,66.16-83.32,2.72-10.75-.06-42.9,16.6-43.33,6.62-.17,21.53,13.98,27.89,18.48,7.98,5.64,17.16,9.36,20.54,20.23,5.6,18-3.44,26.46-13.67,39.32Z"/><path class="cls-1" d="M426.66,778.67c-39.56,43.49-105.96,56.62-163.47,66.62-18.87,3.28-76.76,12.44-90.13,22.4-.88.66-26.85,20.93-12.22,32.63,11.2,5.13,22.56.29,33.13-2.35,18.68-4.67,32.53-15.26,54.72-15.06,12.93.12,27.95,9.55,12.06,17.42-17.25,8.54-40.92,13.31-59.22,20.7-22.04,8.9-47.06,26.23-67.98,33.2-14.12,4.71-53.76,3.96-66.35-4.29-.95-.62-8.17-7.66-10.64-9.76-21.39-18.15-26.52-66.68-27.19-76.77-1.22-18.57,3.25-29.48,17.97-41.88,20.94-17.64,73.25-39.11,101.42-42.28,11.38-1.28,24.21.3,35.77-.11,18.7-.66,32.03-.58,50.57-.03,39.54,1.17,94.37-2.32,116.93-37.04,18.45-28.39,23.33-51.67,51.62-75.88,9.09-7.78,25.09-16.9,34.64-4.55,8.11,10.48.59,23.14.24,34.39-.89,28.49,9.99,58.62-11.87,82.65Z"/><path class="cls-1" d="M575.76,1130.64c-7.42,6.61-3.18,15.99,6.43,16.89,13.58,1.27,29.99-8.07,23.72,15.11-2.37,8.77-12.9,31.54-18.77,38.05-2.37,2.63-8.05,7.63-11.39,8.38-12.27,2.74-24.35-6.84-29.15,11.6-3,11.51,2.4,14.29,12.73,10.26,10.16-3.96,16.14-17.71,30.26-16.74,7.84.54,15.71,11.77,15.39,19.13-.22,5.06-13.67,28.48-16.98,34.94-1.82,3.54-5.3,7.11-7.32,11.21-9.18,18.55-10.47,48.43-28.8,58.91-10.82,6.18-38.53,12.59-51.23,11.87-14.38-.82-53.44-15.2-65.94-23.03-4.67-2.93-14.45-10.5-14.91-16.07-.64-7.78,9.86-30.89,17.19-33.32,7.92-2.63,18.56-.84,26.53-1.88,10.91-1.42,32.71-19.34,35.97-29.51,7.92-24.72-12.37-11-24.42-11.48-35.06-1.38-13.66-42.87-4.05-60.24,7.96-14.39,12.89-22.89,30.96-23.47,13.18-.42,28.56,8.95,32.54-11.88.5-2.6-11.66-3.17-13.88-3.28-9.03-.42-17.03-14.02-16.46-22.36.49-7.21,12.09-31.16,15.78-39.31,5.41-11.95,9.42-18.59,14.04-31.93,7.73-22.33,18.68-47.78,20.41-71.01.63-8.5-1.78-33.61,1.27-39.19.66-1.2,3.55-5.76,4.37-7.06,1.01-1.6,8.28-6.1,10.43-6.86,19.61-6.9,54.12,8.6,74.85,11.6,6.84.99,17.14-.39,22.76.61,6.79,1.22,11.91,5.3,12.36,12.52.88,14.23-3.63,16.46-9.15,27.91-16.34,33.92-30.74,75.43-44.57,111.1-7.03,18.15-8.32,36.81-30.37,45-5.67,2.11-13.32-2.94-20.57,3.51ZM625.6,972.33c-11.52,2.26-14.77,36.91-20.32,46.36l2.84,4.06c7.48-2.72,23.81-45.82,22.33-48.17l-4.85-2.25ZM580.35,1020.3c3.19,2.12,9.53-8.63,10.5-11.1,2.11-5.4,3.08-14.15,4.67-20.04.95-3.52,7.31-14.15,2.59-15.7-5.87-1.92-9.23,10.36-10.93,14.77-1.77,4.63-10.72,29.48-6.83,32.07ZM565.12,1050.18c-5.69,1.78-14.74,31.18-13.95,36.27.82,5.28,7.92,3.07,10.46-1.45,1.92-3.4,7.36-17.86,8.74-22.15,2-6.26,5.47-16.02-5.25-12.67ZM602.55,1053.67c-17.56,5.39-17.65,22.05-22.23,37.06,5.88.39,10.22,1.97,14.11-3.8,2.92-4.33,12.87-29.86,8.12-33.25Z"/><path class="cls-1" d="M372.35,584.64c20.43,13.76,27.34,60.49,12.73,80.1-10.36,13.9-26.29,12.25-39.46,18.88-13.54,6.82-5.51,20.37-3.88,31.08,2.43,15.93-6.26,29.09-19.97,36.5-10.66,5.76-27.88,14.12-38.53,4.72-5.57-4.91-8.41-28.11-11.65-36.54-.74-1.92-6.43-11.39-7.54-12.23-2.22-1.68-17.99-5.2-21.58-5.59-13.81-1.49-34.08-.84-46.55,5.28-9.27,4.55-12.36,20.21-17.79,29.16-5.97,9.85-13.77,15.61-24.35,20.12-33.4,14.23-69.03,23.33-103.31,35.04-14.46,4.94-31.7,19.59-42.3,1.44-7.8-13.34-5.36-33.36-4.7-48.17,10.6-12.7,28.66-8.72,43.73-10.9,7.19-1.04,17.02-3.56,24.22-5.42,7.04-1.82,52.05-16.44,53.11-21.05-.03-1.66-2.48-4.34-3.73-4.87-5.39-2.28-23.9,3.58-31.49,4.28-15.65,1.44-46.82,3.96-61.73,2.48-12.77-1.27-23.96-10.85-27.22-23.42-1.69-6.52,2.99-34.3,4.67-42.35,2.48-11.88,9.63-31.62,19.83-38.24,37.07-24.03,56.91-20.69,92.9,2.68,34.58,22.46,43.09,43.9,90.16,46.95,9.41.61,17.51.5,24.87,1,2.43.17,2.33-.86,4.67-.88,9.1-.08,47.21-13.78,54.97-19.33,9.09-6.5,15.89-25.02,22.48-34.35,10.53-14.91,21.44-20.42,40.04-20.58,5.88-.05,12.45.89,17.39,4.21ZM113.41,658.28c.46-2.33-.39-3.36-1.76-5.01-3.32-4-20.93-14.47-26.14-14.69-9.04-.39-9.94,12.12-1.38,16.27,3.84,1.86,27.35,6.22,29.28,3.43Z"/><path class="cls-1" d="M442.86,923.25c-13.37,18.51-28.59,36.6-43.96,53.65-15.98,17.74-18.72,30.31-38.92,43.67-11.44,7.56-26.21,12.09-42.85,11.09-13.75-.82-17.26-9.16-28.02-13.73-19.38-8.24-60.44,1.22-80.77,7.74-19.5,6.25-58.78,32.06-76.68,31.22-24.58-1.15-49.75-40.06-48.53-61.12,1.01-17.53,21.29-26.44,37.62-28.51,31.83-4.03,56.18-12.1,86.45-17.48,10.42-1.85,21.59-1.56,31.4-4.18,35.11-9.4,76.62-26.36,109.55-41.27,30.82-13.96,71.55-58.21,81.31-89.03,2.42-7.66.89-21.21,8.36-25.98,2.9-1.85,6.72-3.33,9.96-1.26,4.09,2.61,12.87,23.23,16.11,29.19,5.4,9.92,11.95,15.86,11.49,28.65-.17,4.82-3.65,9.05-4.71,13.08-6.46,24.63-12.36,42.88-27.81,64.27Z"/><path class="cls-1" d="M299.08,217.61c-11.61,10.29-18.47,40.9-17.73,55.88,2.38,48.15,29.44,117.15,87.05,92.52,3.51-1.5,7.66-8.86,15.55-4.9,4.84,2.43,33.46,23.02,38.84,27.88,7.97,7.21,11.35,11.17,7.42,22.17-5.3,14.81-31.3,41.06-56.78,39.66-26.56-1.46-93.19-22.48-111.2-42.08-37.07-40.33-57.26-89.98-64.54-144.25-6.07-45.3,9.74-65.3,38.43-96.27,7.58-8.18,40.37-42.46,48.65-44.61,9.84-2.55,22.71,3.16,25.68,13.26,4.02,13.65,7.93,41.03,6.74,55-.72,8.46-2.1,14.06-8.62,19.8-2.98,2.63-7.34,4.02-9.51,5.94Z"/><path class="cls-1" d="M1133.07,322.2c16.12,14.74,32.41,24.92,45.2-.57-3.54-20.23-14.94-49.58,11.27-59.06,6.99-2.53,10.21-2.74,16.41,1.61,20.91,14.68,64.03,93.24,72.71,118.78,1.45,4.26,4.71,13.17,5.47,16.83,1.74,8.37-9.22,11.34-15.35,12.46-2.58.47-12.18,1.49-14.52,1.29-21.8-1.83-28.51-26.23-48.88-27.79-2.73-.21-22.8,7.39-23.32,8.93-3.14,9.22,12.03,27.76,16.55,36.23,12.31,23.05,22.88,52.6,28.08,78.17.58,2.86,2.93,6.13,3.11,9.33.09,1.51-4.4,17.31-5.34,18.77-3.43,5.31-17.1,10.64-23.38,11.21-13.53,1.23-39.76.73-48.63-10.77-11.46-14.85,1.51-28.45,3.15-44.6,2.02-19.8-17.02-65.27-25.77-84.73-15.38-34.22-53.5-96.25-82.33-119.34-6.72-5.38-14.13-7.49-19.43-12.4-7.57-7.01-8.78-14-7.98-24.1.9-11.33,8.42-33.61,17.89-40.17,4.97-3.44,10.9-3.02,16.73-1.93,16.01,2.98,14.12,17.6,20.4,29.04,7.07,12.87,20.01,25.49,28.24,38.47,6.08,9.59,28.68,43.39,29.73,44.34Z"/><path class="cls-1" d="M686.97,1224.98c-1.84-1.79-7.27-12.92-7.57-15.3-.91-7.07,1.16-20.7,1.02-28.08-.15-8.2-4.72-21.74-15.27-19.3-3.34,4.02-4.2,10.27-3.04,15.27.57,2.47,3.01,4.52,3.83,7.27,3.74,12.56,9.09,27.81,11.65,40.24,3.68,17.89,2.09,32.96,10.34,50.2,8.94,18.68,22.91,26.19,33.74,41.62,5.58,7.94,5.18,19.49,4.45,29.01-1.57,20.55-7.17,24.75-26.76,27.6-19.71,2.86-40.79,2.26-60.29,1.21-3.91-.21-10.97-.55-14.34-1.62-1.66-.53-27.34-16.14-29.86-18.02-4.63-3.45-12.7-13.24-13.34-19.07-1.04-9.52,4.23-43.44,6.49-54.1,1.2-5.64,6.08-18.28,11.99-20.12,16.77-5.21,16.18,15.01,19.17,25.43,3.16,11,12.94,27.27,25.36,28.38,1.84-10.81-2.6-19.48-4.54-29.43-3.81-19.56-4.86-34.62-18.4-50.78-6.65-7.93-12.14-24.74-11.75-25.78,4-10.71,13.59-30.58,12.59-41.68-.2-2.2-2.42-10.82-3.18-12.99-3.07-8.86-12.05-13.89-8.74-24.74,1.86-6.11,14.21-21.7,20.42-24.04,14.19-5.33,17.02,5.69,25.34,12.97,15.47,13.53,18.85,10.22,36.46,14.2,2.57.58,16.04,5.01,17.3,6.16,16.04,14.62,6.75,60.23-1.04,78.12-4.29,9.84-12.27,16.9-22.05,7.38Z"/><path class="cls-1" d="M1022.07,358.85c-9.63,13.18-28.26,15.62-32.33,34.97-.76,3.63-1.34,8.37,1.51,11.24,11.7,1.03,25.44-5.17,35.92,2.11,7.01,4.87,4.05,6.83,5.32,13.21.67,3.38,4,4.55,1.77,9.31-.71,1.51-8.63,8.81-10.41,9.36-4.31,1.34-9.7.32-13.92.92-12.45,1.76-28.75,3.74-40.77,7.39-5.56,1.69-26.99,11.23-30.9,14.46-15.96,13.18-2.07,35.99-24.36,46.41-21.27,9.94-24.87-8.26-22.4-25.29-4.87-1.6-8.87-1.32-13.78-.08-8.05,8.26,6.04,18.58,6.43,24.13.88,12.58-13.35,22.46-22.27,14.84-10.68-10.3-20.46-21.59-30.77-32.23-8.77-9.05-24.99-16.82-15.39-31.4,11.27-17.11,26.63-17.56,45.67-16.19,4.96.36,8.34,2.69,13.47,2.55,5.08-.13,22.01-3.61,26.26-5.95,9.07-4.98,36.48-34.6,41.37-43.87,13.82-26.22-8.11-49.73-17.23-73.46-5.24-13.62-8.26-27.54-11.72-41.41-1.81-7.25-6.96-9.1-1.99-17.41,2.6-4.36,8.08-8.24,13.07-9.15,16.76-3.07,28.53-1.94,42.71,7.35,19.17,12.57,61.04,55.54,60.2,79.42-.18,5.01-2.54,14.73-5.47,18.74Z"/><path class="cls-1" d="M1026.08,559.76l12.42,3.35c9.71,4.43,28.54-.56,28.52,13.85-.01,7.89-12.17,19.13-18.91,22.69-14.43,7.61-34.7-1.55-43.11,17.1-9.26,20.53-9.43,56.45-10.89,79.07-.93,14.46-4.69,29.78-1.89,44.34,1.01,5.27,5.01,9.3,6.11,14.52,5.23,4.96,14.44.7,20.58,1.72,10.57,1.76,22.82,11.12,24.55,21.99,1.51,9.45-.98,34.2-12.21,37.59-17.52,5.29-26.39-11.93-39.22-19.84-8.67-5.35-16.83-5.16-24.15-9.04-9.8-5.19-13.06-12.23-8.82-22.6,1.62-3.96,6.86-8.63,7.63-11.92.94-4.06.53-13.41.32-18-.49-10.57-3.2-38.3-7.74-46.98-2.06-3.94-13.08-4.77-17.65-4.6-10.01.38-19.47,12.1-27.8,1.59-6.08-7.66-3.64-39.46-3.64-39.46,0,0,.03-3.65,1.2-8.72,1.17-5.07,21.92-22.3,35.18-10.32,4.23,3.83,5.01,10.61,13.05,7.96,10.01-3.3,6.36-32.31.86-38-1.03-1.07-5.04-1.93-7.04-3.4-9.63-7.12-4.32-15.34,1.77-22.38,5.14-5.94,12.57-12.32,19.97-14.34,16.03-4.38,44.03,1.54,50.91,3.83Z"/><path class="cls-1" d="M1077.63,458.66c5.93,4.9,10.98,18.2,10.32,25.9-.31,3.55-6.59,16.49-8.8,19.72-4.48,6.56-9.21,9.53-17.42,7.94-9.16-1.78-22.76-9.45-32.94-11.52-9.33-1.9-35.85.8-46.04,2.21-10.62,1.47-20,11.69-7.61,18.09,5.69,2.94,22.06-2.39,29.65-3.38,13.9-1.82,29.99-3.49,43.82-1.85,1.82.22,14.22,2.37,15.34,2.8,5.87,2.24,11.11,8.9,10.46,15.47-.27,2.72-10.63,15.81-13.15,17.83-15.63,12.55-33.43-4.06-50.56-7.12-12.26-2.19-48.36-2.5-56.8,7.22-3.53,4.06-8.86,9.79-11.93,14.01-8.02,11.01-7.44,21.26-21.52,29.13-17.83,9.97-26.08.13-34.17-22.27-5.44-15.08.88-13.86,3.81-21.68,1.96-5.25,1.18-21.35,6.51-24.37,10.74-6.1,26.19-2.01,35.68-10.02,15.2-12.83,3.71-33.48,25.61-48.51,21.97-15.07,70.82-17.4,97.37-16.24,8.07.35,16.11,1.5,22.37,6.67ZM938.81,525.12c-1.72,3.03-1.51,14.28,4.81,13.95,11.48-.6,14.88-7.99,8.55-17.41-1.77-1.24-12.42,1.81-13.36,3.46ZM915,561.91c2.28-7.65,9-7.21,8.13-16.71-.92-10.04-15.34-10.16-15.59-2.49-.09,2.9,3.44,21.93,7.46,19.2Z"/><path class="cls-1" d="M728.15,1119.98c-4.42,3.66-19.17,9.89-24.93,10.33-22.28,1.7-26.83-19.89-34.98-34.22-3.32-5.83-10.92-13.49-12.86-19.26-4.16-12.43-.87-41,7.16-51.5,10.34-13.51,18.26,4.8,27.3,9.69,2.1.39,2.33-1.49,2.97-2.88,2.42-5.19,8.94-28.31,6.71-32.83-2.33-4.18-6.29-1.53-9.43-1.96-13.1-1.77-24.27-9.51-16.15-23.63,4.32-7.52,12.89-16.94,16.55-25.45,3.2-7.44,1.16-15.31,8.8-21.46,4.33-3.48,43.75-14.47,49.49-13.93,16.59,1.56,21.28,20.36,21.75,33.93.5,14.28-1.5,22.62-11.14,33.31-9.78,10.83-20.14,11.08-30.63,26.2-8.9,12.83-5.58,14.65-7.72,28.11-1.41,8.88-5.25,19.32-4.89,28.45.65,16.24,28.26,43.64,11.99,57.11Z"/><path class="cls-1" d="M1038.74,329.8c10.26-5.49,17.8-.37,25.19,7.24,9.11,9.38,23.23,31.68,30.75,43.37,17.68,27.48,30.55,53.1,38.44,85.1,6.61,26.82,3.07,52.52.49,79.64-2.64,8.3-12.48,9.43-20.02,7.85-2.39-.5-4.84-2.62-7.75-3.36-4.69-1.19-14.82-.74-16.36-5.87-3.12-10.36,7.26-30.12,7.21-41.72-.14-29.37-25.87-71.83-44.54-93.91-6.91-8.18-22.29-19.3-24.41-29.98-1.72-8.64,8.19-15.07,9.13-25.02.31-3.23-1.06-5.62-.79-7.99.57-5.11,3.16-9.9,2.67-15.35Z"/><path class="cls-1" d="M1247.78,424.32c3.43,2.99,9.79,7.78,14.06,8.81,9.66,2.32,20.64-1.56,30,.89,1.46.38,14.39,9.39,14.86,10.16,3.14,5.15,10.73,33.49,11.64,36.23,4.67,14.1,6.3,28.85,7.75,43.55-.95,2.55-2.32,6.15-4.69,7.65-2.3,1.46-14.72,5.38-17.81,5.66-9.55.86-26.99-2.06-36.77-4.09-15.74-3.26-25.49-12.38-32.31-26.98-12.58-26.94-20.53-83.86-20.53-83.86l2.38-12.49.17-3.45c16.87-3.15,20.99,8.98,31.25,17.94Z"/><path class="cls-1" d="M1184.92,230.25c4.68,6.01,12.17,15.01,6.94,23.21-4.36,6.83-24.3-3.4-31.35-1.72-.93.22-5.19,4.7-5.54,5.26-.78,1.29-.42,5.89-.16,7.69,1.11,7.63,4.43,18.57,4.86,26.09.1,1.73-.36,11.7-.68,13.08-1.08,4.73-8.31,8.73-12.91,6.63-2.42-1.1-22.06-29.37-25.27-34.05-14.93-21.82-33.62-49.51-43.75-73.61-6.07-14.43-12.35-35.17,2.37-46.68,15.27-11.93,25.98-4.53,38.22,6.07,21.64,18.74,49.95,45.82,67.26,68.02Z"/></svg>