<svg width="52" height="43" viewBox="0 0 52 43" fill="none" xmlns="http://www.w3.org/2000/svg">
<g clip-path="url(#clip0_215_336)">
<path d="M51.9123 5.04732C51.9123 5.04732 39.0182 7.25848 25.9561 7.25848C12.894 7.25848 0 5.04732 0 5.04732V0C0 0 12.894 2.52629 25.9561 2.52629C39.0182 2.52629 51.9123 0 51.9123 0V5.04732Z" fill="#0047B8"/>
<path d="M25.3049 8.20386H0V13.2512H25.3049V8.20386Z" fill="#0047B8"/>
<path d="M51.9123 8.20386H26.6074V13.2512H51.9123V8.20386Z" fill="#0047B8"/>
<path d="M25.3049 15.1472H0V20.1945H25.3049V15.1472Z" fill="#0047B8"/>
<path d="M51.9123 15.1472H26.6074V20.1945H51.9123V15.1472Z" fill="#0047B8"/>
<path d="M25.3049 22.0906H0V27.1379H25.3049V22.0906Z" fill="#0047B8"/>
<path d="M51.9123 22.0906H26.6074V27.1379H51.9123V22.0906Z" fill="#0047B8"/>
<path d="M51.9123 29.0339H0V34.0813H51.9123V29.0339Z" fill="#0047B8"/>
<path d="M51.9123 37.2378C51.9123 37.2378 39.0182 35.0266 25.9561 35.0266C12.894 35.0266 0 37.2378 0 37.2378V42.2851C0 42.2851 12.894 39.7588 25.9561 39.7588C39.0182 39.7588 51.9123 42.2851 51.9123 42.2851V37.2378Z" fill="#0047B8"/>
</g>
<defs>
<clipPath id="clip0_215_336">
<rect width="51.9123" height="42.2903" fill="white"/>
</clipPath>
</defs>
</svg>
