<svg width="227" height="137" viewBox="0 0 227 137" fill="none" xmlns="http://www.w3.org/2000/svg">
<path d="M117.887 12.6808V18.6874L131.452 17.6196C133.855 15.0501 134.256 14.8498 134.656 14.8498C135.157 14.8498 135.657 15.0501 138.56 16.3515C139.962 16.9855 140.262 17.1858 140.262 17.4527C140.262 17.6196 140.012 17.7197 139.562 17.7531L117.887 19.455V24.861C117.887 26.8298 118.638 27.0634 125.395 27.0634C132.203 27.0634 134.506 26.8632 135.457 26.1958C136.158 25.6952 136.558 25.0278 138.21 21.5239C138.26 21.3571 138.811 21.4238 138.811 21.5907C138.711 22.792 138.661 23.9933 138.661 24.9611C138.661 25.5617 138.961 25.8287 139.511 26.0623C140.613 26.5295 140.913 26.8632 140.913 27.3637C140.913 28.2314 140.112 28.8654 138.21 29.2992C135.957 29.7998 132.103 30 126.296 30C115.084 30 113.081 29.2992 113.081 25.3281C113.081 24.3938 113.182 23.4928 113.182 19.822L101.919 20.6897C100.067 20.8565 98.9154 20.99 97.5638 21.2236L96.9131 20.0222C99.516 20.089 100.367 20.0556 101.668 19.9555L113.182 19.0545V13.0478L103.621 13.782C101.769 13.9155 100.617 14.0823 99.2658 14.3159L98.565 13.1146C101.168 13.1479 102.269 13.1146 103.32 13.0145L113.182 12.2469V6.84093C109.027 7.27475 104.672 7.54171 100.217 7.64182C99.9666 7.64182 99.8164 7.20801 100.067 7.17464C108.927 6.07342 116.736 4.53838 122.542 2.76974C125.446 1.90211 127.848 0.967743 129.6 0C133.254 1.66852 134.756 2.53615 134.756 3.03671C134.756 3.33704 134.456 3.53726 133.655 3.53726C133.254 3.53726 132.654 3.47052 131.903 3.33704C127.648 4.57175 122.943 5.57286 117.887 6.27364V11.8799L128.449 11.079C130.752 8.70968 131.152 8.50946 131.552 8.50946C132.053 8.50946 132.554 8.70968 135.257 9.87764C136.558 10.4783 136.858 10.6785 136.858 10.9455C136.858 11.1123 136.558 11.2125 136.158 11.2458L117.887 12.6808Z" fill="white"/>
<path d="M24.9681 14.3713V28.9928H36.6953C39.4944 26.4575 40.0736 26.1796 40.4114 26.1796C40.8457 26.1796 41.3766 26.4575 44.224 28.1246C45.527 28.8886 45.9131 29.2012 45.9131 29.4443C45.9131 29.6874 45.7683 29.7916 45.2857 29.7916H8.07695C6.6774 29.7916 5.08483 29.8263 3.44397 30L2.91309 28.715C4.94002 28.9234 6.48436 28.9928 8.02869 28.9928H19.9973V5.89701C19.9973 3.81317 19.9007 2.14611 19.7077 1C26.0781 1.38204 26.6572 1.76407 26.6572 2.14611C26.6572 2.52815 26.0781 2.84072 24.9681 3.11856V13.5725H32.8345C35.4406 11.1066 36.0197 10.8287 36.3575 10.8287C36.7919 10.8287 37.3227 11.1066 40.0253 12.7389C41.2318 13.4683 41.6179 13.7808 41.6179 14.024C41.6179 14.2671 41.4731 14.3713 40.9905 14.3713H24.9681Z" fill="white"/>
<path d="M63.4341 15.0782V19.7374H66.1568C68.0728 18.2626 68.6778 17.9944 69.0308 17.9944C69.4845 17.9944 70.0391 18.2626 71.9047 19.2346C72.7114 19.6704 73.1148 19.9385 73.1148 20.1732C73.1148 20.4078 72.9635 20.5084 72.4593 20.5084H63.4341V24.8324C66.9131 24.4302 70.2408 24.0279 72.4089 23.6592C72.661 23.6257 72.8122 23.9944 72.6106 24.0615C67.619 25.8045 61.1148 27.3799 52.6442 28.7877C52.3921 29.5587 52.0896 29.8939 51.4341 29.8939C50.577 29.8939 50.577 29.8268 48.9131 25.9385C50.3753 25.9385 53.0475 25.8045 56.1232 25.5363C57.0811 25.4693 58.0896 25.3687 59.098 25.2682V20.5084H52.9467C52.0391 20.5084 51.182 20.5754 49.9719 20.7095L49.4173 19.4693C50.7282 19.6704 51.7366 19.7374 52.745 19.7374H59.098V15.0782H55.0139V15.8827C55.0139 16.7877 54.1568 17.1229 52.4929 17.1229C51.182 17.1229 50.6778 16.8212 50.6778 16.1508C50.6778 14.4749 50.9299 12.4972 50.9299 5.65922C50.9299 4.11732 50.8795 2.57542 50.577 1C53.0476 1.63687 53.2492 1.73743 55.5181 2.64246H66.8122C68.6274 1.26816 69.0307 1.06704 69.4341 1.06704C69.9383 1.06704 70.2912 1.26816 72.1064 2.30726C72.8627 2.77654 73.1652 3.04469 73.1652 3.31285C73.1652 3.64804 72.9131 3.84916 71.703 4.31844V6.09497C71.703 10.8547 71.9551 14.2067 71.9551 15.2793C71.9551 16.1508 71.098 16.5196 69.4845 16.5196C68.0728 16.5196 67.5685 16.2514 67.5685 15.514V15.0782H63.4341ZM63.4341 14.3073H67.5685V9.07821H63.4341V14.3073ZM63.4341 8.30726H67.5685V3.41341H63.4341V8.30726ZM55.0139 14.3073H59.098V9.07821H55.0139V14.3073ZM55.0139 8.30726H59.098V3.41341H55.0139V8.30726ZM80.8795 12.8994H76.6442C75.7366 12.8994 74.8795 12.9665 73.6694 13.1676L73.1148 11.8603C74.4761 12.0615 75.4845 12.1285 76.4929 12.1285H90.1568C91.9719 10.7542 92.3753 10.5531 92.7786 10.5531C93.2828 10.5531 93.6358 10.7542 95.703 12.0615C96.6106 12.6648 96.9131 12.933 96.9131 13.2011C96.9131 13.6369 96.6106 13.7709 95.2996 13.9385C94.5433 14.0391 94.4425 14.0726 93.6862 14.7765C92.3248 15.8492 90.056 17.3575 88.5433 18.229C88.3417 18.3296 87.8879 18.1285 87.9887 17.9609C89.1484 16.3184 90.1568 14.3073 90.6106 12.8994H85.4677V21.7151C85.4677 24.4637 85.619 26.3743 85.619 27.7486C85.619 29.0894 85.1652 29.6592 83.9047 30.229C82.8459 30.6983 81.3837 31 79.9719 31C79.2156 31 79.1652 30.8659 78.9131 29.9274C78.6106 28.7207 77.2996 28.2514 73.1148 27.4469C72.8627 27.4134 72.8627 26.9777 73.1148 26.9777C75.7366 27.1452 78.0559 27.2793 80.0727 27.2793C80.6778 27.2793 80.8795 27.1788 80.8795 26.8101V12.8994ZM76.9971 2.64246H88.5938C90.6106 1.36872 91.0139 1.20112 91.4173 1.20112C92.0223 1.20112 92.5265 1.36872 94.4929 2.64246C95.1988 3.11173 95.6022 3.54749 95.6022 3.78212C95.6022 4.21788 95.3501 4.35196 93.8879 4.55307C93.2828 4.62011 92.9803 4.72067 92.3248 5.08939C89.2492 6.89944 87.7366 7.67039 85.9215 8.47486C86.6274 8.94413 87.0307 9.51397 87.0307 10.0838C87.0307 11.0559 85.9719 11.8603 84.5097 11.8603C83.3501 11.8603 82.9467 11.5922 82.1904 10.3855C81.182 8.7095 79.8711 7.43575 78.2072 6.53073C78.0055 6.43017 78.2072 6.26257 78.4593 6.29609C81.182 6.66481 83.2996 7.1676 84.7618 7.83799C86.3753 6.36313 87.5854 4.85475 88.5433 3.41341H77.1484C76.2912 3.41341 75.7366 3.44693 74.6778 3.61452L74.1232 2.40782C74.9299 2.5419 75.8879 2.60894 76.9971 2.64246Z" fill="white"/>
<path d="M179.29 49.7869C182.401 45.413 183.05 44.7751 183.71 44.7751C184.527 44.7751 185.187 45.413 188.539 49.2604C190.089 51.1841 190.582 51.9334 190.582 52.7839C190.582 53.9583 189.764 54.8088 187.471 55.7707C180.023 75.7267 166.605 90.5595 149.992 96.6445C149.584 96.7559 149.175 95.3688 149.5 95.1461C155.554 91.086 161.116 85.8616 165.945 79.4526C165.537 79.7766 165.044 79.9892 164.552 79.9892C163.075 79.9892 162.509 79.24 161.933 76.6784C160.949 72.4057 160.048 70.1682 158.089 67.718C155.638 70.0669 152.936 72.0919 150.065 73.9042C149.657 74.1168 149.165 73.2663 149.489 72.9424C155.303 66.4321 160.54 57.1476 163.976 48.0758C165.453 44.0259 166.595 39.8545 167.244 36.1184C174.691 39.1052 176.902 40.4923 176.902 42.092C176.902 43.3678 176.325 43.6918 173.791 44.117C172.89 46.142 171.989 47.9543 171.088 49.7768H179.269L179.29 49.7869ZM174.87 110.516C168.323 120.762 162.426 126.422 154.004 130.583C153.595 130.796 153.019 129.834 153.355 129.52C158.351 124.397 162.928 117.249 166.039 109.776C167.108 107.215 168.009 104.542 168.658 101.99C176.189 105.828 178.148 107.225 178.148 108.713C178.148 109.888 177.415 110.212 174.88 110.526L174.87 110.516ZM191.315 109.665C191.315 117.026 191.556 123.323 191.556 126.422C191.556 130.482 190.822 132.183 189.021 133.894C187.544 135.068 184.925 136.03 182.799 136.03C181.657 136.03 181.489 135.817 181.165 133.681C180.672 130.482 179.447 128.882 172.167 126.32C171.759 126.209 171.842 124.822 172.251 124.822C177.163 125.247 180.683 125.46 182.558 125.46C183.7 125.46 183.783 125.247 183.783 123.647V98.4569H163.567C162.017 98.4569 160.456 98.6695 158.33 99.0947L157.429 95.1461C159.807 95.7839 161.598 95.9966 163.4 95.9966H204.157C207.844 90.0229 208.818 89.1623 209.394 89.1623C210.127 89.1623 211.028 90.0128 214.715 93.9615C216.349 95.6726 217.009 96.6344 217.009 97.3735C217.009 98.1126 216.768 98.4366 215.941 98.4366H191.304V109.645L191.315 109.665ZM167.673 75.1901C167.673 76.1519 167.506 77.1138 167.181 77.863C169.224 74.9774 171.193 71.8894 172.995 68.6798C172.502 69.0038 172.094 69.2164 171.601 69.2164C170.533 69.2164 170.124 68.5786 169.475 66.1182C168.166 62.1696 167.432 60.4585 165.872 58.5449C163.745 61.6431 161.451 64.4173 158.917 66.8675C164.73 68.0419 167.673 71.0288 167.673 75.1901ZM169.8 52.2472C168.815 54.0596 167.757 55.7707 166.689 57.3704C172.251 58.1196 174.712 60.5698 174.712 64.6299C174.712 64.9539 174.712 65.1665 174.629 65.4804C176.755 61.3191 178.557 56.8338 180.034 52.2472H169.8ZM190.906 80.9511C194.101 75.7166 195.075 74.8661 195.651 74.8661C196.384 74.8661 197.285 75.7166 200.564 79.1387C202.041 80.6372 202.69 81.5889 202.69 82.3382C202.69 83.0874 202.449 83.4013 201.622 83.4013H179.196C177.802 83.4013 176.409 83.6139 174.534 84.0391L173.633 80.0905C175.76 80.7283 177.394 80.941 179.038 80.941H190.906V80.9511ZM210.305 48.0859C213.092 44.036 213.741 43.388 214.401 43.388C215.218 43.388 215.794 44.0259 218.905 47.8733C220.298 49.5844 220.79 50.4349 220.79 51.2854C220.79 52.5712 220.214 52.9965 218.172 53.3103C214.003 60.2458 210.483 64.4071 205.078 68.6798C210.724 75.4027 217.847 80.2018 226.677 83.4114C227.086 83.5228 227.086 84.4745 226.677 84.5859C223.975 85.3351 222.833 87.0361 221.765 91.6328C221.272 94.083 221.031 94.5183 220.288 94.5183C219.712 94.5183 217.994 93.9817 215.951 92.2807C209.645 87.1576 204.083 80.5461 199.998 72.75C196.479 66.0271 193.368 57.5931 190.749 46.709C190.582 45.9597 190.173 45.3219 189.848 45.1092C189.272 44.684 188.864 43.8335 188.864 43.3981C188.864 42.8615 191.074 41.5858 192.058 41.5858C192.551 41.5858 192.875 41.9098 192.875 42.4363C192.875 42.7603 192.467 43.8234 192.467 44.2486C192.467 44.9979 192.708 46.2736 193.2 47.6607C194.918 52.8952 199.579 61.6431 203.507 66.7662C206.21 61.9671 208.986 55.2442 210.222 50.5463H202.366C200.815 50.5463 199.255 50.7589 197.128 51.3968L196.227 47.2355C198.521 47.8733 200.155 48.0859 201.873 48.0859H210.305ZM212.599 128.76C210.63 128.76 209.572 127.586 208.095 123.526C204.984 115.305 202.69 111.255 197.38 105.382C197.055 105.058 197.38 104.208 197.788 104.319C209.08 107.306 216.936 114.565 216.936 122.25C216.936 125.986 215.134 128.76 212.599 128.76Z" fill="white"/>
<path d="M28.4842 92.7513C33.934 94.4682 34.5043 94.9965 34.5043 96.175C34.5043 97.1401 34.0924 97.5668 31.9484 98.2069C31.3675 99.2736 30.7127 100.35 30.1318 101.316H47.9597C51.4239 97.2417 52.0893 96.6017 52.7441 96.6017C53.5679 96.6017 54.2333 97.2417 57.613 100.889C59.1761 102.606 59.6725 103.347 59.6725 104.211C59.6725 105.928 59.2606 106.243 56.1238 107.208C52.6596 111.922 48.8574 116.097 44.7384 119.633C46.3015 120.273 47.8752 120.811 49.6073 121.238C57.2011 123.382 66.2734 124.448 77.3314 124.448C77.7433 124.448 77.6588 125.515 77.2469 125.627C74.522 126.694 73.1173 128.736 72.1351 132.911C71.6387 135.481 71.3113 136.02 69.9066 136.02C68.9983 136.02 67.0233 135.695 64.7103 135.166C57.9404 133.561 51.3394 131.316 44.9919 127.994C42.8479 126.816 40.7884 125.535 38.8873 124.144C28.4103 131.215 15.7787 135.065 0.517222 136.03C0.105321 136.03 -0.222087 134.74 0.189814 134.638C13.3073 131.316 24.6926 126.074 33.6066 119.328C30.5543 115.904 27.7449 112.044 25.5164 107.767C19.2429 115.366 11.4907 121.157 2.66122 124.255C2.24932 124.367 1.92191 123.615 2.24932 123.29C10.4979 116.758 16.1906 109.9 20.8165 102.199C22.6331 99.3041 24.0378 95.7686 25.1045 92.7716H21.2284V93.1983C21.2284 95.8702 19.8237 97.1605 16.2751 97.1605C13.8776 97.1605 13.1383 95.8804 13.1383 93.3101C13.1383 89.673 13.5502 86.2392 13.5502 68.1454C13.5502 61.5012 13.4657 58.0775 13.2228 51.4435C17.3523 53.3738 18.0071 53.6887 21.9677 56.4724H30.7972C31.452 53.1503 31.8745 49.7266 32.2019 46.3029H10.6563C8.34333 46.3029 6.03035 46.5162 2.97806 46.9429L2.06977 42.9808C5.53396 43.6208 8.08985 43.8342 10.6457 43.8342H62.0488C66.0094 37.9418 67.0022 37.0884 67.5725 37.0884C68.3118 37.0884 69.3046 37.9418 73.2652 41.8023C75.0818 43.6208 75.7366 44.4742 75.7366 45.226C75.7366 45.9778 75.4937 46.2927 74.6593 46.2927H41.4855C39.426 50.0415 37.0285 53.3636 34.3881 56.4622H54.6874C57.4968 52.6118 58.1516 51.9616 58.817 51.9616C59.6408 51.9616 60.3801 52.6017 63.5169 55.5987C64.9216 56.9905 65.418 57.7423 65.418 58.5957C65.418 59.5608 65.006 60.2008 63.0205 61.806V67.0584C63.0205 80.7633 63.3479 89.9778 63.3479 93.0764C63.3479 95.6467 61.9432 97.0385 58.3945 97.0385C56.335 97.0385 55.5112 95.8601 55.5112 93.7164V92.7513H28.4525H28.4842ZM55.5429 58.9106H21.2179V67.4749H55.5429V58.9106ZM55.5429 69.9436H21.2179V78.5079H55.5429V69.9436ZM55.5429 80.9767H21.2179V90.2928H55.5429V80.9767ZM28.4842 103.784C27.8294 104.638 27.2485 105.501 26.5831 106.355C29.7199 110.429 33.5115 113.639 37.4721 116.097C41.6756 112.349 45.2243 108.285 48.0336 103.784H28.4736H28.4842Z" fill="white"/>
<path d="M137.419 49.9696C140.395 45.7634 141.063 45.1187 141.719 45.1187C142.545 45.1187 143.213 45.7634 147.841 50.7269C149.992 53.1012 150.49 53.8585 150.49 54.7181C150.49 56.1202 149.166 57.0924 147.1 56.9798C144.452 56.8673 144.208 56.9798 142.217 58.9243C141.063 59.8965 139.813 60.7562 136.921 62.3731C136.508 62.588 136.18 62.2605 136.338 61.7284C137.493 57.7371 137.578 57.3073 138.33 52.4462H87.5193C87.8477 60.9711 85.1996 66.8965 80.984 66.8965C78.5054 66.8965 76.7683 64.5222 76.7683 61.1757C76.7683 58.6991 77.425 57.2971 79.4163 55.9974C83.7167 53.0807 84.8819 50.9316 85.4539 44.0237C85.5386 43.4813 86.28 43.3789 86.3648 43.9111C86.8626 45.9579 87.191 48.0149 87.3604 49.9491H108.714V43.0412C108.714 41.8541 108.714 39.8073 108.545 36.8906C118.48 38.0778 119.306 39.2649 119.306 40.3395C119.306 41.414 118.48 42.1713 116.828 42.8161V49.9389H137.429L137.419 49.9696ZM95.2198 111.24C95.3045 121.167 95.3045 126.56 95.3045 131.841C95.3045 134.543 93.811 135.832 90.6652 135.832C88.3455 135.832 87.3604 134.86 87.3604 132.486C87.3604 126.98 87.6888 121.372 87.6888 99.0413C87.6888 90.9462 87.6041 82.8614 87.3604 74.6641C91.163 76.4959 92.5718 77.4682 95.8024 79.7299H108.629V65.3819C108.629 61.9331 108.545 58.474 108.216 55.3526C118.152 56.3249 119.052 57.1845 119.052 58.0442C119.052 59.0164 118.141 59.876 116.404 60.5208V79.7196H119.794C121.944 75.0837 123.596 71.0924 125.09 66.8863C126.085 64.0822 126.911 61.2781 127.653 58.1465C134.771 62.3526 137.09 64.1845 137.09 65.6991C137.09 67.1012 136.264 67.6436 133.203 67.531C129.401 72.9243 126.668 76.1582 122.611 79.7196H129.146C131.964 75.6158 132.621 74.9711 133.288 74.9711C134.114 74.9711 134.781 75.6158 137.758 78.7474C139.082 80.1494 139.58 80.9068 139.58 81.7664C139.58 82.7386 139.167 83.4959 137.588 84.7854V91.3658C137.588 115.856 137.917 120.604 137.917 124.483C137.917 128.689 137.175 131.493 135.025 133.223C133.616 134.512 131.222 135.382 129.072 135.382C127.748 135.382 127.42 134.952 127.007 132.69C126.35 128.812 125.354 127.082 117.823 124.493C117.41 124.38 117.495 123.091 117.908 123.091C121.88 123.521 124.857 123.736 128.5 123.736C129.581 123.736 129.824 123.306 129.824 121.904V111.22H95.2304L95.2198 111.24ZM98.694 77.1509C96.6285 77.1509 95.9612 76.1787 95.1351 70.6831C94.5525 66.1494 93.811 64.2152 91.4914 59.9988C91.2478 59.569 91.4914 58.8117 91.9045 59.0266C100.092 62.4755 103.238 65.7196 103.238 71.0003C103.238 74.4491 101.247 77.1509 98.6834 77.1509H98.694ZM129.803 82.2269H95.2092V93.8731H129.803V82.2269ZM95.2198 108.764H129.814V96.36H95.2198V108.764Z" fill="white"/>
<path d="M156.75 2.82501C157.816 2.82501 158.62 3.41956 158.62 4.23314C158.62 4.92156 158.407 5.53176 158.013 6.07936C157.784 6.4001 157.453 6.72867 157.042 6.94771C156.466 7.24498 155.993 7.43273 155.432 7.43273C154.943 7.43273 154.612 7.33104 154.628 7.06506C154.643 6.89295 154.509 6.79125 154.296 6.63479C154.115 6.5018 153.854 6.34534 153.594 6.19671C153.515 6.14977 153.483 6.1263 153.483 6.10283C153.483 6.06372 153.531 6.04025 153.618 6.04025C153.704 6.04025 153.767 6.06372 153.831 6.08719C154.225 6.22018 154.454 6.29058 154.943 6.4001C155.156 6.44704 155.401 6.48616 155.567 6.48616C155.795 6.48616 155.993 6.46269 156.19 6.33752C156.569 6.10283 156.813 5.77427 157.042 5.41441C157.287 5.01544 157.437 4.48348 157.437 4.12362C157.437 3.35697 157.208 3.13011 156.466 3.13011C156.285 3.13011 155.859 3.1614 155.614 3.19269C154.88 3.96716 153.988 4.92156 153.302 5.60999C152.694 6.228 152.103 6.76778 151.676 7.11982C151.582 7.19805 151.369 7.29974 150.958 7.29974C150.651 7.29974 150.335 7.15111 150.335 6.97118C150.335 6.79125 150.469 6.67391 150.643 6.53309C152.071 5.45353 153.136 4.56171 154.265 3.39609C153.625 3.52125 153.002 3.6386 152.481 3.75594C152.268 3.80288 152.087 3.83417 152.008 3.86546C151.889 3.92023 151.7 3.93587 151.582 3.93587C151.29 3.93587 150.99 3.86546 150.666 3.71683C150.359 3.57601 150.043 3.32568 150.043 3.1614C150.043 2.98929 150.138 2.87195 150.288 2.87195C150.422 2.87195 150.438 2.91106 150.501 2.958C150.777 3.13793 151.092 3.23963 151.337 3.23963C151.826 3.23963 152.268 3.19269 152.75 3.14575C153.357 3.09099 153.981 2.99712 154.651 2.91889C155.196 2.23829 155.425 1.81585 155.425 1.62027C155.425 1.5264 155.377 1.44035 155.18 1.38559C155.014 1.33865 154.801 1.29953 154.541 1.24477C154.407 1.2213 154.296 1.21348 154.296 1.16654C154.296 1.09614 154.415 1.04137 154.572 1.01791C154.722 0.994437 155.014 0.955322 155.377 0.955322C155.866 0.955322 156.671 1.15872 157.097 1.41688C157.232 1.49511 157.247 1.56551 157.247 1.64374C157.247 1.76109 157.082 1.83932 156.869 1.9019C156.734 1.94102 156.608 2.05836 156.521 2.15224C156.372 2.32434 156.143 2.55121 155.898 2.81719C156.158 2.79372 156.569 2.79372 156.75 2.79372V2.82501ZM160.735 5.14843C160.554 5.15625 160.356 5.16408 160.246 5.16408C160.096 5.16408 160.064 5.14061 160.064 5.10932C160.064 5.07802 160.064 5.0702 160.214 5.03891C161.658 4.75728 162.195 4.60082 162.195 4.46783C162.195 4.31137 162.045 4.06104 161.706 3.80288C161.161 3.39609 160.719 3.17704 159.82 2.97365C159.654 2.94235 159.528 2.91106 159.528 2.8563C159.528 2.80154 159.607 2.77807 159.773 2.77807C159.804 2.77807 159.836 2.7859 159.891 2.7859C160.822 2.84848 161.84 3.11446 162.542 3.45867C163.497 3.9124 163.923 4.33484 163.923 4.96068C163.923 5.28924 163.513 5.39876 163.237 5.40659C162.976 5.41441 162.763 5.38312 162.566 5.2736C162.4 5.19537 162.274 5.12496 162.006 5.12496C161.43 5.12496 161.075 5.13278 160.743 5.14061L160.735 5.14843Z" fill="white"/>
<path d="M182.815 5.13185C183.208 5.26094 183.356 5.39763 183.356 5.51913C183.356 5.65581 183.257 5.75453 183.135 5.80769C183.012 5.86084 182.742 5.89122 182.553 5.89122C182.365 5.89122 182.177 5.87603 181.768 5.73934C181.26 5.57228 180.802 5.36725 179.845 5.13185C179.083 5.86084 178.175 6.36962 177.209 6.73412C176.767 6.90118 176.186 7.07583 175.122 7.28086C174.73 7.3568 174.238 7.43274 174.083 7.43274C173.985 7.43274 173.911 7.42514 173.911 7.37199C173.911 7.33402 173.927 7.30364 174.067 7.27327C174.41 7.18974 174.713 7.12139 174.934 7.05305C176.178 6.65059 176.563 6.45315 177.193 6.07347C177.758 5.73934 178.232 5.29891 178.601 4.87366C177.291 4.62307 175.949 4.4636 174.59 4.39526C173.911 4.99516 173.33 5.45078 172.741 5.75453C172.143 6.04309 171.636 6.17218 171.006 6.17218C170.498 6.17218 170.138 6.09625 169.885 5.97475C169.647 5.86084 169.475 5.69378 169.475 5.44319C169.475 5.04832 169.95 4.66863 171.006 4.36489C171.751 4.15226 172.675 4.03076 173.739 4.00798C174.525 3.19546 175.114 2.4209 175.556 1.76025C175.589 1.7071 175.458 1.69191 175.335 1.7071C174.108 1.90453 173.584 2.02603 173.363 2.10956C173.191 2.17031 173.003 2.19309 172.888 2.19309C172.683 2.19309 172.364 2.13234 172.127 1.98806C171.808 1.79822 171.48 1.54004 171.48 1.41094C171.48 1.35019 171.497 1.26666 171.595 1.19832C171.644 1.16035 171.734 1.1072 171.816 1.1072C171.914 1.1072 171.971 1.16035 172.07 1.25148C172.274 1.39576 172.446 1.53244 172.872 1.53244C173.215 1.53244 173.633 1.49447 174.5 1.38057C175.163 1.29704 175.556 1.18313 175.671 1.08441C175.753 1.01607 175.908 0.955322 176.162 0.955322C176.538 0.955322 176.906 1.05404 177.267 1.16795C177.438 1.2211 177.553 1.29704 177.553 1.39576C177.553 1.52485 177.414 1.578 177.127 1.81341C176.874 2.01844 176.62 2.25384 176.244 2.64871C175.802 3.10434 175.442 3.49161 174.934 4.02317C176.293 4.06114 177.668 4.17504 178.944 4.34211C179.231 3.8637 179.354 3.52958 179.354 3.29418C179.354 3.07396 179.182 2.97524 178.641 2.86893C178.543 2.84615 178.486 2.86134 178.486 2.81578C178.486 2.77021 178.789 2.64112 179.165 2.64112C179.452 2.64112 180.033 2.73984 180.442 2.88412C181.089 3.10434 181.187 3.20305 181.187 3.33974C181.187 3.42327 181.121 3.48402 181.015 3.53717C180.892 3.60552 180.794 3.65867 180.761 3.72702C180.573 4.07633 180.458 4.28136 180.286 4.56232C181.424 4.76735 182.226 4.94201 182.783 5.13185H182.815ZM171.292 4.64585C170.597 4.8281 170.22 5.10147 170.22 5.32928C170.22 5.45078 170.269 5.51913 170.376 5.58747C170.531 5.67859 170.736 5.70897 170.94 5.70897C171.259 5.70897 171.669 5.61785 172.045 5.41282C172.553 5.13185 172.962 4.79013 173.387 4.38767C172.438 4.41045 171.808 4.51676 171.3 4.64585H171.292Z" fill="white"/>
<path d="M195.671 2.12877C195.671 2.36346 195.52 2.76712 195.305 3.1614C195.091 3.57445 194.741 4.07199 194.264 4.56014C193.756 5.1234 193.096 5.78052 192.436 6.18419C192.071 6.41888 191.641 6.58785 191.069 6.58785C190.656 6.58785 190.195 6.4752 189.814 6.20296C189.217 5.80869 188.907 5.32053 188.907 4.42872C188.907 3.94995 189.17 3.3867 189.615 2.94548C190.195 2.34468 190.934 1.92224 191.84 1.58429C192.961 1.17124 194.264 0.955322 195.838 0.955322C197.634 0.955322 198.922 1.24634 199.931 1.71571C201.139 2.28836 201.862 3.06752 201.862 4.19403C201.862 5.02952 201.25 5.7242 200.344 6.20296C199.502 6.64418 198.794 6.87887 197.904 7.06662C196.847 7.29192 195.56 7.41396 194.519 7.43273C194.272 7.43273 194.153 7.41396 194.153 7.33886C194.153 7.26376 194.248 7.24498 194.463 7.21682C196.41 6.96336 197.714 6.52214 198.707 5.94011C199.732 5.32054 200.193 4.70096 200.193 3.67771C200.193 2.98303 199.812 2.28835 198.739 1.84714C197.896 1.4998 196.959 1.35899 196.1 1.32144C195.854 1.31205 195.361 1.31205 195.059 1.32144C195.369 1.52796 195.671 1.84714 195.671 2.11938V2.12877ZM191.657 2.16632C190.918 2.56059 190.537 2.94548 190.259 3.36792C190.092 3.612 189.98 3.93118 189.98 4.29729C189.98 4.71034 190.076 5.0483 190.394 5.3487C190.608 5.54584 190.902 5.66787 191.117 5.66787C191.379 5.66787 191.626 5.574 192.253 5.0483C193.175 4.2879 194.066 3.28344 194.463 2.66386C194.693 2.32591 194.813 2.07244 194.813 1.83775C194.813 1.60306 194.693 1.48103 194.519 1.39654C193.263 1.4998 192.238 1.86592 191.665 2.1757L191.657 2.16632Z" fill="white"/>
<path d="M210.941 5.28972C211.438 4.73411 211.711 4.39281 212.103 3.9007C212.168 3.82132 212.224 3.78958 212.304 3.78958C212.368 3.78958 212.384 3.82132 212.384 3.86101C212.384 3.91657 212.352 4.00388 212.232 4.26581C212.063 4.63093 211.967 4.87698 211.799 5.23416C211.687 5.48815 211.582 5.69452 211.582 5.86121C211.582 5.95645 211.598 6.0517 211.63 6.14695C211.662 6.25013 211.678 6.30569 211.678 6.38507C211.678 6.54381 211.542 6.73431 211.165 6.73431C210.812 6.73431 210.452 6.59143 210.099 6.3295C209.602 5.95645 209.265 5.48022 209.265 4.63886C209.265 4.07532 209.417 3.40859 209.602 2.82123C209.722 2.46405 209.77 2.35293 209.818 2.20212C209.898 1.97988 209.954 1.84494 209.954 1.61476C209.954 1.38458 209.754 1.19409 209.457 1.00359C209.377 0.94803 209.321 0.924218 209.321 0.884532C209.321 0.836908 209.441 0.805159 209.538 0.805159C209.971 0.805159 210.652 1.05121 211.037 1.27346C211.406 1.48776 211.622 1.72588 211.622 1.89257C211.622 2.05925 211.486 2.13862 211.358 2.22593C211.262 2.28943 211.077 2.41643 210.989 2.5593C210.54 3.3054 210.275 3.85307 210.275 4.40075C210.275 4.73411 210.323 5.0516 210.572 5.32147C210.668 5.40084 210.837 5.40084 210.941 5.28972ZM219.681 2.27356C219.898 2.21799 220.194 2.20212 220.627 2.23387C221.076 2.26562 221.445 2.39261 221.445 2.63073C221.445 2.78948 221.277 2.8371 220.892 2.86091C220.659 2.87679 220.363 2.87679 219.946 2.88473C219.513 2.89266 219.2 2.90854 218.847 2.93235C218.863 3.40065 218.863 3.92451 218.863 4.25787C218.863 5.22622 218.478 5.78183 217.877 6.21838C217.147 6.74224 215.88 7.15498 214.116 7.38516C213.868 7.41691 213.635 7.43279 213.531 7.43279C213.394 7.43279 213.33 7.41691 213.33 7.36135C213.33 7.30579 213.483 7.28991 213.627 7.25817C215.078 6.96449 216.225 6.43269 216.77 5.9247C217.3 5.43259 217.54 4.79761 217.516 4.00388C217.516 3.71814 217.532 3.26572 217.516 3.05141C216.979 3.09109 216.401 3.13078 216.201 3.14666C215.664 3.18634 215.351 3.22603 215.038 3.22603C214.485 3.22603 213.956 3.10697 213.427 2.86091C213.194 2.75773 213.114 2.70217 213.114 2.63867C213.114 2.59898 213.162 2.57517 213.234 2.57517C213.314 2.57517 213.386 2.59898 213.451 2.61486C213.747 2.67836 214.285 2.72598 214.862 2.72598C215.311 2.72598 216.241 2.65454 217.524 2.54342C217.524 2.27356 217.508 1.92432 217.492 1.57507C217.476 1.38458 217.476 1.27346 217.34 1.16234C217.275 1.10678 217.075 1.05915 216.891 1.01947C216.706 0.987716 216.506 0.971842 216.337 0.955967C216.241 0.94803 216.169 0.940093 216.169 0.892469C216.169 0.86072 216.217 0.813096 216.417 0.733723C216.65 0.654351 216.899 0.59879 217.251 0.59879C217.564 0.59879 217.917 0.654351 218.35 0.789284C218.815 0.932155 219.232 1.09884 219.232 1.2814C219.232 1.36077 219.2 1.41633 219.064 1.48776C218.967 1.54333 218.911 1.61476 218.895 1.71001C218.847 1.98781 218.831 2.19418 218.831 2.39261C219.2 2.35293 219.448 2.32912 219.665 2.26562L219.681 2.27356ZM221.132 0.836908C221.581 1.01153 221.718 1.13852 221.718 1.31314C221.718 1.44808 221.581 1.59889 221.221 1.59889C221.036 1.59889 220.836 1.57507 220.651 1.40839C220.298 1.09884 220.034 0.908344 219.601 0.6861C219.537 0.654351 219.416 0.614664 219.416 0.582915C219.416 0.551166 219.448 0.543229 219.497 0.535291C219.561 0.535291 219.713 0.535291 219.761 0.535291C220.298 0.59879 220.764 0.701974 221.124 0.836908H221.132ZM222.56 0.30511C222.896 0.408295 223.145 0.559103 223.145 0.725786C223.145 0.892469 222.961 1.01153 222.632 1.01153C222.431 1.01153 222.247 0.979779 222.063 0.828971C221.71 0.543229 221.365 0.360671 220.9 0.186051C220.836 0.162239 220.699 0.122553 220.699 0.0908039C220.699 0.066992 220.715 0.0511175 220.748 0.0431802C220.812 0.0273057 220.884 0.0273057 221.012 0.0352429C221.614 0.066992 222.03 0.138428 222.56 0.30511Z" fill="white"/>
<path d="M157.562 17.2581C157.562 17.4609 157.373 17.5708 156.904 17.6722C156.398 17.7651 155.567 17.875 154.585 18.0018C153.708 19.151 152.809 20.2834 152.061 21.1707C151.781 21.4919 151.608 21.644 151.434 21.72C151.32 21.7623 151.139 21.7876 151.026 21.7876C150.791 21.7876 150.633 21.7369 150.542 21.6778C150.451 21.6271 150.323 21.551 150.323 21.3989C150.323 21.2468 150.603 21.0186 150.844 20.8243C151.736 20.0468 152.605 19.2186 153.436 18.1623C153.058 18.1877 152.371 18.2384 152.008 18.2384C151.585 18.2384 151.252 18.213 150.988 18.1285C150.61 18.0187 150.285 17.8412 150.058 17.5708C150.013 17.5116 149.998 17.4694 149.998 17.4187C149.998 17.368 150.074 17.368 150.111 17.368C150.157 17.368 150.187 17.3764 150.285 17.4187C150.519 17.5201 150.739 17.5961 150.988 17.6299C151.335 17.6722 151.57 17.6722 151.759 17.6722C152.28 17.6722 153.058 17.6046 153.874 17.5032C154.298 16.8694 154.396 16.5905 154.396 16.3961C154.396 16.1849 154.282 16.1342 153.451 15.9567C153.376 15.9398 153.323 15.9144 153.323 15.8806C153.323 15.8468 153.383 15.7961 153.481 15.7708C153.685 15.7116 153.889 15.6863 154.169 15.6863C154.638 15.6863 155.348 15.8299 155.741 15.9736C156.073 16.0919 156.088 16.1933 156.088 16.2947C156.088 16.3877 156.028 16.4637 155.884 16.5229C155.665 16.6158 155.507 16.768 155.098 17.3342C155.635 17.2412 155.854 17.1651 156.134 17.0722C156.398 16.9877 156.64 16.9623 156.791 16.9623C157.297 16.9792 157.577 17.1567 157.577 17.275L157.562 17.2581ZM158.023 18.3229C157.773 18.3144 157.456 18.3229 157.282 18.3229C157.154 18.3313 157.063 18.3398 156.988 18.3398C156.897 18.3398 156.829 18.3229 156.829 18.2806C156.829 18.2299 156.904 18.1961 157.018 18.1708C157.539 18.0271 158.151 17.9933 158.65 17.9933C159.526 17.9933 160.577 18.137 161.302 18.382C161.854 18.5679 162.028 18.7708 162.028 18.9482C162.028 19.151 161.869 19.2863 161.476 19.2863C161.287 19.2863 161.007 19.2102 160.864 19.1426C160.267 18.8722 159.934 18.8384 159.64 18.8384C159.322 18.8384 159.156 18.8722 158.937 18.9482C158.529 19.0834 158.355 19.2524 158.355 19.5651C158.355 19.7848 158.484 20.3933 158.892 21.1961C161.31 21.6524 161.952 22.0074 161.952 22.3538C161.952 22.5397 161.808 22.7257 161.34 22.7426C161.121 22.751 160.803 22.7003 160.433 22.4975C160.214 22.3876 159.746 22.1172 158.96 21.8806C158.975 22.2947 158.695 22.6581 158.174 22.844C157.69 23.0299 157.108 23.089 156.353 23.089C155.597 23.089 154.94 22.9285 154.562 22.7595C154.184 22.5904 153.935 22.3538 153.935 22.0919C153.935 21.7792 154.23 21.5172 154.592 21.3651C155.159 21.1369 155.847 21.0524 156.474 21.0524C156.723 21.0524 157.244 21.0524 157.607 21.0947C157.547 20.6299 157.494 20.1651 157.494 19.7848C157.494 19.0327 158.544 18.7032 159.579 18.5764C159.096 18.3989 158.529 18.3313 158.023 18.3144V18.3229ZM156.262 21.5003C155.695 21.5003 155.197 21.5341 154.91 21.644C154.675 21.7285 154.517 21.8806 154.517 22.0158C154.517 22.1933 154.675 22.3285 154.91 22.4214C155.174 22.5059 155.582 22.5651 156.02 22.5651C156.519 22.5651 157.071 22.5059 157.335 22.3538C157.584 22.2017 157.683 22.0327 157.683 21.7876C157.683 21.7538 157.683 21.7116 157.668 21.6609C157.071 21.551 156.663 21.5088 156.255 21.5088L156.262 21.5003Z" fill="white"/>
<path d="M177.674 17.5369C179.021 17.5369 179.898 17.6684 180.88 18.0243C181.976 18.4343 182.43 18.8753 182.43 19.587C182.43 20.4303 181.416 20.9873 180.287 21.3199C179.24 21.6371 178.331 21.7919 177.3 21.9156C176.05 22.0626 174.313 22.1709 173.234 22.1632C172.966 22.1632 172.828 22.1245 172.828 22.0704C172.828 22.0239 172.909 21.993 173.201 21.9775C174.889 21.8847 176.334 21.6603 177.739 21.3045C179.557 20.8325 180.807 20.0821 180.807 19.3317C180.807 18.8598 180.523 18.5735 179.979 18.3182C179.435 18.0629 178.664 17.9082 177.536 17.9082C176.172 17.9082 174.638 18.3028 172.698 19.0068C171.805 19.3317 171.618 19.4477 171.432 19.5638C171.164 19.7263 170.977 19.7572 170.652 19.7572C170.149 19.7572 169.459 19.5406 169.037 19.2853C168.696 19.0841 168.55 18.9604 168.55 18.8134C168.55 18.6741 168.615 18.5813 168.721 18.5813C168.769 18.5813 168.842 18.5967 168.972 18.6509C169.346 18.7979 169.581 18.883 169.914 18.883C170.035 18.883 170.23 18.8675 170.417 18.8288C170.571 18.7979 170.855 18.7437 171.326 18.6277C172.706 18.3028 173.639 18.1016 174.11 18.001C175.393 17.7225 176.643 17.5446 177.665 17.5446L177.674 17.5369Z" fill="white"/>
<path d="M201.048 22.0016C201.574 22.1725 201.862 22.3434 201.862 22.522C201.862 22.6851 201.582 22.8715 201.277 22.8715C200.947 22.8715 200.574 22.8094 200.252 22.6929C199.124 22.289 198.175 21.9783 196.963 21.7997C196.98 21.8618 196.98 21.9007 196.98 21.9706C196.98 22.6463 196.03 23.089 194.089 23.089C193.301 23.089 192.309 23.0424 191.64 22.8327C191.08 22.6541 190.758 22.4444 190.758 22.1259C190.758 21.8463 191.199 21.5667 191.741 21.4347C192.53 21.2405 193.538 21.1706 194.31 21.1706C194.784 21.1706 195.225 21.1706 195.505 21.1939C195.378 19.9512 195.31 19.1047 195.327 17.9241C195.327 17.5513 195.344 17.2795 195.132 17.1475C195.047 17.0931 194.903 17.031 194.691 16.9999C194.428 16.9611 194.267 16.9455 194.166 16.9378C194.038 16.93 193.937 16.9067 193.937 16.8756C193.937 16.8213 194.064 16.7824 194.132 16.7514C194.411 16.6659 194.7 16.6116 195.064 16.6116C195.488 16.6116 196.047 16.697 196.7 16.9378C197.285 17.1475 197.319 17.2251 197.319 17.3261C197.319 17.4038 197.302 17.4814 197.09 17.5746C196.895 17.6601 196.683 18.0484 196.649 18.4134C196.649 18.4833 196.717 18.5144 196.98 18.5144C197.293 18.5144 197.565 18.4833 198.039 18.3901C198.395 18.328 198.607 18.2659 198.938 18.1571C199.294 18.0329 199.624 17.9863 199.938 17.9863C200.642 17.9863 201.116 18.1183 201.116 18.3202C201.116 18.4678 200.972 18.561 200.726 18.5998C200.43 18.6542 199.989 18.7319 199.192 18.8173C198.573 18.8872 198.065 18.9416 197.709 18.9416C197.302 18.9416 196.844 18.8639 196.598 18.7474C196.581 19.6095 196.666 20.3396 196.895 21.2638C198.582 21.4269 199.972 21.6677 201.015 22.0094L201.048 22.0016ZM194.106 21.6055C193.225 21.6055 192.665 21.6288 192.165 21.6987C191.657 21.7686 191.394 21.9317 191.394 22.0715C191.394 22.2502 191.555 22.3201 191.724 22.39C192.08 22.522 192.64 22.5842 193.716 22.5842C194.403 22.5842 194.878 22.4832 195.191 22.3356C195.352 22.2657 195.471 22.1492 195.505 22.0638C195.539 21.9706 195.556 21.7609 195.556 21.691C195.064 21.6444 194.674 21.6133 194.098 21.6133L194.106 21.6055Z" fill="white"/>
<path d="M213.916 20.7273C213.823 20.9037 213.707 21.1305 213.707 21.1893C213.707 21.2565 213.738 21.3405 213.815 21.4245C213.877 21.4833 214.071 21.6429 214.071 21.8025C214.071 21.9705 213.877 22.1636 213.459 22.1636C212.941 22.1636 212.446 22.046 211.919 21.7857C211.246 21.4581 210.519 20.9205 210.248 20.0806C210.101 19.6774 210.039 19.1314 210.039 18.6527C210.039 18.2747 210.07 17.8715 210.039 17.4431C210.023 17.2499 209.892 17.0651 209.381 16.788C209.304 16.746 209.265 16.746 209.265 16.6956C209.265 16.6284 209.327 16.6116 209.605 16.6116C209.946 16.6116 210.379 16.746 210.766 16.9224C211.347 17.1827 211.679 17.4431 211.679 17.6867C211.679 17.7959 211.664 17.9135 211.532 18.0311C211.37 18.2915 211.262 18.7282 211.262 19.2826C211.262 19.837 211.409 20.2066 211.617 20.5005C211.795 20.7525 212.051 20.9289 212.322 20.9289C212.438 20.9289 212.577 20.8701 212.709 20.7693C213.204 20.3913 213.622 19.9966 214.512 19.2406C214.643 19.1398 214.752 19.0642 214.837 19.0642C214.922 19.0642 214.999 19.081 214.999 19.123C214.999 19.165 214.968 19.2238 214.937 19.2658C214.473 19.8622 214.133 20.3241 213.924 20.7273H213.916ZM219.488 17.9723C220.44 18.2663 221.175 18.6694 221.639 19.1398C222.042 19.5514 222.22 20.0134 222.22 20.2822C222.22 20.5509 222.204 20.7441 221.98 20.9121C221.817 21.0381 221.693 21.0969 221.415 21.0969C221.136 21.0969 220.982 21.0717 220.819 20.9289C220.533 20.6853 220.161 20.5341 219.132 20.4921C218.938 20.4921 218.892 20.4585 218.892 20.4081C218.892 20.3577 219.039 20.3409 219.194 20.3158C219.627 20.2486 220.061 20.1646 220.316 20.1058C220.571 20.047 220.571 19.9462 220.571 19.8958C220.571 19.669 220.3 19.1986 219.797 18.787C219.364 18.4259 218.815 18.1319 218.126 17.8967C218.01 17.8547 217.917 17.8295 217.917 17.7707C217.917 17.7287 217.979 17.7119 218.064 17.7119C218.288 17.7119 218.884 17.7875 219.48 17.9723H219.488Z" fill="white"/>
<path d="M174.351 33.8403C173.471 33.8403 172.683 33.6411 172.235 33.1515C172.204 33.1183 172.158 33.0851 172.158 33.0436C172.158 33.0104 172.22 32.9689 172.305 32.9689C172.366 32.9689 172.382 32.9855 172.451 33.0187C172.837 33.2428 173.463 33.3258 174.444 33.3258C175.278 33.3258 176.513 33.2345 177.733 33.1266V32.2801C177.733 32.0311 177.718 31.9149 177.586 31.8485C177.455 31.7904 177.301 31.7655 177.139 31.7489C177.007 31.7323 176.915 31.724 176.768 31.7157C176.706 31.7157 176.675 31.6991 176.675 31.6576C176.675 31.6079 176.737 31.5664 176.868 31.4917C177 31.417 177.27 31.3423 177.509 31.3423C177.926 31.3423 178.343 31.4253 178.745 31.5581C179.324 31.7406 179.432 31.89 179.432 31.9979C179.432 32.1224 179.301 32.1888 179.208 32.2386C179.077 32.305 178.938 32.3631 178.907 32.5622C178.876 32.7697 178.845 32.8776 178.83 33.0353C179.44 32.9855 179.934 32.9357 180.405 32.8776C180.76 32.8361 181 32.8112 181.316 32.7199C181.478 32.6701 181.586 32.6369 182.104 32.6369C182.698 32.6369 183.262 32.861 183.262 33.0768C183.262 33.3341 183.054 33.3839 182.204 33.4253C181.115 33.4751 179.818 33.5498 178.791 33.6245C178.776 34.0395 178.776 34.4627 178.791 34.9192C179.386 34.8694 179.818 34.8196 180.189 34.7366C180.413 34.6868 180.382 34.6287 180.251 34.4627C180.204 34.3963 180.057 34.2802 179.88 34.1391C179.818 34.0644 179.911 34.0229 180.058 34.0893C180.343 34.1972 180.668 34.3133 180.938 34.3963C181.239 34.4876 181.386 34.471 181.532 34.471C182.011 34.471 182.289 34.5789 182.289 34.7781C182.289 34.9607 181.934 35.0354 181.424 35.1433C180.706 35.2926 179.725 35.4254 178.83 35.4918C178.845 35.8653 178.946 36.4794 178.992 36.828C180.305 36.9939 181.494 37.3508 182.227 37.5832C182.745 37.7492 183.193 37.9483 183.193 38.2637C183.193 38.4546 182.953 38.6455 182.583 38.6455C182.42 38.6455 182.243 38.6289 181.988 38.5044C180.768 37.9234 179.888 37.6247 179.1 37.4587C179.177 38.2388 178.444 38.745 176.598 38.745C176.019 38.745 175.154 38.6869 174.559 38.4546C174.142 38.2886 173.787 38.0645 173.787 37.7077C173.787 37.4338 174.088 37.2014 174.59 37.0188C174.976 36.8778 175.471 36.8114 176.112 36.7616C176.559 36.7284 177.231 36.7367 177.826 36.7616C177.826 36.3549 177.81 35.94 177.78 35.5748C177.363 35.5914 176.753 35.5914 176.482 35.5914C174.892 35.5914 174.189 35.3092 174.189 34.8777C174.189 34.5623 174.544 34.3216 174.799 34.164C174.976 34.0644 175.247 33.9565 175.586 33.8237C175.316 33.832 174.783 33.8403 174.382 33.8403H174.351ZM175.973 37.1765C175.478 37.2014 175.077 37.2346 174.737 37.3425C174.498 37.4255 174.336 37.55 174.336 37.6994C174.336 37.8404 174.529 37.9981 174.853 38.0894C175.177 38.1807 175.656 38.1973 176.235 38.1973C176.814 38.1973 177.293 38.1226 177.563 37.9566C177.849 37.7741 177.818 37.4919 177.818 37.2761C177.131 37.1931 176.521 37.1516 175.973 37.1848V37.1765ZM175.301 34.1889C175.077 34.3299 174.853 34.4627 174.853 34.6619C174.853 34.8777 175.208 35.0437 176.135 35.0437C176.567 35.0437 177.131 35.0271 177.741 34.9939C177.741 34.5374 177.741 34.1723 177.725 33.7158C177.2 33.749 176.814 33.7822 176.22 33.8237C175.88 33.9067 175.517 34.0644 175.309 34.1889H175.301Z" fill="white"/>
<path d="M199.786 33.1931C201.134 33.1931 202.011 33.3246 202.994 33.6805C204.091 34.0905 204.545 34.5315 204.545 35.2432C204.545 36.0865 203.53 36.6435 202.401 36.9762C201.354 37.2934 200.444 37.4481 199.412 37.5719C198.162 37.7189 196.424 37.8272 195.352 37.8194C195.084 37.8194 194.945 37.7808 194.945 37.7266C194.945 37.6802 195.027 37.6492 195.319 37.6338C197.008 37.5409 198.454 37.3166 199.859 36.9607C201.678 36.4888 202.929 35.7384 202.929 34.9879C202.929 34.516 202.645 34.2298 202.101 33.9745C201.557 33.7192 200.785 33.5645 199.656 33.5645C198.292 33.5645 196.757 33.959 194.816 34.663C193.922 34.9879 193.735 35.104 193.549 35.22C193.281 35.3825 193.094 35.4134 192.769 35.4134C192.265 35.4134 191.575 35.1968 191.153 34.9415C190.811 34.7404 190.665 34.6166 190.665 34.4696C190.665 34.3304 190.73 34.2375 190.836 34.2375C190.885 34.2375 190.958 34.253 191.088 34.3071C191.461 34.4541 191.697 34.5392 192.03 34.5392C192.152 34.5392 192.347 34.5238 192.533 34.4851C192.688 34.4541 192.972 34.4 193.443 34.2839C194.824 33.959 195.758 33.7579 196.229 33.6573C197.512 33.3788 198.763 33.2009 199.786 33.2009V33.1931Z" fill="white"/>
<path d="M216.098 33.5986C216.416 33.1423 216.726 32.8465 217.027 32.6268C217.402 32.3648 217.908 32.2212 218.47 32.2212C219.131 32.2212 219.856 32.4071 220.37 32.8465C220.908 33.3113 221.202 34.0042 221.202 34.6634C221.202 35.6521 220.859 36.3789 220.036 36.9958C219.343 37.5112 218.78 37.7817 217.834 38.0859C216.905 38.3817 215.919 38.5676 214.924 38.7028C214.687 38.7366 214.549 38.745 214.435 38.745C214.296 38.745 214.215 38.7281 214.215 38.6605C214.215 38.6014 214.312 38.5929 214.516 38.5507C216.359 38.1788 217.712 37.6211 218.527 36.9535C219.31 36.3113 219.595 35.7113 219.595 34.562C219.595 33.9197 219.481 33.4296 219.253 33.1085C219 32.7282 218.642 32.6014 218.201 32.6014C217.402 32.6014 216.815 32.931 216 34.7141C215.813 35.1197 215.698 35.3732 215.682 35.6521C215.666 35.9479 215.764 36.1 215.764 36.2437C215.764 36.4803 215.592 36.5648 215.168 36.5648C214.696 36.5648 214.272 36.2859 214.068 35.9225C213.848 35.5423 213.831 35.2211 213.831 34.7479C213.831 34.1817 214.019 33.5141 214.239 32.838C214.321 32.5676 214.378 32.3564 214.378 32.0859C214.378 31.8831 214.239 31.7395 213.937 31.5536C213.872 31.5113 213.799 31.4859 213.799 31.4437C213.799 31.393 213.954 31.3423 214.174 31.3423C214.272 31.3423 214.443 31.3676 214.663 31.4437C215.209 31.6465 215.527 31.8493 215.78 32.1197C215.919 32.2634 215.984 32.3902 215.984 32.5C215.984 32.6352 215.919 32.7028 215.764 32.7789C215.65 32.838 215.527 32.9733 215.478 33.0409C215.071 33.6662 214.867 34.1394 214.867 34.5704C214.867 34.8155 214.867 34.9676 214.916 35.0775C214.948 35.1451 215.087 35.1366 215.136 35.0606C215.56 34.3592 215.813 34.0127 216.098 33.6324V33.5986Z" fill="white"/>
</svg>
